<svg id="Manzana 23" data-desarrollo="villa-toscana3" data-name="Manzana 23" xmlns="http://www.w3.org/2000/svg" xmlns:xlink="http://www.w3.org/1999/xlink" width="6000" height="5500" viewBox="0 0 6000 5500">
  <defs>
    <style>
      @import url(./css/mapas.css);
    </style>
    <filter id="filter" filterUnits="userSpaceOnUse">
      <feComposite result="composite" operator="in" in2="SourceGraphic"/>
      <feBlend result="blend" in2="SourceGraphic"/>
    </filter>
  </defs>
    <g class="cls-1" id="map" pointer-events="all">    
    <path id="M23-L1" class="cls-2" d="M1565.87,3112.5l46.69,61.1,9.22,1.58,11.63-43.46Z"/>
    <path id="M23-L2" class="cls-2" d="M1633.41,3131.72l-67.54-19.22-8.59-11.69s-0.69-14.12,12.51-12.28c6.19,0.86,70.32,20.05,70.32,20.05Z"/>
    <path id="M23-L3" class="cls-2" d="M1621.78,3175.18l18.33-66.6,23.11,5.78L1644,3181.9Z"/>
    <path id="M23-L4" class="cls-2" d="M1662.3,3114.38L1644,3181.9l23.14,6.69,20.13-67.56Z"/>
    <path id="M23-L5" class="cls-2" d="M1687.27,3121.03l23.13,6.69-19.21,67.54-24.97-6.64Z"/>
    <path id="M23-L6" class="cls-2" d="M1709.48,3127.75l24.97,6.64-19.21,67.54-23.14-6.69Z"/>
    <path id="M23-L7" class="cls-2" d="M1714.32,3201.95l19.22-67.54,24.05,6.67-18.3,67.52Z"/>
    <path id="M23-L8" class="cls-2" d="M1738.37,3208.62l24.05,6.67,19.22-67.54-24.97-6.64Z"/>
    <path id="M23-L9" class="cls-2" d="M1781.64,3147.75l-20.11,68.48,24.05,6.67,19.19-68.46Z"/>
    <path id="M23-L10" class="cls-2" d="M1804.77,3154.44l-19.19,68.46,24.03,5.75,18.29-67.51Z"/>
    <path id="M23-L11" class="cls-2" d="M1827.9,3161.14l-18.27,68.43,23.14,6.69,19.19-68.46Z"/>
    <path id="M23-L12" class="cls-2" d="M1832.77,3236.26l19.21-67.54,24.05,6.67-20.16,66.65Z"/>
    <path id="M23-L13" class="cls-2" d="M1876.03,3175.39l-20.13,67.57,24.03,5.75,19.24-66.63Z"/>
    <path id="M23-L14" class="cls-2" d="M1899.17,3182.08l-19.22,67.54,23.13,6.7,20.14-67.57Z"/>
    <path id="M23-L15" class="cls-2" d="M1923.22,3188.75l23.13,6.69-19.21,67.55-24.06-6.67Z"/>
    <path id="M23-L16" class="cls-2" d="M1946.35,3195.44l-19.21,67.55,23.13,6.69,20.13-67.57Z"/>
    <path id="M23-L17" class="cls-2" d="M1970.4,3202.11l-20.13,67.57,24.05,6.67,20.13-67.57Z"/>
    <path id="M23-L18" class="cls-2" d="M1974.32,3276.35l24.05,6.67,19.22-67.55-23.14-6.69Z"/>
    <path id="M23-L19" class="cls-2" d="M1998.37,3283.02l18.3-67.52,24.05,6.67-20.13,67.57Z"/>
    <path id="M23-L20" class="cls-2" d="M2040.72,3222.17l-21.05,67.59,24.97,6.64,20.13-67.56Z"/>
    <path id="M23-L21" class="cls-2" d="M2044.64,3296.4l20.13-67.56,23.14,6.69-19.22,67.54Z"/>
    <path id="M23-L22" class="cls-2" d="M2087.91,3235.53l-19.22,67.54,23.13,6.7,19.22-67.55Z"/>
    <path id="M23-L23" class="cls-2" d="M2091.82,3309.77l23.14,6.69,19.21-67.54-23.13-6.7Z"/>
    <path id="M23-L24" class="cls-2" d="M2134.17,3248.92l-19.21,67.54,24.05,6.67,19.21-67.54Z"/>
    <path id="M23-L25" class="cls-2" d="M2158.22,3255.59l-19.21,67.54,23.13,6.69,19.22-67.54Z"/>
    <path id="M23-L26" class="cls-2" d="M2162.14,3329.82l23.14,6.69,20.13-67.56-24.05-6.67Z"/>
    <path id="M23-L27" class="cls-2" d="M2205.41,3268.95l-20.13,67.56,24.05,6.67,19.21-67.54Z"/>
    <path id="M23-L28" class="cls-2" d="M2228.54,3275.64l-19.21,67.54,23.13,6.7,20.13-67.57Z"/>
    <path id="M23-L29" class="cls-2" d="M2252.59,3282.31l-20.13,67.57,24.05,6.66,19.22-67.54Z"/>
    <path id="M23-L30" class="cls-2" d="M2275.73,3289l-19.22,67.54,31.49,10.13,13.64-70.13Z"/>
    <path id="M23-L31" class="cls-2" d="M2284.8,3383.29l-13.69,68.3-29.58-7.43,19.22-67.54Z"/>
    <path id="M23-L32" class="cls-2" d="M2260.75,3376.62l-23.14-6.7-19.21,67.55,23.13,6.69Z"/>
    <path id="M23-L33" class="cls-2" d="M2237.61,3369.92l-24.07-7.58-18.28,68.43,23.14,6.7Z"/>
    <path id="M23-L34" class="cls-2" d="M2196.18,3430.75l-24.99-7.56,20.16-66.65,22.19,5.8Z"/>
    <path id="M23-L35" class="cls-2" d="M2171.19,3423.19l-23.11-5.78,18.27-68.43,25,7.56Z"/>
    <path id="M23-L36" class="cls-2" d="M2166.35,3348.98l-24.05-6.67-17.38,67.49,23.13,6.69Z"/>
    <path id="M23-L37" class="cls-2" d="M2124.92,3409.8l-24.05-6.67,19.21-67.54,22.22,6.72Z"/>
    <path id="M23-L38" class="cls-2" d="M2120.08,3335.59l-23.1-5.78-20.16,66.65,24.05,6.67Z"/>
    <path id="M23-L39" class="cls-2" d="M2076.82,3396.46l-23.14-6.69,19.22-67.54,24.08,7.58Z"/>
    <path id="M23-L40" class="cls-2" d="M2053.68,3389.77l-23.13-6.69,19.21-67.55,23.14,6.7Z"/>
    <path id="M23-L41" class="cls-2" d="M2049.76,3315.53l-24.05-6.66-19.21,67.54,24.05,6.67Z"/>
    <path id="M23-L42" class="cls-2" d="M2007.42,3376.38l-24.06-6.67,19.22-67.54,23.13,6.7Z"/>
    <path id="M23-L43" class="cls-2" d="M2002.58,3302.17l-24.05-6.67-19.22,67.55,24.05,6.66Z"/>
    <path id="M23-L44" class="cls-2" d="M1959.31,3363.05l-24.07-7.59,20.16-66.65,23.13,6.69Z"/>
    <path id="M23-L45" class="cls-2" d="M1955.42,3289.73l-24.08-7.59-18.29,67.52,23.1,5.78Z"/>
    <path id="M23-L46" class="cls-2" d="M1932.26,3282.12l-24.05-6.67-20.13,67.57,25.88,6.61Z"/>
    <path id="M23-L47" class="cls-2" d="M1908.21,3275.45l-24.05-6.67-19.22,67.54,24.06,6.67Z"/>
    <path id="M23-L48" class="cls-2" d="M1864.94,3336.32l-23.13-6.69,19.22-67.54,23.13,6.69Z"/>
    <path id="M23-L49" class="cls-2" d="M1841.81,3329.63l-24.05-6.67,19.21-67.54,24.06,6.67Z"/>
    <path id="M23-L50" class="cls-2" d="M1836.97,3255.42l-23.13-6.69-20.13,67.56,24.05,6.67Z"/>
    <path id="M23-L51" class="cls-2" d="M1813.84,3248.73l-24.08-7.59-19.19,68.46,23.14,6.69Z"/>
    <path id="M23-L52" class="cls-2" d="M1789.76,3241.14l-23.13-6.69-20.11,68.48,24.05,6.67Z"/>
    <path id="M23-L53" class="cls-2" d="M1766.63,3234.45l-23.13-6.7-20.14,67.57,24.08,7.59Z"/>
    <path id="M23-L54" class="cls-2" d="M1743.52,3228.67l-112.86-31.71,25.71,33.24,80.48,22.52Z"/>
    <path id="M23-L55" class="cls-2" d="M1724.28,3295.29l-22.19-5.8-46.64-59.27,80.49,22.53Z"/>
    <path id="M23-56" class="cls-2" d="M2288,3366.67l-3.2,16.62-118.45-34.31-116.56-32.53-165.63-47.67-140.66-41.03-111.9-29.9-19.04-24.25,9.22,1.58,140.67,41.03,99,28.43,158.22,45.12,95.29,26.7,102.7,29.24Z"/>
    </g>
    <g class="cls-1">
    <!-- <path data-manzana="M21" id="M21-2" data-name="M21" class="cls-2" d="M2203.7,3796.75l-17.58-5.01-13.64,70.14,16.64,4.12Z"/> -->
    <path data-manzana="M21" id="M21-2" data-name="M21" class="cls-2" d="M2220.56,3710.92l-31.47,154.16-49.91-12.36-140.85-178.7s-9.48-9.66-7.8-16.3,6.22-10.7,21.83-7.04S2220.56,3710.92,2220.56,3710.92Z"/>
    <path data-manzana="M22" id="M22-2" data-name="M22" class="cls-2" d="M2261.52,3502.34L2082,3450.47l-169.32-48.48-95.29-26.7-32.35-8.27s-10.31-3.74-11.77,5.84-0.69,8.27-.69,8.27l12.41,17.1,59.99,77.25,71.46,93.45,164.69,46.78,148.97,42.63Z"/>
    <path data-manzana="M24" id="M24-2" data-name="M24" class="cls-2" d="M2342.52,3089.55l-32.39,154.19-294.19-82.61-321.1-92.87-209.12-60.22L1357.3,2847.35s-18.43-23.07-19.16-28.83,4.85-11.18,13.47-10.48,214.65,60.98,214.65,60.98l169.33,48.49,440.35,123.48Z"/>
    <path data-manzana="M25" id="M25-2" data-name="M25" class="cls-2" d="M1133.51,2526.63l135.27,176.1,217.45,62.74,301.63,86.08,106.42,30.97L2071,2932.63l21.25,4.91,146.21,42.71,115.65,32.55,30.5-155.97-259.06-73.5-27.8-9.32-346.01-97.68-377.5-107.81-168.39-47.59-64.79-19.29S1110.29,2500.67,1133.51,2526.63Z"/>
    <path data-manzana="M26" id="M26-2" data-name="M26" class="cls-2" d="M958.355,2172.37l-64.79-19.29s-13.9-2.72-16.38,5.04-1.148,10.01,7.9,19.98,63.866,84.48,63.866,84.48l71.436,92.53,446.01,128.84,237.81,68.59,304.38,86,353.51,102.97,18.65-87.71-78.9-96.92-93.4-24.91L2090,2497.66l-211.87-60.14-141.61-41.92-93.45-26.75-164.71-47.7-163.77-46.8-120.29-34.26Z"/>
    <path data-manzana="M27" id="M27-2" data-name="M27" class="cls-2" d="M740.145,1827.86l-52.154-13.76a21.243,21.243,0,0,0-20.986,11.75c-7.135,13.69-.317,24.01.711,25.36s56.9,74.53,56.9,74.53l58.99,76.51,304.95,87.87,364.24,102.45,342.79,97.98,283.46,81.37,128.93,36.99,78.75,21.14s51.51,21.22,61.03,4.37-8.04-33.27-8.04-33.27l-112.65-144.02-9.33-6.84-200.56-57.31-596.55-170.04L1028.7,1910.1Z"/>
    <path data-manzana="M28" id="M28-2" data-name="M28" class="cls-2" d="M545.889,1494.05l240.216,66.81,241.285,67.81,318.53,88.1,292.55,84.79,238.15,66.87,134.71,37.08,26.12,7.44s20.19,3.31,27.22,9.48,19.3,20.93,23.61,26.15,64.76,82.8,64.76,82.8l41.02,52.5s8.14,8.46,2.7,19.58-9.6,10.48-11.01,11.74-3.84,2.64-21.78-1.37-114.9-32.53-114.9-32.53l-293.52-82.7-265.3-74.28-264.29-75.35-108.57-28.6-80.48-24.32-160.837-44.52-158.765-44.58s-91.724-26.25-105.532-30.77c-12.308-2.92-26.449-17.78-26.449-17.78l-96.114-124.23-20.51-26.25s-6.709-9.08.37-20.72,16.212-10.87,16.212-10.87Z"/>
    <path data-manzana="M29" id="M29-2" data-name="M29" class="cls-2" d="M332.231,1204.56l109.835,35.55,183.9,60.04,140.57,41.89,160.326,48.58,146.782,45.36,383.54,115.91,196.18,62.08,256.5,77.25,7.4,2.21L1967,1759l3.89,7.2-0.94,8.58-8.39,5.15-8.34,6.38-8.62-2.17-81.38-24.25-117.12-34.1-128.17-36.18-124.4-32.64-193.54-56.07-160.13-42.48-167.641-48.35-234.231-68.19-198.341-53.47-88.782-26.46-76.453-98.91-48.359-60.73Z"/>
    <path data-manzana="M33" id="M33-2" data-name="M33" class="cls-2" d="M2029,1671l45,15,89,31,118,42,111,39,280,94,48,18-16,72-82-27-62-19-48-17-61-17-89-29-64-20-86-27-80-25-11-4-19-25-44-60-30-40Z"/>
    <path data-manzana="M34" id="M34" class="cls-2" d="M2229,1902l105,36,143,46,72,23,115,37,24,6-35,167-4,7h-5l-100-32-145-47-30-8-45-61-55-75-58-79,1-11,8-9h9Z"/>
    <!-- <path id="M35-L1" class="cls-2" d="M2475,2243l87,27,73,24-1,10-35,149-25-34-65-89-50-68v-10l7-8,4-1h5Z"/> -->
    <path id="M35-3" data-name="M35" class="cls-2" d="M2475,2243l87,27,73,24-1,10-35,149-25-34-65-89-50-68v-10l7-8,4-1h5Z"/>
    <path data-manzana="M36" id="M36" data-name="M36" class="cls-2" d="M2816,2953l46,63,48,65,28,39v5l-2,6-4,3-3,2-30-8-63-21-53-18,15-65,15-64,2-7h1Z"/>
    <path data-manzana="M37" id="M37-2" data-name="M37" class="cls-2" d="M2769,3146l148,48,95,29,9,3,35,42,48,66,29,40,47,63,10,16-1,5-5,6-5,2h-10l-74-26-153-49-104-32-76-24-35-12,10-48,11-45,16-73,3-11h2Z"/>
    <path data-manzana="M38" id="M38-2" data-name="M38" class="cls-2" d="M2715,3386l54,17,115,38,111,34,138,43,74,25,14,5,19,20,42,55,42,61,35,46,15,21-1,8-3,3-3,2h-8l-54-18-228-73-43-13-108-34-47-16-108-32-39-12-53-18,4-22,10-44,9-37,10-47Z"/>
    <path data-manzana="M39" id="M39-2" data-name="M39" class="cls-2" d="M2667,3605l103,34,134,42,165,53,206,65,131,42,31,10,3,1,53,68,25,34,63,86,9,13,1,5-2,3-6,6-4,1-33-11-94-31-162-50-146-47-117-37-129-42-58-18-149-46-62-19,2-10,13-60,11-49,11-43h1Z"/>
    <path data-manzana="M40" id="M40-2" data-name="M40" class="cls-2" d="M2617,3822l65,22,150,48,180,57,221,69,248,80,133,41,44,13,21,27,53,73,50,70,22,33,1,6-3,5-3,3h-7l-57-18-96-30-100-34-84-26-168-53-173-55-232-73-51-18-85-26-132-41-2-3,21-66-38-14,13-57,7-33h2Z"/>
    <path data-manzana="M41" id="M41-2" data-name="M41" class="cls-2" d="M2640,4060l72,25,113,35,133,42,178,56,260,84,167,51,217,68,134,42,64,87-3,12-24,68h-6l-9-1-69-24-90-29-47-12-58-20-107-35-161-51-178-55-280-92-3,2-25-10-201-61-126-42,23-70,24-71Z"/>
    <path data-manzana="M42" id="M42-2" data-name="M42" class="cls-2" d="M2596,4265l61,21,94,30,86,26,72,22,103,32,104,33,106,33,126,39,114,36,119,37,146,46,119,37,120,37,25,9,3,5v4l-17,57-15,47-1,4-6,6-7,1-170-26-22-4-82-25-84-28-49-13-15-7-16-4-49-16-80-26-93-29-66-23-115-37-101-32-109-33-97-33-47-19-34-10-12-9-28-38-34-50-37-50s30.05,39.75,28,39-55-75-55-75v-7l10-7h5Z"/>
    <path id="M43-2" data-name="M43" class="cls-2" d="M2740,4561l1-6,4-4,7-3,9,1,82,26,132,42,121,39,52,15,8,8,1,2v14l-9,8h-13l-80-12-100-15-100-15-37-5-12-6-11-9-37-51Z"/>
    <path id="M44-2" data-name="M44" class="cls-2" d="M4090,4628h12l5,1,52,68,61,83,45,64v11l-2,5-5,6-7,5h-12l-90-14-118-19-7-6-7-12,8-30,25-80,25-74,7-6,5-2h3Z"/>
    <path id="M45-2" data-name="M45" class="cls-2" d="M4515,4942l55,18,56,18,63,20,47,15,3,1,4,3,2,5v5l-2,4-3,4-6,2-37-5-55-8-61-9-28-4-10-2-8-2-5-4-32-46v-6l3-5,3-3,4-1h7Z"/>
    <path data-manzana="M46" id="M46-2" data-name="M46" class="cls-2" d="M4282,4624l72,23,115,38,97,30,76,24,135,43,84,27,111,34,69,23,8,6,29,39,50,68,51,69,12,19,1,6-7,10-8,1-70-23-127-41-102-32-113-37-67-21-47-15-54-17-99-30-57-19-27-6-56-78-38-50-53-75v-8l6-7,5-2Z"/>
    <path data-manzana="M47" id="M47-2" data-name="M47" class="cls-2" d="M4023,4268l277,92,52,13,139,45,156,50,314,99,400,127,160,48,89,119,73,102,12,17v6l-2,5-5,5-9-1-168-55-382-119-181-59-198-63-155-48-160-50-81-26-95-29-63-21-18-4-55-78-71-99-37-49-10-15,3-6,9-6h6Z"/>
    <path data-manzana="M48" id="M48-2" data-name="M48" class="cls-2" d="M3765,3915l277,92,52,13,139,45,156,50,314,99,400,127,160,48,89,119,73,102,12,17v6l-2,5-5,5-9-1-168-55-382-119-181-59-198-63-155-48-160-50-81-26-95-29-63-21-18-4-55-78-71-99-37-49-10-15,3-6,9-6h6Z"/>
    <path data-manzana="M49" id="M49-2" data-name="M49" class="cls-2" d="M3510,3565l277,92,52,13,139,45,156,50,314,99,400,127,160,48,89,119,73,102,12,17v6l-2,5-5,5-9-1-168-55-382-119-181-59-198-63-155-48-160-50-81-26-95-29-63-21-18-4-55-78-71-99-37-49-10-15,3-6,9-6h6Z"/>
    <path data-manzana="M50" id="M50-2" data-name="M50" class="cls-2" d="M3248,3204l277,92,52,13,139,45,156,50,314,99,400,127,160,48,89,119,73,102,12,17v6l-2,5-5,5-9-1-168-55-382-119-181-59-198-63-155-48-160-50-81-26-95-29-63-21-18-4-55-78-71-99-37-49-10-15,3-6,9-6h6Z"/>
    <path data-manzana="M51" id="M51-2" data-name="M51" class="cls-2" d="M3007,2871l277,92,52,13,139,45,156,50,314,99,400,127,160,48,89,119,73,102,12,17v6l-2,5-5,5-9-1-168-55-382-119-181-59-198-63-155-48-160-50-81-26-95-29-63-21-18-4-55-78-71-99-37-49-10-15,3-6,9-6h6Z"/>
    <path data-manzana="M52" id="M52-2" data-name="M52" class="cls-2" d="M2858,2542l177,57,169,53,161,51,182,59,274,85,281,90,188,58,56,72,69,93,57,80v7l-3,5-6,5-8,1-102-38-121-36-92-28-119-38-134-41-130-42-186-60-126-40-234-74-128-40-162-49-18-7-55-74-21-26,8-34,17-75,4-15Z"/>
    <path data-manzana="M53" id="M53-2" data-name="M53" class="cls-2" d="M2913,2298l85,31,54,17,179,56,162,51,159,49,239,75,215,68,53,17,75,106,63,88,1,15-10,12-14,3-175-56-225-72-197-63-171-52-218-71-232-72-84-28,38-174h3Z"/>
    <path data-manzana="M54" id="M54-2" data-name="M54" class="cls-2" d="M2970,2054l73,25,144,47,128,40,137,43,208,65,155,49,49,62,54,75,42,62v10l-4,7-7,6-7,4h-12l-107-35-157-49-74-26-29-8-80-25-29-8-61-21-30-9-92-30-52-17-70-21-88-28-96-29-37-13,20-92,19-85Z"/>
    <path id="M55-2" data-name="M55" class="cls-2" d="M2999,1918l93,32,110,38,185,63,215,73,90,31,10,10,6,9,3,7v11l-3,8-8,7-10,2-19-5-125-39-169-53-165-53-144-45-82-26-3-3Z"/>
    <path id="M65-2" data-name="M65" class="cls-2" d="M5224,4921l88,28,105,33,121,39,165,52,44,14,6,5,18,23,19,27,3,7,1,3v13l-3,10-7,8-11,7-8,2-24-2-53-8-79-13-45-6-73-11-44-7-94-14-39-6-15-3-8-5-37-50-31-42-30-42-13-19-1-19,6-11,12-11,11-3Z"/>
  </g>
  <circle id="EM21" class="cls-4" cx="2139.37" cy="3768.44" r="20.75"/>
  <path id="_21" data-name="21" class="cls-5" d="M2127.67,3775.26a8.662,8.662,0,0,1,1-1.35c0.41-.46,1.38-1.39,2.91-2.8a32,32,0,0,0,3.18-3.23,13.306,13.306,0,0,0,1.95-3.25,8.742,8.742,0,0,0,.61-3.26,6.637,6.637,0,0,0-2.14-5.03,8.252,8.252,0,0,0-5.9-2.02,9.172,9.172,0,0,0-5.71,1.74q-2.28,1.755-2.71,5.76l4.84,0.49a4.705,4.705,0,0,1,1.04-3.05,3.722,3.722,0,0,1,4.83-.04,3.4,3.4,0,0,1,.88,2.5,5.326,5.326,0,0,1-1.01,2.97,33.649,33.649,0,0,1-4.03,4.15,32.244,32.244,0,0,0-5.46,6.08,11.739,11.739,0,0,0-1.66,4.85h17.03v-4.51h-9.65Zm28.2-20.94h-3.94a8.943,8.943,0,0,1-3.06,4.05,13.908,13.908,0,0,1-4.13,2.36v4.41a16.717,16.717,0,0,0,6.28-3.68v18.31h4.85v-25.45Z"/>
  <circle id="EM22" class="cls-4" cx="2067.37" cy="3526.44" r="20.75"/>
  <path id="_22" data-name="22" class="cls-5" d="M2055.67,3533.26a8.662,8.662,0,0,1,1-1.35c0.41-.46,1.38-1.39,2.91-2.8a32,32,0,0,0,3.18-3.23,13.123,13.123,0,0,0,1.95-3.25,8.742,8.742,0,0,0,.61-3.26,6.637,6.637,0,0,0-2.14-5.03,8.252,8.252,0,0,0-5.9-2.02,9.172,9.172,0,0,0-5.71,1.74q-2.28,1.755-2.71,5.76l4.84,0.49a4.705,4.705,0,0,1,1.04-3.05,3.722,3.722,0,0,1,4.83-.04,3.4,3.4,0,0,1,.88,2.5,5.326,5.326,0,0,1-1.01,2.97,33.649,33.649,0,0,1-4.03,4.15,32.558,32.558,0,0,0-5.46,6.08,11.739,11.739,0,0,0-1.66,4.85h17.03v-4.51h-9.65Zm22.53,0a8.662,8.662,0,0,1,1-1.35c0.41-.46,1.38-1.39,2.91-2.8a32,32,0,0,0,3.18-3.23,13.123,13.123,0,0,0,1.95-3.25,8.742,8.742,0,0,0,.61-3.26,6.637,6.637,0,0,0-2.14-5.03,8.252,8.252,0,0,0-5.9-2.02,9.172,9.172,0,0,0-5.71,1.74q-2.28,1.755-2.71,5.76l4.84,0.49a4.705,4.705,0,0,1,1.04-3.05,3.722,3.722,0,0,1,4.83-.04,3.4,3.4,0,0,1,.88,2.5,5.326,5.326,0,0,1-1.01,2.97,33.649,33.649,0,0,1-4.03,4.15,32.558,32.558,0,0,0-5.46,6.08,11.739,11.739,0,0,0-1.66,4.85h17.03v-4.51h-9.65Z"/>
  <circle id="EM24" class="cls-4" cx="1945.37" cy="3056.44" r="20.75"/>
  <path id="_24" data-name="24" class="cls-5" d="M1933.67,3063.26a8.662,8.662,0,0,1,1-1.35c0.41-.46,1.38-1.39,2.91-2.8a32,32,0,0,0,3.18-3.23,13.306,13.306,0,0,0,1.95-3.25,8.742,8.742,0,0,0,.61-3.26,6.637,6.637,0,0,0-2.14-5.03,8.252,8.252,0,0,0-5.9-2.02,9.172,9.172,0,0,0-5.71,1.74q-2.28,1.755-2.71,5.76l4.84,0.49a4.705,4.705,0,0,1,1.04-3.05,3.722,3.722,0,0,1,4.83-.04,3.4,3.4,0,0,1,.88,2.5,5.326,5.326,0,0,1-1.01,2.97,33.649,33.649,0,0,1-4.03,4.15,32.244,32.244,0,0,0-5.46,6.08,11.739,11.739,0,0,0-1.66,4.85h17.03v-4.51h-9.65Zm30,4.51v-5.1h3.15v-4.27h-3.15v-16.08h-4.08l-11,16.1v4.25h10.38v5.1h4.7Zm-10.53-9.37,5.83-8.66v8.66h-5.83Z"/>
  <circle id="EM25" class="cls-4" cx="1914.37" cy="2804.44" r="20.75"/>
  <path id="_25" data-name="25" class="cls-5" d="M1902.67,2811.26a8.662,8.662,0,0,1,1-1.35c0.41-.46,1.38-1.39,2.91-2.8a32,32,0,0,0,3.18-3.23,13.306,13.306,0,0,0,1.95-3.25,8.742,8.742,0,0,0,.61-3.26,6.637,6.637,0,0,0-2.14-5.03,8.252,8.252,0,0,0-5.9-2.02,9.172,9.172,0,0,0-5.71,1.74q-2.28,1.755-2.71,5.76l4.84,0.49a4.705,4.705,0,0,1,1.04-3.05,3.722,3.722,0,0,1,4.83-.04,3.4,3.4,0,0,1,.88,2.5,5.326,5.326,0,0,1-1.01,2.97,33.649,33.649,0,0,1-4.03,4.15,32.558,32.558,0,0,0-5.46,6.08,11.739,11.739,0,0,0-1.66,4.85h17.03v-4.51h-9.65Zm18.49,3.06a8.486,8.486,0,0,0,5.72,1.89,8.053,8.053,0,0,0,6.87-3.36,9.164,9.164,0,0,0,1.81-5.59,8.461,8.461,0,0,0-2.25-6.1,7.278,7.278,0,0,0-5.48-2.35,7.355,7.355,0,0,0-3.32.81l0.76-4.3h9.17v-4.55h-12.85l-2.49,13.19,3.94,0.57a4.968,4.968,0,0,1,3.75-1.85,3.5,3.5,0,0,1,2.73,1.17,5.152,5.152,0,0,1,1.04,3.5,5.665,5.665,0,0,1-1.05,3.73,3.266,3.266,0,0,1-2.58,1.23,3.322,3.322,0,0,1-2.35-.96,4.146,4.146,0,0,1-1.23-2.6l-4.84.5A7.752,7.752,0,0,0,1921.16,2814.32Z"/>
  <circle id="EM26" class="cls-4" cx="1733.37" cy="2472.44" r="20.75"/>
  <path id="_26" data-name="26" class="cls-5" d="M1721.67,2479.26a8.662,8.662,0,0,1,1-1.35c0.41-.46,1.38-1.39,2.91-2.8a32,32,0,0,0,3.18-3.23,13.123,13.123,0,0,0,1.95-3.25,8.742,8.742,0,0,0,.61-3.26,6.637,6.637,0,0,0-2.14-5.03,8.252,8.252,0,0,0-5.9-2.02,9.172,9.172,0,0,0-5.71,1.74q-2.28,1.755-2.71,5.76l4.84,0.49a4.705,4.705,0,0,1,1.04-3.05,3.722,3.722,0,0,1,4.83-.04,3.4,3.4,0,0,1,.88,2.5,5.326,5.326,0,0,1-1.01,2.97,33.649,33.649,0,0,1-4.03,4.15,32.558,32.558,0,0,0-5.46,6.08,11.739,11.739,0,0,0-1.66,4.85h17.03v-4.51h-9.65Zm29.82-19.33a7.124,7.124,0,0,0-4.78-1.61,8.3,8.3,0,0,0-6.69,3.08q-2.58,3.075-2.58,10.04,0,6.795,2.47,9.78a8.3,8.3,0,0,0,12.18.63,8.558,8.558,0,0,0,2.28-6.24,8.378,8.378,0,0,0-2.17-5.98,6.872,6.872,0,0,0-5.21-2.32,5.715,5.715,0,0,0-4.52,2.14c0.19-2.91.63-4.83,1.34-5.75a3.179,3.179,0,0,1,2.61-1.39,2.61,2.61,0,0,1,1.88.69,3.455,3.455,0,0,1,.9,2.15l4.7-.52A7.582,7.582,0,0,0,1751.49,2459.93Zm-7.63,12.06a3.112,3.112,0,0,1,4.79.05,5.6,5.6,0,0,1,.97,3.62,5.3,5.3,0,0,1-.9,3.46,2.822,2.822,0,0,1-2.25,1.06,3.186,3.186,0,0,1-2.49-1.29,5.5,5.5,0,0,1-1.09-3.66A4.735,4.735,0,0,1,1743.86,2471.99Z"/>
  <circle id="EM27" class="cls-4" cx="1581.37" cy="2151.44" r="20.75"/>
  <path id="_27" data-name="27" class="cls-5" d="M1569.67,2158.26a8.662,8.662,0,0,1,1-1.35c0.41-.46,1.38-1.39,2.91-2.8a32,32,0,0,0,3.18-3.23,13.123,13.123,0,0,0,1.95-3.25,8.742,8.742,0,0,0,.61-3.26,6.637,6.637,0,0,0-2.14-5.03,8.252,8.252,0,0,0-5.9-2.02,9.172,9.172,0,0,0-5.71,1.74q-2.28,1.755-2.71,5.76l4.84,0.49a4.705,4.705,0,0,1,1.04-3.05,3.722,3.722,0,0,1,4.83-.04,3.4,3.4,0,0,1,.88,2.5,5.326,5.326,0,0,1-1.01,2.97,33.649,33.649,0,0,1-4.03,4.15,32.558,32.558,0,0,0-5.46,6.08,11.739,11.739,0,0,0-1.66,4.85h17.03v-4.51h-9.65Zm26.82-15.98a35.662,35.662,0,0,0-5.47,9.77,32.456,32.456,0,0,0-2.17,10.72h4.68a30.066,30.066,0,0,1,1.1-7.61,34.264,34.264,0,0,1,3.24-8.05,25.935,25.935,0,0,1,4.19-5.81v-3.53h-16.62v4.51h11.05Z"/>
  <circle id="EM28" class="cls-4" cx="1433.37" cy="1829.44" r="20.75"/>
  <path id="_28" data-name="28" class="cls-5" d="M1421.67,1836.26a8.662,8.662,0,0,1,1-1.35c0.41-.46,1.38-1.39,2.91-2.8a32,32,0,0,0,3.18-3.23,13.123,13.123,0,0,0,1.95-3.25,8.742,8.742,0,0,0,.61-3.26,6.637,6.637,0,0,0-2.14-5.03,8.252,8.252,0,0,0-5.9-2.02,9.172,9.172,0,0,0-5.71,1.74q-2.28,1.755-2.71,5.76l4.84,0.49a4.705,4.705,0,0,1,1.04-3.05,3.722,3.722,0,0,1,4.83-.04,3.4,3.4,0,0,1,.88,2.5,5.326,5.326,0,0,1-1.01,2.97,33.649,33.649,0,0,1-4.03,4.15,32.558,32.558,0,0,0-5.46,6.08,11.739,11.739,0,0,0-1.66,4.85h17.03v-4.51h-9.65Zm16.72-6.51a7.292,7.292,0,0,0-1.02,3.78,7.09,7.09,0,0,0,2.72,5.88,9,9,0,0,0,5.76,1.81,8.145,8.145,0,0,0,5.95-2.19,7.631,7.631,0,0,0,2.24-5.71,6.466,6.466,0,0,0-1.1-3.75,6.8,6.8,0,0,0-3.2-2.48,5.761,5.761,0,0,0,2.57-2.1,5.518,5.518,0,0,0,.92-3.14,6.1,6.1,0,0,0-2-4.68,9.461,9.461,0,0,0-11.24,0,6.119,6.119,0,0,0-1.98,4.68,5.749,5.749,0,0,0,.86,3.06,5.622,5.622,0,0,0,2.74,2.18A6.586,6.586,0,0,0,1438.39,1829.75Zm5.05-9.75a3.043,3.043,0,0,1,2.23-.83,2.834,2.834,0,0,1,2.99,3.01,3.045,3.045,0,0,1-.83,2.28,3.377,3.377,0,0,1-4.4.01,3.1,3.1,0,0,1-.82-2.27A3,3,0,0,1,1443.44,1820Zm-0.4,10.4a3.024,3.024,0,0,1,2.65-1.23,3.311,3.311,0,0,1,2.54,1.08,4.044,4.044,0,0,1,1.01,2.86,4.46,4.46,0,0,1-.99,3.12,3.235,3.235,0,0,1-2.49,1.08,3.336,3.336,0,0,1-2.57-1.12A4.866,4.866,0,0,1,1443.04,1830.4Z"/>
  <circle id="EM29" class="cls-4" cx="1259.37" cy="1546.44" r="20.75"/>
  <path id="_29" data-name="29" class="cls-5" d="M1247.67,1553.26a8.662,8.662,0,0,1,1-1.35c0.41-.46,1.38-1.39,2.91-2.8a32,32,0,0,0,3.18-3.23,13.123,13.123,0,0,0,1.95-3.25,8.742,8.742,0,0,0,.61-3.26,6.637,6.637,0,0,0-2.14-5.03,8.252,8.252,0,0,0-5.9-2.02,9.172,9.172,0,0,0-5.71,1.74q-2.28,1.755-2.71,5.76l4.84,0.49a4.705,4.705,0,0,1,1.04-3.05,3.722,3.722,0,0,1,4.83-.04,3.4,3.4,0,0,1,.88,2.5,5.326,5.326,0,0,1-1.01,2.97,33.649,33.649,0,0,1-4.03,4.15,32.558,32.558,0,0,0-5.46,6.08,11.739,11.739,0,0,0-1.66,4.85h17.03v-4.51h-9.65Zm18.23,3.38a7.052,7.052,0,0,0,4.8,1.58,8.318,8.318,0,0,0,6.71-3.07q2.58-3.09,2.58-10.04,0-6.825-2.47-9.81a7.854,7.854,0,0,0-6.33-2.98,7.762,7.762,0,0,0-5.84,2.36,8.523,8.523,0,0,0-2.29,6.22,8.378,8.378,0,0,0,2.17,6,6.854,6.854,0,0,0,5.16,2.31,5.836,5.836,0,0,0,4.59-2.12c-0.2,2.9-.65,4.82-1.35,5.74a3.148,3.148,0,0,1-2.56,1.38,2.659,2.659,0,0,1-1.92-.69,3.343,3.343,0,0,1-.9-2.13l-4.71.52A7.608,7.608,0,0,0,1265.9,1556.64Zm7.68-12.1a2.993,2.993,0,0,1-2.36,1.11,3.029,3.029,0,0,1-2.42-1.15,5.57,5.57,0,0,1-.97-3.6,5.457,5.457,0,0,1,.89-3.49,2.8,2.8,0,0,1,2.24-1.06,3.189,3.189,0,0,1,2.5,1.29,5.574,5.574,0,0,1,1.08,3.65A4.814,4.814,0,0,1,1273.58,1544.54Z"/>
  <circle id="EM33" class="cls-4" cx="2405.37" cy="1845.44" r="20.75"/>
  <path id="_33" data-name="33" class="cls-5" d="M2388.48,1850.34a7.948,7.948,0,0,0,10.01,2.37,6.648,6.648,0,0,0,3.36-4.24,5.261,5.261,0,0,0-.21-3.6,5.14,5.14,0,0,0-2.46-2.56q3.525-.855,4.29-3.66a5.192,5.192,0,0,0-.54-3.97,6.556,6.556,0,0,0-4.32-3.23,7.6,7.6,0,0,0-3.36-.2,5.492,5.492,0,0,0-2.71,1.22,8.741,8.741,0,0,0-2.03,2.78l3.6,1.66a3.583,3.583,0,0,1,1.48-1.88,2.565,2.565,0,0,1,1.99-.25,2.438,2.438,0,0,1,1.54,1.11,2.383,2.383,0,0,1,.17,1.89,2.652,2.652,0,0,1-1.42,1.8,3.751,3.751,0,0,1-2.74.03l-1.35,3.22a7.338,7.338,0,0,1,1.96.2,2.775,2.775,0,0,1,1.79,1.46,3.593,3.593,0,0,1,.16,2.67,3.8,3.8,0,0,1-1.57,2.36,2.832,2.832,0,0,1-2.39.39,2.907,2.907,0,0,1-1.8-1.35,3.857,3.857,0,0,1-.39-2.59l-4.1-.6A6.779,6.779,0,0,0,2388.48,1850.34Zm18.99,5.14a7.984,7.984,0,0,0,10.02,2.38,6.666,6.666,0,0,0,3.36-4.25,5.261,5.261,0,0,0-.21-3.6,5.14,5.14,0,0,0-2.46-2.56q3.525-.855,4.29-3.66a5.2,5.2,0,0,0-.54-3.97,6.58,6.58,0,0,0-4.32-3.23,7.6,7.6,0,0,0-3.36-.2,5.582,5.582,0,0,0-2.71,1.22,8.741,8.741,0,0,0-2.03,2.78l3.6,1.66a3.583,3.583,0,0,1,1.48-1.88,2.562,2.562,0,0,1,1.99-.24,2.426,2.426,0,0,1,1.54,1.1,2.383,2.383,0,0,1,.17,1.89,2.652,2.652,0,0,1-1.42,1.8,3.8,3.8,0,0,1-2.74.04l-1.35,3.21a7.3,7.3,0,0,1,1.96.21,2.72,2.72,0,0,1,1.78,1.45,3.543,3.543,0,0,1,.17,2.67,3.835,3.835,0,0,1-1.57,2.36,2.832,2.832,0,0,1-2.39.39,2.872,2.872,0,0,1-1.8-1.35,3.857,3.857,0,0,1-.39-2.59l-4.1-.6A6.822,6.822,0,0,0,2407.47,1855.48Z"/>
  <circle id="EM34" class="cls-4" cx="2511.37" cy="2086.44" r="20.75"/>
  <path id="_34" data-name="34" class="cls-5" d="M2494.48,2091.34a7.948,7.948,0,0,0,10.01,2.37,6.648,6.648,0,0,0,3.36-4.24,5.261,5.261,0,0,0-.21-3.6,5.14,5.14,0,0,0-2.46-2.56q3.525-.855,4.29-3.66a5.192,5.192,0,0,0-.54-3.97,6.58,6.58,0,0,0-4.32-3.23,7.6,7.6,0,0,0-3.36-.2,5.492,5.492,0,0,0-2.71,1.22,8.741,8.741,0,0,0-2.03,2.78l3.6,1.66a3.583,3.583,0,0,1,1.48-1.88,2.565,2.565,0,0,1,1.99-.25,2.438,2.438,0,0,1,1.54,1.11,2.383,2.383,0,0,1,.17,1.89,2.652,2.652,0,0,1-1.42,1.8,3.751,3.751,0,0,1-2.74.03l-1.35,3.22a7.338,7.338,0,0,1,1.96.2,2.775,2.775,0,0,1,1.79,1.46,3.593,3.593,0,0,1,.16,2.67,3.8,3.8,0,0,1-1.57,2.36,2.832,2.832,0,0,1-2.39.39,2.907,2.907,0,0,1-1.8-1.35,3.857,3.857,0,0,1-.39-2.59l-4.1-.6A6.779,6.779,0,0,0,2494.48,2091.34Zm28.57,9.13,1.17-4.3,2.65,0.72,0.98-3.6-2.66-.72,3.67-13.56-3.44-.93-12.95,11.06-0.97,3.59,8.75,2.37-1.16,4.3Zm-6.74-10.3,6.89-5.98-1.97,7.31Z"/>
  <circle id="EM35" class="cls-4" cx="2562.37" cy="2326.44" r="20.75"/>
  <path id="_35" data-name="35" class="cls-5" d="M2545.48,2331.34a7.948,7.948,0,0,0,10.01,2.37,6.648,6.648,0,0,0,3.36-4.24,5.261,5.261,0,0,0-.21-3.6,5.14,5.14,0,0,0-2.46-2.56q3.525-.855,4.29-3.66a5.192,5.192,0,0,0-.54-3.97,6.556,6.556,0,0,0-4.32-3.23,7.6,7.6,0,0,0-3.36-.2,5.492,5.492,0,0,0-2.71,1.22,8.741,8.741,0,0,0-2.03,2.78l3.6,1.66a3.583,3.583,0,0,1,1.48-1.88,2.565,2.565,0,0,1,1.99-.25,2.438,2.438,0,0,1,1.54,1.11,2.383,2.383,0,0,1,.17,1.89,2.652,2.652,0,0,1-1.42,1.8,3.751,3.751,0,0,1-2.74.03l-1.35,3.22a7.338,7.338,0,0,1,1.96.2,2.775,2.775,0,0,1,1.79,1.46,3.593,3.593,0,0,1,.16,2.67,3.8,3.8,0,0,1-1.57,2.36,2.832,2.832,0,0,1-2.39.39,2.907,2.907,0,0,1-1.8-1.35,3.857,3.857,0,0,1-.39-2.59l-4.1-.6A6.779,6.779,0,0,0,2545.48,2331.34Zm19.19,5.28a7.486,7.486,0,0,0,4.4,2.9,7.016,7.016,0,0,0,6.55-1.26,8.024,8.024,0,0,0,2.81-4.3,7.426,7.426,0,0,0-.5-5.66,6.4,6.4,0,0,0-4.09-3.24,6.5,6.5,0,0,0-2.98-.07l1.62-3.46,7.73,2.1,1.04-3.84-10.84-2.93-5.11,10.56,3.2,1.38a4.336,4.336,0,0,1,3.58-.71,3.056,3.056,0,0,1,2.03,1.61,4.484,4.484,0,0,1,.09,3.19,4.905,4.905,0,0,1-1.74,2.9,2.9,2.9,0,0,1-4.22-.89,3.621,3.621,0,0,1-.45-2.47l-4.19-.68A6.755,6.755,0,0,0,2564.67,2336.62Z"/>
  <circle id="EM36" class="cls-4" cx="2847.37" cy="3071.44" r="20.75"/>
  <path id="_36" data-name="36" class="cls-5" d="M2830.48,3076.34a7.948,7.948,0,0,0,10.01,2.37,6.648,6.648,0,0,0,3.36-4.24,5.261,5.261,0,0,0-.21-3.6,5.14,5.14,0,0,0-2.46-2.56q3.525-.855,4.29-3.66a5.192,5.192,0,0,0-.54-3.97,6.58,6.58,0,0,0-4.32-3.23,7.6,7.6,0,0,0-3.36-.2,5.492,5.492,0,0,0-2.71,1.22,8.741,8.741,0,0,0-2.03,2.78l3.6,1.66a3.583,3.583,0,0,1,1.48-1.88,2.565,2.565,0,0,1,1.99-.25,2.438,2.438,0,0,1,1.54,1.11,2.383,2.383,0,0,1,.17,1.89,2.652,2.652,0,0,1-1.42,1.8,3.751,3.751,0,0,1-2.74.03l-1.35,3.22a7.338,7.338,0,0,1,1.96.2,2.775,2.775,0,0,1,1.79,1.46,3.593,3.593,0,0,1,.16,2.67,3.8,3.8,0,0,1-1.57,2.36,2.832,2.832,0,0,1-2.39.39,2.907,2.907,0,0,1-1.8-1.35,3.857,3.857,0,0,1-.39-2.59l-4.1-.6A6.779,6.779,0,0,0,2830.48,3076.34Zm33.86-11.01a6.2,6.2,0,0,0-3.66-2.45,7.285,7.285,0,0,0-6.35,1.06q-2.88,2.01-4.47,7.89-1.545,5.73-.14,8.81a7.251,7.251,0,0,0,10.12,3.31,7.494,7.494,0,0,0,3.35-4.74,7.361,7.361,0,0,0-.46-5.54,6.042,6.042,0,0,0-3.87-3.15,4.972,4.972,0,0,0-4.3.78c0.82-2.42,1.64-3.93,2.45-4.55a2.748,2.748,0,0,1,2.51-.57,2.252,2.252,0,0,1,1.43,1.01,3.027,3.027,0,0,1,.27,2.01l4.08,0.64A6.6,6.6,0,0,0,2864.34,3065.33Zm-9.19,8.42a2.73,2.73,0,0,1,4.03,1.14,4.91,4.91,0,0,1-.01,3.28,4.66,4.66,0,0,1-1.55,2.71,2.486,2.486,0,0,1-2.14.37,2.779,2.779,0,0,1-1.8-1.65,4.782,4.782,0,0,1-.09-3.33A4.2,4.2,0,0,1,2855.15,3073.75Z"/>
  <circle id="EM37" class="cls-4" cx="2942.37" cy="3297.44" r="20.75"/>
  <path id="_37" data-name="37" class="cls-5" d="M2925.48,3302.34a7.948,7.948,0,0,0,10.01,2.37,6.648,6.648,0,0,0,3.36-4.24,5.261,5.261,0,0,0-.21-3.6,5.14,5.14,0,0,0-2.46-2.56q3.525-.855,4.29-3.66a5.192,5.192,0,0,0-.54-3.97,6.556,6.556,0,0,0-4.32-3.23,7.6,7.6,0,0,0-3.36-.2,5.492,5.492,0,0,0-2.71,1.22,8.741,8.741,0,0,0-2.03,2.78l3.6,1.66a3.583,3.583,0,0,1,1.48-1.88,2.565,2.565,0,0,1,1.99-.25,2.438,2.438,0,0,1,1.54,1.11,2.383,2.383,0,0,1,.17,1.89,2.652,2.652,0,0,1-1.42,1.8,3.751,3.751,0,0,1-2.74.03l-1.35,3.22a7.338,7.338,0,0,1,1.96.2,2.775,2.775,0,0,1,1.79,1.46,3.593,3.593,0,0,1,.16,2.67,3.8,3.8,0,0,1-1.57,2.36,2.832,2.832,0,0,1-2.39.39,2.907,2.907,0,0,1-1.8-1.35,3.857,3.857,0,0,1-.39-2.59l-4.1-.6A6.779,6.779,0,0,0,2925.48,3302.34Zm30.57-8.87a31.17,31.17,0,0,0-6.85,6.99,28.646,28.646,0,0,0-4.28,8.54l3.96,1.07a26.029,26.029,0,0,1,2.66-6.17,29.869,29.869,0,0,1,4.57-6.05,22.67,22.67,0,0,1,4.86-3.94l0.8-2.98-14.01-3.79-1.03,3.81Z"/>
  <circle id="EM38" class="cls-4" cx="3012.37" cy="3569.44" r="20.75"/>
  <path id="_38" data-name="38" class="cls-5" d="M2995.48,3574.34a7.948,7.948,0,0,0,10.01,2.37,6.648,6.648,0,0,0,3.36-4.24,5.293,5.293,0,0,0-.21-3.61,5.161,5.161,0,0,0-2.46-2.55q3.525-.855,4.29-3.66a5.192,5.192,0,0,0-.54-3.97,6.556,6.556,0,0,0-4.32-3.23,7.6,7.6,0,0,0-3.36-.2,5.492,5.492,0,0,0-2.71,1.22,8.741,8.741,0,0,0-2.03,2.78l3.6,1.66a3.583,3.583,0,0,1,1.48-1.88,2.565,2.565,0,0,1,1.99-.25,2.438,2.438,0,0,1,1.54,1.11,2.383,2.383,0,0,1,.17,1.89,2.652,2.652,0,0,1-1.42,1.8,3.749,3.749,0,0,1-2.74.03l-1.35,3.22a7.338,7.338,0,0,1,1.96.2,2.775,2.775,0,0,1,1.79,1.46,3.593,3.593,0,0,1,.16,2.67,3.8,3.8,0,0,1-1.57,2.36,2.832,2.832,0,0,1-2.39.39,2.907,2.907,0,0,1-1.8-1.35,3.857,3.857,0,0,1-.39-2.59l-4.1-.6A6.779,6.779,0,0,0,2995.48,3574.34Zm19.89-3.19a6.69,6.69,0,0,0-.78,8.53,7.847,7.847,0,0,0,4.45,2.84,7.054,7.054,0,0,0,5.52-.49,6.666,6.666,0,0,0,3.19-4.3,5.65,5.65,0,0,0-.07-3.41,5.844,5.844,0,0,0-2.14-2.82,5.048,5.048,0,0,0,2.65-1.19,4.774,4.774,0,0,0,1.49-2.43,5.349,5.349,0,0,0-.61-4.41,8.281,8.281,0,0,0-9.48-2.57,5.355,5.355,0,0,0-2.74,3.5,5.014,5.014,0,0,0,.03,2.77,4.837,4.837,0,0,0,1.81,2.47A5.733,5.733,0,0,0,3015.37,3571.15Zm6.48-7.07a2.644,2.644,0,0,1,2.07-.19,2.479,2.479,0,0,1,1.84,3.22,2.679,2.679,0,0,1-1.22,1.73,2.924,2.924,0,0,1-3.71-1,2.658,2.658,0,0,1-.18-2.1A2.624,2.624,0,0,1,3021.85,3564.08Zm-2.71,8.67a2.672,2.672,0,0,1,2.52-.43,2.929,2.929,0,0,1,1.89,1.5,3.525,3.525,0,0,1,.2,2.64,3.957,3.957,0,0,1-1.55,2.41,2.847,2.847,0,0,1-2.35.34,2.916,2.916,0,0,1-1.9-1.54,3.9,3.9,0,0,1-.16-2.87A3.947,3.947,0,0,1,3019.14,3572.75Z"/>
  <circle id="EM39" class="cls-4" cx="3068.37" cy="3823.44" r="20.75"/>
  <path id="_39" data-name="39" class="cls-5" d="M3051.48,3828.34a7.948,7.948,0,0,0,10.01,2.37,6.648,6.648,0,0,0,3.36-4.24,5.261,5.261,0,0,0-.21-3.6,5.14,5.14,0,0,0-2.46-2.56q3.525-.855,4.29-3.66a5.192,5.192,0,0,0-.54-3.97,6.556,6.556,0,0,0-4.32-3.23,7.6,7.6,0,0,0-3.36-.2,5.492,5.492,0,0,0-2.71,1.22,8.741,8.741,0,0,0-2.03,2.78l3.6,1.66a3.583,3.583,0,0,1,1.48-1.88,2.565,2.565,0,0,1,1.99-.25,2.438,2.438,0,0,1,1.54,1.11,2.383,2.383,0,0,1,.17,1.89,2.652,2.652,0,0,1-1.42,1.8,3.751,3.751,0,0,1-2.74.03l-1.35,3.22a7.338,7.338,0,0,1,1.96.2,2.775,2.775,0,0,1,1.79,1.46,3.593,3.593,0,0,1,.16,2.67,3.8,3.8,0,0,1-1.57,2.36,2.832,2.832,0,0,1-2.39.39,2.907,2.907,0,0,1-1.8-1.35,3.857,3.857,0,0,1-.39-2.59l-4.1-.6A6.779,6.779,0,0,0,3051.48,3828.34Zm18.9,5.49a6.18,6.18,0,0,0,3.69,2.43,7.263,7.263,0,0,0,6.36-1.06q2.88-2.01,4.47-7.87,1.56-5.76.15-8.84a6.888,6.888,0,0,0-4.66-3.96,6.793,6.793,0,0,0-5.46.66,7.5,7.5,0,0,0-3.35,4.72,7.357,7.357,0,0,0,.46,5.56,5.945,5.945,0,0,0,3.83,3.12,5.09,5.09,0,0,0,4.35-.74q-1.245,3.6-2.45,4.53a2.717,2.717,0,0,1-2.47.58,2.335,2.335,0,0,1-1.47-1.02,3,3,0,0,1-.27-2l-4.08-.63A6.641,6.641,0,0,0,3070.38,3833.83Zm9.24-8.44a2.711,2.711,0,0,1-4.02-1.13,6.359,6.359,0,0,1,1.55-6,2.479,2.479,0,0,1,2.13-.39,2.821,2.821,0,0,1,1.82,1.67,4.827,4.827,0,0,1,.07,3.32A4.2,4.2,0,0,1,3079.62,3825.39Z"/>
  <circle id="EM40" class="cls-4" cx="3156.37" cy="4084.44" r="20.75"/>
  <path id="_40" data-name="40" class="cls-5" d="M3149.05,4093.33l1.17-4.3,2.65,0.72,0.98-3.6-2.66-.72,3.67-13.56-3.44-.93L3138.47,4082l-0.97,3.59,8.75,2.37-1.16,4.3Zm-6.74-10.3,6.89-5.98-1.97,7.31Zm21.04-6.52q-2.82,2.085-4.45,8.13-1.665,6.15-.4,9.07a6.359,6.359,0,0,0,4.38,3.76,6.051,6.051,0,0,0,5.43-.88q2.82-2.085,4.46-8.15,1.65-6.09.27-9.27a6.678,6.678,0,0,0-9.69-2.66h0Zm5.71,3.35a3.826,3.826,0,0,1,.45,2.14,25.277,25.277,0,0,1-1.02,5.28,24.491,24.491,0,0,1-1.87,5.22,3.276,3.276,0,0,1-1.37,1.45,2.136,2.136,0,0,1-1.45.12,2.1,2.1,0,0,1-1.19-.83,3.743,3.743,0,0,1-.45-2.13,24.029,24.029,0,0,1,1.02-5.27,24.424,24.424,0,0,1,1.87-5.24,3.264,3.264,0,0,1,1.36-1.45,2.165,2.165,0,0,1,1.46-.12A2.137,2.137,0,0,1,3169.06,4079.86Z"/>
  <circle id="EM41" class="cls-4" cx="3299.37" cy="4351.44" r="20.75"/>
  <path id="_41" data-name="41" class="cls-5" d="M3292.05,4360.33l1.17-4.3,2.65,0.72,0.98-3.6-2.66-.72,3.67-13.56-3.44-.93L3281.47,4349l-0.97,3.59,8.75,2.37-1.16,4.3Zm-6.74-10.3,6.89-5.98-1.97,7.31Zm30.04-6.43-3.33-.9a7.832,7.832,0,0,1-3.51,2.72,12.169,12.169,0,0,1-4.02,1.05l-1.01,3.72a14.714,14.714,0,0,0,6.14-1.68l-4.18,15.45,4.1,1.1Z"/>
  <circle id="EM42" class="cls-4" cx="3373.37" cy="4591.44" r="20.75"/>
  <path id="_42" data-name="42" class="cls-5" d="M3366.05,4600.33l1.17-4.3,2.65,0.72,0.98-3.6-2.66-.72,3.67-13.56-3.44-.93L3355.47,4589l-0.97,3.59,8.75,2.37-1.16,4.3Zm-6.74-10.3,6.89-5.98-1.97,7.31Zm20.47,9.93a8.1,8.1,0,0,1,1.15-.91c0.45-.29,1.48-0.86,3.1-1.69a27.686,27.686,0,0,0,3.42-2.01,11.635,11.635,0,0,0,2.38-2.29,7.573,7.573,0,0,0,1.26-2.6,5.8,5.8,0,0,0-.66-4.74,7.217,7.217,0,0,0-4.51-3.05,8,8,0,0,0-5.21.17,6.982,6.982,0,0,0-3.61,4.24l3.98,1.51a4.105,4.105,0,0,1,1.57-2.33,2.821,2.821,0,0,1,2.25-.22,2.858,2.858,0,0,1,1.83,1.29,2.917,2.917,0,0,1,.17,2.3,4.649,4.649,0,0,1-1.53,2.28,29.675,29.675,0,0,1-4.34,2.58,28.751,28.751,0,0,0-6,3.88,10.27,10.27,0,0,0-2.5,3.72l14.36,3.88,1.03-3.8Z"/>
  <circle id="EM43" class="cls-4" cx="2935.37" cy="4641.44" r="20.75"/>
  <path id="_43" data-name="43" class="cls-5" d="M2928.05,4650.33l1.17-4.3,2.65,0.72,0.98-3.6-2.66-.72,3.67-13.56-3.44-.93L2917.47,4639l-0.97,3.59,8.75,2.37-1.16,4.3Zm-6.74-10.3,6.89-5.98-1.97,7.31Zm16.17,11.45a7.966,7.966,0,0,0,10.01,2.38,6.666,6.666,0,0,0,3.36-4.25,5.261,5.261,0,0,0-.21-3.6,5.14,5.14,0,0,0-2.46-2.56q3.525-.855,4.29-3.66a5.2,5.2,0,0,0-.54-3.97,6.58,6.58,0,0,0-4.32-3.23,7.6,7.6,0,0,0-3.36-.2,5.452,5.452,0,0,0-2.71,1.22,8.741,8.741,0,0,0-2.03,2.78l3.6,1.66a3.583,3.583,0,0,1,1.48-1.88,2.608,2.608,0,0,1,1.99-.25,2.438,2.438,0,0,1,1.54,1.11,2.383,2.383,0,0,1,.17,1.89,2.652,2.652,0,0,1-1.42,1.8,3.8,3.8,0,0,1-2.74.04l-1.35,3.21a7.3,7.3,0,0,1,1.96.21,2.72,2.72,0,0,1,1.78,1.45,3.543,3.543,0,0,1,.17,2.67,3.835,3.835,0,0,1-1.57,2.36,2.832,2.832,0,0,1-2.39.39,2.872,2.872,0,0,1-1.8-1.35,3.857,3.857,0,0,1-.39-2.59l-4.1-.6A6.779,6.779,0,0,0,2937.48,4651.48Z"/>
  <circle id="EM44" class="cls-4" cx="4154.37" cy="4786.44" r="20.75"/>
  <path id="_44" data-name="44" class="cls-5" d="M4147.05,4795.33l1.17-4.3,2.65,0.72,0.98-3.6-2.66-.72,3.67-13.56-3.44-.93L4136.47,4784l-0.97,3.59,8.75,2.37-1.16,4.3Zm-6.74-10.3,6.89-5.98-1.97,7.31Zm25.74,15.44,1.17-4.3,2.65,0.72,0.98-3.6-2.66-.72,3.67-13.56-3.44-.93-12.95,11.06-0.97,3.59,8.75,2.37-1.16,4.3Zm-6.74-10.3,6.89-5.98-1.97,7.31Z"/>
  <circle id="EM45" class="cls-4" cx="4612.37" cy="4996.44" r="20.75"/>
  <path id="_45" data-name="45" class="cls-5" d="M4605.05,5005.33l1.17-4.3,2.65,0.72,0.98-3.6-2.66-.72,3.67-13.56-3.44-.93L4594.47,4994l-0.97,3.59,8.75,2.37-1.16,4.3Zm-6.74-10.3,6.89-5.98-1.97,7.31Zm16.36,11.59a7.486,7.486,0,0,0,4.4,2.9,7.016,7.016,0,0,0,6.55-1.26,8.024,8.024,0,0,0,2.81-4.3,7.426,7.426,0,0,0-.5-5.66,6.4,6.4,0,0,0-4.09-3.24,6.5,6.5,0,0,0-2.98-.07l1.62-3.46,7.73,2.1,1.04-3.84-10.84-2.93-5.11,10.56,3.2,1.38a4.336,4.336,0,0,1,3.58-.71,3.034,3.034,0,0,1,2.03,1.61,4.484,4.484,0,0,1,.09,3.19,4.905,4.905,0,0,1-1.74,2.9,2.9,2.9,0,0,1-4.22-.89,3.565,3.565,0,0,1-.44-2.47l-4.2-.68A6.755,6.755,0,0,0,4614.67,5006.62Z"/>
  <circle id="EM46" class="cls-4" cx="4756.37" cy="4862.44" r="20.75"/>
  <path id="_46" data-name="46" class="cls-5" d="M4749.05,4871.33l1.17-4.3,2.65,0.72,0.98-3.6-2.66-.72,3.67-13.56-3.44-.93L4738.47,4860l-0.97,3.59,8.75,2.37-1.16,4.3Zm-6.74-10.3,6.89-5.98-1.97,7.31Zm31.03-4.7a6.2,6.2,0,0,0-3.66-2.45,7.285,7.285,0,0,0-6.35,1.06c-1.92,1.34-3.4,3.97-4.47,7.89q-1.545,5.73-.14,8.81a7.251,7.251,0,0,0,10.12,3.31,7.467,7.467,0,0,0,3.35-4.74,7.361,7.361,0,0,0-.46-5.54,6.042,6.042,0,0,0-3.87-3.15,4.972,4.972,0,0,0-4.3.78c0.82-2.42,1.64-3.93,2.45-4.55a2.748,2.748,0,0,1,2.51-.57,2.252,2.252,0,0,1,1.43,1.01,3.027,3.027,0,0,1,.27,2.01l4.08,0.64A6.6,6.6,0,0,0,4773.34,4856.33Zm-9.19,8.42a2.73,2.73,0,0,1,4.03,1.14,4.91,4.91,0,0,1-.01,3.28,4.66,4.66,0,0,1-1.55,2.71,2.486,2.486,0,0,1-2.14.37,2.8,2.8,0,0,1-1.8-1.65,4.782,4.782,0,0,1-.09-3.33A4.2,4.2,0,0,1,4764.15,4864.75Z"/>
  <circle id="EM47" class="cls-4" cx="4847.37" cy="4626.44" r="20.75"/>
  <path id="_47" data-name="47" class="cls-5" d="M4840.05,4635.33l1.17-4.3,2.65,0.72,0.98-3.6-2.66-.72,3.67-13.56-3.44-.93L4829.47,4624l-0.97,3.59,8.75,2.37-1.16,4.3Zm-6.74-10.3,6.89-5.98-1.97,7.31Zm27.74-2.56a31.17,31.17,0,0,0-6.85,6.99,28.646,28.646,0,0,0-4.28,8.54l3.96,1.07a26.029,26.029,0,0,1,2.66-6.17,29.869,29.869,0,0,1,4.57-6.05,22.67,22.67,0,0,1,4.86-3.94l0.8-2.98-14.01-3.79-1.03,3.81Z"/>
  <circle id="EM48" class="cls-4" cx="4698.37" cy="4311.44" r="20.75"/>
  <path id="_48" data-name="48" class="cls-5" d="M4691.05,4320.33l1.17-4.3,2.65,0.72,0.98-3.6-2.66-.72,3.67-13.56-3.44-.93L4680.47,4309l-0.97,3.59,8.75,2.37-1.16,4.3Zm-6.74-10.3,6.89-5.98-1.97,7.31Zm17.06,3.12a6.69,6.69,0,0,0-.78,8.53,7.847,7.847,0,0,0,4.45,2.84,7.054,7.054,0,0,0,5.52-.49,6.666,6.666,0,0,0,3.19-4.3,5.65,5.65,0,0,0-.07-3.41,5.89,5.89,0,0,0-2.14-2.82,5.013,5.013,0,0,0,2.65-1.19,4.774,4.774,0,0,0,1.49-2.43,5.349,5.349,0,0,0-.61-4.41,8.281,8.281,0,0,0-9.48-2.57,5.355,5.355,0,0,0-2.74,3.5,5.109,5.109,0,0,0,.02,2.77,4.918,4.918,0,0,0,1.82,2.47A5.733,5.733,0,0,0,4701.37,4313.15Zm6.48-7.07a2.644,2.644,0,0,1,2.07-.19,2.479,2.479,0,0,1,1.84,3.22,2.679,2.679,0,0,1-1.22,1.73A2.737,2.737,0,0,1,4707.85,4306.08Zm-2.71,8.67a2.672,2.672,0,0,1,2.52-.43,2.929,2.929,0,0,1,1.89,1.5,3.525,3.525,0,0,1,.2,2.64,3.957,3.957,0,0,1-1.55,2.41,2.847,2.847,0,0,1-2.35.34,2.916,2.916,0,0,1-1.9-1.54,3.9,3.9,0,0,1-.16-2.87A3.947,3.947,0,0,1,4705.14,4314.75Z"/>
  <circle id="EM49" class="cls-4" cx="4330.37" cy="3922.44" r="20.75"/>
  <path id="_49" data-name="49" class="cls-5" d="M4323.05,3931.33l1.17-4.3,2.65,0.72,0.98-3.6-2.66-.72,3.67-13.56-3.44-.93L4312.47,3920l-0.97,3.59,8.75,2.37-1.16,4.3Zm-6.74-10.3,6.89-5.98-1.97,7.31Zm16.07,11.8a6.18,6.18,0,0,0,3.69,2.43,7.263,7.263,0,0,0,6.36-1.06q2.88-2.01,4.47-7.87,1.56-5.76.15-8.84a6.888,6.888,0,0,0-4.66-3.96,6.793,6.793,0,0,0-5.46.66,7.5,7.5,0,0,0-3.35,4.72,7.357,7.357,0,0,0,.46,5.56,5.945,5.945,0,0,0,3.83,3.12,5.09,5.09,0,0,0,4.35-.74q-1.245,3.6-2.45,4.53a2.717,2.717,0,0,1-2.47.58,2.335,2.335,0,0,1-1.47-1.02,3,3,0,0,1-.27-2l-4.08-.63A6.641,6.641,0,0,0,4332.38,3932.83Zm9.24-8.44a2.711,2.711,0,0,1-4.02-1.13,6.359,6.359,0,0,1,1.55-6,2.442,2.442,0,0,1,2.13-.38,2.78,2.78,0,0,1,1.82,1.66,4.827,4.827,0,0,1,.07,3.32A4.2,4.2,0,0,1,4341.62,3924.39Z"/>
  <circle id="EM50" class="cls-4" cx="4043.37" cy="3556.44" r="20.75"/>
  <path id="_50" data-name="50" class="cls-5" d="M4026.67,3561.48a7.486,7.486,0,0,0,4.4,2.9,7.046,7.046,0,0,0,6.55-1.27,7.961,7.961,0,0,0,2.81-4.29,7.426,7.426,0,0,0-.5-5.66,6.48,6.48,0,0,0-7.07-3.31l1.62-3.46,7.73,2.09,1.04-3.83-10.84-2.93-5.11,10.56,3.2,1.38a4.3,4.3,0,0,1,3.58-.71,3.034,3.034,0,0,1,2.03,1.61,4.48,4.48,0,0,1,.09,3.19,4.905,4.905,0,0,1-1.74,2.9,2.85,2.85,0,0,1-2.46.46,2.892,2.892,0,0,1-1.76-1.35,3.565,3.565,0,0,1-.44-2.47l-4.2-.69A6.781,6.781,0,0,0,4026.67,3561.48Zm23.68-12.97q-2.82,2.085-4.45,8.13-1.665,6.15-.4,9.07a6.359,6.359,0,0,0,4.38,3.76,6.051,6.051,0,0,0,5.43-.88q2.82-2.085,4.46-8.15,1.65-6.09.27-9.27a6.678,6.678,0,0,0-9.69-2.66h0Zm5.71,3.35a3.826,3.826,0,0,1,.45,2.14,25.277,25.277,0,0,1-1.02,5.28,24.491,24.491,0,0,1-1.87,5.22,3.276,3.276,0,0,1-1.37,1.45,2.136,2.136,0,0,1-1.45.12,2.1,2.1,0,0,1-1.19-.83,3.743,3.743,0,0,1-.45-2.13,24.029,24.029,0,0,1,1.02-5.27,24.424,24.424,0,0,1,1.87-5.24,3.264,3.264,0,0,1,1.36-1.45,2.165,2.165,0,0,1,1.46-.12A2.137,2.137,0,0,1,4056.06,3551.86Z"/>
  <circle id="EM51" class="cls-4" cx="3798.37" cy="3224.44" r="20.75"/>
  <path id="_51" data-name="51" class="cls-5" d="M3781.67,3229.48a7.486,7.486,0,0,0,4.4,2.9,7.046,7.046,0,0,0,6.55-1.27,7.961,7.961,0,0,0,2.81-4.29,7.426,7.426,0,0,0-.5-5.66,6.48,6.48,0,0,0-7.07-3.31l1.62-3.46,7.73,2.09,1.04-3.83-10.84-2.93-5.11,10.56,3.2,1.38a4.3,4.3,0,0,1,3.58-.71,3.034,3.034,0,0,1,2.03,1.61,4.48,4.48,0,0,1,.09,3.19,4.905,4.905,0,0,1-1.74,2.9,2.855,2.855,0,0,1-2.46.46,2.892,2.892,0,0,1-1.76-1.35,3.565,3.565,0,0,1-.44-2.47l-4.2-.69A6.781,6.781,0,0,0,3781.67,3229.48Zm32.68-12.88-3.33-.9a7.832,7.832,0,0,1-3.51,2.72,12.169,12.169,0,0,1-4.02,1.05l-1.01,3.72a14.566,14.566,0,0,0,6.14-1.68l-4.18,15.45,4.1,1.1Z"/>
  <circle id="EM52" class="cls-4" cx="3609.37" cy="2885.44" r="20.75"/>
  <path id="_52" data-name="52" class="cls-5" d="M3592.67,2890.48a7.486,7.486,0,0,0,4.4,2.9,7.046,7.046,0,0,0,6.55-1.27,7.961,7.961,0,0,0,2.81-4.29,7.426,7.426,0,0,0-.5-5.66,6.48,6.48,0,0,0-7.07-3.31l1.62-3.46,7.73,2.09,1.04-3.83-10.84-2.93-5.11,10.56,3.2,1.38a4.3,4.3,0,0,1,3.58-.71,3.034,3.034,0,0,1,2.03,1.61,4.48,4.48,0,0,1,.09,3.19,4.905,4.905,0,0,1-1.74,2.9,2.85,2.85,0,0,1-2.46.46,2.892,2.892,0,0,1-1.76-1.35,3.565,3.565,0,0,1-.44-2.47l-4.2-.69A6.781,6.781,0,0,0,3592.67,2890.48Zm23.11,3.48a8.1,8.1,0,0,1,1.15-.91c0.45-.29,1.48-0.86,3.1-1.69a29.323,29.323,0,0,0,3.42-2,11.93,11.93,0,0,0,2.38-2.3,7.573,7.573,0,0,0,1.26-2.6,5.8,5.8,0,0,0-.66-4.74,7.217,7.217,0,0,0-4.51-3.05,8,8,0,0,0-5.21.17,6.982,6.982,0,0,0-3.61,4.24l3.98,1.51a4.105,4.105,0,0,1,1.57-2.33,2.821,2.821,0,0,1,2.25-.22,2.858,2.858,0,0,1,1.83,1.29,2.917,2.917,0,0,1,.17,2.3,4.649,4.649,0,0,1-1.53,2.28,29.675,29.675,0,0,1-4.34,2.58,28.751,28.751,0,0,0-6,3.88,10.27,10.27,0,0,0-2.5,3.72l14.36,3.88,1.03-3.8Z"/>
  <circle id="EM53" class="cls-4" cx="3511.37" cy="2585.44" r="20.75"/>
  <path id="_53" data-name="53" class="cls-5" d="M3494.67,2590.48a7.486,7.486,0,0,0,4.4,2.9,7.046,7.046,0,0,0,6.55-1.27,7.961,7.961,0,0,0,2.81-4.29,7.426,7.426,0,0,0-.5-5.66,6.48,6.48,0,0,0-7.07-3.31l1.62-3.46,7.73,2.09,1.04-3.83-10.84-2.93-5.11,10.56,3.2,1.38a4.3,4.3,0,0,1,3.58-.71,3.034,3.034,0,0,1,2.03,1.61,4.48,4.48,0,0,1,.09,3.19,4.905,4.905,0,0,1-1.74,2.9,2.85,2.85,0,0,1-2.46.46,2.892,2.892,0,0,1-1.76-1.35,3.565,3.565,0,0,1-.44-2.47l-4.2-.69A6.781,6.781,0,0,0,3494.67,2590.48Zm18.81,5a7.966,7.966,0,0,0,10.01,2.38,6.666,6.666,0,0,0,3.36-4.25,5.261,5.261,0,0,0-.21-3.6,5.14,5.14,0,0,0-2.46-2.56q3.525-.855,4.29-3.66a5.2,5.2,0,0,0-.54-3.97,6.58,6.58,0,0,0-4.32-3.23,7.6,7.6,0,0,0-3.36-.2,5.582,5.582,0,0,0-2.71,1.22,8.741,8.741,0,0,0-2.03,2.78l3.6,1.66a3.583,3.583,0,0,1,1.48-1.88,2.562,2.562,0,0,1,1.99-.24,2.426,2.426,0,0,1,1.54,1.1,2.383,2.383,0,0,1,.17,1.89,2.652,2.652,0,0,1-1.42,1.8,3.8,3.8,0,0,1-2.74.04l-1.35,3.21a7.3,7.3,0,0,1,1.96.21,2.72,2.72,0,0,1,1.78,1.45,3.543,3.543,0,0,1,.17,2.67,3.835,3.835,0,0,1-1.57,2.36,2.832,2.832,0,0,1-2.39.39,2.872,2.872,0,0,1-1.8-1.35,3.857,3.857,0,0,1-.39-2.59l-4.1-.59A6.763,6.763,0,0,0,3513.48,2595.48Z"/>
  <circle id="EM54" class="cls-4" cx="3388.37" cy="2286.44" r="20.75"/>
  <path id="_54" data-name="54" class="cls-5" d="M3371.67,2291.48a7.486,7.486,0,0,0,4.4,2.9,7.046,7.046,0,0,0,6.55-1.27,7.961,7.961,0,0,0,2.81-4.29,7.426,7.426,0,0,0-.5-5.66,6.48,6.48,0,0,0-7.07-3.31l1.62-3.46,7.73,2.09,1.04-3.83-10.84-2.93-5.11,10.56,3.2,1.38a4.3,4.3,0,0,1,3.58-.71,3.034,3.034,0,0,1,2.03,1.61,4.48,4.48,0,0,1,.09,3.19,4.905,4.905,0,0,1-1.74,2.9,2.855,2.855,0,0,1-2.46.46,2.892,2.892,0,0,1-1.76-1.35,3.565,3.565,0,0,1-.44-2.47l-4.2-.69A6.781,6.781,0,0,0,3371.67,2291.48Zm28.38,9,1.17-4.31,2.65,0.72,0.98-3.6-2.66-.72,3.67-13.56-3.44-.93-12.95,11.06-0.97,3.59,8.75,2.37-1.16,4.3Zm-6.74-10.31,6.89-5.98-1.97,7.31Z"/>
  <circle id="EM55" class="cls-4" cx="3323.37" cy="2063.44" r="20.75"/>
  <path id="_55" data-name="55" class="cls-5" d="M3306.67,2068.48a7.486,7.486,0,0,0,4.4,2.9,7.046,7.046,0,0,0,6.55-1.27,7.961,7.961,0,0,0,2.81-4.29,7.426,7.426,0,0,0-.5-5.66,6.37,6.37,0,0,0-4.09-3.24,6.5,6.5,0,0,0-2.98-.07l1.62-3.46,7.73,2.09,1.04-3.83-10.84-2.93-5.11,10.56,3.2,1.38a4.3,4.3,0,0,1,3.58-.71,3.034,3.034,0,0,1,2.03,1.61,4.48,4.48,0,0,1,.09,3.19,4.905,4.905,0,0,1-1.74,2.9,2.85,2.85,0,0,1-2.46.46,2.892,2.892,0,0,1-1.76-1.35,3.565,3.565,0,0,1-.44-2.47l-4.2-.69A6.781,6.781,0,0,0,3306.67,2068.48Zm19,5.14a7.486,7.486,0,0,0,4.4,2.9,7.016,7.016,0,0,0,6.55-1.26,8.024,8.024,0,0,0,2.81-4.3,7.426,7.426,0,0,0-.5-5.66,6.4,6.4,0,0,0-4.09-3.24,6.5,6.5,0,0,0-2.98-.07l1.62-3.46,7.73,2.1,1.04-3.84-10.84-2.93-5.11,10.56,3.2,1.38a4.336,4.336,0,0,1,3.58-.71,3.034,3.034,0,0,1,2.03,1.61,4.484,4.484,0,0,1,.09,3.19,4.905,4.905,0,0,1-1.74,2.9,2.9,2.9,0,0,1-4.22-.89,3.621,3.621,0,0,1-.45-2.47l-4.19-.68A6.755,6.755,0,0,0,3325.67,2073.62Z"/>
  <circle id="EM65" class="cls-4" cx="5467.37" cy="5079.44" r="20.75"/>
  <path id="_65" data-name="65" class="cls-5" d="M5465.34,5068.19a6.211,6.211,0,0,0-3.66-2.46,7.288,7.288,0,0,0-6.35,1.07q-2.88,2.01-4.46,7.89-1.56,5.73-.15,8.81a7.251,7.251,0,0,0,10.12,3.31,7.494,7.494,0,0,0,3.35-4.74,7.356,7.356,0,0,0-.46-5.54,6.012,6.012,0,0,0-3.87-3.15,4.972,4.972,0,0,0-4.3.78c0.82-2.42,1.64-3.93,2.45-4.55a2.748,2.748,0,0,1,2.51-.57,2.252,2.252,0,0,1,1.43,1.01,3.027,3.027,0,0,1,.27,2.01l4.08,0.64A6.6,6.6,0,0,0,5465.34,5068.19Zm-9.19,8.42a2.73,2.73,0,0,1,4.03,1.14,4.819,4.819,0,0,1-.01,3.27,4.658,4.658,0,0,1-1.55,2.72,2.465,2.465,0,0,1-2.13.37,2.793,2.793,0,0,1-1.81-1.65,4.782,4.782,0,0,1-.09-3.33A4.2,4.2,0,0,1,5456.15,5076.61Zm13.52,13.01a7.486,7.486,0,0,0,4.4,2.9,7.016,7.016,0,0,0,6.55-1.26,8.024,8.024,0,0,0,2.81-4.3,7.426,7.426,0,0,0-.5-5.66,6.4,6.4,0,0,0-4.09-3.24,6.5,6.5,0,0,0-2.98-.07l1.62-3.46,7.73,2.1,1.04-3.84-10.84-2.93-5.11,10.56,3.2,1.38a4.336,4.336,0,0,1,3.58-.71,3.056,3.056,0,0,1,2.03,1.61,4.484,4.484,0,0,1,.09,3.19,4.905,4.905,0,0,1-1.74,2.9,2.9,2.9,0,0,1-4.22-.89,3.565,3.565,0,0,1-.44-2.47l-4.2-.68A6.755,6.755,0,0,0,5469.67,5089.62Z"/>
</svg>
