<svg id="Manzana 29" data-desarrollo="villa-toscana3" data-name="Manzana 29" xmlns="http://www.w3.org/2000/svg" xmlns:xlink="http://www.w3.org/1999/xlink" width="6000" height="5500" viewBox="0 0 6000 5500">
  <defs>
    <style>
      @import url(./css/mapas.css);
    </style>
    <filter id="filter" filterUnits="userSpaceOnUse">
      <feComposite result="composite" operator="in" in2="SourceGraphic"/>
      <feBlend result="blend" in2="SourceGraphic"/>
    </filter>
  </defs> 
    <g class="cls-1" id="map" pointer-events="all">
    <path id="M29-L1" class="cls-2" d="M331.011,1204.6l95,29.92-22.2,69.1-76.493-100.13Z"/>
    <path id="M29-L2" class="cls-2" d="M426.01,1234.52l-22.245,67.88,19.124,25.03,27.8-85.16Z"/>
    <path id="M29-L3" class="cls-2" d="M450.684,1242.27l-27.834,83.94,20.382,26.22L475.4,1251.25Z"/>
    <path id="M29-L4" class="cls-2" d="M475.4,1251.25l-32.205,99.96,7.672,10.74,14.837,5.63,33.15-108.53Z"/>
    <path id="M29-L5" class="cls-2" d="M498.852,1259.05c-11.465,36.31-22.895,72.09-34.366,108.5q12.983,3.315,25.926,7.24c11.415-35.56,22.878-71.85,34.334-108.03Z"/>
    <path id="M29-L6" class="cls-2" d="M524.746,1266.76l-34.37,108.58,27.114,7.68,31.931-108.5Z"/>
    <path id="M29-L7" class="cls-2" d="M549.46,1275.74l-31.97,107.28,25.856,6.49L574.1,1282.27Z"/>
    <path id="M29-L8" class="cls-2" d="M574.1,1282.27l-30.749,107.24,24.635,6.54,32.048-104.84Z"/>
    <path id="M29-L9" class="cls-2" d="M601.249,1291.17l-33.268,104.88,24.675,7.75L624.7,1298.97Z"/>
    <path id="M29-L10" class="cls-2" d="M624.5,1299.4c-10.375,34.28-21.206,69.55-31.847,104.4l24.635,6.54c10.982-34.73,22.48-70.57,32.47-103.16Q637.242,1303.055,624.5,1299.4Z"/>
    <path id="M29-L11" class="cls-2" d="M650.1,1306.64c-10.969,33.61-22.548,68.79-34.033,103.74q13.538,3.225,27.075,6.46c10.791-34.79,21.161-68.48,32.032-103.48C666.666,1311.52,658.316,1309.26,650.1,1306.64Z"/>
    <path id="M29-L12" class="cls-2" d="M675.233,1313.22l-32.048,104.84,24.635,6.53,32.087-103.61Z"/>
    <path id="M29-L13" class="cls-2" d="M699.907,1320.98L667.82,1424.59l25.855,6.5,32.127-102.4Z"/>
    <path id="M29-L14" class="cls-2" d="M725.8,1328.69l-33.346,102.44,27.114,7.68,29.686-102.32Z"/>
    <path id="M29-L15" class="cls-2" d="M749.256,1336.49L719.57,1438.81l24.635,6.53,30.946-101.14Z"/>
    <path id="M29-L16" class="cls-2" d="M775.151,1344.2l-32.2,99.96,27.114,7.68,29.726-101.1Z"/>
    <path id="M29-L17" class="cls-2" d="M799.786,1350.74c-10.37,33.8-20.5,67.21-30.913,101.08q12.6,3.465,24.9,7.39c10.437-32.83,21.217-66.22,31.946-99.53Z"/>
    <path id="M29-L18" class="cls-2" d="M825.72,1359.68l-32.205,99.95,24.674,7.76,32.166-101.18Z"/>
    <path id="M29-L19" class="cls-2" d="M850.355,1366.21l-32.205,99.96,25.895,7.72,32.2-99.96Z"/>
    <path id="M29-L20" class="cls-2" d="M876.249,1373.93l-32.244,98.74,25.934,8.93,31.024-98.69Z"/>
    <path id="M29-L21" class="cls-2" d="M900.963,1382.91l-29.843,97.44,24.713,8.97,29.8-98.66Z"/>
    <path id="M29-L22" class="cls-2" d="M925.637,1390.66l-29.8,98.66,24.636,6.54,31.063-97.48Z"/>
    <path id="M29-L23" class="cls-2" d="M951.532,1398.38l-31.1,96.26,27.114,7.67,28.662-96.17Z"/>
    <path id="M29-L24" class="cls-2" d="M976.206,1406.14l-29.882,96.21,25.855,6.5,28.661-96.18Z"/>
    <path id="M29-L25" class="cls-2" d="M1000.84,1412.67l-29.881,96.22,25.9,7.72,28.666-96.18Z"/>
    <path id="M29-L26" class="cls-2" d="M1025.52,1420.43l-28.627,97.4,25.857,6.49,28.66-96.18Z"/>
    <path id="M29-L27" class="cls-2" d="M1051.41,1428.14l-28.66,96.18,24.63,6.54,28.74-93.74Z"/>
    <path id="M29-L28" class="cls-2" d="M1076.12,1437.12l-29.96,93.78,27.12,7.68,27.48-94.92Z"/>
    <path id="M29-L29" class="cls-2" d="M1100.76,1443.66l-27.52,93.7,24.67,7.75,28.74-93.74Z"/>
    <path id="M29-L30" class="cls-2" d="M1126.65,1451.37c-9.49,31.11-19.37,62.84-28.79,93.84,8.31,2.67,16.84,4.97,25.52,7.04,9.65-31.59,18.75-62.27,27.95-93.12Q1138.985,1455.245,1126.65,1451.37Z"/>
    <path id="M29-L31" class="cls-2" d="M1151.33,1459.13l-27.56,92.48,24.67,7.76,28.78-92.52Z"/>
    <path id="M29-L32" class="cls-2" d="M1177.22,1466.85l-28.78,92.52,25.9,7.71,27.56-92.48Z"/>
    <path id="M29-L33" class="cls-2" d="M1201.9,1474.6l-27.56,92.48,24.63,6.54,27.6-91.26Z"/>
    <path id="M29-L34" class="cls-2" d="M1226.57,1482.36l-27.6,91.26,24.68,7.75,28.82-91.3Z"/>
    <path id="M29-L35" class="cls-2" d="M1252.47,1490.07l-27.6,91.26,24.63,6.54,26.42-90Z"/>
    <path id="M29-L36" class="cls-2" d="M1275.92,1497.87c-8.89,30.06-17.4,59.86-26.36,89.96q12.8,3.57,25.04,7.51c8.71-29.68,18.02-59.75,27.22-89.75Q1288.86,1501.72,1275.92,1497.87Z"/>
    <path id="M29-L37" class="cls-2" d="M1301.82,1505.59l-27.68,88.82,25.85,6.49,25.28-87.52Z"/>
    <path id="M29-L38" class="cls-2" d="M1325.27,1513.38c-8.81,29.68-17.66,58.97-26.46,88.72,8.6,2.23,17.23,4.7,25.86,7.34,8.86-29.07,17.67-58.77,26.49-88.34Q1338.215,1517.245,1325.27,1513.38Z"/>
    <path id="M29-L39" class="cls-2" d="M1351.16,1521.1c-8.83,29.6-17.62,59.19-25.79,87.93,8.34,2.47,16.52,5.13,24.59,7.9,8.47-29.11,17.89-59.38,27.06-89.33Q1364.09,1524.345,1351.16,1521.1Z"/>
    <path id="M29-L40" class="cls-2" d="M1377.02,1527.6c-9.33,29.39-18.27,57.92-27.66,87.46q12.81,3.465,25.09,8.13c8.73-28.05,18.06-57.45,27.28-86.62Q1389.37,1532.085,1377.02,1527.6Z"/>
    <path id="M29-L41" class="cls-2" d="M1402.19,1535.61c-9.38,30.34-18.1,59.29-26.95,88.52q13.53,3.225,27.07,6.46c8.37-28.18,17.12-57.17,25.42-85.21A261.637,261.637,0,0,0,1402.19,1535.61Z"/>
    <path id="M29-L42" class="cls-2" d="M1427.73,1544.52c-8.9,28.99-17.79,57.85-26.64,86.11q12.945,3.855,25.9,7.72c8.84-28.77,17.69-57.7,26.53-86.35C1444.91,1549.8,1436.32,1547.12,1427.73,1544.52Z"/>
    <path id="M29-L43" class="cls-2" d="M1453.52,1552.01l-26.53,86.34,24.63,6.53,26.54-86.34Z"/>
    <path id="M29-L44" class="cls-2" d="M1478.16,1558.54l-26.54,86.34,24.64,6.54,26.57-85.12Z"/>
    <path id="M29-L45" class="cls-2" d="M1502.83,1566.3l-26.57,85.12,24.67,7.75,25.36-85.08Z"/>
    <path id="M29-L46" class="cls-2" d="M1526.29,1574.09l-25.4,83.86,27.16,8.9,24.17-83.82Z"/>
    <path id="M29-L47" class="cls-2" d="M1552.22,1583.03l-24.17,83.82,24.63,6.54,25.43-82.64Z"/>
    <path id="M29-L48" class="cls-2" d="M1578.11,1590.75l-25.43,82.64,24.67,7.75,25.4-83.86Z"/>
    <path id="M29-L49" class="cls-2" d="M1602.75,1597.28c-8.5,27.6-16.9,54.97-25.42,82.61q13.08,3.54,25.99,7.49c8.36-26.83,16.88-54.03,25.36-81.16Q1615.72,1601.75,1602.75,1597.28Z"/>
    <path id="M29-L50" class="cls-2" d="M1628.68,1606.22c-8.7,27.51-18.26,55.32-25.4,80.76,8.02,1.82,16.26,3.91,24.7,6.1,8.27-25.32,16.92-52.47,25.38-79.11Q1641.015,1610.1,1628.68,1606.22Z"/>
    <path id="M29-L51" class="cls-2" d="M1653.36,1613.97c-9.04,26.46-17.58,52.41-26.7,78.95,9.08,2.54,17.87,5.36,26.43,8.43,7.83-26.04,16.46-52.91,24.94-79.62Q1665.7,1617.86,1653.36,1613.97Z"/>
    <path id="M29-L52" class="cls-2" d="M1678.03,1621.73c-8.48,26.65-17.06,53.71-25.34,79.48q12.225,3.66,24.5,7.1c8.46-26.09,17.01-52.53,25.52-78.82Q1690.365,1625.605,1678.03,1621.73Z"/>
    <path id="M29-L53" class="cls-2" d="M1702.71,1629.49l-26.81,77.8,27.11,7.68,25.63-76.55Z"/>
    <path id="M29-L54" class="cls-2" d="M1728.64,1638.42l-25.63,76.55,25.89,7.71,24.37-77.72Z"/>
    <path id="M29-L55" class="cls-2" d="M1753.27,1644.96l-25.59,77.76,25.86,6.5,25.63-76.54Z"/>
    <path id="M29-L56" class="cls-2" d="M1779.17,1652.68l-26.85,76.58,27.11,7.67,23.15-77.68Z"/>
    <path id="M29-L57" class="cls-2" d="M1802.58,1659.25l-23.15,77.68,24.6,5.32,24.45-75.28Z"/>
    <path id="M29-L58" class="cls-2" d="M1828.48,1666.97l-24.45,75.28,28.37,8.86,20.75-76.39Z"/>
    <path id="M29-L59" class="cls-2" d="M1853.15,1674.72l-21.97,76.43,23.42,6.57,24.45-75.28Z"/>
    <path id="M29-L60" class="cls-2" d="M1879.05,1682.44l-23.23,75.24,25.85,6.5,22.05-73.98Z"/>
    <path id="M29-L61" class="cls-2" d="M1903.72,1690.2c-7.3,24.54-14.81,49.62-22.08,74.08,8,2.71,16.17,4.99,24.45,7.01,7.28-22.45,14.28-44.16,21.32-65.98q-5.085-6.555-10.19-13.1Z"/>
    <path id="M29-L62" class="cls-2" d="M1927.41,1705.31l-21.1,65.41,40.77,14.56,9.76-.31,9.56-6.41,4.69-6.26-1.61-12.16Z"/>
    </g>
    <g class="cls-1">
    <!-- <path data-manzana="M21" id="M21-2" data-name="M21" class="cls-2" d="M2203.7,3796.75l-17.58-5.01-13.64,70.14,16.64,4.12Z"/> -->
    <path data-manzana="M21" id="M21-2" data-name="M21" class="cls-2" d="M2220.56,3710.92l-31.47,154.16-49.91-12.36-140.85-178.7s-9.48-9.66-7.8-16.3,6.22-10.7,21.83-7.04S2220.56,3710.92,2220.56,3710.92Z"/>
    <path data-manzana="M22" id="M22-2" data-name="M22" class="cls-2" d="M2261.52,3502.34L2082,3450.47l-169.32-48.48-95.29-26.7-32.35-8.27s-10.31-3.74-11.77,5.84-0.69,8.27-.69,8.27l12.41,17.1,59.99,77.25,71.46,93.45,164.69,46.78,148.97,42.63Z"/>
    <path data-manzana="M23" id="M23-2" data-name="M23" class="cls-2" d="M2301.64,3296.54l-30.53,155.05-569.02-162.1L1565.9,3113.42s-11.62-10.66-7.85-18.14,7.69-9.36,48.73,3.22S2301.64,3296.54,2301.64,3296.54Z"/>
    <path data-manzana="M24" id="M24-2" data-name="M24" class="cls-2" d="M2342.52,3089.55l-32.39,154.19-294.19-82.61-321.1-92.87-209.12-60.22L1357.3,2847.35s-18.43-23.07-19.16-28.83,4.85-11.18,13.47-10.48,214.65,60.98,214.65,60.98l169.33,48.49,440.35,123.48Z"/>
    <path data-manzana="M25" id="M25-2" data-name="M25" class="cls-2" d="M1133.51,2526.63l135.27,176.1,217.45,62.74,301.63,86.08,106.42,30.97L2071,2932.63l21.25,4.91,146.21,42.71,115.65,32.55,30.5-155.97-259.06-73.5-27.8-9.32-346.01-97.68-377.5-107.81-168.39-47.59-64.79-19.29S1110.29,2500.67,1133.51,2526.63Z"/>
    <path data-manzana="M26" id="M26-2" data-name="M26" class="cls-2" d="M958.355,2172.37l-64.79-19.29s-13.9-2.72-16.38,5.04-1.148,10.01,7.9,19.98,63.866,84.48,63.866,84.48l71.436,92.53,446.01,128.84,237.81,68.59,304.38,86,353.51,102.97,18.65-87.71-78.9-96.92-93.4-24.91L2090,2497.66l-211.87-60.14-141.61-41.92-93.45-26.75-164.71-47.7-163.77-46.8-120.29-34.26Z"/>
    <path data-manzana="M27" id="M27-2" data-name="M27" class="cls-2" d="M740.145,1827.86l-52.154-13.76a21.243,21.243,0,0,0-20.986,11.75c-7.135,13.69-.317,24.01.711,25.36s56.9,74.53,56.9,74.53l58.99,76.51,304.95,87.87,364.24,102.45,342.79,97.98,283.46,81.37,128.93,36.99,78.75,21.14s51.51,21.22,61.03,4.37-8.04-33.27-8.04-33.27l-112.65-144.02-9.33-6.84-200.56-57.31-596.55-170.04L1028.7,1910.1Z"/>
    <path data-manzana="M28" id="M28-2" data-name="M28" class="cls-2" d="M545.889,1494.05l240.216,66.81,241.285,67.81,318.53,88.1,292.55,84.79,238.15,66.87,134.71,37.08,26.12,7.44s20.19,3.31,27.22,9.48,19.3,20.93,23.61,26.15,64.76,82.8,64.76,82.8l41.02,52.5s8.14,8.46,2.7,19.58-9.6,10.48-11.01,11.74-3.84,2.64-21.78-1.37-114.9-32.53-114.9-32.53l-293.52-82.7-265.3-74.28-264.29-75.35-108.57-28.6-80.48-24.32-160.837-44.52-158.765-44.58s-91.724-26.25-105.532-30.77c-12.308-2.92-26.449-17.78-26.449-17.78l-96.114-124.23-20.51-26.25s-6.709-9.08.37-20.72,16.212-10.87,16.212-10.87Z"/>
    <path data-manzana="M33" id="M33-2" data-name="M33" class="cls-2" d="M2029,1671l45,15,89,31,118,42,111,39,280,94,48,18-16,72-82-27-62-19-48-17-61-17-89-29-64-20-86-27-80-25-11-4-19-25-44-60-30-40Z"/>
    <path data-manzana="M34" id="M34" class="cls-2" d="M2229,1902l105,36,143,46,72,23,115,37,24,6-35,167-4,7h-5l-100-32-145-47-30-8-45-61-55-75-58-79,1-11,8-9h9Z"/>
    <!-- <path id="M35-L1" class="cls-2" d="M2475,2243l87,27,73,24-1,10-35,149-25-34-65-89-50-68v-10l7-8,4-1h5Z"/> -->
    <path id="M35-3" data-name="M35" class="cls-2" d="M2475,2243l87,27,73,24-1,10-35,149-25-34-65-89-50-68v-10l7-8,4-1h5Z"/>
    <path data-manzana="M36" id="M36" data-name="M36" class="cls-2" d="M2816,2953l46,63,48,65,28,39v5l-2,6-4,3-3,2-30-8-63-21-53-18,15-65,15-64,2-7h1Z"/>
    <path data-manzana="M37" id="M37-2" data-name="M37" class="cls-2" d="M2769,3146l148,48,95,29,9,3,35,42,48,66,29,40,47,63,10,16-1,5-5,6-5,2h-10l-74-26-153-49-104-32-76-24-35-12,10-48,11-45,16-73,3-11h2Z"/>
    <path data-manzana="M38" id="M38-2" data-name="M38" class="cls-2" d="M2715,3386l54,17,115,38,111,34,138,43,74,25,14,5,19,20,42,55,42,61,35,46,15,21-1,8-3,3-3,2h-8l-54-18-228-73-43-13-108-34-47-16-108-32-39-12-53-18,4-22,10-44,9-37,10-47Z"/>
    <path data-manzana="M39" id="M39-2" data-name="M39" class="cls-2" d="M2667,3605l103,34,134,42,165,53,206,65,131,42,31,10,3,1,53,68,25,34,63,86,9,13,1,5-2,3-6,6-4,1-33-11-94-31-162-50-146-47-117-37-129-42-58-18-149-46-62-19,2-10,13-60,11-49,11-43h1Z"/>
    <path data-manzana="M40" id="M40-2" data-name="M40" class="cls-2" d="M2617,3822l65,22,150,48,180,57,221,69,248,80,133,41,44,13,21,27,53,73,50,70,22,33,1,6-3,5-3,3h-7l-57-18-96-30-100-34-84-26-168-53-173-55-232-73-51-18-85-26-132-41-2-3,21-66-38-14,13-57,7-33h2Z"/>
    <path data-manzana="M41" id="M41-2" data-name="M41" class="cls-2" d="M2640,4060l72,25,113,35,133,42,178,56,260,84,167,51,217,68,134,42,64,87-3,12-24,68h-6l-9-1-69-24-90-29-47-12-58-20-107-35-161-51-178-55-280-92-3,2-25-10-201-61-126-42,23-70,24-71Z"/>
    <path data-manzana="M42" id="M42-2" data-name="M42" class="cls-2" d="M2596,4265l61,21,94,30,86,26,72,22,103,32,104,33,106,33,126,39,114,36,119,37,146,46,119,37,120,37,25,9,3,5v4l-17,57-15,47-1,4-6,6-7,1-170-26-22-4-82-25-84-28-49-13-15-7-16-4-49-16-80-26-93-29-66-23-115-37-101-32-109-33-97-33-47-19-34-10-12-9-28-38-34-50-37-50s30.05,39.75,28,39-55-75-55-75v-7l10-7h5Z"/>
    <path id="M43-2" data-name="M43" class="cls-2" d="M2740,4561l1-6,4-4,7-3,9,1,82,26,132,42,121,39,52,15,8,8,1,2v14l-9,8h-13l-80-12-100-15-100-15-37-5-12-6-11-9-37-51Z"/>
    <path id="M44-2" data-name="M44" class="cls-2" d="M4090,4628h12l5,1,52,68,61,83,45,64v11l-2,5-5,6-7,5h-12l-90-14-118-19-7-6-7-12,8-30,25-80,25-74,7-6,5-2h3Z"/>
    <path id="M45-2" data-name="M45" class="cls-2" d="M4515,4942l55,18,56,18,63,20,47,15,3,1,4,3,2,5v5l-2,4-3,4-6,2-37-5-55-8-61-9-28-4-10-2-8-2-5-4-32-46v-6l3-5,3-3,4-1h7Z"/>
    <path data-manzana="M46" id="M46-2" data-name="M46" class="cls-2" d="M4282,4624l72,23,115,38,97,30,76,24,135,43,84,27,111,34,69,23,8,6,29,39,50,68,51,69,12,19,1,6-7,10-8,1-70-23-127-41-102-32-113-37-67-21-47-15-54-17-99-30-57-19-27-6-56-78-38-50-53-75v-8l6-7,5-2Z"/>
    <path data-manzana="M47" id="M47-2" data-name="M47" class="cls-2" d="M4023,4268l277,92,52,13,139,45,156,50,314,99,400,127,160,48,89,119,73,102,12,17v6l-2,5-5,5-9-1-168-55-382-119-181-59-198-63-155-48-160-50-81-26-95-29-63-21-18-4-55-78-71-99-37-49-10-15,3-6,9-6h6Z"/>
    <path data-manzana="M48" id="M48-2" data-name="M48" class="cls-2" d="M3765,3915l277,92,52,13,139,45,156,50,314,99,400,127,160,48,89,119,73,102,12,17v6l-2,5-5,5-9-1-168-55-382-119-181-59-198-63-155-48-160-50-81-26-95-29-63-21-18-4-55-78-71-99-37-49-10-15,3-6,9-6h6Z"/>
    <path data-manzana="M49" id="M49-2" data-name="M49" class="cls-2" d="M3510,3565l277,92,52,13,139,45,156,50,314,99,400,127,160,48,89,119,73,102,12,17v6l-2,5-5,5-9-1-168-55-382-119-181-59-198-63-155-48-160-50-81-26-95-29-63-21-18-4-55-78-71-99-37-49-10-15,3-6,9-6h6Z"/>
    <path data-manzana="M50" id="M50-2" data-name="M50" class="cls-2" d="M3248,3204l277,92,52,13,139,45,156,50,314,99,400,127,160,48,89,119,73,102,12,17v6l-2,5-5,5-9-1-168-55-382-119-181-59-198-63-155-48-160-50-81-26-95-29-63-21-18-4-55-78-71-99-37-49-10-15,3-6,9-6h6Z"/>
    <path data-manzana="M51" id="M51-2" data-name="M51" class="cls-2" d="M3007,2871l277,92,52,13,139,45,156,50,314,99,400,127,160,48,89,119,73,102,12,17v6l-2,5-5,5-9-1-168-55-382-119-181-59-198-63-155-48-160-50-81-26-95-29-63-21-18-4-55-78-71-99-37-49-10-15,3-6,9-6h6Z"/>
    <path data-manzana="M52" id="M52-2" data-name="M52" class="cls-2" d="M2858,2542l177,57,169,53,161,51,182,59,274,85,281,90,188,58,56,72,69,93,57,80v7l-3,5-6,5-8,1-102-38-121-36-92-28-119-38-134-41-130-42-186-60-126-40-234-74-128-40-162-49-18-7-55-74-21-26,8-34,17-75,4-15Z"/>
    <path data-manzana="M53" id="M53-2" data-name="M53" class="cls-2" d="M2913,2298l85,31,54,17,179,56,162,51,159,49,239,75,215,68,53,17,75,106,63,88,1,15-10,12-14,3-175-56-225-72-197-63-171-52-218-71-232-72-84-28,38-174h3Z"/>
    <path data-manzana="M54" id="M54-2" data-name="M54" class="cls-2" d="M2970,2054l73,25,144,47,128,40,137,43,208,65,155,49,49,62,54,75,42,62v10l-4,7-7,6-7,4h-12l-107-35-157-49-74-26-29-8-80-25-29-8-61-21-30-9-92-30-52-17-70-21-88-28-96-29-37-13,20-92,19-85Z"/>
    <path id="M55-2" data-name="M55" class="cls-2" d="M2999,1918l93,32,110,38,185,63,215,73,90,31,10,10,6,9,3,7v11l-3,8-8,7-10,2-19-5-125-39-169-53-165-53-144-45-82-26-3-3Z"/>
    <path id="M65-2" data-name="M65" class="cls-2" d="M5224,4921l88,28,105,33,121,39,165,52,44,14,6,5,18,23,19,27,3,7,1,3v13l-3,10-7,8-11,7-8,2-24-2-53-8-79-13-45-6-73-11-44-7-94-14-39-6-15-3-8-5-37-50-31-42-30-42-13-19-1-19,6-11,12-11,11-3Z"/>
  </g>
  <circle id="EM21" class="cls-4" cx="2139.37" cy="3768.44" r="20.75"/>
  <path id="_21" data-name="21" class="cls-5" d="M2127.67,3775.26a8.662,8.662,0,0,1,1-1.35c0.41-.46,1.38-1.39,2.91-2.8a32,32,0,0,0,3.18-3.23,13.306,13.306,0,0,0,1.95-3.25,8.742,8.742,0,0,0,.61-3.26,6.637,6.637,0,0,0-2.14-5.03,8.252,8.252,0,0,0-5.9-2.02,9.172,9.172,0,0,0-5.71,1.74q-2.28,1.755-2.71,5.76l4.84,0.49a4.705,4.705,0,0,1,1.04-3.05,3.722,3.722,0,0,1,4.83-.04,3.4,3.4,0,0,1,.88,2.5,5.326,5.326,0,0,1-1.01,2.97,33.649,33.649,0,0,1-4.03,4.15,32.244,32.244,0,0,0-5.46,6.08,11.739,11.739,0,0,0-1.66,4.85h17.03v-4.51h-9.65Zm28.2-20.94h-3.94a8.943,8.943,0,0,1-3.06,4.05,13.908,13.908,0,0,1-4.13,2.36v4.41a16.717,16.717,0,0,0,6.28-3.68v18.31h4.85v-25.45Z"/>
  <circle id="EM22" class="cls-4" cx="2067.37" cy="3526.44" r="20.75"/>
  <path id="_22" data-name="22" class="cls-5" d="M2055.67,3533.26a8.662,8.662,0,0,1,1-1.35c0.41-.46,1.38-1.39,2.91-2.8a32,32,0,0,0,3.18-3.23,13.123,13.123,0,0,0,1.95-3.25,8.742,8.742,0,0,0,.61-3.26,6.637,6.637,0,0,0-2.14-5.03,8.252,8.252,0,0,0-5.9-2.02,9.172,9.172,0,0,0-5.71,1.74q-2.28,1.755-2.71,5.76l4.84,0.49a4.705,4.705,0,0,1,1.04-3.05,3.722,3.722,0,0,1,4.83-.04,3.4,3.4,0,0,1,.88,2.5,5.326,5.326,0,0,1-1.01,2.97,33.649,33.649,0,0,1-4.03,4.15,32.558,32.558,0,0,0-5.46,6.08,11.739,11.739,0,0,0-1.66,4.85h17.03v-4.51h-9.65Zm22.53,0a8.662,8.662,0,0,1,1-1.35c0.41-.46,1.38-1.39,2.91-2.8a32,32,0,0,0,3.18-3.23,13.123,13.123,0,0,0,1.95-3.25,8.742,8.742,0,0,0,.61-3.26,6.637,6.637,0,0,0-2.14-5.03,8.252,8.252,0,0,0-5.9-2.02,9.172,9.172,0,0,0-5.71,1.74q-2.28,1.755-2.71,5.76l4.84,0.49a4.705,4.705,0,0,1,1.04-3.05,3.722,3.722,0,0,1,4.83-.04,3.4,3.4,0,0,1,.88,2.5,5.326,5.326,0,0,1-1.01,2.97,33.649,33.649,0,0,1-4.03,4.15,32.558,32.558,0,0,0-5.46,6.08,11.739,11.739,0,0,0-1.66,4.85h17.03v-4.51h-9.65Z"/>
  <circle id="EM23" class="cls-4" cx="1995.37" cy="3286.44" r="20.75"/>
  <path id="_23" data-name="23" class="cls-5" d="M1983.67,3293.26a8.662,8.662,0,0,1,1-1.35c0.41-.46,1.38-1.39,2.91-2.8a32,32,0,0,0,3.18-3.23,13.306,13.306,0,0,0,1.95-3.25,8.742,8.742,0,0,0,.61-3.26,6.637,6.637,0,0,0-2.14-5.03,8.252,8.252,0,0,0-5.9-2.02,9.172,9.172,0,0,0-5.71,1.74q-2.28,1.755-2.71,5.76l4.84,0.49a4.705,4.705,0,0,1,1.04-3.05,3.722,3.722,0,0,1,4.83-.04,3.394,3.394,0,0,1,.87,2.5,5.31,5.31,0,0,1-1,2.97,33.649,33.649,0,0,1-4.03,4.15,32.558,32.558,0,0,0-5.46,6.08,11.739,11.739,0,0,0-1.66,4.85h17.03v-4.51h-9.65Zm18.23,2.97a9.085,9.085,0,0,0,11.77-.38,7.581,7.581,0,0,0,2.44-5.69,6.054,6.054,0,0,0-1.3-3.92,5.932,5.932,0,0,0-3.49-2.09q3.645-1.995,3.65-5.33a5.952,5.952,0,0,0-1.78-4.22,7.547,7.547,0,0,0-5.74-2.28,8.872,8.872,0,0,0-3.78.78,6.435,6.435,0,0,0-2.63,2.17,9.91,9.91,0,0,0-1.41,3.67l4.48,0.76a4.054,4.054,0,0,1,1.07-2.52,2.929,2.929,0,0,1,2.13-.87,2.616,2.616,0,0,1,2.78,2.8,3.059,3.059,0,0,1-1.03,2.42,4.28,4.28,0,0,1-3.01.85l-0.54,3.96a8.59,8.59,0,0,1,2.23-.36,3.167,3.167,0,0,1,2.41,1.07,4.165,4.165,0,0,1,.98,2.91,4.386,4.386,0,0,1-1.03,3.07,3.245,3.245,0,0,1-2.53,1.15,3.33,3.33,0,0,1-2.39-.95,4.478,4.478,0,0,1-1.21-2.75l-4.7.57A7.783,7.783,0,0,0,2001.9,3296.23Z"/>
  <circle id="EM24" class="cls-4" cx="1945.37" cy="3056.44" r="20.75"/>
  <path id="_24" data-name="24" class="cls-5" d="M1933.67,3063.26a8.662,8.662,0,0,1,1-1.35c0.41-.46,1.38-1.39,2.91-2.8a32,32,0,0,0,3.18-3.23,13.306,13.306,0,0,0,1.95-3.25,8.742,8.742,0,0,0,.61-3.26,6.637,6.637,0,0,0-2.14-5.03,8.252,8.252,0,0,0-5.9-2.02,9.172,9.172,0,0,0-5.71,1.74q-2.28,1.755-2.71,5.76l4.84,0.49a4.705,4.705,0,0,1,1.04-3.05,3.722,3.722,0,0,1,4.83-.04,3.4,3.4,0,0,1,.88,2.5,5.326,5.326,0,0,1-1.01,2.97,33.649,33.649,0,0,1-4.03,4.15,32.244,32.244,0,0,0-5.46,6.08,11.739,11.739,0,0,0-1.66,4.85h17.03v-4.51h-9.65Zm30,4.51v-5.1h3.15v-4.27h-3.15v-16.08h-4.08l-11,16.1v4.25h10.38v5.1h4.7Zm-10.53-9.37,5.83-8.66v8.66h-5.83Z"/>
  <circle id="EM25" class="cls-4" cx="1914.37" cy="2804.44" r="20.75"/>
  <path id="_25" data-name="25" class="cls-5" d="M1902.67,2811.26a8.662,8.662,0,0,1,1-1.35c0.41-.46,1.38-1.39,2.91-2.8a32,32,0,0,0,3.18-3.23,13.306,13.306,0,0,0,1.95-3.25,8.742,8.742,0,0,0,.61-3.26,6.637,6.637,0,0,0-2.14-5.03,8.252,8.252,0,0,0-5.9-2.02,9.172,9.172,0,0,0-5.71,1.74q-2.28,1.755-2.71,5.76l4.84,0.49a4.705,4.705,0,0,1,1.04-3.05,3.722,3.722,0,0,1,4.83-.04,3.4,3.4,0,0,1,.88,2.5,5.326,5.326,0,0,1-1.01,2.97,33.649,33.649,0,0,1-4.03,4.15,32.558,32.558,0,0,0-5.46,6.08,11.739,11.739,0,0,0-1.66,4.85h17.03v-4.51h-9.65Zm18.49,3.06a8.486,8.486,0,0,0,5.72,1.89,8.053,8.053,0,0,0,6.87-3.36,9.164,9.164,0,0,0,1.81-5.59,8.461,8.461,0,0,0-2.25-6.1,7.278,7.278,0,0,0-5.48-2.35,7.355,7.355,0,0,0-3.32.81l0.76-4.3h9.17v-4.55h-12.85l-2.49,13.19,3.94,0.57a4.968,4.968,0,0,1,3.75-1.85,3.5,3.5,0,0,1,2.73,1.17,5.152,5.152,0,0,1,1.04,3.5,5.665,5.665,0,0,1-1.05,3.73,3.266,3.266,0,0,1-2.58,1.23,3.322,3.322,0,0,1-2.35-.96,4.146,4.146,0,0,1-1.23-2.6l-4.84.5A7.752,7.752,0,0,0,1921.16,2814.32Z"/>
  <circle id="EM26" class="cls-4" cx="1733.37" cy="2472.44" r="20.75"/>
  <path id="_26" data-name="26" class="cls-5" d="M1721.67,2479.26a8.662,8.662,0,0,1,1-1.35c0.41-.46,1.38-1.39,2.91-2.8a32,32,0,0,0,3.18-3.23,13.123,13.123,0,0,0,1.95-3.25,8.742,8.742,0,0,0,.61-3.26,6.637,6.637,0,0,0-2.14-5.03,8.252,8.252,0,0,0-5.9-2.02,9.172,9.172,0,0,0-5.71,1.74q-2.28,1.755-2.71,5.76l4.84,0.49a4.705,4.705,0,0,1,1.04-3.05,3.722,3.722,0,0,1,4.83-.04,3.4,3.4,0,0,1,.88,2.5,5.326,5.326,0,0,1-1.01,2.97,33.649,33.649,0,0,1-4.03,4.15,32.558,32.558,0,0,0-5.46,6.08,11.739,11.739,0,0,0-1.66,4.85h17.03v-4.51h-9.65Zm29.82-19.33a7.124,7.124,0,0,0-4.78-1.61,8.3,8.3,0,0,0-6.69,3.08q-2.58,3.075-2.58,10.04,0,6.795,2.47,9.78a8.3,8.3,0,0,0,12.18.63,8.558,8.558,0,0,0,2.28-6.24,8.378,8.378,0,0,0-2.17-5.98,6.872,6.872,0,0,0-5.21-2.32,5.715,5.715,0,0,0-4.52,2.14c0.19-2.91.63-4.83,1.34-5.75a3.179,3.179,0,0,1,2.61-1.39,2.61,2.61,0,0,1,1.88.69,3.455,3.455,0,0,1,.9,2.15l4.7-.52A7.582,7.582,0,0,0,1751.49,2459.93Zm-7.63,12.06a3.112,3.112,0,0,1,4.79.05,5.6,5.6,0,0,1,.97,3.62,5.3,5.3,0,0,1-.9,3.46,2.822,2.822,0,0,1-2.25,1.06,3.186,3.186,0,0,1-2.49-1.29,5.5,5.5,0,0,1-1.09-3.66A4.735,4.735,0,0,1,1743.86,2471.99Z"/>
  <circle id="EM27" class="cls-4" cx="1581.37" cy="2151.44" r="20.75"/>
  <path id="_27" data-name="27" class="cls-5" d="M1569.67,2158.26a8.662,8.662,0,0,1,1-1.35c0.41-.46,1.38-1.39,2.91-2.8a32,32,0,0,0,3.18-3.23,13.123,13.123,0,0,0,1.95-3.25,8.742,8.742,0,0,0,.61-3.26,6.637,6.637,0,0,0-2.14-5.03,8.252,8.252,0,0,0-5.9-2.02,9.172,9.172,0,0,0-5.71,1.74q-2.28,1.755-2.71,5.76l4.84,0.49a4.705,4.705,0,0,1,1.04-3.05,3.722,3.722,0,0,1,4.83-.04,3.4,3.4,0,0,1,.88,2.5,5.326,5.326,0,0,1-1.01,2.97,33.649,33.649,0,0,1-4.03,4.15,32.558,32.558,0,0,0-5.46,6.08,11.739,11.739,0,0,0-1.66,4.85h17.03v-4.51h-9.65Zm26.82-15.98a35.662,35.662,0,0,0-5.47,9.77,32.456,32.456,0,0,0-2.17,10.72h4.68a30.066,30.066,0,0,1,1.1-7.61,34.264,34.264,0,0,1,3.24-8.05,25.935,25.935,0,0,1,4.19-5.81v-3.53h-16.62v4.51h11.05Z"/>
  <circle id="EM28" class="cls-4" cx="1433.37" cy="1829.44" r="20.75"/>
  <path id="_28" data-name="28" class="cls-5" d="M1421.67,1836.26a8.662,8.662,0,0,1,1-1.35c0.41-.46,1.38-1.39,2.91-2.8a32,32,0,0,0,3.18-3.23,13.123,13.123,0,0,0,1.95-3.25,8.742,8.742,0,0,0,.61-3.26,6.637,6.637,0,0,0-2.14-5.03,8.252,8.252,0,0,0-5.9-2.02,9.172,9.172,0,0,0-5.71,1.74q-2.28,1.755-2.71,5.76l4.84,0.49a4.705,4.705,0,0,1,1.04-3.05,3.722,3.722,0,0,1,4.83-.04,3.4,3.4,0,0,1,.88,2.5,5.326,5.326,0,0,1-1.01,2.97,33.649,33.649,0,0,1-4.03,4.15,32.558,32.558,0,0,0-5.46,6.08,11.739,11.739,0,0,0-1.66,4.85h17.03v-4.51h-9.65Zm16.72-6.51a7.292,7.292,0,0,0-1.02,3.78,7.09,7.09,0,0,0,2.72,5.88,9,9,0,0,0,5.76,1.81,8.145,8.145,0,0,0,5.95-2.19,7.631,7.631,0,0,0,2.24-5.71,6.466,6.466,0,0,0-1.1-3.75,6.8,6.8,0,0,0-3.2-2.48,5.761,5.761,0,0,0,2.57-2.1,5.518,5.518,0,0,0,.92-3.14,6.1,6.1,0,0,0-2-4.68,9.461,9.461,0,0,0-11.24,0,6.119,6.119,0,0,0-1.98,4.68,5.749,5.749,0,0,0,.86,3.06,5.622,5.622,0,0,0,2.74,2.18A6.586,6.586,0,0,0,1438.39,1829.75Zm5.05-9.75a3.043,3.043,0,0,1,2.23-.83,2.834,2.834,0,0,1,2.99,3.01,3.045,3.045,0,0,1-.83,2.28,3.377,3.377,0,0,1-4.4.01,3.1,3.1,0,0,1-.82-2.27A3,3,0,0,1,1443.44,1820Zm-0.4,10.4a3.024,3.024,0,0,1,2.65-1.23,3.311,3.311,0,0,1,2.54,1.08,4.044,4.044,0,0,1,1.01,2.86,4.46,4.46,0,0,1-.99,3.12,3.235,3.235,0,0,1-2.49,1.08,3.336,3.336,0,0,1-2.57-1.12A4.866,4.866,0,0,1,1443.04,1830.4Z"/>
  <circle id="EM33" class="cls-4" cx="2405.37" cy="1845.44" r="20.75"/>
  <path id="_33" data-name="33" class="cls-5" d="M2388.48,1850.34a7.948,7.948,0,0,0,10.01,2.37,6.648,6.648,0,0,0,3.36-4.24,5.261,5.261,0,0,0-.21-3.6,5.14,5.14,0,0,0-2.46-2.56q3.525-.855,4.29-3.66a5.192,5.192,0,0,0-.54-3.97,6.556,6.556,0,0,0-4.32-3.23,7.6,7.6,0,0,0-3.36-.2,5.492,5.492,0,0,0-2.71,1.22,8.741,8.741,0,0,0-2.03,2.78l3.6,1.66a3.583,3.583,0,0,1,1.48-1.88,2.565,2.565,0,0,1,1.99-.25,2.438,2.438,0,0,1,1.54,1.11,2.383,2.383,0,0,1,.17,1.89,2.652,2.652,0,0,1-1.42,1.8,3.751,3.751,0,0,1-2.74.03l-1.35,3.22a7.338,7.338,0,0,1,1.96.2,2.775,2.775,0,0,1,1.79,1.46,3.593,3.593,0,0,1,.16,2.67,3.8,3.8,0,0,1-1.57,2.36,2.832,2.832,0,0,1-2.39.39,2.907,2.907,0,0,1-1.8-1.35,3.857,3.857,0,0,1-.39-2.59l-4.1-.6A6.779,6.779,0,0,0,2388.48,1850.34Zm18.99,5.14a7.984,7.984,0,0,0,10.02,2.38,6.666,6.666,0,0,0,3.36-4.25,5.261,5.261,0,0,0-.21-3.6,5.14,5.14,0,0,0-2.46-2.56q3.525-.855,4.29-3.66a5.2,5.2,0,0,0-.54-3.97,6.58,6.58,0,0,0-4.32-3.23,7.6,7.6,0,0,0-3.36-.2,5.582,5.582,0,0,0-2.71,1.22,8.741,8.741,0,0,0-2.03,2.78l3.6,1.66a3.583,3.583,0,0,1,1.48-1.88,2.562,2.562,0,0,1,1.99-.24,2.426,2.426,0,0,1,1.54,1.1,2.383,2.383,0,0,1,.17,1.89,2.652,2.652,0,0,1-1.42,1.8,3.8,3.8,0,0,1-2.74.04l-1.35,3.21a7.3,7.3,0,0,1,1.96.21,2.72,2.72,0,0,1,1.78,1.45,3.543,3.543,0,0,1,.17,2.67,3.835,3.835,0,0,1-1.57,2.36,2.832,2.832,0,0,1-2.39.39,2.872,2.872,0,0,1-1.8-1.35,3.857,3.857,0,0,1-.39-2.59l-4.1-.6A6.822,6.822,0,0,0,2407.47,1855.48Z"/>
  <circle id="EM34" class="cls-4" cx="2511.37" cy="2086.44" r="20.75"/>
  <path id="_34" data-name="34" class="cls-5" d="M2494.48,2091.34a7.948,7.948,0,0,0,10.01,2.37,6.648,6.648,0,0,0,3.36-4.24,5.261,5.261,0,0,0-.21-3.6,5.14,5.14,0,0,0-2.46-2.56q3.525-.855,4.29-3.66a5.192,5.192,0,0,0-.54-3.97,6.58,6.58,0,0,0-4.32-3.23,7.6,7.6,0,0,0-3.36-.2,5.492,5.492,0,0,0-2.71,1.22,8.741,8.741,0,0,0-2.03,2.78l3.6,1.66a3.583,3.583,0,0,1,1.48-1.88,2.565,2.565,0,0,1,1.99-.25,2.438,2.438,0,0,1,1.54,1.11,2.383,2.383,0,0,1,.17,1.89,2.652,2.652,0,0,1-1.42,1.8,3.751,3.751,0,0,1-2.74.03l-1.35,3.22a7.338,7.338,0,0,1,1.96.2,2.775,2.775,0,0,1,1.79,1.46,3.593,3.593,0,0,1,.16,2.67,3.8,3.8,0,0,1-1.57,2.36,2.832,2.832,0,0,1-2.39.39,2.907,2.907,0,0,1-1.8-1.35,3.857,3.857,0,0,1-.39-2.59l-4.1-.6A6.779,6.779,0,0,0,2494.48,2091.34Zm28.57,9.13,1.17-4.3,2.65,0.72,0.98-3.6-2.66-.72,3.67-13.56-3.44-.93-12.95,11.06-0.97,3.59,8.75,2.37-1.16,4.3Zm-6.74-10.3,6.89-5.98-1.97,7.31Z"/>
  <circle id="EM35" class="cls-4" cx="2562.37" cy="2326.44" r="20.75"/>
  <path id="_35" data-name="35" class="cls-5" d="M2545.48,2331.34a7.948,7.948,0,0,0,10.01,2.37,6.648,6.648,0,0,0,3.36-4.24,5.261,5.261,0,0,0-.21-3.6,5.14,5.14,0,0,0-2.46-2.56q3.525-.855,4.29-3.66a5.192,5.192,0,0,0-.54-3.97,6.556,6.556,0,0,0-4.32-3.23,7.6,7.6,0,0,0-3.36-.2,5.492,5.492,0,0,0-2.71,1.22,8.741,8.741,0,0,0-2.03,2.78l3.6,1.66a3.583,3.583,0,0,1,1.48-1.88,2.565,2.565,0,0,1,1.99-.25,2.438,2.438,0,0,1,1.54,1.11,2.383,2.383,0,0,1,.17,1.89,2.652,2.652,0,0,1-1.42,1.8,3.751,3.751,0,0,1-2.74.03l-1.35,3.22a7.338,7.338,0,0,1,1.96.2,2.775,2.775,0,0,1,1.79,1.46,3.593,3.593,0,0,1,.16,2.67,3.8,3.8,0,0,1-1.57,2.36,2.832,2.832,0,0,1-2.39.39,2.907,2.907,0,0,1-1.8-1.35,3.857,3.857,0,0,1-.39-2.59l-4.1-.6A6.779,6.779,0,0,0,2545.48,2331.34Zm19.19,5.28a7.486,7.486,0,0,0,4.4,2.9,7.016,7.016,0,0,0,6.55-1.26,8.024,8.024,0,0,0,2.81-4.3,7.426,7.426,0,0,0-.5-5.66,6.4,6.4,0,0,0-4.09-3.24,6.5,6.5,0,0,0-2.98-.07l1.62-3.46,7.73,2.1,1.04-3.84-10.84-2.93-5.11,10.56,3.2,1.38a4.336,4.336,0,0,1,3.58-.71,3.056,3.056,0,0,1,2.03,1.61,4.484,4.484,0,0,1,.09,3.19,4.905,4.905,0,0,1-1.74,2.9,2.9,2.9,0,0,1-4.22-.89,3.621,3.621,0,0,1-.45-2.47l-4.19-.68A6.755,6.755,0,0,0,2564.67,2336.62Z"/>
  <circle id="EM36" class="cls-4" cx="2847.37" cy="3071.44" r="20.75"/>
  <path id="_36" data-name="36" class="cls-5" d="M2830.48,3076.34a7.948,7.948,0,0,0,10.01,2.37,6.648,6.648,0,0,0,3.36-4.24,5.261,5.261,0,0,0-.21-3.6,5.14,5.14,0,0,0-2.46-2.56q3.525-.855,4.29-3.66a5.192,5.192,0,0,0-.54-3.97,6.58,6.58,0,0,0-4.32-3.23,7.6,7.6,0,0,0-3.36-.2,5.492,5.492,0,0,0-2.71,1.22,8.741,8.741,0,0,0-2.03,2.78l3.6,1.66a3.583,3.583,0,0,1,1.48-1.88,2.565,2.565,0,0,1,1.99-.25,2.438,2.438,0,0,1,1.54,1.11,2.383,2.383,0,0,1,.17,1.89,2.652,2.652,0,0,1-1.42,1.8,3.751,3.751,0,0,1-2.74.03l-1.35,3.22a7.338,7.338,0,0,1,1.96.2,2.775,2.775,0,0,1,1.79,1.46,3.593,3.593,0,0,1,.16,2.67,3.8,3.8,0,0,1-1.57,2.36,2.832,2.832,0,0,1-2.39.39,2.907,2.907,0,0,1-1.8-1.35,3.857,3.857,0,0,1-.39-2.59l-4.1-.6A6.779,6.779,0,0,0,2830.48,3076.34Zm33.86-11.01a6.2,6.2,0,0,0-3.66-2.45,7.285,7.285,0,0,0-6.35,1.06q-2.88,2.01-4.47,7.89-1.545,5.73-.14,8.81a7.251,7.251,0,0,0,10.12,3.31,7.494,7.494,0,0,0,3.35-4.74,7.361,7.361,0,0,0-.46-5.54,6.042,6.042,0,0,0-3.87-3.15,4.972,4.972,0,0,0-4.3.78c0.82-2.42,1.64-3.93,2.45-4.55a2.748,2.748,0,0,1,2.51-.57,2.252,2.252,0,0,1,1.43,1.01,3.027,3.027,0,0,1,.27,2.01l4.08,0.64A6.6,6.6,0,0,0,2864.34,3065.33Zm-9.19,8.42a2.73,2.73,0,0,1,4.03,1.14,4.91,4.91,0,0,1-.01,3.28,4.66,4.66,0,0,1-1.55,2.71,2.486,2.486,0,0,1-2.14.37,2.779,2.779,0,0,1-1.8-1.65,4.782,4.782,0,0,1-.09-3.33A4.2,4.2,0,0,1,2855.15,3073.75Z"/>
  <circle id="EM37" class="cls-4" cx="2942.37" cy="3297.44" r="20.75"/>
  <path id="_37" data-name="37" class="cls-5" d="M2925.48,3302.34a7.948,7.948,0,0,0,10.01,2.37,6.648,6.648,0,0,0,3.36-4.24,5.261,5.261,0,0,0-.21-3.6,5.14,5.14,0,0,0-2.46-2.56q3.525-.855,4.29-3.66a5.192,5.192,0,0,0-.54-3.97,6.556,6.556,0,0,0-4.32-3.23,7.6,7.6,0,0,0-3.36-.2,5.492,5.492,0,0,0-2.71,1.22,8.741,8.741,0,0,0-2.03,2.78l3.6,1.66a3.583,3.583,0,0,1,1.48-1.88,2.565,2.565,0,0,1,1.99-.25,2.438,2.438,0,0,1,1.54,1.11,2.383,2.383,0,0,1,.17,1.89,2.652,2.652,0,0,1-1.42,1.8,3.751,3.751,0,0,1-2.74.03l-1.35,3.22a7.338,7.338,0,0,1,1.96.2,2.775,2.775,0,0,1,1.79,1.46,3.593,3.593,0,0,1,.16,2.67,3.8,3.8,0,0,1-1.57,2.36,2.832,2.832,0,0,1-2.39.39,2.907,2.907,0,0,1-1.8-1.35,3.857,3.857,0,0,1-.39-2.59l-4.1-.6A6.779,6.779,0,0,0,2925.48,3302.34Zm30.57-8.87a31.17,31.17,0,0,0-6.85,6.99,28.646,28.646,0,0,0-4.28,8.54l3.96,1.07a26.029,26.029,0,0,1,2.66-6.17,29.869,29.869,0,0,1,4.57-6.05,22.67,22.67,0,0,1,4.86-3.94l0.8-2.98-14.01-3.79-1.03,3.81Z"/>
  <circle id="EM38" class="cls-4" cx="3012.37" cy="3569.44" r="20.75"/>
  <path id="_38" data-name="38" class="cls-5" d="M2995.48,3574.34a7.948,7.948,0,0,0,10.01,2.37,6.648,6.648,0,0,0,3.36-4.24,5.293,5.293,0,0,0-.21-3.61,5.161,5.161,0,0,0-2.46-2.55q3.525-.855,4.29-3.66a5.192,5.192,0,0,0-.54-3.97,6.556,6.556,0,0,0-4.32-3.23,7.6,7.6,0,0,0-3.36-.2,5.492,5.492,0,0,0-2.71,1.22,8.741,8.741,0,0,0-2.03,2.78l3.6,1.66a3.583,3.583,0,0,1,1.48-1.88,2.565,2.565,0,0,1,1.99-.25,2.438,2.438,0,0,1,1.54,1.11,2.383,2.383,0,0,1,.17,1.89,2.652,2.652,0,0,1-1.42,1.8,3.749,3.749,0,0,1-2.74.03l-1.35,3.22a7.338,7.338,0,0,1,1.96.2,2.775,2.775,0,0,1,1.79,1.46,3.593,3.593,0,0,1,.16,2.67,3.8,3.8,0,0,1-1.57,2.36,2.832,2.832,0,0,1-2.39.39,2.907,2.907,0,0,1-1.8-1.35,3.857,3.857,0,0,1-.39-2.59l-4.1-.6A6.779,6.779,0,0,0,2995.48,3574.34Zm19.89-3.19a6.69,6.69,0,0,0-.78,8.53,7.847,7.847,0,0,0,4.45,2.84,7.054,7.054,0,0,0,5.52-.49,6.666,6.666,0,0,0,3.19-4.3,5.65,5.65,0,0,0-.07-3.41,5.844,5.844,0,0,0-2.14-2.82,5.048,5.048,0,0,0,2.65-1.19,4.774,4.774,0,0,0,1.49-2.43,5.349,5.349,0,0,0-.61-4.41,8.281,8.281,0,0,0-9.48-2.57,5.355,5.355,0,0,0-2.74,3.5,5.014,5.014,0,0,0,.03,2.77,4.837,4.837,0,0,0,1.81,2.47A5.733,5.733,0,0,0,3015.37,3571.15Zm6.48-7.07a2.644,2.644,0,0,1,2.07-.19,2.479,2.479,0,0,1,1.84,3.22,2.679,2.679,0,0,1-1.22,1.73,2.924,2.924,0,0,1-3.71-1,2.658,2.658,0,0,1-.18-2.1A2.624,2.624,0,0,1,3021.85,3564.08Zm-2.71,8.67a2.672,2.672,0,0,1,2.52-.43,2.929,2.929,0,0,1,1.89,1.5,3.525,3.525,0,0,1,.2,2.64,3.957,3.957,0,0,1-1.55,2.41,2.847,2.847,0,0,1-2.35.34,2.916,2.916,0,0,1-1.9-1.54,3.9,3.9,0,0,1-.16-2.87A3.947,3.947,0,0,1,3019.14,3572.75Z"/>
  <circle id="EM39" class="cls-4" cx="3068.37" cy="3823.44" r="20.75"/>
  <path id="_39" data-name="39" class="cls-5" d="M3051.48,3828.34a7.948,7.948,0,0,0,10.01,2.37,6.648,6.648,0,0,0,3.36-4.24,5.261,5.261,0,0,0-.21-3.6,5.14,5.14,0,0,0-2.46-2.56q3.525-.855,4.29-3.66a5.192,5.192,0,0,0-.54-3.97,6.556,6.556,0,0,0-4.32-3.23,7.6,7.6,0,0,0-3.36-.2,5.492,5.492,0,0,0-2.71,1.22,8.741,8.741,0,0,0-2.03,2.78l3.6,1.66a3.583,3.583,0,0,1,1.48-1.88,2.565,2.565,0,0,1,1.99-.25,2.438,2.438,0,0,1,1.54,1.11,2.383,2.383,0,0,1,.17,1.89,2.652,2.652,0,0,1-1.42,1.8,3.751,3.751,0,0,1-2.74.03l-1.35,3.22a7.338,7.338,0,0,1,1.96.2,2.775,2.775,0,0,1,1.79,1.46,3.593,3.593,0,0,1,.16,2.67,3.8,3.8,0,0,1-1.57,2.36,2.832,2.832,0,0,1-2.39.39,2.907,2.907,0,0,1-1.8-1.35,3.857,3.857,0,0,1-.39-2.59l-4.1-.6A6.779,6.779,0,0,0,3051.48,3828.34Zm18.9,5.49a6.18,6.18,0,0,0,3.69,2.43,7.263,7.263,0,0,0,6.36-1.06q2.88-2.01,4.47-7.87,1.56-5.76.15-8.84a6.888,6.888,0,0,0-4.66-3.96,6.793,6.793,0,0,0-5.46.66,7.5,7.5,0,0,0-3.35,4.72,7.357,7.357,0,0,0,.46,5.56,5.945,5.945,0,0,0,3.83,3.12,5.09,5.09,0,0,0,4.35-.74q-1.245,3.6-2.45,4.53a2.717,2.717,0,0,1-2.47.58,2.335,2.335,0,0,1-1.47-1.02,3,3,0,0,1-.27-2l-4.08-.63A6.641,6.641,0,0,0,3070.38,3833.83Zm9.24-8.44a2.711,2.711,0,0,1-4.02-1.13,6.359,6.359,0,0,1,1.55-6,2.479,2.479,0,0,1,2.13-.39,2.821,2.821,0,0,1,1.82,1.67,4.827,4.827,0,0,1,.07,3.32A4.2,4.2,0,0,1,3079.62,3825.39Z"/>
  <circle id="EM40" class="cls-4" cx="3156.37" cy="4084.44" r="20.75"/>
  <path id="_40" data-name="40" class="cls-5" d="M3149.05,4093.33l1.17-4.3,2.65,0.72,0.98-3.6-2.66-.72,3.67-13.56-3.44-.93L3138.47,4082l-0.97,3.59,8.75,2.37-1.16,4.3Zm-6.74-10.3,6.89-5.98-1.97,7.31Zm21.04-6.52q-2.82,2.085-4.45,8.13-1.665,6.15-.4,9.07a6.359,6.359,0,0,0,4.38,3.76,6.051,6.051,0,0,0,5.43-.88q2.82-2.085,4.46-8.15,1.65-6.09.27-9.27a6.678,6.678,0,0,0-9.69-2.66h0Zm5.71,3.35a3.826,3.826,0,0,1,.45,2.14,25.277,25.277,0,0,1-1.02,5.28,24.491,24.491,0,0,1-1.87,5.22,3.276,3.276,0,0,1-1.37,1.45,2.136,2.136,0,0,1-1.45.12,2.1,2.1,0,0,1-1.19-.83,3.743,3.743,0,0,1-.45-2.13,24.029,24.029,0,0,1,1.02-5.27,24.424,24.424,0,0,1,1.87-5.24,3.264,3.264,0,0,1,1.36-1.45,2.165,2.165,0,0,1,1.46-.12A2.137,2.137,0,0,1,3169.06,4079.86Z"/>
  <circle id="EM41" class="cls-4" cx="3299.37" cy="4351.44" r="20.75"/>
  <path id="_41" data-name="41" class="cls-5" d="M3292.05,4360.33l1.17-4.3,2.65,0.72,0.98-3.6-2.66-.72,3.67-13.56-3.44-.93L3281.47,4349l-0.97,3.59,8.75,2.37-1.16,4.3Zm-6.74-10.3,6.89-5.98-1.97,7.31Zm30.04-6.43-3.33-.9a7.832,7.832,0,0,1-3.51,2.72,12.169,12.169,0,0,1-4.02,1.05l-1.01,3.72a14.714,14.714,0,0,0,6.14-1.68l-4.18,15.45,4.1,1.1Z"/>
  <circle id="EM42" class="cls-4" cx="3373.37" cy="4591.44" r="20.75"/>
  <path id="_42" data-name="42" class="cls-5" d="M3366.05,4600.33l1.17-4.3,2.65,0.72,0.98-3.6-2.66-.72,3.67-13.56-3.44-.93L3355.47,4589l-0.97,3.59,8.75,2.37-1.16,4.3Zm-6.74-10.3,6.89-5.98-1.97,7.31Zm20.47,9.93a8.1,8.1,0,0,1,1.15-.91c0.45-.29,1.48-0.86,3.1-1.69a27.686,27.686,0,0,0,3.42-2.01,11.635,11.635,0,0,0,2.38-2.29,7.573,7.573,0,0,0,1.26-2.6,5.8,5.8,0,0,0-.66-4.74,7.217,7.217,0,0,0-4.51-3.05,8,8,0,0,0-5.21.17,6.982,6.982,0,0,0-3.61,4.24l3.98,1.51a4.105,4.105,0,0,1,1.57-2.33,2.821,2.821,0,0,1,2.25-.22,2.858,2.858,0,0,1,1.83,1.29,2.917,2.917,0,0,1,.17,2.3,4.649,4.649,0,0,1-1.53,2.28,29.675,29.675,0,0,1-4.34,2.58,28.751,28.751,0,0,0-6,3.88,10.27,10.27,0,0,0-2.5,3.72l14.36,3.88,1.03-3.8Z"/>
  <circle id="EM43" class="cls-4" cx="2935.37" cy="4641.44" r="20.75"/>
  <path id="_43" data-name="43" class="cls-5" d="M2928.05,4650.33l1.17-4.3,2.65,0.72,0.98-3.6-2.66-.72,3.67-13.56-3.44-.93L2917.47,4639l-0.97,3.59,8.75,2.37-1.16,4.3Zm-6.74-10.3,6.89-5.98-1.97,7.31Zm16.17,11.45a7.966,7.966,0,0,0,10.01,2.38,6.666,6.666,0,0,0,3.36-4.25,5.261,5.261,0,0,0-.21-3.6,5.14,5.14,0,0,0-2.46-2.56q3.525-.855,4.29-3.66a5.2,5.2,0,0,0-.54-3.97,6.58,6.58,0,0,0-4.32-3.23,7.6,7.6,0,0,0-3.36-.2,5.452,5.452,0,0,0-2.71,1.22,8.741,8.741,0,0,0-2.03,2.78l3.6,1.66a3.583,3.583,0,0,1,1.48-1.88,2.608,2.608,0,0,1,1.99-.25,2.438,2.438,0,0,1,1.54,1.11,2.383,2.383,0,0,1,.17,1.89,2.652,2.652,0,0,1-1.42,1.8,3.8,3.8,0,0,1-2.74.04l-1.35,3.21a7.3,7.3,0,0,1,1.96.21,2.72,2.72,0,0,1,1.78,1.45,3.543,3.543,0,0,1,.17,2.67,3.835,3.835,0,0,1-1.57,2.36,2.832,2.832,0,0,1-2.39.39,2.872,2.872,0,0,1-1.8-1.35,3.857,3.857,0,0,1-.39-2.59l-4.1-.6A6.779,6.779,0,0,0,2937.48,4651.48Z"/>
  <circle id="EM44" class="cls-4" cx="4154.37" cy="4786.44" r="20.75"/>
  <path id="_44" data-name="44" class="cls-5" d="M4147.05,4795.33l1.17-4.3,2.65,0.72,0.98-3.6-2.66-.72,3.67-13.56-3.44-.93L4136.47,4784l-0.97,3.59,8.75,2.37-1.16,4.3Zm-6.74-10.3,6.89-5.98-1.97,7.31Zm25.74,15.44,1.17-4.3,2.65,0.72,0.98-3.6-2.66-.72,3.67-13.56-3.44-.93-12.95,11.06-0.97,3.59,8.75,2.37-1.16,4.3Zm-6.74-10.3,6.89-5.98-1.97,7.31Z"/>
  <circle id="EM45" class="cls-4" cx="4612.37" cy="4996.44" r="20.75"/>
  <path id="_45" data-name="45" class="cls-5" d="M4605.05,5005.33l1.17-4.3,2.65,0.72,0.98-3.6-2.66-.72,3.67-13.56-3.44-.93L4594.47,4994l-0.97,3.59,8.75,2.37-1.16,4.3Zm-6.74-10.3,6.89-5.98-1.97,7.31Zm16.36,11.59a7.486,7.486,0,0,0,4.4,2.9,7.016,7.016,0,0,0,6.55-1.26,8.024,8.024,0,0,0,2.81-4.3,7.426,7.426,0,0,0-.5-5.66,6.4,6.4,0,0,0-4.09-3.24,6.5,6.5,0,0,0-2.98-.07l1.62-3.46,7.73,2.1,1.04-3.84-10.84-2.93-5.11,10.56,3.2,1.38a4.336,4.336,0,0,1,3.58-.71,3.034,3.034,0,0,1,2.03,1.61,4.484,4.484,0,0,1,.09,3.19,4.905,4.905,0,0,1-1.74,2.9,2.9,2.9,0,0,1-4.22-.89,3.565,3.565,0,0,1-.44-2.47l-4.2-.68A6.755,6.755,0,0,0,4614.67,5006.62Z"/>
  <circle id="EM46" class="cls-4" cx="4756.37" cy="4862.44" r="20.75"/>
  <path id="_46" data-name="46" class="cls-5" d="M4749.05,4871.33l1.17-4.3,2.65,0.72,0.98-3.6-2.66-.72,3.67-13.56-3.44-.93L4738.47,4860l-0.97,3.59,8.75,2.37-1.16,4.3Zm-6.74-10.3,6.89-5.98-1.97,7.31Zm31.03-4.7a6.2,6.2,0,0,0-3.66-2.45,7.285,7.285,0,0,0-6.35,1.06c-1.92,1.34-3.4,3.97-4.47,7.89q-1.545,5.73-.14,8.81a7.251,7.251,0,0,0,10.12,3.31,7.467,7.467,0,0,0,3.35-4.74,7.361,7.361,0,0,0-.46-5.54,6.042,6.042,0,0,0-3.87-3.15,4.972,4.972,0,0,0-4.3.78c0.82-2.42,1.64-3.93,2.45-4.55a2.748,2.748,0,0,1,2.51-.57,2.252,2.252,0,0,1,1.43,1.01,3.027,3.027,0,0,1,.27,2.01l4.08,0.64A6.6,6.6,0,0,0,4773.34,4856.33Zm-9.19,8.42a2.73,2.73,0,0,1,4.03,1.14,4.91,4.91,0,0,1-.01,3.28,4.66,4.66,0,0,1-1.55,2.71,2.486,2.486,0,0,1-2.14.37,2.8,2.8,0,0,1-1.8-1.65,4.782,4.782,0,0,1-.09-3.33A4.2,4.2,0,0,1,4764.15,4864.75Z"/>
  <circle id="EM47" class="cls-4" cx="4847.37" cy="4626.44" r="20.75"/>
  <path id="_47" data-name="47" class="cls-5" d="M4840.05,4635.33l1.17-4.3,2.65,0.72,0.98-3.6-2.66-.72,3.67-13.56-3.44-.93L4829.47,4624l-0.97,3.59,8.75,2.37-1.16,4.3Zm-6.74-10.3,6.89-5.98-1.97,7.31Zm27.74-2.56a31.17,31.17,0,0,0-6.85,6.99,28.646,28.646,0,0,0-4.28,8.54l3.96,1.07a26.029,26.029,0,0,1,2.66-6.17,29.869,29.869,0,0,1,4.57-6.05,22.67,22.67,0,0,1,4.86-3.94l0.8-2.98-14.01-3.79-1.03,3.81Z"/>
  <circle id="EM48" class="cls-4" cx="4698.37" cy="4311.44" r="20.75"/>
  <path id="_48" data-name="48" class="cls-5" d="M4691.05,4320.33l1.17-4.3,2.65,0.72,0.98-3.6-2.66-.72,3.67-13.56-3.44-.93L4680.47,4309l-0.97,3.59,8.75,2.37-1.16,4.3Zm-6.74-10.3,6.89-5.98-1.97,7.31Zm17.06,3.12a6.69,6.69,0,0,0-.78,8.53,7.847,7.847,0,0,0,4.45,2.84,7.054,7.054,0,0,0,5.52-.49,6.666,6.666,0,0,0,3.19-4.3,5.65,5.65,0,0,0-.07-3.41,5.89,5.89,0,0,0-2.14-2.82,5.013,5.013,0,0,0,2.65-1.19,4.774,4.774,0,0,0,1.49-2.43,5.349,5.349,0,0,0-.61-4.41,8.281,8.281,0,0,0-9.48-2.57,5.355,5.355,0,0,0-2.74,3.5,5.109,5.109,0,0,0,.02,2.77,4.918,4.918,0,0,0,1.82,2.47A5.733,5.733,0,0,0,4701.37,4313.15Zm6.48-7.07a2.644,2.644,0,0,1,2.07-.19,2.479,2.479,0,0,1,1.84,3.22,2.679,2.679,0,0,1-1.22,1.73A2.737,2.737,0,0,1,4707.85,4306.08Zm-2.71,8.67a2.672,2.672,0,0,1,2.52-.43,2.929,2.929,0,0,1,1.89,1.5,3.525,3.525,0,0,1,.2,2.64,3.957,3.957,0,0,1-1.55,2.41,2.847,2.847,0,0,1-2.35.34,2.916,2.916,0,0,1-1.9-1.54,3.9,3.9,0,0,1-.16-2.87A3.947,3.947,0,0,1,4705.14,4314.75Z"/>
  <circle id="EM49" class="cls-4" cx="4330.37" cy="3922.44" r="20.75"/>
  <path id="_49" data-name="49" class="cls-5" d="M4323.05,3931.33l1.17-4.3,2.65,0.72,0.98-3.6-2.66-.72,3.67-13.56-3.44-.93L4312.47,3920l-0.97,3.59,8.75,2.37-1.16,4.3Zm-6.74-10.3,6.89-5.98-1.97,7.31Zm16.07,11.8a6.18,6.18,0,0,0,3.69,2.43,7.263,7.263,0,0,0,6.36-1.06q2.88-2.01,4.47-7.87,1.56-5.76.15-8.84a6.888,6.888,0,0,0-4.66-3.96,6.793,6.793,0,0,0-5.46.66,7.5,7.5,0,0,0-3.35,4.72,7.357,7.357,0,0,0,.46,5.56,5.945,5.945,0,0,0,3.83,3.12,5.09,5.09,0,0,0,4.35-.74q-1.245,3.6-2.45,4.53a2.717,2.717,0,0,1-2.47.58,2.335,2.335,0,0,1-1.47-1.02,3,3,0,0,1-.27-2l-4.08-.63A6.641,6.641,0,0,0,4332.38,3932.83Zm9.24-8.44a2.711,2.711,0,0,1-4.02-1.13,6.359,6.359,0,0,1,1.55-6,2.442,2.442,0,0,1,2.13-.38,2.78,2.78,0,0,1,1.82,1.66,4.827,4.827,0,0,1,.07,3.32A4.2,4.2,0,0,1,4341.62,3924.39Z"/>
  <circle id="EM50" class="cls-4" cx="4043.37" cy="3556.44" r="20.75"/>
  <path id="_50" data-name="50" class="cls-5" d="M4026.67,3561.48a7.486,7.486,0,0,0,4.4,2.9,7.046,7.046,0,0,0,6.55-1.27,7.961,7.961,0,0,0,2.81-4.29,7.426,7.426,0,0,0-.5-5.66,6.48,6.48,0,0,0-7.07-3.31l1.62-3.46,7.73,2.09,1.04-3.83-10.84-2.93-5.11,10.56,3.2,1.38a4.3,4.3,0,0,1,3.58-.71,3.034,3.034,0,0,1,2.03,1.61,4.48,4.48,0,0,1,.09,3.19,4.905,4.905,0,0,1-1.74,2.9,2.85,2.85,0,0,1-2.46.46,2.892,2.892,0,0,1-1.76-1.35,3.565,3.565,0,0,1-.44-2.47l-4.2-.69A6.781,6.781,0,0,0,4026.67,3561.48Zm23.68-12.97q-2.82,2.085-4.45,8.13-1.665,6.15-.4,9.07a6.359,6.359,0,0,0,4.38,3.76,6.051,6.051,0,0,0,5.43-.88q2.82-2.085,4.46-8.15,1.65-6.09.27-9.27a6.678,6.678,0,0,0-9.69-2.66h0Zm5.71,3.35a3.826,3.826,0,0,1,.45,2.14,25.277,25.277,0,0,1-1.02,5.28,24.491,24.491,0,0,1-1.87,5.22,3.276,3.276,0,0,1-1.37,1.45,2.136,2.136,0,0,1-1.45.12,2.1,2.1,0,0,1-1.19-.83,3.743,3.743,0,0,1-.45-2.13,24.029,24.029,0,0,1,1.02-5.27,24.424,24.424,0,0,1,1.87-5.24,3.264,3.264,0,0,1,1.36-1.45,2.165,2.165,0,0,1,1.46-.12A2.137,2.137,0,0,1,4056.06,3551.86Z"/>
  <circle id="EM51" class="cls-4" cx="3798.37" cy="3224.44" r="20.75"/>
  <path id="_51" data-name="51" class="cls-5" d="M3781.67,3229.48a7.486,7.486,0,0,0,4.4,2.9,7.046,7.046,0,0,0,6.55-1.27,7.961,7.961,0,0,0,2.81-4.29,7.426,7.426,0,0,0-.5-5.66,6.48,6.48,0,0,0-7.07-3.31l1.62-3.46,7.73,2.09,1.04-3.83-10.84-2.93-5.11,10.56,3.2,1.38a4.3,4.3,0,0,1,3.58-.71,3.034,3.034,0,0,1,2.03,1.61,4.48,4.48,0,0,1,.09,3.19,4.905,4.905,0,0,1-1.74,2.9,2.855,2.855,0,0,1-2.46.46,2.892,2.892,0,0,1-1.76-1.35,3.565,3.565,0,0,1-.44-2.47l-4.2-.69A6.781,6.781,0,0,0,3781.67,3229.48Zm32.68-12.88-3.33-.9a7.832,7.832,0,0,1-3.51,2.72,12.169,12.169,0,0,1-4.02,1.05l-1.01,3.72a14.566,14.566,0,0,0,6.14-1.68l-4.18,15.45,4.1,1.1Z"/>
  <circle id="EM52" class="cls-4" cx="3609.37" cy="2885.44" r="20.75"/>
  <path id="_52" data-name="52" class="cls-5" d="M3592.67,2890.48a7.486,7.486,0,0,0,4.4,2.9,7.046,7.046,0,0,0,6.55-1.27,7.961,7.961,0,0,0,2.81-4.29,7.426,7.426,0,0,0-.5-5.66,6.48,6.48,0,0,0-7.07-3.31l1.62-3.46,7.73,2.09,1.04-3.83-10.84-2.93-5.11,10.56,3.2,1.38a4.3,4.3,0,0,1,3.58-.71,3.034,3.034,0,0,1,2.03,1.61,4.48,4.48,0,0,1,.09,3.19,4.905,4.905,0,0,1-1.74,2.9,2.85,2.85,0,0,1-2.46.46,2.892,2.892,0,0,1-1.76-1.35,3.565,3.565,0,0,1-.44-2.47l-4.2-.69A6.781,6.781,0,0,0,3592.67,2890.48Zm23.11,3.48a8.1,8.1,0,0,1,1.15-.91c0.45-.29,1.48-0.86,3.1-1.69a29.323,29.323,0,0,0,3.42-2,11.93,11.93,0,0,0,2.38-2.3,7.573,7.573,0,0,0,1.26-2.6,5.8,5.8,0,0,0-.66-4.74,7.217,7.217,0,0,0-4.51-3.05,8,8,0,0,0-5.21.17,6.982,6.982,0,0,0-3.61,4.24l3.98,1.51a4.105,4.105,0,0,1,1.57-2.33,2.821,2.821,0,0,1,2.25-.22,2.858,2.858,0,0,1,1.83,1.29,2.917,2.917,0,0,1,.17,2.3,4.649,4.649,0,0,1-1.53,2.28,29.675,29.675,0,0,1-4.34,2.58,28.751,28.751,0,0,0-6,3.88,10.27,10.27,0,0,0-2.5,3.72l14.36,3.88,1.03-3.8Z"/>
  <circle id="EM53" class="cls-4" cx="3511.37" cy="2585.44" r="20.75"/>
  <path id="_53" data-name="53" class="cls-5" d="M3494.67,2590.48a7.486,7.486,0,0,0,4.4,2.9,7.046,7.046,0,0,0,6.55-1.27,7.961,7.961,0,0,0,2.81-4.29,7.426,7.426,0,0,0-.5-5.66,6.48,6.48,0,0,0-7.07-3.31l1.62-3.46,7.73,2.09,1.04-3.83-10.84-2.93-5.11,10.56,3.2,1.38a4.3,4.3,0,0,1,3.58-.71,3.034,3.034,0,0,1,2.03,1.61,4.48,4.48,0,0,1,.09,3.19,4.905,4.905,0,0,1-1.74,2.9,2.85,2.85,0,0,1-2.46.46,2.892,2.892,0,0,1-1.76-1.35,3.565,3.565,0,0,1-.44-2.47l-4.2-.69A6.781,6.781,0,0,0,3494.67,2590.48Zm18.81,5a7.966,7.966,0,0,0,10.01,2.38,6.666,6.666,0,0,0,3.36-4.25,5.261,5.261,0,0,0-.21-3.6,5.14,5.14,0,0,0-2.46-2.56q3.525-.855,4.29-3.66a5.2,5.2,0,0,0-.54-3.97,6.58,6.58,0,0,0-4.32-3.23,7.6,7.6,0,0,0-3.36-.2,5.582,5.582,0,0,0-2.71,1.22,8.741,8.741,0,0,0-2.03,2.78l3.6,1.66a3.583,3.583,0,0,1,1.48-1.88,2.562,2.562,0,0,1,1.99-.24,2.426,2.426,0,0,1,1.54,1.1,2.383,2.383,0,0,1,.17,1.89,2.652,2.652,0,0,1-1.42,1.8,3.8,3.8,0,0,1-2.74.04l-1.35,3.21a7.3,7.3,0,0,1,1.96.21,2.72,2.72,0,0,1,1.78,1.45,3.543,3.543,0,0,1,.17,2.67,3.835,3.835,0,0,1-1.57,2.36,2.832,2.832,0,0,1-2.39.39,2.872,2.872,0,0,1-1.8-1.35,3.857,3.857,0,0,1-.39-2.59l-4.1-.59A6.763,6.763,0,0,0,3513.48,2595.48Z"/>
  <circle id="EM54" class="cls-4" cx="3388.37" cy="2286.44" r="20.75"/>
  <path id="_54" data-name="54" class="cls-5" d="M3371.67,2291.48a7.486,7.486,0,0,0,4.4,2.9,7.046,7.046,0,0,0,6.55-1.27,7.961,7.961,0,0,0,2.81-4.29,7.426,7.426,0,0,0-.5-5.66,6.48,6.48,0,0,0-7.07-3.31l1.62-3.46,7.73,2.09,1.04-3.83-10.84-2.93-5.11,10.56,3.2,1.38a4.3,4.3,0,0,1,3.58-.71,3.034,3.034,0,0,1,2.03,1.61,4.48,4.48,0,0,1,.09,3.19,4.905,4.905,0,0,1-1.74,2.9,2.855,2.855,0,0,1-2.46.46,2.892,2.892,0,0,1-1.76-1.35,3.565,3.565,0,0,1-.44-2.47l-4.2-.69A6.781,6.781,0,0,0,3371.67,2291.48Zm28.38,9,1.17-4.31,2.65,0.72,0.98-3.6-2.66-.72,3.67-13.56-3.44-.93-12.95,11.06-0.97,3.59,8.75,2.37-1.16,4.3Zm-6.74-10.31,6.89-5.98-1.97,7.31Z"/>
  <circle id="EM55" class="cls-4" cx="3323.37" cy="2063.44" r="20.75"/>
  <path id="_55" data-name="55" class="cls-5" d="M3306.67,2068.48a7.486,7.486,0,0,0,4.4,2.9,7.046,7.046,0,0,0,6.55-1.27,7.961,7.961,0,0,0,2.81-4.29,7.426,7.426,0,0,0-.5-5.66,6.37,6.37,0,0,0-4.09-3.24,6.5,6.5,0,0,0-2.98-.07l1.62-3.46,7.73,2.09,1.04-3.83-10.84-2.93-5.11,10.56,3.2,1.38a4.3,4.3,0,0,1,3.58-.71,3.034,3.034,0,0,1,2.03,1.61,4.48,4.48,0,0,1,.09,3.19,4.905,4.905,0,0,1-1.74,2.9,2.85,2.85,0,0,1-2.46.46,2.892,2.892,0,0,1-1.76-1.35,3.565,3.565,0,0,1-.44-2.47l-4.2-.69A6.781,6.781,0,0,0,3306.67,2068.48Zm19,5.14a7.486,7.486,0,0,0,4.4,2.9,7.016,7.016,0,0,0,6.55-1.26,8.024,8.024,0,0,0,2.81-4.3,7.426,7.426,0,0,0-.5-5.66,6.4,6.4,0,0,0-4.09-3.24,6.5,6.5,0,0,0-2.98-.07l1.62-3.46,7.73,2.1,1.04-3.84-10.84-2.93-5.11,10.56,3.2,1.38a4.336,4.336,0,0,1,3.58-.71,3.034,3.034,0,0,1,2.03,1.61,4.484,4.484,0,0,1,.09,3.19,4.905,4.905,0,0,1-1.74,2.9,2.9,2.9,0,0,1-4.22-.89,3.621,3.621,0,0,1-.45-2.47l-4.19-.68A6.755,6.755,0,0,0,3325.67,2073.62Z"/>
  <circle id="EM65" class="cls-4" cx="5467.37" cy="5079.44" r="20.75"/>
  <path id="_65" data-name="65" class="cls-5" d="M5465.34,5068.19a6.211,6.211,0,0,0-3.66-2.46,7.288,7.288,0,0,0-6.35,1.07q-2.88,2.01-4.46,7.89-1.56,5.73-.15,8.81a7.251,7.251,0,0,0,10.12,3.31,7.494,7.494,0,0,0,3.35-4.74,7.356,7.356,0,0,0-.46-5.54,6.012,6.012,0,0,0-3.87-3.15,4.972,4.972,0,0,0-4.3.78c0.82-2.42,1.64-3.93,2.45-4.55a2.748,2.748,0,0,1,2.51-.57,2.252,2.252,0,0,1,1.43,1.01,3.027,3.027,0,0,1,.27,2.01l4.08,0.64A6.6,6.6,0,0,0,5465.34,5068.19Zm-9.19,8.42a2.73,2.73,0,0,1,4.03,1.14,4.819,4.819,0,0,1-.01,3.27,4.658,4.658,0,0,1-1.55,2.72,2.465,2.465,0,0,1-2.13.37,2.793,2.793,0,0,1-1.81-1.65,4.782,4.782,0,0,1-.09-3.33A4.2,4.2,0,0,1,5456.15,5076.61Zm13.52,13.01a7.486,7.486,0,0,0,4.4,2.9,7.016,7.016,0,0,0,6.55-1.26,8.024,8.024,0,0,0,2.81-4.3,7.426,7.426,0,0,0-.5-5.66,6.4,6.4,0,0,0-4.09-3.24,6.5,6.5,0,0,0-2.98-.07l1.62-3.46,7.73,2.1,1.04-3.84-10.84-2.93-5.11,10.56,3.2,1.38a4.336,4.336,0,0,1,3.58-.71,3.056,3.056,0,0,1,2.03,1.61,4.484,4.484,0,0,1,.09,3.19,4.905,4.905,0,0,1-1.74,2.9,2.9,2.9,0,0,1-4.22-.89,3.565,3.565,0,0,1-.44-2.47l-4.2-.68A6.755,6.755,0,0,0,5469.67,5089.62Z"/>
</svg>
