<svg id="M4" data-desarrollo="villa-prueba" data-name="Manzana 4" data-lotificacion xmlns="http://www.w3.org/2000/svg" width="100%" height="100%" viewBox="0 0 630 377">
  <defs>
    <style>
      .cls-1 {
        fill: rgba(223, 233, 233, 0.863);
        stroke: #000;
        stroke-width: 1px;
        fill-rule: evenodd;
      }
      .cls-1:hover{
          fill: rgba(238, 208, 40, 0.781);
        }
      .Manzanas{
        fill: red;
        display: none;
      }

    </style>
  </defs>
  <g id="map" pointer-events="all">
    <path data-lote data-costototal='10000' data-dimension='100' data-costom2='100' id="M4-L1" class="cls-1" d="M57,189L8,195l6,52,47-5Z"/>
    <path data-lote id="M4-L2" class="cls-1" d="M23,301l44-7-6-52-46,5Z"/>
    <path data-lote data-costototal='20000' data-dimension='200' data-costom2='200' id="M4-L3" class="cls-1" d="M23,301l8,56,42-3,13-51s-15.637,5.836-20-9C52.039,296.182,23,301,23,301Z"/>
    <path data-lote id="M4-L4" class="cls-1" d="M86,303L73,354l45-3-6-50Z"/>
    <path data-lote data-costototal='30000' data-dimension='300' data-costom2='300' id="M4-L5" class="cls-1" d="M112,301l5,49,25-1-7-50Z"/>
    <path data-lote id="M4-L6" class="cls-1" d="M142,350l36-3-8-52-34,3Z"/>
    <path data-lote data-costototal='40000' data-dimension='400' data-costom2='400' id="M4-L7" class="cls-1" d="M170,296l7,51,37-1-7-53Z"/>
    <path data-lote id="M4-L8" class="cls-1" d="M207,293l7,53,29-2-6-53Z"/>
    <path data-lote data-costototal='50000' data-dimension='500' data-costom2='500' id="M4-L9" class="cls-1" d="M237,291l6,52,26-1-4-54Z"/>
    <path data-lote id="M4-L10" class="cls-1" d="M265,288l4,54,26-2-4-54Z"/>
    <path data-lote data-costototal='50000' data-dimension='500' data-costom2='500' id="M4-L11" class="cls-1" d="M314,284l-23,2,4,53h23Z"/>
    <path data-lote id="M4-L12" class="cls-1" d="M338,281l-24,3,4,54,25-2Z"/>
    <path data-lote data-costototal='60000' data-dimension='600' data-costom2='600' id="M4-L13" class="cls-1" d="M366,278l-28,3,5,55,28-3Z"/>
    <path data-lote id="M4-L14" class="cls-1" d="M408,274l-42,4,5,54,42-3Z"/>
    <path data-lote data-costototal='70000' data-dimension='700' data-costom2='700' id="M4-L15" class="cls-1" d="M431,272l-23,2,5,54,23-2Z"/>
    <path data-lote id="M4-L16" class="cls-1" d="M458,268l-27,3,5,55,25-3Z"/>
    <path data-lote data-costototal='80000' data-dimension='800' data-costom2='800' id="M4-L17" class="cls-1" d="M482,266l-24,3,3,55,25-3Z"/>
    <path data-lote id="M4-L18" class="cls-1" d="M506,264l-24,2,3,54,23-2Z"/>
    <path data-lote data-costototal='90000' data-dimension='900' data-costom2='900' id="_M4-L19" data-name=" M4-L19" class="cls-1" d="M525,262l-20,1,3,56,22-3Z"/>
    <path id="Linea1" class="cls-1" d="M599,368l-8-69"/>
    <path id="Linea2" class="cls-1" d="M570,368v-8l-7-48-23-45s-0.511-6.334-15-5c2.82,33.081,5,54,5,54l-14,51"/>
    <path data-manzana ="M1" id="M1" class="cls-1" d="M388,103l23,11s5.453,5.131,0,12-15,31-15.007,31q-25.518,51.017-51.243,102.2s-3.717,4.693-12.032,5.315C323.973,265.172,190.032,275.006,190,275c0,0-3.809-.052-5-6s-3-24-3-24,1.558-5.384,3.963-8.1c2.69-3.033,139-100.93,139.032-100.9,0,0,7.891-4.91,9-7s20-21,20-21,1.7-5.017,2-6,4-9,4-9,3.181-3.152,7-1,21,11,21,11"/>
    <path data-manzana ="M2" id="M2" class="cls-1" d="M364,254l63-128s3.521-5.482,8-2,106,51,106,51,4.045,0.994,3,9-11,57-11,57,0.483,5.824-8,7-155,14-155,14S359.144,263.888,364,254Z"/>
  <!-- <path data-manzana ="M3" id="M3" class="cls-1" d="M525,262L290,286,75,303s-7.966.716-8-12S57,188,57,188L8,195,32,358l287-19,210-23Z"/> -->
  <path data-manzana ="M4" id="M4" class="cls-1" d="M592,300l28-167L383,19,340,8a30.065,30.065,0,0,0-11,0,24.732,24.732,0,0,0-13,8c-3.41,3.857-9,16-9,16l-7,34L149,180l-92,8,2,20H75l8,73s-0.781,4.078,7,4,71-6,71-6,4.972,1.473,4-10-3-30-3-30-1.276-7.8,4-10S315,119,315,119l25-26,6-19s4.7-12.717,19-3c15.983,6.544,196,91,196,91s5.223,0.223,2,15-9,52-9,52-1.931,13.918,4,19S592,300,592,300Z"/>
  </g>
</svg>
