<svg  id="Manzana 5" data-desarrollo="villa-toscana2" data-name="Manzana 5" xmlns="http://www.w3.org/2000/svg" xmlns:xlink="http://www.w3.org/1999/xlink" width="100%" height="100%" viewBox="0 0 3400 2600">
    <defs>
      <style>
        @import url(./css/mapas.css);
      </style>
      <filter id="filter" filterUnits="userSpaceOnUse">
        <feComposite result="composite" operator="in" in2="SourceGraphic"/>
        <feBlend result="blend" in2="SourceGraphic"/>
      </filter>
    </defs>
     <g class="cls-1" id="map" pointer-events="all">
        <path id="M5-L1" class="cls-2" d="M1968,741l145-26h10l5,3,2,3-14,109-27,188-5,33-165-26,17-119,18-123,5-36,5-5Z"/>
        <path id="M5-L2" class="cls-2" d="M2084,1051l-82-13-6,34,84,12Z"/>
        <path id="M5-L3" class="cls-2" d="M2080,1084l-84-12-3,24,84,12Z"/>
        <path id="M5-L4" class="cls-2" d="M2077,1108l-84-12-3,26,84,11Z"/>
        <path id="M5-L5" class="cls-2" d="M2074,1133l-84-11-4,25,84,12Z"/>
        <path id="M5-L6" class="cls-2" d="M2070,1159l-84-12-3,23,83,13Z"/>
        <path id="M5-L7" class="cls-2" d="M2066,1183l-83-13-4,25,84,13Z"/>
        <path id="M5-L8" class="cls-2" d="M2063,1208l-84-13-4,26,84,11Z"/>
        <path id="M5-L9" class="cls-2" d="M2059,1232l-84-11-3,28,83,13Z"/>
        <path id="M5-L10" class="cls-2" d="M2055,1262l-83-13-4,30,83,12Z"/>
        <path id="M5-L11" class="cls-2" d="M2051,1291l-83-12-4,29,83,11Z"/>
        <path id="M5-L12" class="cls-2" d="M2047,1319l-83-11-4,29,83,13Z"/>
        <path id="M5-L13" class="cls-2" d="M2043,1350l-83-13-4,29,83,13Z"/>
        <path id="M5-L14" class="cls-2" d="M2039,1379l-83-13-5,30,83,11Z"/>
        <path id="M5-L15" class="cls-2" d="M2034,1407l-83-11-4,28,83,12Z"/>
        <path id="M5-L16" class="cls-2" d="M2030,1436l-83-12-4,27,84,13Z"/>
        <path id="M5-L17" class="cls-2" d="M2027,1464l-84-13-5,30,85,11Z"/>
        <path id="M5-L18" class="cls-2" d="M2023,1492l-85-11-4,38,83,11Z"/>
        <path id="M5-L19" class="cls-2" d="M2017,1530l-83-11-10,63,83-26,6-4,1-4Z"/>
        <path id="M5-L20" class="cls-2" d="M1930,1547l-5,35-70,24h-5l-4-1-5-4-2-4,9-63Z"/>
        <path id="M5-L21" class="cls-2" d="M1930,1547l-82-13,4-38,83,14Z"/>
        <path id="M5-L22" class="cls-2" d="M1935,1511l-83-15,4-29,82,14Z"/>
        <path id="M5-L23" class="cls-2" d="M1938,1481l-82-14,5-29,82,14Z"/>
        <path id="M5-L24" class="cls-2" d="M1943,1452l-82-14,4-28,82,14Z"/>
        <path id="M5-L25" class="cls-2" d="M1947,1424l-82-14,4-27,82,12Z"/>
        <path id="M5-L26" class="cls-2" d="M1951,1395l-82-12,3-30,84,14Z"/>
        <path id="M5-L27" class="cls-2" d="M1956,1367l-84-14,5-30,83,14Z"/>
        <path id="M5-L28" class="cls-2" d="M1960,1337l-83-14,4-28,82,13Z"/>
        <path id="M5-L29" class="cls-2" d="M1963,1308l-82-13,4-29,83,13Z"/>
        <path id="M5-L30" class="cls-2" d="M1968,1279l-83-13,4-30,83,14Z"/>
        <path id="M5-L31" class="cls-2" d="M1972,1250l-83-14,4-27,82,12Z"/>
        <path id="M5-L32" class="cls-2" d="M1975,1221l-82-12,4-27,82,14Z"/>
        <path id="M5-L33" class="cls-2" d="M1979,1196l-82-14,3-24,83,12Z"/>
        <path id="M5-L34" class="cls-2" d="M1983,1170l-83-12,3-24,83,13Z"/>
        <path id="M5-L35" class="cls-2" d="M1986,1147l-83-13,4-25,83,12Z"/>
        <path id="M5-L36" class="cls-2" d="M1990,1121l-83-12,4-26,81,13Z"/>
        <path id="M5-L37" class="cls-2" d="M1992,1096l-81-13,3-24,82,13Z"/>
        <path id="M5-L38" class="cls-2" d="M1996,1072l-82-13,5-34,83,13Z"/>
    </g>
    <g class="cls-1">
      <path data-manzana="M2" id="M2-2" data-name="M2" class="cls-2" d="M2552,642l34,97,22,60,27,76,16,48-83,29-47,16h-8l-7-9,9-85,14-84,10-80,11-68h2Z"/>
      <path data-manzana="M3" id="M3-2" data-name="M3" class="cls-2" d="M2418,663l69-12,7,8-8,82-11,80-11,57-5,40-6,47-4,22-5,7-54,20-11,3h-8l-6-6,1-31,11-68,7-49,10-71,8-64,10-61Z"/>
      <path data-manzana="M4" id="M4-2" data-name="M4" class="cls-2" d="M2195,704l149-28h4l5,2,4,6-12,92-11,79-14,99-11,71-1,12-4,6-8,3-108,38-44,16h-5l-4-5,11-94,12-86,11-71,8-57,10-65,1-12,4-5Z"/>
      <path data-manzana="M6" id="M6-2" data-name="M6" class="cls-2" d="M1741,782l153-27,5,2,4,4,1,3-15,112-13,88-12,86-12,87-12,86-13,93-16,112-9,61-15,105-4,30-1,1-6,5-84,26-66,21h-13l-6-9,8-60,13-98,17-112,10-74,14-87,11-83,11-83,14-92,11-86,14-89,2-15,5-6Z"/>
      <path data-manzana="M7" id="M7-2" data-name="M7" class="cls-2" d="M1518,824l144-28h7l8,6,1,3-6,51-9,72-8,52-10,68-9,62-8,59-5,37-9,58-8,49-9,67-6,42-6,47-9,57-8,58-9,65-5,35-1,11-7,6-86,26-63,22h-12l-8-7,9-69,11-85,8-59,11-74,10-72,9-59,11-76,9-69,10-65,9-65,9-65,10-78,12-71,1-6,6-4Z"/>
      <path data-manzana="M8" id="M8-2" data-name="M8" class="cls-2" d="M1288,865l147-26h11l4,4-14,129-17,112-12,88-12,86-16,110-9,65-13,81-13,94-12,88-9,64-10,9-12,2-63,6h-77l-9-11,11-76,15-110,11-92,10-52,8-59,12-87,12-88,10-74,11-77,12-82,10-76,3-20,7-8h4Z"/>
      <path data-manzana="M9" id="M9-2" data-name="M9" class="cls-2" d="M1066,905l140-26h12l6,7-5,46-15,109-4,36-16,103-11,83-13,90-14,94-11,88-14,88-14,99-6,38-6,5h-7l-77-22-69-27-3-7v-9l9-58,10-74,15-105,10-71,12-85,14-94,9-61,9-70,8-54,10-66,6-44,3-6,6-5Z"/>
      <path data-manzana="M10" id="M10-2" data-name="M10" class="cls-2" d="M711,942l155-30,82-14,4,1,8,5-10,93-12,75-5,6-14,2-89,17-88,17-31,5h-4l-9-8-12-77-8-59,9-6,8-7,7-8,4-6,2-6h3Z"/>
      <path data-manzana="M11" id="M11-2" data-name="M11" class="cls-2" d="M717,1183l120-22,64-13,12-1,4,3,5,6-10,77-13,95-15,100-10,72-10,77-3,5-6,5h-9l-6-3-31-43-27-39-24-50-11-34-10-35-8-33-11-87-9-63v-10l5-6Z"/>
      <path data-manzana="M12" id="M12-2" data-name="M12" class="cls-2" d="M554,975l7-4,7-2,14-3,12-2,9-1,3,1,5,5,7,46,5,38,6,37,5,34,5,32,4,30,5,31,4,30,4,30,5,30,4,30,1,30-4,31-5,29-4,31-5,30-4,32-5,34-6,37-5,41-5,44-4,13-5,8-5,3-7,3-13,1-8-5-7-8-4-11-1-45-2-41-1-38v-66l-2-29-1-30v-62l-1-29-1-30-2-61-2-60-2-63-2-108V976Z"/>
      <path data-manzana="M13" id="M13-2" data-name="M13" class="cls-2" d="M412,998l72-14h8l9,9,1,95,5,171,5,141,4,192,2,55,2,55,1,82,2,59,3,88,2,59,2,88,1,57v36l-91,9-1-41-2-59v-28l-2-60-1-59-2-58-7-170-3-164-5-223-4-227Z"/>
      <path data-manzana="M14" id="M14-2" data-name="M14" class="cls-2" d="M708,1535h13l6,4,6,7,5,8,2,75,3,83,5,175,2,95,3,89,1,79-84,8-87,8-2-43-2-77-3-94-2-91-1-86,8-9,31-2,22-9,12-8,8-9,7-9,6-15,6-21,2-14,3-19,3-25,2-11,7-48,4-29,11-12h3Z"/>
      <path data-manzana="M15" id="M15-2" data-name="M15" class="cls-2" d="M900,1797l67,27,73,17,4,3,4,5-4,40-10,65-7,59-4,31-5,30-4,30-3,20-89,10-88,8,9-58,4-28,5-39,4-29,4-29,9-60,7-43,4-28,2-21,1-3,8-7h9Z"/>
      <path data-manzana="M16" id="M16-2" data-name="M16" class="cls-2" d="M1110,1852l91,1,63-5h2l7,8v2l-7,60-10,73-8,59-5,54-92,8-88,8,11-66,8-60,8-58,5-38,6-39,7-7h2Z"/>
      <path data-manzana="M17" id="M17-2" data-name="M17" class="cls-2" d="M1341,1833l152-47h7l7,7-23,188-15,99-96,11-81,7,11-71,12-82,10-73,4-29,2-4,5-4Z"/>
      <path data-manzana="M18" id="M18-2" data-name="M18" class="cls-2" d="M1574,1762l155-50h6l9,9-11,98-9,60-8,58-7,44-12,78-87,9-89,8,8-45,6-49,6-42,6-43,6-34,6-48,7-47,4-4Z"/>
      <path data-manzana="M19" id="M19-2" data-name="M19" class="cls-2" d="M1809,1689l159-50h5l9,10-21,157-14,89-13,90-8,52-4,2-87,7-87,9,13-68,9-66,9-65,9-74,10-63,4-25Z"/>
      <path data-manzana="M20" id="M20-2" data-name="M20" class="cls-2" d="M2047,1614l82-26,71-22h10l6,8-15,127-9,60-9,59-7,60-9,60-7,52-5,24-119,12-58,5,11-58,4-38,10-69,11-73,8-67,9-53,5-36,2-17,7-7Z"/>
      <path data-manzana="M21" id="M21-2" data-name="M21" class="cls-2" d="M2126,1159l151-54,14,35-1,6-2,12-8,61-8,58-7,57-8,57-10,59-4,29-4,4-85,26-67,22h-10l-8-10,9-77,8-60,10-75,13-89,9-55Z"/>
      <path data-manzana="M22" id="M22-2" data-name="M22" class="cls-2" d="M2847,1897l134-49-55-148-30-91-30-80-28-82-28-79-26-74-33-94-33-93-39-109-11-30-118,41-127,45-73,27-15,104-12,87-17,115-8,66,7,6h14l68-24,64-18,15-5,8-7,14-101,10-82,12-72,7-26,7-15,15-21,21-17,49-18,33,92,48,134,40,112,50,141,49,141,51,142,3,30-4,14-6,13-6,9Z"/>
      <path data-manzana="M23" id="M23-2" data-name="M23" class="cls-2" d="M2569,1129h7l6,5,3,4,14,39,11,32,14,36,11,33,24,66v9l-9,8-18,6-32,11-56,16h-11l-7-7,5-43,5-38,7-45,4-29,9-61,5-35,7-7h1Z"/>
      <path data-manzana="M24" id="M24-2" data-name="M24" class="cls-2" d="M2284,1540l154-47h7l8,8-20,149-10,72-8,55-10,70-10,70-11,79-176,15v-1l11-85,13-89,11-83,12-75,16-115,3-15Z"/>
      <path data-manzana="M25" id="M25-2" data-name="M25" class="cls-2" d="M2519,1468l103-33,20-6h12l6,7-9,74-9,69-10,70-10,71-10,72-11,71-10,72-7,42-149,14,13-78,9-71,11-71,7-52,8-55,7-51,7-44,8-54,6-42Z"/>
      <path data-manzana="M26" id="M26-2" data-name="M26" class="cls-2" d="M2716,1525l8,6,15,45,26,72,27,74,21,57,18,54,1,3v7l-6,7-71,25-91,34h-4l-9-6-3-8,3-13,10-72,10-65,6-41,8-64,11-73,5-34,8-8h7Z"/>
      <path data-manzana="M27" id="M27-2" data-name="M27" class="cls-2" d="M809,1646l29,25,7,7,1,4,1,13-5,32-7,50-6,45-6,36-3,5-4,3-2,1h-8l-6-5-2-25-2-43-1-54-1-50s-0.273-32.33-1-33,4-8,4-8l5-3h7Z"/>
      </g>
     
    <path id="Cespt-2" data-name="Cespt" class="cls-2" d="M2277,1105l74-26-7,47-52,13Z"/>
    <circle id="E2" class="cls-4" cx="2562.5" cy="779.5" r="21.5"/>
    <path id="_2" data-name="2" class="cls-5" d="M2562.14,786.618a7.642,7.642,0,0,1,.93-1.269c0.39-.434,1.3-1.313,2.74-2.637a28.386,28.386,0,0,0,3-3.044,12.472,12.472,0,0,0,1.83-3.051,8.152,8.152,0,0,0,.58-3.068,6.234,6.234,0,0,0-2.02-4.737,7.779,7.779,0,0,0-5.55-1.9,8.569,8.569,0,0,0-5.37,1.644c-1.43,1.1-2.29,2.9-2.56,5.42l4.56,0.455a4.416,4.416,0,0,1,.98-2.864,3.036,3.036,0,0,1,2.28-.863,3.079,3.079,0,0,1,2.27.822,3.215,3.215,0,0,1,.82,2.352,5.041,5.041,0,0,1-.95,2.8,31.935,31.935,0,0,1-3.79,3.906,30.416,30.416,0,0,0-5.14,5.721,10.957,10.957,0,0,0-1.56,4.565h16.03v-4.248h-9.08Z"/>
    <circle id="E3" class="cls-4" cx="2429.5" cy="829.5" r="21.5"/>
    <path id="_3" data-name="3" class="cls-5" d="M2425.08,839.41a8.58,8.58,0,0,0,11.09-.35,7.163,7.163,0,0,0,2.29-5.355,5.712,5.712,0,0,0-1.23-3.7,5.55,5.55,0,0,0-3.28-1.969q3.435-1.872,3.44-5.013a5.6,5.6,0,0,0-1.68-3.972,7.086,7.086,0,0,0-5.4-2.148,8.353,8.353,0,0,0-3.56.74,5.954,5.954,0,0,0-2.47,2.035,9.4,9.4,0,0,0-1.33,3.459l4.22,0.716a3.793,3.793,0,0,1,1.01-2.377,2.749,2.749,0,0,1,2-.813,2.47,2.47,0,0,1,2.62,2.636,2.875,2.875,0,0,1-.98,2.271,4,4,0,0,1-2.83.806l-0.5,3.727a7.924,7.924,0,0,1,2.09-.342,2.974,2.974,0,0,1,2.27,1.009,3.873,3.873,0,0,1,.92,2.734,4.19,4.19,0,0,1-.96,2.9,3.222,3.222,0,0,1-4.63.179,4.18,4.18,0,0,1-1.14-2.588l-4.43.537A7.338,7.338,0,0,0,2425.08,839.41Z"/>
    <circle id="E4" class="cls-4" cx="2249.5" cy="880.5" r="21.5"/>
    <path id="_4" data-name="4" class="cls-5" d="M2256.17,891.866v-4.8h2.96v-4.02h-2.96V867.908h-3.84l-10.36,15.153v4h9.77v4.8h4.43Zm-9.91-8.821,5.48-8.155v8.155h-5.48Z"/>
    <circle id="E6" class="cls-4" cx="1760.5" cy="1183.5" r="21.5"/>
    <path id="_6" data-name="6" class="cls-5" d="M1767,1172.43a6.715,6.715,0,0,0-4.5-1.52,7.809,7.809,0,0,0-6.3,2.89q-2.43,2.91-2.43,9.46c0,4.27.78,7.33,2.33,9.21a7.838,7.838,0,0,0,11.46.59,8.091,8.091,0,0,0,2.15-5.88,7.883,7.883,0,0,0-2.05-5.63,6.481,6.481,0,0,0-4.9-2.18,5.33,5.33,0,0,0-4.25,2.02c0.17-2.75.59-4.55,1.26-5.42a2.987,2.987,0,0,1,2.45-1.3,2.417,2.417,0,0,1,1.77.65,3.21,3.21,0,0,1,.85,2.02l4.43-.49A7.189,7.189,0,0,0,1767,1172.43Zm-7.19,11.34a2.938,2.938,0,0,1,4.51.05,5.227,5.227,0,0,1,.91,3.41,4.976,4.976,0,0,1-.85,3.26,2.662,2.662,0,0,1-2.11.99,3.028,3.028,0,0,1-2.35-1.21,5.21,5.21,0,0,1-1.02-3.44A4.493,4.493,0,0,1,1759.81,1183.77Z"/>
    <circle id="E7" class="cls-4" cx="1525.5" cy="1282.5" r="21.5"/>
    <path id="_7" data-name="7" class="cls-5" d="M1529.17,1274.58a33.672,33.672,0,0,0-5.15,9.2,30.59,30.59,0,0,0-2.04,10.09h4.41a28.055,28.055,0,0,1,1.03-7.17,32.082,32.082,0,0,1,3.05-7.58,24.757,24.757,0,0,1,3.94-5.47v-3.32h-15.64v4.25h10.4Z"/>
    <circle id="E8" class="cls-4" cx="1297.5" cy="1334.5" r="21.5"/>
    <path id="_8" data-name="8" class="cls-5" d="M1291.67,1335.49a6.863,6.863,0,0,0-.96,3.56,6.663,6.663,0,0,0,2.55,5.53,8.486,8.486,0,0,0,5.42,1.71,7.659,7.659,0,0,0,5.61-2.07,7.216,7.216,0,0,0,2.11-5.37,6.161,6.161,0,0,0-1.04-3.53,6.363,6.363,0,0,0-3.02-2.33,5.375,5.375,0,0,0,2.43-1.98,5.213,5.213,0,0,0,.86-2.95,5.726,5.726,0,0,0-1.88-4.41,8.911,8.911,0,0,0-10.58,0,5.778,5.778,0,0,0-1.86,4.41,5.345,5.345,0,0,0,.81,2.87,5.257,5.257,0,0,0,2.57,2.06A6.223,6.223,0,0,0,1291.67,1335.49Zm4.75-9.17a2.838,2.838,0,0,1,2.1-.78,2.664,2.664,0,0,1,2.82,2.83,2.853,2.853,0,0,1-.79,2.14,3.183,3.183,0,0,1-4.14.01,2.882,2.882,0,0,1-.77-2.13A2.8,2.8,0,0,1,1296.42,1326.32Zm-0.38,9.78a2.868,2.868,0,0,1,2.5-1.16,3.123,3.123,0,0,1,2.39,1.02,3.812,3.812,0,0,1,.94,2.7,4.172,4.172,0,0,1-.93,2.93,3,3,0,0,1-2.34,1.02,3.148,3.148,0,0,1-2.42-1.06A4.618,4.618,0,0,1,1296.04,1336.1Z"/>
    <circle id="E10" class="cls-4" cx="815.5" cy="1011.5" r="21.5"/>
    <circle id="E9" class="cls-4" cx="1067.5" cy="1407.5" r="21.5"/>
    <path id="_9" data-name="9" class="cls-5" d="M1063.08,1417.8a6.7,6.7,0,0,0,4.53,1.49,7.837,7.837,0,0,0,6.31-2.9q2.43-2.9,2.43-9.44,0-6.42-2.33-9.23a7.805,7.805,0,0,0-11.45-.59,8.031,8.031,0,0,0-2.16,5.85,7.908,7.908,0,0,0,2.05,5.66,6.434,6.434,0,0,0,4.86,2.17,5.474,5.474,0,0,0,4.31-2q-0.285,4.1-1.27,5.4a2.945,2.945,0,0,1-2.41,1.3,2.5,2.5,0,0,1-1.81-.65,3.226,3.226,0,0,1-.84-2l-4.43.49A7.211,7.211,0,0,0,1063.08,1417.8Zm7.24-11.39a2.9,2.9,0,0,1-4.5-.04,6.831,6.831,0,0,1-.08-6.67,2.641,2.641,0,0,1,2.11-1,3,3,0,0,1,2.35,1.22,5.21,5.21,0,0,1,1.02,3.44A4.533,4.533,0,0,1,1070.32,1406.41Z"/>
    <path id="_10" data-name="10" class="cls-5" d="M807.475,998.908h-3.711a8.438,8.438,0,0,1-2.881,3.812,13.057,13.057,0,0,1-3.89,2.23v4.15a15.822,15.822,0,0,0,5.908-3.47v17.24h4.574V998.908Zm11.83,2.442q-2.345,2.955-2.344,9.7,0,6.87,2.132,9.55a6.836,6.836,0,0,0,5.616,2.67,6.5,6.5,0,0,0,5.4-2.44q2.345-2.955,2.344-9.73,0-6.795-2.328-9.72a7.188,7.188,0,0,0-10.823-.03h0Zm6.876,1.88a4.094,4.094,0,0,1,1.067,2.1,38.682,38.682,0,0,1-.049,11.73,3.533,3.533,0,0,1-1.009,1.89,2.3,2.3,0,0,1-1.481.53,2.261,2.261,0,0,1-1.474-.52,4.054,4.054,0,0,1-1.066-2.09,38.748,38.748,0,0,1,.049-11.74,3.523,3.523,0,0,1,1.009-1.9,2.3,2.3,0,0,1,1.482-.53A2.265,2.265,0,0,1,826.181,1003.23Z"/>
    <circle id="E11" class="cls-4" cx="809.5" cy="1339.5" r="21.5"/>
    <path id="_11" data-name="11" class="cls-5" d="M803.475,1326.91h-3.711a8.443,8.443,0,0,1-2.881,3.81,13.045,13.045,0,0,1-3.89,2.23v4.15a15.822,15.822,0,0,0,5.908-3.47v17.24h4.574v-23.96Zm19.366,0H819.13a8.443,8.443,0,0,1-2.881,3.81,13.057,13.057,0,0,1-3.89,2.23v4.15a15.822,15.822,0,0,0,5.908-3.47v17.24h4.574v-23.96Z"/>
    <circle id="E12" class="cls-4" cx="610.5" cy="1338.5" r="21.5"/>
    <path id="_12" data-name="12" class="cls-5" d="M602.475,1325.91h-3.711a8.443,8.443,0,0,1-2.881,3.81,13.057,13.057,0,0,1-3.89,2.23v4.15a15.822,15.822,0,0,0,5.908-3.47v17.24h4.574v-23.96Zm15.866,19.71a7.853,7.853,0,0,1,.936-1.27c0.385-.44,1.3-1.31,2.743-2.64a29.456,29.456,0,0,0,2.994-3.04,12.443,12.443,0,0,0,1.832-3.05,8.27,8.27,0,0,0,.577-3.07,6.253,6.253,0,0,0-2.018-4.74,7.76,7.76,0,0,0-5.55-1.9,8.615,8.615,0,0,0-5.371,1.64c-1.432,1.1-2.284,2.9-2.556,5.42l4.558,0.46a4.449,4.449,0,0,1,.976-2.87,3.5,3.5,0,0,1,4.55-.04,3.184,3.184,0,0,1,.821,2.35,5,5,0,0,1-.944,2.8,31.66,31.66,0,0,1-3.792,3.91,30.413,30.413,0,0,0-5.143,5.72,11.059,11.059,0,0,0-1.563,4.57h16.032v-4.25h-9.082Z"/>
    <circle id="E13" class="cls-4" cx="469.5" cy="1647.5" r="21.5"/>
    <path id="_13" data-name="13" class="cls-5" d="M461.475,1634.91h-3.711a8.443,8.443,0,0,1-2.881,3.81,13.057,13.057,0,0,1-3.89,2.23v4.15a15.822,15.822,0,0,0,5.908-3.47v17.24h4.574v-23.96Zm11.814,22.5a8.58,8.58,0,0,0,11.083-.35,7.172,7.172,0,0,0,2.3-5.36,5.709,5.709,0,0,0-1.229-3.69,5.546,5.546,0,0,0-3.28-1.97q3.433-1.875,3.434-5.01a5.6,5.6,0,0,0-1.676-3.97,7.069,7.069,0,0,0-5.4-2.15,8.216,8.216,0,0,0-3.556.74,5.967,5.967,0,0,0-2.474,2.03,9.493,9.493,0,0,0-1.327,3.46l4.216,0.72a3.832,3.832,0,0,1,1.009-2.38,2.763,2.763,0,0,1,2-.81,2.456,2.456,0,0,1,2.62,2.63,2.845,2.845,0,0,1-.976,2.27,4.02,4.02,0,0,1-2.832.81l-0.5,3.73a7.883,7.883,0,0,1,2.1-.34,2.934,2.934,0,0,1,2.262,1.01,3.866,3.866,0,0,1,.928,2.73,4.191,4.191,0,0,1-.968,2.9,3.1,3.1,0,0,1-2.385,1.07,3.139,3.139,0,0,1-2.246-.89,4.2,4.2,0,0,1-1.139-2.59l-4.427.53A7.319,7.319,0,0,0,473.289,1657.41Z"/>
    <circle id="E14" class="cls-4" cx="663.5" cy="1949.5" r="21.5"/>
    <path id="_14" data-name="14" class="cls-5" d="M655.475,1936.91h-3.711a8.443,8.443,0,0,1-2.881,3.81,13.057,13.057,0,0,1-3.89,2.23v4.15a15.822,15.822,0,0,0,5.908-3.47v17.24h4.574v-23.96Zm22.9,23.96v-4.81h2.962v-4.02h-2.962v-15.13h-3.842l-10.351,15.15v4h9.765v4.81h4.428Zm-9.913-8.83,5.485-8.15v8.15H668.46Z"/>
    <circle id="E15" class="cls-4" cx="944.5" cy="1970.5" r="21.5"/>
    <path id="_15" data-name="15" class="cls-5" d="M936.475,1957.91h-3.711a8.443,8.443,0,0,1-2.881,3.81,13.045,13.045,0,0,1-3.89,2.23v4.15a15.822,15.822,0,0,0,5.908-3.47v17.24h4.574v-23.96Zm12.058,22.59a8.029,8.029,0,0,0,5.387,1.77,7.584,7.584,0,0,0,6.462-3.15,8.654,8.654,0,0,0,1.709-5.26,7.983,7.983,0,0,0-2.116-5.75,7.012,7.012,0,0,0-8.285-1.45l0.716-4.05h8.627v-4.28H948.94l-2.344,12.42,3.711,0.54a4.659,4.659,0,0,1,3.532-1.74,3.281,3.281,0,0,1,2.563,1.09,4.818,4.818,0,0,1,.985,3.3,5.314,5.314,0,0,1-.993,3.51,3.087,3.087,0,0,1-2.425,1.16,3.141,3.141,0,0,1-2.214-.9,3.906,3.906,0,0,1-1.155-2.45l-4.558.47A7.3,7.3,0,0,0,948.533,1980.5Z"/>
    <circle id="E16" class="cls-4" cx="1170.5" cy="1979.5" r="21.5"/>
    <path id="_16" data-name="16" class="cls-5" d="M1162.47,1966.91h-3.71a8.434,8.434,0,0,1-2.88,3.81,12.973,12.973,0,0,1-3.89,2.23v4.15a15.806,15.806,0,0,0,5.91-3.47v17.24h4.57v-23.96Zm22.73,1.52a6.715,6.715,0,0,0-4.5-1.52,7.836,7.836,0,0,0-6.3,2.89q-2.415,2.91-2.42,9.46c0,4.27.77,7.33,2.32,9.21a7.4,7.4,0,0,0,5.95,2.8,7.323,7.323,0,0,0,5.51-2.21,8.05,8.05,0,0,0,2.15-5.88,7.92,7.92,0,0,0-2.04-5.63,6.5,6.5,0,0,0-4.91-2.18,5.344,5.344,0,0,0-4.25,2.02c0.18-2.75.6-4.55,1.27-5.42a2.97,2.97,0,0,1,2.44-1.3,2.457,2.457,0,0,1,1.78.65,3.264,3.264,0,0,1,.85,2.02l4.42-.49A7.089,7.089,0,0,0,1185.2,1968.43Zm-7.18,11.34a2.875,2.875,0,0,1,2.23-1.03,2.836,2.836,0,0,1,2.27,1.08,5.225,5.225,0,0,1,.92,3.41,5.035,5.035,0,0,1-.85,3.26,2.681,2.681,0,0,1-2.12.99,3,3,0,0,1-2.34-1.21,5.211,5.211,0,0,1-1.03-3.44A4.494,4.494,0,0,1,1178.02,1979.77Z"/>
    <circle id="E17" class="cls-4" cx="1398.5" cy="1967.5" r="21.5"/>
    <path id="_17" data-name="17" class="cls-5" d="M1390.47,1954.91h-3.71a8.434,8.434,0,0,1-2.88,3.81,12.973,12.973,0,0,1-3.89,2.23v4.15a15.806,15.806,0,0,0,5.91-3.47v17.24h4.57v-23.96Zm19.91,4.67a33.413,33.413,0,0,0-5.15,9.2,30.611,30.611,0,0,0-2.05,10.09h4.41a28.106,28.106,0,0,1,1.04-7.17,32.082,32.082,0,0,1,3.05-7.58,24.438,24.438,0,0,1,3.94-5.47v-3.32h-15.64v4.25h10.4Z"/>
    <circle id="E18" class="cls-4" cx="1630.5" cy="1924.5" r="21.5"/>
    <path id="_18" data-name="18" class="cls-5" d="M1622.47,1911.91h-3.71a8.434,8.434,0,0,1-2.88,3.81,12.973,12.973,0,0,1-3.89,2.23v4.15a15.806,15.806,0,0,0,5.91-3.47v17.24h4.57v-23.96Zm10.4,13.58a6.863,6.863,0,0,0-.96,3.56,6.644,6.644,0,0,0,2.56,5.53,8.467,8.467,0,0,0,5.42,1.71,7.635,7.635,0,0,0,5.6-2.07,7.178,7.178,0,0,0,2.11-5.37,6.154,6.154,0,0,0-1.03-3.53,6.411,6.411,0,0,0-3.02-2.33,5.348,5.348,0,0,0,2.42-1.98,5.145,5.145,0,0,0,.87-2.95,5.76,5.76,0,0,0-1.88-4.41,8.911,8.911,0,0,0-10.58,0,5.786,5.786,0,0,0-1.87,4.41,5.135,5.135,0,0,0,3.39,4.93A6.2,6.2,0,0,0,1632.87,1925.49Zm4.76-9.17a2.83,2.83,0,0,1,2.09-.78,2.65,2.65,0,0,1,2.82,2.83,2.887,2.887,0,0,1-.78,2.14,2.815,2.815,0,0,1-2.08.77,2.786,2.786,0,0,1-2.06-.76,2.847,2.847,0,0,1-.78-2.13A2.766,2.766,0,0,1,1637.63,1916.32Zm-0.39,9.78a2.861,2.861,0,0,1,2.5-1.15,3.1,3.1,0,0,1,2.39,1.01,3.818,3.818,0,0,1,.95,2.7,4.172,4.172,0,0,1-.93,2.93,3.032,3.032,0,0,1-2.34,1.02,3.119,3.119,0,0,1-2.42-1.06,4.155,4.155,0,0,1-.97-2.94A4.232,4.232,0,0,1,1637.24,1926.1Z"/>
    <circle id="E19" class="cls-4" cx="1861.5" cy="1880.5" r="21.5"/>
    <path id="_19" data-name="19" class="cls-5" d="M1853.47,1867.91h-3.71a8.434,8.434,0,0,1-2.88,3.81,12.973,12.973,0,0,1-3.89,2.23v4.15a15.806,15.806,0,0,0,5.91-3.47v17.24h4.57v-23.96Zm11.82,22.89a6.693,6.693,0,0,0,4.52,1.49,7.857,7.857,0,0,0,6.32-2.9c1.62-1.93,2.42-5.08,2.42-9.44q0-6.42-2.32-9.23a7.389,7.389,0,0,0-5.96-2.81,7.3,7.3,0,0,0-5.49,2.22,8.031,8.031,0,0,0-2.16,5.85,7.945,7.945,0,0,0,2.04,5.66,6.434,6.434,0,0,0,4.86,2.17,5.46,5.46,0,0,0,4.31-2q-0.27,4.1-1.27,5.4a2.928,2.928,0,0,1-2.4,1.3,2.482,2.482,0,0,1-1.81-.65,3.176,3.176,0,0,1-.85-2l-4.42.49A7.16,7.16,0,0,0,1865.29,1890.8Zm7.23-11.38a2.91,2.91,0,0,1-4.5-.05,5.243,5.243,0,0,1-.91-3.39,5.1,5.1,0,0,1,.84-3.28,2.627,2.627,0,0,1,2.11-1,3.011,3.011,0,0,1,2.35,1.22,5.21,5.21,0,0,1,1.02,3.44A4.528,4.528,0,0,1,1872.52,1879.42Z"/>
    <circle id="E20" class="cls-4" cx="2093.5" cy="1837.5" r="21.5"/>
    <path id="_20" data-name="20" class="cls-5" d="M2080.14,1844.62a7.565,7.565,0,0,1,.93-1.27c0.39-.44,1.3-1.31,2.74-2.64a28.634,28.634,0,0,0,3-3.04,12.431,12.431,0,0,0,1.83-3.05,8.173,8.173,0,0,0,.58-3.07,6.237,6.237,0,0,0-2.02-4.74,7.773,7.773,0,0,0-5.55-1.9,8.6,8.6,0,0,0-5.37,1.64c-1.43,1.1-2.29,2.9-2.56,5.42l4.56,0.46a4.432,4.432,0,0,1,.98-2.87,3.5,3.5,0,0,1,4.55-.04,3.213,3.213,0,0,1,.82,2.35,5.009,5.009,0,0,1-.95,2.8,31.27,31.27,0,0,1-3.79,3.91,30.48,30.48,0,0,0-5.14,5.72,10.968,10.968,0,0,0-1.56,4.57h16.03v-4.25h-9.08Zm17.16-17.27q-2.34,2.955-2.34,9.7,0,6.87,2.13,9.55a6.845,6.845,0,0,0,5.62,2.67,6.494,6.494,0,0,0,5.4-2.44q2.34-2.955,2.35-9.73c0-4.53-.78-7.76-2.33-9.72a7.2,7.2,0,0,0-10.83-.03h0Zm6.88,1.88a4.063,4.063,0,0,1,1.07,2.1,38.9,38.9,0,0,1-.05,11.73,3.56,3.56,0,0,1-1.01,1.89,2.3,2.3,0,0,1-1.48.53,2.241,2.241,0,0,1-1.47-.52,4.024,4.024,0,0,1-1.07-2.09,26.169,26.169,0,0,1-.42-5.77,25.821,25.821,0,0,1,.47-5.97,3.491,3.491,0,0,1,1.01-1.9,2.3,2.3,0,0,1,1.48-.53A2.269,2.269,0,0,1,2104.18,1829.23Z"/>
    <circle id="E21" class="cls-4" cx="2179.5" cy="1320.5" r="21.5"/>
    <path id="_21" data-name="21" class="cls-5" d="M2166.14,1327.62a7.565,7.565,0,0,1,.93-1.27c0.39-.44,1.3-1.31,2.74-2.64a28.634,28.634,0,0,0,3-3.04,12.431,12.431,0,0,0,1.83-3.05,8.173,8.173,0,0,0,.58-3.07,6.237,6.237,0,0,0-2.02-4.74,7.773,7.773,0,0,0-5.55-1.9,8.6,8.6,0,0,0-5.37,1.64c-1.43,1.1-2.29,2.9-2.56,5.42l4.56,0.46a4.432,4.432,0,0,1,.98-2.87,3.5,3.5,0,0,1,4.55-.04,3.213,3.213,0,0,1,.82,2.35,5.009,5.009,0,0,1-.95,2.8,31.27,31.27,0,0,1-3.79,3.91,30.48,30.48,0,0,0-5.14,5.72,10.968,10.968,0,0,0-1.56,4.57h16.03v-4.25h-9.08Zm26.54-19.71h-3.71a8.434,8.434,0,0,1-2.88,3.81,13.094,13.094,0,0,1-3.89,2.23v4.15a15.806,15.806,0,0,0,5.91-3.47v17.24h4.57v-23.96Z"/>
    <circle id="E22" class="cls-4" cx="2428.5" cy="1138.5" r="21.5"/>
    <path id="_22" data-name="22" class="cls-5" d="M2415.14,1145.62a7.565,7.565,0,0,1,.93-1.27c0.39-.44,1.3-1.31,2.74-2.64a28.634,28.634,0,0,0,3-3.04,12.431,12.431,0,0,0,1.83-3.05,8.173,8.173,0,0,0,.58-3.07,6.237,6.237,0,0,0-2.02-4.74,7.773,7.773,0,0,0-5.55-1.9,8.6,8.6,0,0,0-5.37,1.64c-1.43,1.1-2.29,2.9-2.56,5.42l4.56,0.46a4.432,4.432,0,0,1,.98-2.87,3.5,3.5,0,0,1,4.55-.04,3.213,3.213,0,0,1,.82,2.35,5.009,5.009,0,0,1-.95,2.8,31.27,31.27,0,0,1-3.79,3.91,30.48,30.48,0,0,0-5.14,5.72,10.968,10.968,0,0,0-1.56,4.57h16.03v-4.25h-9.08Zm21.2,0a7.659,7.659,0,0,1,.94-1.27c0.38-.44,1.3-1.31,2.74-2.64a29.312,29.312,0,0,0,2.99-3.04,12.494,12.494,0,0,0,1.84-3.05,8.366,8.366,0,0,0,.57-3.07,6.264,6.264,0,0,0-2.01-4.74,7.782,7.782,0,0,0-5.56-1.9,8.644,8.644,0,0,0-5.37,1.64c-1.43,1.1-2.28,2.9-2.55,5.42l4.56,0.46a4.432,4.432,0,0,1,.97-2.87,3.5,3.5,0,0,1,4.55-.04,3.172,3.172,0,0,1,.82,2.35,4.993,4.993,0,0,1-.94,2.8,32.071,32.071,0,0,1-3.79,3.91,30.619,30.619,0,0,0-5.15,5.72,11.112,11.112,0,0,0-1.56,4.57h16.03v-4.25h-9.08Z"/>
    <circle id="E23" class="cls-4" cx="2585.5" cy="1298.5" r="21.5"/>
    <path id="_23" data-name="23" class="cls-5" d="M2572.14,1305.62a7.565,7.565,0,0,1,.93-1.27c0.39-.44,1.3-1.31,2.74-2.64a28.634,28.634,0,0,0,3-3.04,12.431,12.431,0,0,0,1.83-3.05,8.173,8.173,0,0,0,.58-3.07,6.237,6.237,0,0,0-2.02-4.74,7.773,7.773,0,0,0-5.55-1.9,8.6,8.6,0,0,0-5.37,1.64c-1.43,1.1-2.29,2.9-2.56,5.42l4.56,0.46a4.432,4.432,0,0,1,.98-2.87,3.5,3.5,0,0,1,4.55-.04,3.213,3.213,0,0,1,.82,2.35,5.009,5.009,0,0,1-.95,2.8,31.27,31.27,0,0,1-3.79,3.91,30.48,30.48,0,0,0-5.14,5.72,10.968,10.968,0,0,0-1.56,4.57h16.03v-4.25h-9.08Zm17.15,2.79a8.576,8.576,0,0,0,11.08-.35,7.18,7.18,0,0,0,2.3-5.36,5.7,5.7,0,0,0-1.23-3.69,5.537,5.537,0,0,0-3.28-1.97q3.435-1.875,3.43-5.01a5.619,5.619,0,0,0-1.67-3.97,7.081,7.081,0,0,0-5.41-2.15,8.173,8.173,0,0,0-3.55.74,5.967,5.967,0,0,0-2.48,2.03,9.477,9.477,0,0,0-1.32,3.46l4.21,0.72a3.854,3.854,0,0,1,1.01-2.38,2.755,2.755,0,0,1,2-.81,2.448,2.448,0,0,1,2.62,2.63,2.843,2.843,0,0,1-.97,2.27,4.035,4.035,0,0,1-2.84.81l-0.5,3.73a7.835,7.835,0,0,1,2.1-.34,2.955,2.955,0,0,1,2.26,1,3.9,3.9,0,0,1,.93,2.74,4.168,4.168,0,0,1-.97,2.9,3.09,3.09,0,0,1-2.38,1.07,3.15,3.15,0,0,1-2.25-.89,4.188,4.188,0,0,1-1.14-2.59l-4.43.53A7.347,7.347,0,0,0,2589.29,1308.41Z"/>
    <circle id="E24" class="cls-4" cx="2326.5" cy="1787.5" r="21.5"/>
    <path id="_24" data-name="24" class="cls-5" d="M2313.14,1794.62a7.565,7.565,0,0,1,.93-1.27c0.39-.44,1.3-1.31,2.74-2.64a28.634,28.634,0,0,0,3-3.04,12.431,12.431,0,0,0,1.83-3.05,8.173,8.173,0,0,0,.58-3.07,6.237,6.237,0,0,0-2.02-4.74,7.773,7.773,0,0,0-5.55-1.9,8.6,8.6,0,0,0-5.37,1.64c-1.43,1.1-2.29,2.9-2.56,5.42l4.56,0.46a4.432,4.432,0,0,1,.98-2.87,3.5,3.5,0,0,1,4.55-.04,3.213,3.213,0,0,1,.82,2.35,5.009,5.009,0,0,1-.95,2.8,31.27,31.27,0,0,1-3.79,3.91,30.48,30.48,0,0,0-5.14,5.72,10.968,10.968,0,0,0-1.56,4.57h16.03v-4.25h-9.08Zm28.23,4.25v-4.81h2.96v-4.02h-2.96v-15.13h-3.84l-10.35,15.15v4h9.77v4.81h4.42Zm-9.91-8.83,5.49-8.15v8.15h-5.49Z"/>
    <circle id="E25" class="cls-4" cx="2543.5" cy="1747.5" r="21.5"/>
    <path id="_25" data-name="25" class="cls-5" d="M2530.14,1754.62a7.565,7.565,0,0,1,.93-1.27c0.39-.44,1.3-1.31,2.74-2.64a28.634,28.634,0,0,0,3-3.04,12.431,12.431,0,0,0,1.83-3.05,8.173,8.173,0,0,0,.58-3.07,6.237,6.237,0,0,0-2.02-4.74,7.773,7.773,0,0,0-5.55-1.9,8.6,8.6,0,0,0-5.37,1.64c-1.43,1.1-2.29,2.9-2.56,5.42l4.56,0.46a4.432,4.432,0,0,1,.98-2.87,3.5,3.5,0,0,1,4.55-.04,3.213,3.213,0,0,1,.82,2.35,5.009,5.009,0,0,1-.95,2.8,31.27,31.27,0,0,1-3.79,3.91,30.48,30.48,0,0,0-5.14,5.72,10.968,10.968,0,0,0-1.56,4.57h16.03v-4.25h-9.08Zm17.39,2.88a8.046,8.046,0,0,0,5.39,1.77,7.573,7.573,0,0,0,6.46-3.15,8.648,8.648,0,0,0,1.71-5.26,7.944,7.944,0,0,0-2.12-5.75,7,7,0,0,0-8.28-1.45l0.72-4.05h8.62v-4.28h-12.09l-2.34,12.42,3.71,0.54a4.658,4.658,0,0,1,3.53-1.74,3.269,3.269,0,0,1,2.56,1.09,4.8,4.8,0,0,1,.99,3.3,5.269,5.269,0,0,1-1,3.51,3.081,3.081,0,0,1-2.42,1.16,3.125,3.125,0,0,1-2.21-.9,3.86,3.86,0,0,1-1.16-2.45l-4.56.47A7.284,7.284,0,0,0,2547.53,1757.5Z"/>
    <circle id="E26" class="cls-4" cx="2724.5" cy="1774.5" r="21.5"/>
    <path id="_26" data-name="26" class="cls-5" d="M2711.14,1781.62a7.565,7.565,0,0,1,.93-1.27c0.39-.44,1.3-1.31,2.74-2.64a28.634,28.634,0,0,0,3-3.04,12.431,12.431,0,0,0,1.83-3.05,8.173,8.173,0,0,0,.58-3.07,6.237,6.237,0,0,0-2.02-4.74,7.773,7.773,0,0,0-5.55-1.9,8.6,8.6,0,0,0-5.37,1.64c-1.43,1.1-2.29,2.9-2.56,5.42l4.56,0.46a4.432,4.432,0,0,1,.98-2.87,3.5,3.5,0,0,1,4.55-.04,3.213,3.213,0,0,1,.82,2.35,5.009,5.009,0,0,1-.95,2.8,31.27,31.27,0,0,1-3.79,3.91,30.48,30.48,0,0,0-5.14,5.72,10.968,10.968,0,0,0-1.56,4.57h16.03v-4.25h-9.08Zm28.06-18.19a6.715,6.715,0,0,0-4.5-1.52,7.836,7.836,0,0,0-6.3,2.89q-2.415,2.91-2.42,9.46c0,4.27.77,7.33,2.32,9.21a7.4,7.4,0,0,0,5.95,2.8,7.323,7.323,0,0,0,5.51-2.21,8.05,8.05,0,0,0,2.15-5.88,7.92,7.92,0,0,0-2.04-5.63,6.5,6.5,0,0,0-4.91-2.18,5.344,5.344,0,0,0-4.25,2.02c0.18-2.75.6-4.55,1.27-5.42a2.97,2.97,0,0,1,2.44-1.3,2.457,2.457,0,0,1,1.78.65,3.264,3.264,0,0,1,.85,2.02l4.42-.49A7.089,7.089,0,0,0,2739.2,1763.43Zm-7.18,11.34a2.875,2.875,0,0,1,2.23-1.03,2.836,2.836,0,0,1,2.27,1.08,5.225,5.225,0,0,1,.92,3.41,5.035,5.035,0,0,1-.85,3.26,2.667,2.667,0,0,1-2.12.99,3,3,0,0,1-2.34-1.21,5.211,5.211,0,0,1-1.03-3.44A4.494,4.494,0,0,1,2732.02,1774.77Z"/>
    <circle id="E27" class="cls-4" cx="815.5" cy="1764.5" r="21.5"/>
    <path id="_27" data-name="27" class="cls-5" d="M802.136,1771.62a7.853,7.853,0,0,1,.936-1.27c0.385-.44,1.3-1.31,2.743-2.64a29.456,29.456,0,0,0,2.994-3.04,12.406,12.406,0,0,0,1.831-3.05,8.271,8.271,0,0,0,.578-3.07,6.253,6.253,0,0,0-2.018-4.74,7.76,7.76,0,0,0-5.55-1.9,8.613,8.613,0,0,0-5.371,1.64c-1.433,1.1-2.285,2.9-2.555,5.42l4.557,0.46a4.443,4.443,0,0,1,.976-2.87,3.5,3.5,0,0,1,4.549-.04,3.181,3.181,0,0,1,.822,2.35,5.007,5.007,0,0,1-.944,2.8,31.66,31.66,0,0,1-3.792,3.91,30.413,30.413,0,0,0-5.143,5.72,11.059,11.059,0,0,0-1.563,4.57h16.032v-4.25h-9.082Zm25.242-15.04a33.6,33.6,0,0,0-5.152,9.2,30.6,30.6,0,0,0-2.042,10.09h4.41a28.076,28.076,0,0,1,1.034-7.17,31.877,31.877,0,0,1,3.052-7.58,24.5,24.5,0,0,1,3.939-5.47v-3.32H816.977v4.25h10.4Z"/>  
  </svg>
  