<svg id="Manzana 9" data-desarrollo="villa-toscana" data-name="Manzana 9" xmlns="http://www.w3.org/2000/svg" xmlns:xlink="http://www.w3.org/1999/xlink" width="100%" height="100%" viewBox="0 0 1890 1417">
  <defs>
    <style>
      @import url(./css/mapas.css);
    </style>
    <filter id="filter" filterUnits="userSpaceOnUse">
      <feComposite result="composite" operator="in" in2="SourceGraphic"/>
      <feBlend result="blend" in2="SourceGraphic"/>
    </filter>
  </defs>
  <g class="cls-1" id="map" pointer-events="all">
    <path id="M9-L1" class="cls-2" d="M606,1050.94l117.669-17.75,8.2,54.39L614.2,1105.33Z"/>
    <path id="M9-L2" class="cls-2" d="M723.666,1033.19l26.7-4.02,8.2,54.38-26.7,4.03Z"/>
    <path id="M9-L3" class="cls-2" d="M750.364,1029.17l27.687-4.18,8.2,54.39-27.687,4.17Z"/>
    <path id="M9-L4" class="cls-2" d="M778.051,1024.99l27.687-4.17,8.2,54.38-27.687,4.18Z"/>
    <path id="M9-L5" class="cls-2" d="M805.738,1020.82l27.687-4.18,8.2,54.39-27.687,4.17Z"/>
    <path id="M9-L6" class="cls-2" d="M833.425,1016.64l27.687-4.17,8.2,54.38-27.687,4.18Z"/>
    <path id="M9-L7" class="cls-2" d="M861.112,1012.47l26.7-4.03,8.2,54.38-26.7,4.03Z"/>
    <path id="M9-L8" class="cls-2" d="M887.81,1008.44l27.687-4.18,8.2,54.39-27.687,4.17Z"/>
    <path id="M9-L9" class="cls-2" d="M915.5,1004.26l26.7-4.02,8.2,54.38-26.7,4.03Z"/>
    <path id="M9-L10" class="cls-2" d="M942.2,1000.24l27.687-4.179,8.2,54.389-27.687,4.17Z"/>
    <path id="M9-L11" class="cls-2" d="M969.882,996.061l28.676-4.324,8.2,54.383-28.676,4.33Z"/>
    <path id="M9-L12" class="cls-2" d="M998.558,991.737l26.7-4.027,8.2,54.39-26.7,4.02Z"/>
    <path id="M9-L13" class="cls-2" d="M1025.26,987.71l27.68-4.175,8.2,54.385-27.68,4.18Z"/>
    <path id="M9-L14" class="cls-2" d="M1052.94,983.535l27.69-4.176,8.2,54.381-27.69,4.18Z"/>
    <path id="M9-L15" class="cls-2" d="M1080.63,979.359l26.7-4.026,8.2,54.387-26.7,4.02Z"/>
    <path id="M9-L16" class="cls-2" d="M1107.33,975.333l26.7-4.027,8.2,54.384-26.7,4.03Z"/>
    <path id="M9-L17" class="cls-2" d="M1134.03,971.306l28.67-4.325,8.2,54.389-28.67,4.32Z"/>
    <path id="M9-L18" class="cls-2" d="M1162.7,966.981l27.69-4.175,8.2,54.384-27.69,4.18Z"/>
    <path id="M9-L19" class="cls-2" d="M1190.39,962.806l27.69-4.176,8.2,54.39-27.69,4.17Z"/>
    <path id="M9-L20" class="cls-2" d="M1218.08,958.63l25.7-3.877,8.21,54.387-25.71,3.88Z"/>
    <path id="M9-L21" class="cls-2" d="M1243.78,954.753l27.69-4.176,8.2,54.383-27.68,4.18Z"/>
    <path id="M9-L22" class="cls-2" d="M1271.47,950.577l26.7-4.026,8.2,54.389-26.7,4.02Z"/>
    <path id="M9-L23" class="cls-2" d="M1298.17,946.551l27.69-4.176,8.2,54.385-27.69,4.18Z"/>
    <path id="M9-L24" class="cls-2" d="M1325.86,942.375l27.68-4.176,8.21,54.385-27.69,4.176Z"/>
    <path id="M9-L25" class="cls-2" d="M1353.54,938.2l27.69-4.175,8.2,54.385-27.68,4.175Z"/>
    <path id="M9-L26" class="cls-2" d="M1381.23,934.024l27.69-4.176,8.2,54.385-27.69,4.176Z"/>
    <path id="M9-L27" class="cls-2" d="M1408.92,929.848l26.7-4.026,8.2,54.385-26.7,4.026Z"/>
    <path id="M9-L28" class="cls-2" d="M1435.62,925.822l27.68-4.176,8.2,54.385-27.68,4.176Z"/>
    <path id="M9-L29" class="cls-2" d="M1463.3,921.646l27.69-4.175,8.2,54.384-27.69,4.176Z"/>
    <path id="M9-L30" class="cls-2" d="M1490.99,917.471l26.7-4.027,8.2,54.385-26.7,4.026Z"/>
    <path id="M9-L31" class="cls-2" d="M1517.69,913.444l27.68-4.176,8.21,54.385-27.69,4.176Z"/>
    <path id="M9-L32" class="cls-2" d="M1545.37,909.268l27.69-4.175,8.2,54.385-27.68,4.175Z"/>
    <path id="M9-L33" class="cls-2" d="M1573.06,905.093l27.69-4.176,8.2,54.385-27.69,4.176Z"/>
    <path id="M9-L34" class="cls-2" d="M1600.75,900.917l26.7-4.026,8.2,54.385-26.7,4.026Z"/>
    <path id="M9-L35" class="cls-2" d="M1627.45,896.891l27.68-4.176,8.2,54.385-27.68,4.176Z"/>
    <path id="M9-L36" class="cls-2" d="M1655.13,892.715l26.7-4.026,8.2,54.385-26.7,4.026Z"/>
    <path id="M9-L37" class="cls-2" d="M1681.83,888.689l6.92-1.044,4.8-1.735,4.64-2.723,3.66-2.574,31.69,55.9-43.51,6.562Z"/>
    <path id="M9-L38" class="cls-2" d="M1701.85,880.613l31.69,55.9,81.08-12.229-0.29-1.977-94.1-60.646-1.68,2.276-2.37,4.4-3.51,3.563-4.35,4.7-2.66,2.425Z"/>
    <path id="M9-L39" class="cls-2" d="M1814.33,922.306l-94.1-60.646,3.06-6.529,2.22-5.392,1.23-5.242,0.69-2.127,54.87-18.388,11.75,37.669,8.43,29.068Z"/>
    <path id="M9-L40" class="cls-2" d="M1727.43,842.37c4.47-1.367,54.87-18.388,54.87-18.388l-7.58-30.206L1720.98,813l1.29,1.828,1.73,4.795,1.05,6.922,1.04,6.922,0.75,4.944,0.3,1.977,0.14,0.989-0.84,1.138S1722.97,843.737,1727.43,842.37Z"/>
    <path id="M9-L41" class="cls-2" d="M1720.98,813l53.74-19.228-10.86-31.737-53.58,20.217Z"/>
    <path id="M9-L42" class="cls-2" d="M1763.86,762.039l-53.43,21.206-9.27-27.93,54.18-16.262Z"/>
    <path id="M9-L43" class="cls-2" d="M1701.16,755.315l54.18-16.262-5.35-15.373-50.43,7.605-3.36,4.552-0.84,1.138Z"/>
  </g>
  <g class="cls-1">
    <path data-manzana="M1" id="M1-2" data-name="M1" class="cls-2" d="M79.458,704.59l64.273-9.693L155.7,941.874S80.59,954.155,80.547,953.208,79.458,704.59,79.458,704.59Z"/>
    <path data-manzana="M2" id="M2-2" data-name="M2" class="cls-2" d="M178.191,688.688L498.568,640.37l12.323,75L189.525,763.838l-7.966-5.877Z"/>
    <path data-manzana="M3" id="M3-2" data-name="M3" class="cls-2" d="M190,807.252l323.344-48.765,6.977,6.027,12.526,83.061-2.369,4.4-0.542,3.115-2.519,3.414-3.359,4.552-2.37,4.4-1.381,4.254-1.381,4.253-0.392,4.105-3.508,3.563-318.4,48.019-6.828-5.038-4.938-52.855-1.578-57.406,5.729-8.955Z"/>
    <path data-manzana="M4" id="M4-2" data-name="M4" class="cls-2" d="M542.076,633.809L1667.35,464.1l15.91,45.133,6.94,19.179,3.76,11.568,5.65,17.351,7.24,21.158,9.87,31.885,3.91,12.556,3.77,11.568,9.27,27.93,1.73,4.795-54.38,8.2-5.84-5.187-10.71-30.748-15.31-41.177-3.22-14.683-9.01-12.8-6.29-8.154-13.21-7.11-12.76-4.143-4.1-.392-17.8,2.684L553.41,708.959Z"/>
    <path data-manzana="M5" id="M5-2" data-name="M5" class="cls-2" d="M567.34,747.876l495.64-73.145,7.78,4.945,0.14,0.989,13.06,84-11.3,19.806L594.986,856.046,572.206,838.1,560.7,757.921Z"/>
    <path data-manzana="M6" id="M6-2" data-name="M6" class="cls-2" d="M1120.18,664.944l476.61-71.88,8.27,7.856,16.06,46.121L1634,685.55l1.05,6.922-5.88,7.965-479.58,72.328-23.9-17.634-12.37-82.072,5.87-7.965Z"/>
    <path data-manzana="M7" id="M7-2" data-name="M7" class="cls-2" d="M605.233,898.348l474.637-71.581,19.49,15.263,12.53,83.061-5.73,8.954L607.793,1009.21l-10.241-7.56-12.08-80.1L604.244,898.5Z"/>
    <path data-manzana="M8" id="M8-2" data-name="M8" class="cls-2" d="M1156,815.284l492.44-74.266,6.13,7.165,13.04,39.5,9.57,29.908,5.2,14.385,1.04,6.921-7.85,8.264-512.21,77.249-8.95-5.729-12.83-85.038,13.44-18.207Z"/>
    <path data-manzana="M10" id="M10-2" data-name="M10" class="cls-2" d="M262.18,1158.42l12.894-15.1,2.911-7.51,0.785-8.21,0.635-9.2,1.381-4.25,2.668-2.43,30.6-11.69,21.008-8.23,2.966-.45L606,1050.94l8.2,54.39Z"/>
    <path id="M11-2" data-name="M11" class="cls-2" d="M494.2,933.3l47.463-7.158,10.391,8.546,12.825,85.035-2.519,3.42L409.1,1046.25l-82.072,12.38-30.6,11.69-35.542,12.44L251,1084.25l-3.264-1.53-9.253-7.7-2.331-8.75-4.607-10.43-5.446-9.29-4.851-5.34-6.976-6.03-6.585-10.13-4.607-10.43-2.535-16.808,0.934-7.22,3.9-7.667,7.165-6.137,5.485-3.862,5.784-1.883,13.844-2.088,0.989-.149,3.131,20.765,105.8-15.957-2.983-19.776-0.9-5.933,28.825-3.336,3.265,1.53,3.563,3.508,1.585,3.806,2.724,4.646,5.838,5.187,5.094,0.244,9.048-.354,31.642-4.772,39.553-5.965,3.657-2.574,3.359-4.552,0.392-4.1,0.541-3.116-0.3-1.978-0.149-.988Z"/>
  </g>
  <path id="_1" data-name="1" class="cls-4" d="M111.822,823.835a15.106,15.106,0,1,1-12.685,17.19A15.106,15.106,0,0,1,111.822,823.835Z"/>
  <path id="_1-2" data-name="1" class="cls-3" d="M108.247,836.971l4.176-.63,1.823,12.085,3.46-.522-2.646-17.547-2.843.429c0.124,1.321-.5,3.185-3.841,3.688l-0.5.075Z"/>
  <circle id="_2" data-name="2" class="cls-4" cx="351" cy="699.875" r="15.125"/>
  <path id="_2-2" data-name="2" class="cls-3" d="M347.792,698.448c-0.169-1.289-.4-3.3,2.025-3.667a2.4,2.4,0,0,1,2.8,2.131c0.3,1.977-.828,3.057-3.644,5.832-3.389,3.342-3.213,5.515-3.027,7.585l11.986-1.808-0.462-3.064-7.612,1.148c0.273-.876,1.364-1.849,3.441-3.831,1.531-1.418,3.252-3.245,2.8-6.26-0.536-3.559-3.5-5.134-6.865-4.627-1.557.235-5.659,1.359-4.8,7.068Z"/>
  <circle id="_3" data-name="3" class="cls-4" cx="330.406" cy="851.656" r="15.125"/>
  <path id="_3-2" data-name="3" class="cls-3" d="M328.809,853.714c1.607-.242,3.945-0.493,4.306,1.9a2.608,2.608,0,0,1-2.159,3.283c-2.323.35-2.891-1.738-3.032-2.677l0.021-.029-3.386.511c0.827,5.487,5.332,5.187,6.988,4.937,3.534-.533,5.626-3.25,5.127-6.562a3.966,3.966,0,0,0-3.26-3.679l-0.007-.049a3.643,3.643,0,0,0,1.6-3.654c-0.559-3.707-3.828-4.427-6.176-4.073-3.954.6-5.453,3.224-4.958,6.511l3.213-.485c-0.093-.618-0.432-2.867,1.941-3.224a2.132,2.132,0,0,1,2.538,1.917c0.343,2.274-1.545,2.659-2.583,2.816l-0.544.082Z"/>
  <path id="_4" data-name="4" class="cls-4" d="M917.627,601.176a15.106,15.106,0,1,1-12.684,17.19A15.106,15.106,0,0,1,917.627,601.176Z"/>
  <path id="_4-2" data-name="4" class="cls-3" d="M916.391,619.6l3.263-8.2,0.049-.007c0.082,0.544.422,3.3,1.063,7.549Zm9.787-1.476-1.952.294-1.655-10.973-3.93.593-4.84,11.649,0.451,2.991,6.92-1.044,0.585,3.88,3.46-.522-0.585-3.88,1.952-.294Z"/>
  <path id="_4_copia" data-name="4 copia" class="cls-4" d="M1674.88,572.932a15.106,15.106,0,1,1-12.68,17.189A15.1,15.1,0,0,1,1674.88,572.932Z"/>
  <path id="_4_copia_2" data-name="4 copia 2" class="cls-3" d="M1673.65,591.351l3.26-8.2,0.05-.007c0.08,0.543.42,3.3,1.06,7.549Zm9.78-1.476-1.95.295-1.65-10.973-3.93.592-4.84,11.65,0.45,2.99,6.92-1.043,0.58,3.88,3.46-.522-0.58-3.88,1.95-.3Z"/>
  <circle id="_5" data-name="5" class="cls-4" cx="822.781" cy="770.313" r="15.125"/>
  <path id="_5-2" data-name="5" class="cls-3" d="M819.837,765.782l7.142-1.078-0.44-2.916-9.638,1.454,0.242,9.821,3.112-.318a2.469,2.469,0,0,1,2.133-1.611c1.829-.275,2.809,1.195,3.044,2.752,0.283,1.878-.468,3.432-2.124,3.682a2.364,2.364,0,0,1-2.809-2.029l-3.46.522c0.706,3.508,3.745,4.718,6.488,4.3,5.166-.779,5.788-4.866,5.426-7.263a5.342,5.342,0,0,0-6.167-4.859,4.881,4.881,0,0,0-2.993,1.438Z"/>
  <path id="_6" data-name="6" class="cls-4" d="M1391.63,666.216a15.106,15.106,0,1,1-12.69,17.19A15.109,15.109,0,0,1,1391.63,666.216Z"/>
  <path id="_6-2" data-name="6" class="cls-3" d="M1398.7,676.71a4.838,4.838,0,0,0-2.13-3.066,6.242,6.242,0,0,0-3.76-.6c-6.08.917-5.64,6.841-5.13,10.178,0.66,4.374,2.36,8.666,7.68,7.865,3.38-.511,5.34-3.435,4.77-7.266a5.253,5.253,0,0,0-6.18-4.6,3.715,3.715,0,0,0-3.07,1.954l-0.06-.042c-0.22-2.292-.08-4.941,2.16-5.28a1.814,1.814,0,0,1,2.28,1.375Zm-1.99,7.933c0.36,2.373-.66,3.512-1.92,3.7-1.65.25-2.95-.945-3.23-2.848-0.33-2.2.88-3.217,2.19-3.414C1394.83,681.919,1396.38,682.419,1396.71,684.643Z"/>
  <path id="_7" data-name="7" class="cls-4" d="M848,903.945a15.106,15.106,0,1,1-12.684,17.19A15.106,15.106,0,0,1,848,903.945Z"/>
  <path id="_7-2" data-name="7" class="cls-3" d="M854.99,910.205l-12.357,1.863,0.388,3.076,8.724-1.316c-1.244,1.806-4.8,8.055-4.113,15.13l3.559-.537a24.205,24.205,0,0,1,4.2-15.547Z"/>
  <path id="_8" data-name="8" class="cls-4" d="M1431.55,816.948a15.106,15.106,0,1,1-12.68,17.19A15.1,15.1,0,0,1,1431.55,816.948Z"/>
  <path id="_8-2" data-name="8" class="cls-3" d="M1433.42,830.957a2.186,2.186,0,0,1-2.58-1.836,2.124,2.124,0,0,1,2.04-2.533A2.2,2.2,0,0,1,1433.42,830.957Zm6.84,4.3a4.22,4.22,0,0,0-3.26-3.831,3.781,3.781,0,0,0,1.49-3.84c-0.36-2.421-2.61-4.281-6.25-3.733-3.06.462-5.19,2.628-4.73,5.618a3.6,3.6,0,0,0,2.64,3.115,4.506,4.506,0,0,0-2,4.851c0.36,2.4,2.36,5.1,6.89,4.422C1439.68,841.159,1440.59,837.483,1440.26,835.258Zm-3.54.685a2.579,2.579,0,0,1-2.08,3.145,2.52,2.52,0,0,1-2.96-2.409,2.456,2.456,0,0,1,2.06-3.091A2.525,2.525,0,0,1,1436.72,835.943Z"/>
  <path id="_10" data-name="10" class="cls-4" d="M459.547,1090.97a15.1,15.1,0,1,1-12.685,17.19A15.1,15.1,0,0,1,459.547,1090.97Z"/>
  <path id="_10-2" data-name="10" class="cls-3" d="M447.073,1105.44l4.176-.63,1.823,12.09,3.46-.52-2.646-17.55-2.843.43c0.124,1.32-.5,3.18-3.842,3.69l-0.494.07Zm13.363,1.6c0.928,6.16,3.312,8.73,7.44,8.11s5.647-3.79,4.719-9.94-3.309-8.7-7.436-8.08S459.508,1100.89,460.436,1107.04Zm3.559-.53c-0.683-4.53-.4-6.31,1.581-6.61s2.778,1.32,3.46,5.85,0.4,6.33-1.578,6.63S464.677,1111.03,464,1106.51Z"/>
</svg>