<svg id="Manzana" data-desarrollo="villa-toscana" xmlns="http://www.w3.org/2000/svg" xmlns:xlink="http://www.w3.org/1999/xlink" width="100%" height="100%" viewBox="0 0 1890 1417">
  <defs>
    <style>
      @import url(./css/mapas.css);
    </style>
    <filter id="filter" filterUnits="userSpaceOnUse">
      <!-- <feFlood result="flood" flood-color="#de9f27"/> -->
      <feComposite result="composite" operator="in" in2="SourceGraphic"/>
      <feBlend result="blend" in2="SourceGraphic"/>
    </filter>
  </defs>
  <g class="cls-1">
    <path data-manzana="M1" id="M1-2" data-name="M1" class="cls-2" d="M79.458,704.59l64.273-9.693L155.7,941.874S80.59,954.155,80.547,953.208,79.458,704.59,79.458,704.59Z"/>
    <path data-manzana="M2" id="M2-2" data-name="M2" class="cls-2" d="M178.191,688.688L498.568,640.37l12.323,75L189.525,763.838l-7.966-5.877Z"/>
    <path data-manzana="M3" id="M3-2" data-name="M3" class="cls-2" d="M190,807.252l323.344-48.765,6.977,6.027,12.526,83.061-2.369,4.4-0.542,3.115-2.519,3.414-3.359,4.552-2.37,4.4-1.381,4.254-1.381,4.253-0.392,4.105-3.508,3.563-318.4,48.019-6.828-5.038-4.938-52.855-1.578-57.406,5.729-8.955Z"/>
    <path data-manzana="M4" id="M4-2" data-name="M4" class="cls-2" d="M542.076,633.809L1667.35,464.1l15.91,45.133,6.94,19.179,3.76,11.568,5.65,17.351,7.24,21.158,9.87,31.885,3.91,12.556,3.77,11.568,9.27,27.93,1.73,4.795-54.38,8.2-5.84-5.187-10.71-30.748-15.31-41.177-3.22-14.683-9.01-12.8-6.29-8.154-13.21-7.11-12.76-4.143-4.1-.392-17.8,2.684L553.41,708.959Z"/>
    <path data-manzana="M5" id="M5-2" data-name="M5" class="cls-2" d="M567.34,747.876l495.64-73.145,7.78,4.945,0.14,0.989,13.06,84-11.3,19.806L594.986,856.046,572.206,838.1,560.7,757.921Z"/>
    <path data-manzana="M6" id="M6-2" data-name="M6" class="cls-2" d="M1120.18,664.944l476.61-71.88,8.27,7.856,16.06,46.121L1634,685.55l1.05,6.922-5.88,7.965-479.58,72.328-23.9-17.634-12.37-82.072,5.87-7.965Z"/>
    <path data-manzana="M7" id="M7-2" data-name="M7" class="cls-2" d="M605.233,898.348l474.637-71.581,19.49,15.263,12.53,83.061-5.73,8.954L607.793,1009.21l-10.241-7.56-12.08-80.1L604.244,898.5Z"/>
    <path data-manzana="M8" id="M8-2" data-name="M8" class="cls-2" d="M1156,815.284l492.44-74.266,6.13,7.165,13.04,39.5,9.57,29.908,5.2,14.385,1.04,6.921-7.85,8.264-512.21,77.249-8.95-5.729-12.83-85.038,13.44-18.207Z"/>
    <path data-manzana="M9" id="M9-2" data-name="M9" class="cls-2" d="M606,1050.94l8.2,54.39L1814.62,924.283l-2.18-7.761-8.52-22.986-6.1-20.318-6.1-20.318-5.95-19.329-2.63-10.727-4.81-18.49-5.35-15.373-5.35-15.374-5.35-15.374-5.21-14.385-5.2-14.385-1.88-5.783-50.43,7.605-4.2,5.69,5.95,19.329,8.97,25.952,8.82,24.964,4.61,10.43,3.72,24.72-3.3,11.623-3.06,6.529-4.74,8.8-7.02,7.126-5.48,3.862-5.49,3.861-8.6,3.32-8.9,1.342Z"/>
    <path data-manzana="M10" id="M10-2" data-name="M10" class="cls-2" d="M262.18,1158.42l12.894-15.1,2.911-7.51,0.785-8.21,0.635-9.2,1.381-4.25,2.668-2.43,30.6-11.69,21.008-8.23,2.966-.45L606,1050.94l8.2,54.39Z"/>
    <path id="Forma_2" data-name="Forma 2" class="cls-2" d="M497.169,932.85l44.5-6.711,10.391,8.546,12.825,85.035-2.519,3.42-50.43,7.6Z"/>
    <path id="M11-2" data-name="M11" class="cls-2" d="M494.2,933.3l47.463-7.158,10.391,8.546,12.825,85.035-2.519,3.42L409.1,1046.25l-82.072,12.38-30.6,11.69-35.542,12.44L251,1084.25l-3.264-1.53-9.253-7.7-2.331-8.75-4.607-10.43-5.446-9.29-4.851-5.34-6.976-6.03-6.585-10.13-4.607-10.43-2.535-16.808,0.934-7.22,3.9-7.667,7.165-6.137,5.485-3.862,5.784-1.883,13.844-2.088,0.989-.149,3.131,20.765,105.8-15.957-2.983-19.776-0.9-5.933,28.825-3.336,3.265,1.53,3.563,3.508,1.585,3.806,2.724,4.646,5.838,5.187,5.094,0.244,9.048-.354,31.642-4.772,39.553-5.965,3.657-2.574,3.359-4.552,0.392-4.1,0.541-3.116-0.3-1.978-0.149-.988Z"/>
  </g>
  
  <path id="_1" data-name="1" class="cls-4" d="M111.822,823.835a15.106,15.106,0,1,1-12.685,17.19A15.106,15.106,0,0,1,111.822,823.835Z"/>
  <path id="_1-2" data-name="1" class="cls-5" d="M108.247,836.971l4.176-.63,1.823,12.085,3.46-.522-2.646-17.547-2.843.429c0.124,1.321-.5,3.185-3.841,3.688l-0.5.075Z"/>
  <circle id="_2" data-name="2" class="cls-4" cx="351" cy="699.875" r="15.125"/>
  <path id="_2-2" data-name="2" class="cls-5" d="M347.792,698.448c-0.169-1.289-.4-3.3,2.025-3.667a2.4,2.4,0,0,1,2.8,2.131c0.3,1.977-.828,3.057-3.644,5.832-3.389,3.342-3.213,5.515-3.027,7.585l11.986-1.808-0.462-3.064-7.612,1.148c0.273-.876,1.364-1.849,3.441-3.831,1.531-1.418,3.252-3.245,2.8-6.26-0.536-3.559-3.5-5.134-6.865-4.627-1.557.235-5.659,1.359-4.8,7.068Z"/>
  <circle id="_3" data-name="3" class="cls-4" cx="330.406" cy="851.656" r="15.125"/>
  <path id="_3-2" data-name="3" class="cls-5" d="M328.809,853.714c1.607-.242,3.945-0.493,4.306,1.9a2.608,2.608,0,0,1-2.159,3.283c-2.323.35-2.891-1.738-3.032-2.677l0.021-.029-3.386.511c0.827,5.487,5.332,5.187,6.988,4.937,3.534-.533,5.626-3.25,5.127-6.562a3.966,3.966,0,0,0-3.26-3.679l-0.007-.049a3.643,3.643,0,0,0,1.6-3.654c-0.559-3.707-3.828-4.427-6.176-4.073-3.954.6-5.453,3.224-4.958,6.511l3.213-.485c-0.093-.618-0.432-2.867,1.941-3.224a2.132,2.132,0,0,1,2.538,1.917c0.343,2.274-1.545,2.659-2.583,2.816l-0.544.082Z"/>
  <path id="_4" data-name="4" class="cls-4" d="M917.627,601.176a15.106,15.106,0,1,1-12.684,17.19A15.106,15.106,0,0,1,917.627,601.176Z"/>
  <path id="_4-2" data-name="4" class="cls-5" d="M916.391,619.6l3.263-8.2,0.049-.007c0.082,0.544.422,3.3,1.063,7.549Zm9.787-1.476-1.952.294-1.655-10.973-3.93.593-4.84,11.649,0.451,2.991,6.92-1.044,0.585,3.88,3.46-.522-0.585-3.88,1.952-.294Z"/>
  <path id="_4_copia" data-name="4 copia" class="cls-4" d="M1674.88,572.932a15.106,15.106,0,1,1-12.68,17.189A15.1,15.1,0,0,1,1674.88,572.932Z"/>
  <path id="_4_copia_2" data-name="4 copia 2" class="cls-5" d="M1673.65,591.351l3.26-8.2,0.05-.007c0.08,0.543.42,3.3,1.06,7.549Zm9.78-1.476-1.95.295-1.65-10.973-3.93.592-4.84,11.65,0.45,2.99,6.92-1.043,0.58,3.88,3.46-.522-0.58-3.88,1.95-.3Z"/>
  <circle id="_5" data-name="5" class="cls-4" cx="822.781" cy="770.313" r="15.125"/>
  <path id="_5-2" data-name="5" class="cls-5" d="M819.837,765.782l7.142-1.078-0.44-2.916-9.638,1.454,0.242,9.821,3.112-.318a2.469,2.469,0,0,1,2.133-1.611c1.829-.275,2.809,1.195,3.044,2.752,0.283,1.878-.468,3.432-2.124,3.682a2.364,2.364,0,0,1-2.809-2.029l-3.46.522c0.706,3.508,3.745,4.718,6.488,4.3,5.166-.779,5.788-4.866,5.426-7.263a5.342,5.342,0,0,0-6.167-4.859,4.881,4.881,0,0,0-2.993,1.438Z"/>
  <path id="_6" data-name="6" class="cls-4" d="M1391.63,666.216a15.106,15.106,0,1,1-12.69,17.19A15.109,15.109,0,0,1,1391.63,666.216Z"/>
  <path id="_6-2" data-name="6" class="cls-5" d="M1398.7,676.71a4.838,4.838,0,0,0-2.13-3.066,6.242,6.242,0,0,0-3.76-.6c-6.08.917-5.64,6.841-5.13,10.178,0.66,4.374,2.36,8.666,7.68,7.865,3.38-.511,5.34-3.435,4.77-7.266a5.253,5.253,0,0,0-6.18-4.6,3.715,3.715,0,0,0-3.07,1.954l-0.06-.042c-0.22-2.292-.08-4.941,2.16-5.28a1.814,1.814,0,0,1,2.28,1.375Zm-1.99,7.933c0.36,2.373-.66,3.512-1.92,3.7-1.65.25-2.95-.945-3.23-2.848-0.33-2.2.88-3.217,2.19-3.414C1394.83,681.919,1396.38,682.419,1396.71,684.643Z"/>
  <path id="_7" data-name="7" class="cls-4" d="M848,903.945a15.106,15.106,0,1,1-12.684,17.19A15.106,15.106,0,0,1,848,903.945Z"/>
  <path id="_7-2" data-name="7" class="cls-5" d="M854.99,910.205l-12.357,1.863,0.388,3.076,8.724-1.316c-1.244,1.806-4.8,8.055-4.113,15.13l3.559-.537a24.205,24.205,0,0,1,4.2-15.547Z"/>
  <path id="_8" data-name="8" class="cls-4" d="M1431.55,816.948a15.106,15.106,0,1,1-12.68,17.19A15.1,15.1,0,0,1,1431.55,816.948Z"/>
  <path id="_8-2" data-name="8" class="cls-5" d="M1433.42,830.957a2.186,2.186,0,0,1-2.58-1.836,2.124,2.124,0,0,1,2.04-2.533A2.2,2.2,0,0,1,1433.42,830.957Zm6.84,4.3a4.22,4.22,0,0,0-3.26-3.831,3.781,3.781,0,0,0,1.49-3.84c-0.36-2.421-2.61-4.281-6.25-3.733-3.06.462-5.19,2.628-4.73,5.618a3.6,3.6,0,0,0,2.64,3.115,4.506,4.506,0,0,0-2,4.851c0.36,2.4,2.36,5.1,6.89,4.422C1439.68,841.159,1440.59,837.483,1440.26,835.258Zm-3.54.685a2.579,2.579,0,0,1-2.08,3.145,2.52,2.52,0,0,1-2.96-2.409,2.456,2.456,0,0,1,2.06-3.091A2.525,2.525,0,0,1,1436.72,835.943Z"/>
  <circle id="_9" data-name="9" class="cls-4" cx="669.844" cy="1070.465" r="15.125"/>
  <path id="_9-2" data-name="9" class="cls-5" d="M666.564,1068.65c-0.38-2.52,1.159-3.21,2.049-3.34,1.78-.27,2.831.83,3.133,2.84,0.313,2.07-.891,3.14-2.1,3.32C668.334,1071.67,666.963,1071.29,666.564,1068.65Zm-1.955,8.16c0.718,2.74,3.129,4.15,6.12,3.7,3.163-.48,6.044-3.16,5.019-9.96-0.372-2.47-1.459-9.01-7.539-8.09-3.435.52-5.679,2.91-5.03,7.21a5.248,5.248,0,0,0,6.141,4.68,3.854,3.854,0,0,0,3.113-1.98l0.057,0.04c0.53,3.68-.721,5.11-2.154,5.33a1.9,1.9,0,0,1-2.288-1.43l0-.02Z"/>
  <path id="_9_copia" data-name="9 copia" class="cls-4" d="M1759.83,874.638a15.106,15.106,0,1,1-12.69,17.19A15.109,15.109,0,0,1,1759.83,874.638Z"/>
  <path id="_9_copia_2" data-name="9 copia 2" class="cls-5" d="M1758.8,887.743c-0.38-2.521,1.16-3.208,2.05-3.342,1.78-.268,2.83.837,3.13,2.839,0.31,2.076-.89,3.142-2.1,3.325C1760.57,890.762,1759.2,890.388,1758.8,887.743Zm-1.96,8.156c0.72,2.748,3.13,4.154,6.12,3.7,3.17-.477,6.05-3.161,5.02-9.958-0.37-2.471-1.46-9.006-7.54-8.089-3.43.518-5.67,2.9-5.03,7.2a5.261,5.261,0,0,0,6.15,4.686,3.848,3.848,0,0,0,3.11-1.986l0.05,0.041c0.54,3.687-.72,5.114-2.15,5.33a1.9,1.9,0,0,1-2.29-1.424v-0.025Z"/>
  <path id="_10" data-name="10" class="cls-4" d="M459.547,1090.97a15.1,15.1,0,1,1-12.685,17.19A15.1,15.1,0,0,1,459.547,1090.97Z"/>
  <path id="_10-2" data-name="10" class="cls-5" d="M447.073,1105.44l4.176-.63,1.823,12.09,3.46-.52-2.646-17.55-2.843.43c0.124,1.32-.5,3.18-3.842,3.69l-0.494.07Zm13.363,1.6c0.928,6.16,3.312,8.73,7.44,8.11s5.647-3.79,4.719-9.94-3.309-8.7-7.436-8.08S459.508,1100.89,460.436,1107.04Zm3.559-.53c-0.683-4.53-.4-6.31,1.581-6.61s2.778,1.32,3.46,5.85,0.4,6.33-1.578,6.63S464.677,1111.03,464,1106.51Z"/>
  <!-- <path id="Calle_Villa_Toscana" data-name="Calle Villa Toscana" class="cls-4" d="M171.45,921.971c-2.632.368-6.185,2.773-5.844,8.136,0.293,4.614,3.716,8.028,9.977,7.63,6.186-.394,9.186-4.016,8.883-8.78-0.285-4.49-3.166-6.861-7.105-7.362l0.238,3.742a3.83,3.83,0,0,1,3.62,3.751c0.2,3.168-2.611,4.625-5.829,4.829-5.063.322-6.429-2.246-6.543-4.042a3.647,3.647,0,0,1,2.841-4.162Zm1.422-13.468c-3.267.208-3.624,3.662-3.505,5.532,0.173,2.719.926,5.5,5.017,5.642l-0.214-3.368a1.88,1.88,0,0,1-1.982-2.027c-0.057-.9-0.071-2.3,1.4-2.393a1.159,1.159,0,0,1,1.126,1.155l0.674,3.113c0.465,2.2,1.892,3.761,4.486,3.6a3.73,3.73,0,0,0,3.609-4.286,5.416,5.416,0,0,0-2.193-4.169,5.807,5.807,0,0,0,1.55-.424l-0.239-3.766-0.524.033c-0.123.434-.45,0.805-2.021,0.905Zm5.231,3.1a2.9,2.9,0,0,1,2.818,2.952,1.527,1.527,0,0,1-1.494,1.723c-1.446.092-1.839-.96-2.146-2.243a5.1,5.1,0,0,0-.874-2.324Zm-13.789-9.294,0.222,3.492,17.909-1.139-0.222-3.492Zm-0.442-6.936,0.222,3.492L182,897.724l-0.222-3.492Zm13.309-12.043a2.247,2.247,0,0,1,1.59,2.153c0.179,2.818-2.053,3.161-3.045,3.324l-0.579-9.1-0.623.039c-6.061.386-7.079,4.082-6.912,6.7,0.37,5.812,5.518,6.035,7.114,5.934,5.463-.348,7.076-3.33,6.839-7.072a5.76,5.76,0,0,0-4.612-5.567Zm-3.731,5.522c-1.758-.089-2.862-0.895-2.966-2.541-0.072-1.123.49-2.536,2.622-2.872Zm2.152-23.258,0,0.05-13.325,4.7,0.255,4.016,17.526-7.175-0.227-3.567-18.3-4.947,0.248,3.891Zm-9.564-9.413,13.27-.844-0.222-3.492-13.27.844ZM161,852.993l0.223,3.492,3.242-.206-0.222-3.493Zm-0.266-6.947,0.222,3.492,17.91-1.139-0.223-3.492Zm-0.441-6.936,0.222,3.492,17.909-1.139-0.222-3.492Zm7.235-14.612c-3.268.208-3.624,3.661-3.5,5.532,0.173,2.719.926,5.5,5.017,5.642l-0.214-3.368a1.881,1.881,0,0,1-1.982-2.028c-0.058-.9-0.072-2.3,1.4-2.393a1.161,1.161,0,0,1,1.126,1.156l0.673,3.113c0.466,2.2,1.892,3.761,4.487,3.6a3.731,3.731,0,0,0,3.609-4.287,5.413,5.413,0,0,0-2.194-4.168,5.841,5.841,0,0,0,1.551-.424l-0.239-3.766-0.524.033c-0.123.433-.45,0.805-2.021,0.905Zm5.231,3.1a2.9,2.9,0,0,1,2.817,2.951,1.526,1.526,0,0,1-1.493,1.723c-1.447.092-1.839-.96-2.146-2.242a5.12,5.12,0,0,0-.874-2.324Zm-11.177-18.227-0.345-5.413-3.167.2L159,818.725l3.168-.2-0.344-5.413,14.741-.937-0.238-3.742Zm6.951-18.678c-4.789.3-6.779,3.662-6.552,7.229s2.626,6.645,7.415,6.34,6.78-3.662,6.553-7.229S173.323,790.386,168.534,790.691Zm0.229,3.592c1.7-.108,4.072.242,4.244,2.936s-2.142,3.341-3.838,3.449-4.073-.242-4.244-2.935S167.066,794.391,168.763,794.283Zm-3.674-16.8c-3.724.512-4.176,3.646-4.01,6.24,0.263,4.141,2.835,5.205,4.781,5.081,4.963-.316,2.769-8.441,4.989-8.582,0.5-.032,1.4.337,1.513,2.133,0.139,2.195-.64,2.945-1.762,3.017l0.229,3.592c3.535-.325,4.375-3.66,4.183-6.678-0.132-2.07-1.068-5.767-4.934-5.521-4.889.311-2.839,8.52-4.935,8.653-0.573.037-1.313-.167-1.433-2.062s0.758-2.252,1.6-2.456Zm3.7-11.108a2.44,2.44,0,0,1,2.47,2.222c0.168,2.644-2.7,2.876-4.144,2.968-1.646.1-3.878-.329-4.017-2.524a2.255,2.255,0,0,1,2-2.457l-0.225-3.541c-4.12.587-4.849,4.09-4.715,6.185,0.285,4.49,3.472,6.165,7.762,5.892,2.794-.177,6.537-1.567,6.22-6.556a5.687,5.687,0,0,0-5.574-5.731Zm-6-16.427c-3.268.208-3.624,3.662-3.5,5.533,0.173,2.719.926,5.5,5.017,5.641l-0.214-3.367a1.882,1.882,0,0,1-1.982-2.028c-0.057-.9-0.071-2.3,1.4-2.393a1.159,1.159,0,0,1,1.126,1.155L165.3,757.6c0.466,2.2,1.893,3.762,4.487,3.6a3.731,3.731,0,0,0,3.609-4.287,5.412,5.412,0,0,0-2.194-4.168,5.879,5.879,0,0,0,1.551-.424l-0.239-3.767-0.524.033c-0.123.434-.45,0.8-2.021,0.9Zm5.231,3.1A2.9,2.9,0,0,1,170.835,756a1.526,1.526,0,0,1-1.493,1.723c-1.447.092-1.839-.96-2.146-2.243a5.114,5.114,0,0,0-.874-2.323Zm-5.594-18.256c-2.918.186-4.311,2.3-4.146,4.9a4.281,4.281,0,0,0,2.548,3.845l0,0.05-1.945.124,0.212,3.342,13.27-.844-0.222-3.492-7.608.484c-2.02.128-3.144-1-3.242-2.549-0.141-2.22,1.5-2.374,2.475-2.436l8.056-.513-0.222-3.492Zm-1.489-13.959c-3.267.208-3.624,3.662-3.5,5.533,0.173,2.719.926,5.5,5.017,5.641l-0.214-3.367a1.882,1.882,0,0,1-1.982-2.028c-0.057-.9-0.071-2.3,1.4-2.393a1.16,1.16,0,0,1,1.126,1.155l0.674,3.113c0.465,2.2,1.892,3.762,4.486,3.6a3.731,3.731,0,0,0,3.609-4.287,5.412,5.412,0,0,0-2.194-4.168,5.879,5.879,0,0,0,1.551-.424l-0.239-3.767-0.524.033c-0.123.434-.45,0.8-2.021,0.9Zm5.231,3.1a2.9,2.9,0,0,1,2.818,2.951,1.527,1.527,0,0,1-1.494,1.723c-1.446.092-1.839-.96-2.146-2.243a5.1,5.1,0,0,0-.874-2.323Z"/>
  <path id="Calle_Villa_de_la_Aceituna" data-name="Calle Villa de la Aceituna" class="cls-4" d="M249.744,936.2c-0.579-2.593-3.263-5.94-8.581-5.167-4.576.665-7.7,4.353-6.8,10.561,0.892,6.134,4.744,8.832,9.468,8.145,4.453-.648,6.583-3.71,6.764-7.677l-3.71.54a3.83,3.83,0,0,1-3.447,3.911c-3.141.456-4.82-2.229-5.284-5.42-0.73-5.021,1.72-6.589,3.5-6.848a3.649,3.649,0,0,1,4.379,2.5Zm13.539,0.33c-0.471-3.24-3.942-3.316-5.8-3.046-2.7.392-5.408,1.367-5.218,5.456l3.339-.486a1.881,1.881,0,0,1,1.861-2.139c0.89-.13,2.286-0.257,2.5,1.2a1.161,1.161,0,0,1-1.061,1.216l-3.049.923c-2.154.641-3.6,2.19-3.222,4.762a3.731,3.731,0,0,0,4.564,3.251,5.415,5.415,0,0,0,3.978-2.523,5.832,5.832,0,0,0,.548,1.511l3.735-.543-0.076-.519c-0.442-.087-0.838-0.383-1.065-1.942ZM260.618,942a2.9,2.9,0,0,1-2.715,3.047,1.527,1.527,0,0,1-1.838-1.349c-0.208-1.435.809-1.911,2.063-2.321a5.1,5.1,0,0,0,2.245-1.059Zm8.149-14.5-3.462.5,2.582,17.759,3.463-.5Zm6.878-1-3.463.5,2.583,17.759,3.462-.5Zm13.079,12.292a2.249,2.249,0,0,1-2.018,1.759c-2.794.406-3.316-1.791-3.559-2.766l9.028-1.313-0.09-.618c-0.874-6.011-4.64-6.726-7.237-6.348-5.763.838-5.57,5.987-5.34,7.57,0.788,5.417,3.891,6.784,7.6,6.245a5.759,5.759,0,0,0,5.177-5.046Zm-5.805-3.272c-0.054-1.76.661-2.925,2.293-3.163,1.113-.161,2.567.284,3.074,2.382Zm23.355,0.266-0.049.007-5.765-12.9-3.983.579,8.568,16.888,3.537-.514,3.453-18.636-3.858.561Zm8.61-10.294,1.914,13.158,3.462-.5-1.913-13.158Zm2.769-5.277-3.463.5,0.468,3.216,3.463-.5Zm6.9-.827-3.463.5,2.582,17.759,3.463-.5Zm6.877-1-3.462.5,2.582,17.759,3.463-.5Zm15.149,6.031c-0.471-3.24-3.942-3.316-5.8-3.047-2.7.392-5.408,1.368-5.218,5.457l3.339-.486a1.882,1.882,0,0,1,1.861-2.139c0.89-.13,2.286-0.257,2.5,1.2a1.159,1.159,0,0,1-1.06,1.215l-3.048.923c-2.155.642-3.6,2.19-3.223,4.763a3.732,3.732,0,0,0,4.564,3.251,5.415,5.415,0,0,0,3.978-2.523,5.832,5.832,0,0,0,.548,1.511l3.735-.543-0.076-.519c-0.442-.088-0.839-0.384-1.065-1.942Zm-2.666,5.464a2.9,2.9,0,0,1-2.714,3.047,1.528,1.528,0,0,1-1.838-1.35c-0.208-1.434.809-1.91,2.062-2.32a5.1,5.1,0,0,0,2.246-1.059ZM367.4,913.16l-3.463.5,0.917,6.307-0.049.008a4.27,4.27,0,0,0-4.108-1.5c-2.893.421-5.142,3.021-4.48,7.572,0.525,3.611,2.661,6.837,6.569,6.269a4.223,4.223,0,0,0,3.517-2.558l0.05-.007,0.241,1.657,3.388-.492Zm-7.586,12.62c-0.3-2.078.156-4.14,2.357-4.46,2.375-.345,3.278,1.7,3.583,3.8,0.285,1.954-.315,3.91-2.516,4.23C361.015,929.672,360.044,927.338,359.817,925.78Zm20.444-.3a2.248,2.248,0,0,1-2.017,1.759c-2.8.406-3.317-1.791-3.56-2.766l9.028-1.313-0.09-.618c-0.874-6.011-4.64-6.726-7.237-6.348-5.763.838-5.57,5.987-5.34,7.57,0.788,5.417,3.891,6.784,7.6,6.245a5.761,5.761,0,0,0,5.177-5.047Zm-5.805-3.272c-0.054-1.761.661-2.925,2.293-3.163,1.113-.161,2.567.284,3.074,2.382Zm20.237-13.02-3.463.5,2.582,17.759,3.463-.5Zm15.149,6.031c-0.472-3.241-3.943-3.317-5.8-3.047-2.7.392-5.408,1.367-5.218,5.456l3.339-.485a1.883,1.883,0,0,1,1.862-2.14c0.89-.129,2.286-0.256,2.5,1.2a1.16,1.16,0,0,1-1.061,1.215l-3.048.923c-2.155.642-3.6,2.19-3.222,4.762a3.73,3.73,0,0,0,4.564,3.251,5.407,5.407,0,0,0,3.977-2.523,5.89,5.89,0,0,0,.548,1.512l3.735-.543-0.075-.52c-0.442-.087-0.839-0.383-1.066-1.941Zm-2.666,5.464a2.9,2.9,0,0,1-2.714,3.046,1.526,1.526,0,0,1-1.838-1.349c-0.209-1.434.808-1.911,2.062-2.32a5.1,5.1,0,0,0,2.245-1.059Zm17.547-1.466,6.555-.953,1.67,3.5,4.031-.586-8.839-16.849-4.279.622-3.75,18.68,3.908-.568Zm1.8-10.566,0.049-.007,3.223,6.7-4.526.658Zm19.683,6.281a2.44,2.44,0,0,1-2.015,2.642c-2.622.381-3.085-2.456-3.294-3.891-0.237-1.632.015-3.891,2.192-4.208a2.254,2.254,0,0,1,2.609,1.793l3.513-.511c-0.919-4.059-4.469-4.5-6.546-4.2-4.453.647-5.865,3.959-5.247,8.213,0.4,2.77,2.091,6.389,7.038,5.67a5.688,5.688,0,0,0,5.262-6.019Zm13.818-1.049A2.248,2.248,0,0,1,458,915.645c-2.8.406-3.316-1.791-3.559-2.766l9.028-1.313-0.09-.618c-0.874-6.01-4.64-6.726-7.237-6.348-5.763.838-5.57,5.988-5.34,7.571,0.788,5.416,3.891,6.783,7.6,6.244a5.759,5.759,0,0,0,5.177-5.046Zm-5.805-3.273c-0.054-1.76.66-2.925,2.293-3.162,1.113-.162,2.567.283,3.074,2.381Zm10.565-6.916,1.913,13.158,3.463-.5-1.913-13.159Zm2.769-5.277-3.463.5,0.468,3.216,3.462-.5Zm7.375,0.165-3.463.5,0.518,3.562-1.781.259,0.36,2.473,1.781-.259,1.162,7.989c0.248,1.707.957,2.766,3.95,2.331l0.445-.065c0.544-.079,1.085-0.183,1.626-0.287l-0.382-2.622c-0.243.061-.487,0.122-0.71,0.154-1.41.2-1.478-.088-1.589-0.855l-1.039-7.148,2.152-.313-0.36-2.473-2.152.313Zm16.745,1.2-3.462.5,1.1,7.593c0.341,2.35-1.1,3.216-2.236,3.381-1.064.155-2.309-.068-2.6-2.1l-1.187-8.162-3.462.5,1.258,8.657c0.49,3.363,2.585,4.574,5.182,4.2a4.378,4.378,0,0,0,3.687-2.784l0.049-.007,0.27,1.855,3.315-.482Zm15.731,1.855c-0.421-2.894-2.644-4.111-5.216-3.737a4.282,4.282,0,0,0-3.627,2.851l-0.049.007-0.281-1.93-3.314.482,1.913,13.159,3.463-.5-1.1-7.544c-0.291-2,.745-3.214,2.278-3.437,2.2-.32,2.488,1.3,2.629,2.269l1.161,7.989,3.463-.5Zm13.792-2.612c-0.471-3.24-3.942-3.316-5.8-3.046-2.7.392-5.408,1.367-5.218,5.456l3.339-.486a1.882,1.882,0,0,1,1.861-2.139c0.891-.13,2.287-0.257,2.5,1.2a1.16,1.16,0,0,1-1.061,1.215l-3.048.923c-2.155.641-3.6,2.19-3.223,4.762a3.731,3.731,0,0,0,4.565,3.251,5.414,5.414,0,0,0,3.977-2.523,5.832,5.832,0,0,0,.548,1.511l3.735-.543-0.076-.519c-0.442-.087-0.838-0.383-1.065-1.942Zm-2.665,5.464a2.9,2.9,0,0,1-2.714,3.047,1.526,1.526,0,0,1-1.838-1.349c-0.209-1.435.808-1.911,2.062-2.321a5.1,5.1,0,0,0,2.245-1.059Z"/>
  <path id="Calle_Villa_de_la_Aceituna_copia" data-name="Calle Villa de la Aceituna copia" class="cls-4" d="M762.438,848.768c-0.579-2.593-3.263-5.94-8.581-5.167-4.576.665-7.7,4.353-6.8,10.561,0.892,6.134,4.744,8.832,9.468,8.145,4.453-.648,6.583-3.71,6.764-7.677l-3.71.54a3.831,3.831,0,0,1-3.447,3.911c-3.141.456-4.82-2.229-5.284-5.42-0.73-5.021,1.719-6.589,3.5-6.848a3.649,3.649,0,0,1,4.379,2.5Zm13.539,0.33c-0.471-3.24-3.942-3.316-5.8-3.047-2.7.392-5.409,1.368-5.218,5.457l3.339-.486a1.881,1.881,0,0,1,1.861-2.139c0.89-.13,2.286-0.257,2.5,1.2a1.159,1.159,0,0,1-1.06,1.215l-3.049.923c-2.154.642-3.6,2.19-3.222,4.763a3.732,3.732,0,0,0,4.564,3.251,5.415,5.415,0,0,0,3.978-2.523,5.832,5.832,0,0,0,.548,1.511l3.735-.543-0.076-.519c-0.442-.088-0.839-0.383-1.065-1.942Zm-2.666,5.464a2.9,2.9,0,0,1-2.714,3.047,1.527,1.527,0,0,1-1.838-1.349c-0.208-1.435.809-1.911,2.062-2.321a5.1,5.1,0,0,0,2.246-1.059Zm8.15-14.5-3.462.5,2.582,17.759,3.463-.5Zm6.878-1-3.463.5,2.583,17.759,3.462-.5Zm13.079,12.292a2.249,2.249,0,0,1-2.018,1.759c-2.794.406-3.316-1.791-3.559-2.766l9.028-1.313-0.09-.618c-0.874-6.011-4.64-6.726-7.237-6.348-5.763.838-5.57,5.987-5.34,7.57,0.788,5.417,3.891,6.784,7.6,6.245a5.761,5.761,0,0,0,5.177-5.047Zm-5.8-3.272c-0.054-1.761.661-2.925,2.293-3.163,1.113-.161,2.567.284,3.074,2.382Zm23.355,0.266-0.049.007-5.766-12.9-3.982.579,8.568,16.888,3.537-.514,3.453-18.637-3.859.561Zm8.61-10.294,1.914,13.158,3.462-.5-1.913-13.159Zm2.769-5.277-3.463.5,0.468,3.216,3.462-.5Zm6.9-.827-3.463.5,2.582,17.759,3.463-.5Zm6.877-1-3.462.5,2.582,17.759,3.463-.5Zm15.149,6.031c-0.471-3.24-3.942-3.317-5.8-3.047-2.7.392-5.409,1.367-5.218,5.457l3.339-.486a1.881,1.881,0,0,1,1.861-2.139c0.89-.13,2.286-0.257,2.5,1.2a1.159,1.159,0,0,1-1.06,1.215l-3.049.923c-2.154.642-3.6,2.19-3.222,4.762a3.732,3.732,0,0,0,4.564,3.252,5.412,5.412,0,0,0,3.978-2.524,5.84,5.84,0,0,0,.548,1.512l3.735-.543-0.076-.519c-0.442-.088-0.839-0.384-1.065-1.942Zm-2.666,5.464A2.9,2.9,0,0,1,853.9,845.5a1.528,1.528,0,0,1-1.838-1.35c-0.208-1.434.809-1.91,2.062-2.32a5.109,5.109,0,0,0,2.246-1.059ZM880.1,825.725l-3.463.5,0.917,6.307-0.049.007a4.272,4.272,0,0,0-4.108-1.5c-2.894.421-5.142,3.021-4.48,7.572,0.525,3.611,2.661,6.837,6.569,6.268A4.222,4.222,0,0,0,879,842.326l0.05-.007,0.241,1.657,3.388-.493Zm-7.586,12.62c-0.3-2.078.156-4.14,2.357-4.46,2.375-.345,3.278,1.7,3.583,3.8,0.284,1.954-.315,3.91-2.516,4.23C873.709,842.237,872.738,839.9,872.511,838.345Zm20.444-.3a2.246,2.246,0,0,1-2.017,1.758c-2.795.407-3.317-1.79-3.56-2.765l9.028-1.313-0.09-.618c-0.874-6.011-4.64-6.726-7.237-6.348-5.763.838-5.57,5.987-5.34,7.57,0.788,5.417,3.891,6.784,7.6,6.245a5.761,5.761,0,0,0,5.177-5.047Zm-5.805-3.273c-0.054-1.76.661-2.924,2.293-3.162,1.113-.162,2.567.284,3.074,2.382Zm20.237-13.02-3.463.5,2.582,17.759,3.463-.5Zm15.149,6.031c-0.472-3.24-3.943-3.316-5.8-3.046-2.7.392-5.408,1.367-5.218,5.456l3.339-.485a1.883,1.883,0,0,1,1.861-2.14c0.891-.129,2.287-0.257,2.5,1.2a1.16,1.16,0,0,1-1.061,1.215l-3.048.923c-2.155.642-3.6,2.19-3.222,4.762a3.73,3.73,0,0,0,4.564,3.251,5.41,5.41,0,0,0,3.977-2.523,5.853,5.853,0,0,0,.548,1.512l3.735-.543-0.076-.52c-0.442-.087-0.838-0.383-1.065-1.941Zm-2.666,5.465a2.9,2.9,0,0,1-2.714,3.046,1.526,1.526,0,0,1-1.838-1.349c-0.209-1.435.808-1.911,2.062-2.32a5.114,5.114,0,0,0,2.245-1.059Zm17.547-1.466,6.555-.953,1.67,3.5,4.032-.586-8.84-16.849-4.279.622-3.75,18.68,3.908-.568Zm1.8-10.566,0.049-.007,3.223,6.7-4.526.658ZM958.9,827.5a2.441,2.441,0,0,1-2.015,2.642c-2.622.381-3.085-2.456-3.294-3.891-0.237-1.632.015-3.891,2.192-4.208a2.254,2.254,0,0,1,2.609,1.793l3.513-.511c-0.919-4.059-4.469-4.5-6.546-4.2-4.453.648-5.865,3.96-5.247,8.214,0.4,2.77,2.091,6.389,7.038,5.67a5.688,5.688,0,0,0,5.262-6.019Zm13.818-1.05a2.249,2.249,0,0,1-2.018,1.759c-2.795.406-3.316-1.791-3.559-2.766l9.028-1.313-0.09-.618c-0.874-6.01-4.64-6.726-7.237-6.348-5.763.838-5.57,5.987-5.34,7.57,0.788,5.417,3.891,6.784,7.6,6.245a5.757,5.757,0,0,0,5.176-5.046Zm-5.805-3.272c-0.054-1.76.66-2.925,2.293-3.163,1.113-.161,2.567.284,3.074,2.382Zm10.565-6.916,1.913,13.158,3.463-.5-1.913-13.159Zm2.769-5.277-3.463.5,0.467,3.216,3.463-.5Zm7.375,0.165-3.463.5,0.518,3.562-1.781.259,0.36,2.473,1.781-.259,1.162,7.989c0.248,1.707.957,2.766,3.95,2.33l0.445-.064c0.544-.079,1.085-0.183,1.626-0.287l-0.382-2.622c-0.243.061-.487,0.121-0.71,0.154-1.41.205-1.477-.088-1.589-0.855l-1.039-7.148,2.151-.313L990.29,814.4l-2.152.312Zm16.75,1.2-3.47.5,1.11,7.594c0.34,2.349-1.1,3.215-2.24,3.381-1.063.155-2.308-.069-2.6-2.1l-1.187-8.162-3.462.5,1.258,8.656c0.49,3.364,2.585,4.575,5.182,4.2a4.362,4.362,0,0,0,3.682-2.784l0.05-.007,0.27,1.855,3.32-.482Zm15.73,1.855c-0.43-2.894-2.65-4.112-5.22-3.738a4.3,4.3,0,0,0-3.63,2.851l-0.05.008-0.28-1.93-3.31.482,1.91,13.159,3.46-.5-1.09-7.544c-0.29-2,.74-3.215,2.28-3.438,2.2-.32,2.48,1.306,2.62,2.27l1.17,7.989,3.46-.5Zm13.79-2.612c-0.47-3.24-3.94-3.316-5.8-3.047-2.7.392-5.41,1.368-5.22,5.457l3.34-.486a1.883,1.883,0,0,1,1.86-2.139c0.89-.13,2.29-0.257,2.5,1.2a1.16,1.16,0,0,1-1.06,1.215l-3.05.924c-2.15.641-3.59,2.189-3.22,4.762a3.733,3.733,0,0,0,4.56,3.251,5.413,5.413,0,0,0,3.98-2.523,5.69,5.69,0,0,0,.55,1.511l3.73-.543-0.07-.519c-0.44-.088-0.84-0.383-1.07-1.942Zm-2.67,5.464c0.24,1.608-1.18,2.824-2.71,3.047a1.529,1.529,0,0,1-1.84-1.349c-0.21-1.435.81-1.911,2.06-2.321a5.163,5.163,0,0,0,2.25-1.059Z"/>
  <path id="Calle_Villa_de_la_Aceituna_copia_2" data-name="Calle Villa de la Aceituna copia 2" class="cls-4" d="M1293.73,770.664c-0.58-2.593-3.26-5.941-8.58-5.168-4.58.666-7.7,4.353-6.8,10.561,0.89,6.134,4.75,8.832,9.47,8.145,4.45-.647,6.58-3.71,6.76-7.676l-3.71.539a3.828,3.828,0,0,1-3.44,3.911c-3.14.457-4.82-2.229-5.29-5.42-0.73-5.021,1.72-6.589,3.5-6.848a3.648,3.648,0,0,1,4.38,2.5Zm13.54,0.329c-0.47-3.24-3.94-3.316-5.8-3.046-2.69.392-5.41,1.367-5.21,5.456l3.33-.485a1.886,1.886,0,0,1,1.87-2.14c0.89-.129,2.28-0.256,2.49,1.2a1.153,1.153,0,0,1-1.06,1.215l-3.05.923c-2.15.642-3.59,2.19-3.22,4.762a3.737,3.737,0,0,0,4.57,3.251,5.387,5.387,0,0,0,3.97-2.523,6.083,6.083,0,0,0,.55,1.512l3.74-.543-0.08-.52c-0.44-.087-0.84-0.383-1.06-1.941Zm-2.67,5.465c0.24,1.607-1.18,2.823-2.71,3.046a1.529,1.529,0,0,1-1.84-1.349c-0.21-1.435.81-1.911,2.06-2.32a5.108,5.108,0,0,0,2.25-1.059Zm8.15-14.5-3.46.5,2.58,17.759,3.47-.5Zm6.88-1-3.46.5,2.58,17.759,3.46-.5Zm13.08,12.293a2.239,2.239,0,0,1-2.02,1.758c-2.79.406-3.31-1.791-3.56-2.766l9.03-1.313-0.09-.618c-0.87-6.01-4.64-6.725-7.23-6.348-5.77.838-5.57,5.988-5.34,7.571,0.78,5.416,3.89,6.784,7.6,6.244a5.749,5.749,0,0,0,5.17-5.046Zm-5.8-3.273c-0.06-1.76.66-2.925,2.29-3.162,1.11-.162,2.57.283,3.07,2.382Zm23.35,0.266-0.05.007-5.76-12.9-3.99.579,8.57,16.889,3.54-.515,3.45-18.636-3.86.561Zm8.61-10.294,1.91,13.159,3.47-.5-1.92-13.158Zm2.77-5.277-3.46.5,0.47,3.215,3.46-.5Zm6.9-.827-3.46.5,2.58,17.759,3.47-.5Zm6.88-1-3.46.5,2.58,17.759,3.46-.5Zm15.15,6.031c-0.47-3.24-3.94-3.316-5.8-3.046-2.69.392-5.41,1.367-5.22,5.456l3.34-.485a1.883,1.883,0,0,1,1.86-2.14c0.89-.13,2.29-0.257,2.5,1.2a1.153,1.153,0,0,1-1.06,1.215l-3.05.923c-2.15.641-3.59,2.19-3.22,4.762a3.737,3.737,0,0,0,4.57,3.251,5.39,5.39,0,0,0,3.97-2.523,6.06,6.06,0,0,0,.55,1.511l3.74-.543-0.08-.519c-0.44-.087-0.84-0.383-1.06-1.941Zm-2.67,5.464c0.24,1.608-1.18,2.824-2.71,3.047a1.529,1.529,0,0,1-1.84-1.349c-0.21-1.435.81-1.911,2.06-2.321a5.1,5.1,0,0,0,2.25-1.059Zm23.49-16.725-3.46.5,0.91,6.307-0.04.007a4.281,4.281,0,0,0-4.11-1.5c-2.9.421-5.14,3.021-4.48,7.572,0.52,3.611,2.66,6.836,6.57,6.268a4.212,4.212,0,0,0,3.51-2.557l0.05-.008,0.24,1.658,3.39-.493Zm-7.59,12.62c-0.3-2.077.16-4.139,2.36-4.459,2.38-.346,3.28,1.7,3.58,3.8,0.29,1.954-.31,3.911-2.51,4.231C1405,764.132,1404.03,761.8,1403.8,760.24Zm20.45-.295a2.25,2.25,0,0,1-2.02,1.758c-2.79.406-3.32-1.791-3.56-2.766l9.03-1.313-0.09-.618c-0.87-6.01-4.64-6.726-7.24-6.348-5.76.838-5.57,5.988-5.34,7.571,0.79,5.416,3.89,6.784,7.6,6.244a5.758,5.758,0,0,0,5.18-5.046Zm-5.81-3.273c-0.05-1.76.66-2.925,2.3-3.162,1.11-.162,2.56.283,3.07,2.382Zm20.24-13.02-3.46.5,2.58,17.759,3.46-.5Zm15.15,6.031c-0.47-3.24-3.94-3.316-5.8-3.047-2.69.392-5.41,1.368-5.22,5.457l3.34-.486a1.883,1.883,0,0,1,1.86-2.139c0.89-.13,2.29-0.257,2.5,1.2a1.16,1.16,0,0,1-1.06,1.215l-3.05.923c-2.15.642-3.59,2.19-3.22,4.763a3.738,3.738,0,0,0,4.57,3.251,5.411,5.411,0,0,0,3.97-2.523,5.69,5.69,0,0,0,.55,1.511l3.74-.543-0.08-.519c-0.44-.088-0.84-0.384-1.07-1.942Zm-2.67,5.464c0.24,1.608-1.18,2.824-2.71,3.047a1.529,1.529,0,0,1-1.84-1.349c-0.21-1.435.81-1.911,2.06-2.321a5.1,5.1,0,0,0,2.25-1.059Zm17.55-1.465,6.56-.953,1.67,3.5,4.03-.587-8.84-16.848-4.28.622-3.75,18.679,3.91-.568Zm1.8-10.567,0.05-.007,3.22,6.705-4.53.658Zm19.68,6.281a2.44,2.44,0,0,1-2.01,2.642c-2.63.382-3.09-2.456-3.3-3.89-0.23-1.633.02-3.892,2.19-4.208a2.248,2.248,0,0,1,2.61,1.792l3.52-.51c-0.92-4.06-4.47-4.5-6.55-4.2-4.45.647-5.86,3.959-5.25,8.213,0.41,2.771,2.09,6.39,7.04,5.67a5.683,5.683,0,0,0,5.26-6.018Zm13.82-1.049a2.25,2.25,0,0,1-2.02,1.758c-2.79.407-3.31-1.791-3.56-2.766l9.03-1.312-0.09-.619c-0.87-6.01-4.64-6.725-7.24-6.348-5.76.838-5.57,5.988-5.34,7.571,0.79,5.417,3.89,6.784,7.6,6.244a5.749,5.749,0,0,0,5.18-5.046Zm-5.81-3.273c-0.05-1.76.66-2.925,2.3-3.162,1.11-.162,2.56.283,3.07,2.382Zm10.57-6.916,1.91,13.159,3.47-.5-1.92-13.158Zm2.77-5.277-3.46.5,0.46,3.215,3.47-.5Zm7.37,0.165-3.46.5,0.52,3.561-1.78.259,0.36,2.474,1.78-.259,1.16,7.989c0.25,1.706.96,2.765,3.95,2.33l0.45-.065c0.54-.079,1.08-0.183,1.62-0.287l-0.38-2.621c-0.24.06-.49,0.121-0.71,0.153-1.41.205-1.48-.088-1.59-0.855l-1.04-7.148,2.15-.313-0.36-2.473-2.15.313Zm16.75,1.2-3.46.5,1.1,7.593c0.34,2.35-1.1,3.216-2.24,3.381-1.06.155-2.3-.068-2.6-2.1l-1.19-8.162-3.46.5,1.26,8.657c0.49,3.364,2.58,4.574,5.18,4.2a4.389,4.389,0,0,0,3.69-2.784l0.05-.007,0.27,1.855,3.31-.482Zm15.73,1.855c-0.42-2.894-2.64-4.111-5.22-3.737a4.259,4.259,0,0,0-3.62,2.851l-0.05.007-0.28-1.929-3.32.482,1.92,13.158,3.46-.5-1.1-7.544c-0.29-2,.75-3.215,2.28-3.438,2.2-.32,2.49,1.3,2.63,2.27l1.16,7.989,3.46-.5Zm13.79-2.612c-0.47-3.24-3.94-3.316-5.8-3.046-2.69.392-5.4,1.367-5.21,5.456l3.34-.485a1.878,1.878,0,0,1,1.86-2.14c0.89-.129,2.28-0.256,2.5,1.2a1.168,1.168,0,0,1-1.07,1.215l-3.04.923c-2.16.642-3.6,2.19-3.23,4.762a3.737,3.737,0,0,0,4.57,3.251,5.431,5.431,0,0,0,3.98-2.523,6.082,6.082,0,0,0,.54,1.512l3.74-.543-0.08-.52c-0.44-.087-0.84-0.383-1.06-1.941Zm-2.66,5.465A2.9,2.9,0,0,1,1559.8,742a1.529,1.529,0,0,1-1.84-1.349c-0.2-1.435.81-1.911,2.07-2.32a5.111,5.111,0,0,0,2.24-1.059Z"/>
  <path id="Calle_Villa_del_Olivo" data-name="Calle Villa del Olivo" class="cls-4" d="M337.274,1071.84c-0.579-2.6-3.264-5.94-8.581-5.17-4.576.67-7.7,4.35-6.8,10.56,0.891,6.14,4.744,8.83,9.468,8.15,4.452-.65,6.583-3.71,6.764-7.68l-3.71.54a3.832,3.832,0,0,1-3.447,3.91c-3.141.46-4.82-2.23-5.284-5.42-0.73-5.02,1.719-6.59,3.5-6.85a3.657,3.657,0,0,1,4.379,2.5Zm13.539,0.33c-0.471-3.24-3.943-3.32-5.8-3.05-2.7.39-5.408,1.37-5.217,5.46l3.339-.49a1.881,1.881,0,0,1,1.861-2.14c0.89-.13,2.286-0.25,2.5,1.21a1.154,1.154,0,0,1-1.061,1.21l-3.048.92c-2.155.64-3.6,2.19-3.222,4.77,0.395,2.72,2.585,3.53,4.564,3.25a5.44,5.44,0,0,0,3.977-2.53,5.753,5.753,0,0,0,.548,1.51l3.735-.54-0.075-.52c-0.442-.08-0.839-0.38-1.066-1.94Zm-2.666,5.46a2.9,2.9,0,0,1-2.714,3.05,1.526,1.526,0,0,1-1.838-1.35c-0.209-1.44.808-1.91,2.062-2.32a5.111,5.111,0,0,0,2.245-1.06Zm8.15-14.49-3.463.5,2.583,17.76,3.462-.5Zm6.878-1-3.463.5,2.582,17.76,3.463-.5Zm13.078,12.29a2.247,2.247,0,0,1-2.017,1.76c-2.8.4-3.316-1.79-3.559-2.77l9.028-1.31-0.09-.62c-0.874-6.01-4.64-6.73-7.238-6.35-5.762.84-5.569,5.99-5.339,7.57,0.787,5.42,3.891,6.79,7.6,6.25a5.764,5.764,0,0,0,5.176-5.05Zm-5.805-3.27c-0.053-1.76.661-2.93,2.294-3.17,1.113-.16,2.567.29,3.074,2.39Zm23.356,0.26-0.049.01-5.766-12.9-3.982.58,8.568,16.89,3.537-.52,3.453-18.63-3.859.56Zm8.61-10.29,1.913,13.16,3.463-.51-1.913-13.15Zm2.768-5.28-3.462.5,0.467,3.22,3.463-.5Zm6.9-.83-3.462.51,2.582,17.76,3.463-.51Zm6.878-1-3.463.51,2.582,17.76,3.463-.51Zm15.149,6.04c-0.471-3.24-3.943-3.32-5.8-3.05-2.7.39-5.408,1.37-5.217,5.46l3.339-.49a1.881,1.881,0,0,1,1.861-2.14c0.89-.13,2.286-0.26,2.5,1.2a1.169,1.169,0,0,1-1.061,1.22l-3.048.92c-2.154.64-3.6,2.19-3.222,4.76a3.729,3.729,0,0,0,4.564,3.25,5.408,5.408,0,0,0,3.977-2.52,5.889,5.889,0,0,0,.548,1.51l3.735-.54-0.075-.52c-0.442-.09-0.839-0.38-1.066-1.94Zm-2.666,5.46a2.9,2.9,0,0,1-2.714,3.05,1.533,1.533,0,0,1-1.838-1.35c-0.209-1.44.808-1.91,2.062-2.32a5.111,5.111,0,0,0,2.245-1.06Zm23.487-16.73-3.463.51,0.917,6.3-0.05.01a4.278,4.278,0,0,0-4.107-1.5c-2.894.42-5.143,3.02-4.481,7.57,0.525,3.62,2.661,6.84,6.569,6.27a4.229,4.229,0,0,0,3.518-2.55l0.049-.01,0.241,1.66,3.389-.5Zm-7.586,12.62c-0.3-2.07.156-4.14,2.357-4.46,2.374-.34,3.277,1.7,3.583,3.8,0.284,1.96-.315,3.91-2.517,4.23C448.544,1065.31,447.573,1062.97,447.347,1061.41Zm20.444-.29a2.249,2.249,0,0,1-2.018,1.76c-2.8.4-3.316-1.79-3.559-2.77l9.028-1.31-0.09-.62c-0.874-6.01-4.64-6.73-7.237-6.35-5.763.84-5.57,5.99-5.34,7.57,0.788,5.42,3.891,6.79,7.6,6.25a5.763,5.763,0,0,0,5.176-5.05Zm-5.805-3.27c-0.054-1.76.66-2.93,2.293-3.17,1.113-.16,2.567.29,3.074,2.39Zm13.359-12.02-3.463.5,2.582,17.76,3.463-.5Zm10.965,7.47c1.212,8.33,7.543,8.45,9.893,8.11s8.385-2.26,7.173-10.59-7.542-8.45-9.892-8.11S485.1,1044.96,486.31,1053.3Zm3.71-.54c-0.723-4.97,1.917-6.62,3.921-6.91s5,0.54,5.725,5.51-1.917,6.62-3.92,6.91S490.743,1057.73,490.02,1052.76Zm18.328-11.73-3.463.5,2.582,17.76,3.463-.5Zm4.083,4.1,1.914,13.16,3.463-.5-1.914-13.16Zm2.769-5.28-3.463.51,0.468,3.21,3.463-.5Zm15.833,2.58-3.685.53-1.385,10.1-0.05.01-4.13-9.3-3.859.56,6.638,12.47,3.635-.52Zm14.836,4.56c-0.691-4.75-4.2-6.46-7.735-5.95s-6.411,3.16-5.721,7.9,4.2,6.47,7.735,5.95S546.559,1051.74,545.869,1046.99Zm-3.562.52c0.244,1.68.088,4.07-2.584,4.46s-3.5-1.86-3.748-3.54-0.088-4.08,2.583-4.47S542.062,1045.82,542.307,1047.51Z"/>
  <path id="Calle_Villa_del_Olivo_copia" data-name="Calle Villa del Olivo copia" class="cls-4" d="M780.115,1004.04c-0.579-2.59-3.263-5.941-8.581-5.168-4.576.665-7.7,4.348-6.8,10.558,0.892,6.14,4.744,8.83,9.468,8.15,4.452-.65,6.583-3.71,6.764-7.68l-3.71.54a3.832,3.832,0,0,1-3.447,3.91c-3.141.46-4.82-2.23-5.284-5.42-0.73-5.02,1.719-6.59,3.5-6.85a3.657,3.657,0,0,1,4.379,2.5Zm13.539,0.33c-0.471-3.24-3.942-3.32-5.8-3.05-2.7.39-5.408,1.37-5.217,5.46l3.339-.49a1.885,1.885,0,0,1,1.861-2.14c0.89-.13,2.286-0.25,2.5,1.21a1.154,1.154,0,0,1-1.061,1.21l-3.048.92c-2.154.65-3.6,2.19-3.222,4.77a3.73,3.73,0,0,0,4.564,3.25,5.388,5.388,0,0,0,3.978-2.53,5.793,5.793,0,0,0,.548,1.52l3.734-.55-0.075-.52c-0.442-.08-0.839-0.38-1.065-1.94Zm-2.666,5.46a2.9,2.9,0,0,1-2.714,3.05,1.527,1.527,0,0,1-1.838-1.35c-0.208-1.43.808-1.91,2.062-2.32a5.118,5.118,0,0,0,2.246-1.06Zm8.15-14.492-3.463.5,2.583,17.758,3.462-.5Zm6.878-1-3.463.5,2.582,17.759,3.463-.5ZM819.1,1006.63a2.249,2.249,0,0,1-2.018,1.76c-2.795.41-3.316-1.79-3.559-2.77l9.028-1.31-0.09-.62c-0.874-6.008-4.64-6.724-7.237-6.346-5.763.838-5.57,5.986-5.34,7.566,0.788,5.42,3.891,6.79,7.6,6.25a5.763,5.763,0,0,0,5.176-5.05Zm-5.805-3.27c-0.054-1.76.66-2.93,2.293-3.16,1.113-.17,2.567.28,3.074,2.38Zm23.355,0.26-0.049.01-5.766-12.9-3.982.579,8.568,16.891,3.537-.52,3.453-18.633-3.859.561Zm8.61-10.29,1.913,13.16,3.463-.51-1.913-13.153Zm2.769-5.277-3.463.5,0.467,3.216,3.463-.5Zm6.9-.827-3.463.5,2.582,17.76,3.463-.51Zm6.877-1-3.463.5,2.583,17.76,3.463-.51Zm15.149,6.031c-0.471-3.24-3.942-3.316-5.8-3.047-2.7.392-5.409,1.368-5.218,5.457l3.339-.486a1.88,1.88,0,0,1,1.861-2.139c0.89-.13,2.286-0.257,2.5,1.2a1.159,1.159,0,0,1-1.061,1.215l-3.048.924c-2.154.641-3.6,2.189-3.222,4.757,0.4,2.73,2.586,3.54,4.564,3.26a5.444,5.444,0,0,0,3.978-2.53,5.851,5.851,0,0,0,.548,1.51l3.734-.54-0.075-.52c-0.442-.09-0.839-0.38-1.065-1.94Zm-2.666,5.464c0.234,1.608-1.18,2.819-2.714,3.049a1.533,1.533,0,0,1-1.838-1.351c-0.208-1.435.809-1.911,2.062-2.321a5.1,5.1,0,0,0,2.246-1.059ZM897.774,981l-3.463.5,0.917,6.307-0.049.008a4.268,4.268,0,0,0-4.108-1.5c-2.894.42-5.142,3.02-4.481,7.571,0.526,3.612,2.661,6.834,6.569,6.264a4.208,4.208,0,0,0,3.518-2.553l0.05-.007,0.24,1.657,3.389-.492Zm-7.586,12.62c-0.3-2.078.156-4.14,2.357-4.46,2.375-.345,3.278,1.7,3.583,3.8,0.284,1.954-.315,3.91-2.516,4.23C891.385,997.508,890.415,995.174,890.188,993.616Zm20.444-.3a2.248,2.248,0,0,1-2.018,1.759c-2.8.406-3.316-1.791-3.559-2.766L914.083,991l-0.09-.618c-0.874-6.011-4.64-6.726-7.237-6.348-5.763.838-5.57,5.987-5.34,7.57,0.788,5.417,3.891,6.784,7.6,6.245a5.759,5.759,0,0,0,5.177-5.046Zm-5.8-3.272c-0.054-1.76.661-2.925,2.293-3.163,1.113-.161,2.567.284,3.074,2.382Zm13.359-12.02-3.463.5,2.583,17.759,3.462-.5Zm10.965,7.472c1.212,8.336,7.543,8.451,9.893,8.109s8.386-2.255,7.174-10.59-7.543-8.45-9.893-8.109S927.939,977.165,929.151,985.5Zm3.71-.539c-0.722-4.971,1.917-6.618,3.921-6.91s5,0.536,5.726,5.507-1.917,6.619-3.921,6.91S933.584,989.933,932.861,984.961Zm18.328-11.732-3.463.5,2.582,17.759,3.463-.5Zm4.084,4.1,1.913,13.158,3.463-.5-1.914-13.159Zm2.768-5.277-3.462.5,0.467,3.216,3.463-.5Zm15.833,2.572-3.685.536-1.385,10.1-0.05.007-4.13-9.3-3.859.561,6.638,12.472,3.636-.529Zm14.836,4.561c-0.691-4.749-4.2-6.461-7.735-5.947s-6.411,3.155-5.72,7.9,4.2,6.461,7.734,5.947S989.4,983.938,988.71,979.189Zm-3.562.518c0.245,1.682.088,4.079-2.583,4.467s-3.5-1.864-3.749-3.546-0.088-4.079,2.583-4.468S984.9,978.025,985.148,979.707Z"/>
  <path id="Calle_Villa_del_Olivo_copia_2" data-name="Calle Villa del Olivo copia 2" class="cls-4" d="M1352.94,919.672c-0.58-2.593-3.26-5.941-8.58-5.168-4.58.665-7.7,4.353-6.8,10.561,0.89,6.134,4.74,8.832,9.47,8.145,4.45-.647,6.58-3.71,6.76-7.677l-3.71.54a3.829,3.829,0,0,1-3.45,3.911c-3.14.457-4.82-2.229-5.28-5.42-0.73-5.021,1.72-6.589,3.5-6.848a3.648,3.648,0,0,1,4.38,2.5ZM1366.48,920c-0.47-3.24-3.94-3.316-5.8-3.046-2.7.392-5.41,1.367-5.22,5.456l3.34-.485a1.883,1.883,0,0,1,1.86-2.14c0.89-.129,2.29-0.257,2.5,1.2a1.16,1.16,0,0,1-1.06,1.215l-3.05.923c-2.15.641-3.59,2.19-3.22,4.762a3.732,3.732,0,0,0,4.56,3.251,5.413,5.413,0,0,0,3.98-2.523,5.69,5.69,0,0,0,.55,1.511l3.73-.543-0.07-.519c-0.44-.087-0.84-0.383-1.07-1.941Zm-2.67,5.465c0.24,1.607-1.18,2.823-2.71,3.046a1.529,1.529,0,0,1-1.84-1.349c-0.21-1.435.81-1.911,2.06-2.321a5.178,5.178,0,0,0,2.25-1.058Zm8.15-14.5-3.46.5,2.58,17.758,3.46-.5Zm6.88-1-3.46.5,2.58,17.758,3.46-.5Zm13.08,12.293a2.25,2.25,0,0,1-2.02,1.758c-2.79.406-3.32-1.791-3.56-2.766l9.03-1.313-0.09-.618c-0.87-6.01-4.64-6.726-7.24-6.348-5.76.838-5.57,5.988-5.34,7.571,0.79,5.416,3.89,6.784,7.6,6.244a5.758,5.758,0,0,0,5.18-5.046Zm-5.81-3.273c-0.05-1.76.66-2.925,2.3-3.162,1.11-.162,2.56.283,3.07,2.381Zm23.36,0.266-0.05.007-5.77-12.9-3.98.579,8.57,16.888,3.54-.514,3.45-18.636-3.86.561Zm8.61-10.294,1.91,13.159,3.46-.5-1.91-13.158Zm2.77-5.277-3.47.5,0.47,3.215,3.46-.5Zm6.9-.827-3.46.5,2.58,17.758,3.46-.5Zm6.88-1-3.46.5,2.58,17.758,3.46-.5Zm15.15,6.031c-0.47-3.24-3.95-3.316-5.8-3.046-2.7.392-5.41,1.367-5.22,5.456l3.34-.486a1.883,1.883,0,0,1,1.86-2.139c0.89-.13,2.29-0.257,2.5,1.2a1.16,1.16,0,0,1-1.06,1.215l-3.05.924c-2.15.641-3.6,2.189-3.22,4.762a3.724,3.724,0,0,0,4.56,3.251,5.413,5.413,0,0,0,3.98-2.523,5.69,5.69,0,0,0,.55,1.511l3.73-.543-0.07-.519c-0.44-.087-0.84-0.383-1.07-1.942Zm-2.67,5.464a2.9,2.9,0,0,1-2.71,3.047,1.529,1.529,0,0,1-1.84-1.349c-0.21-1.435.81-1.911,2.06-2.321a5.163,5.163,0,0,0,2.25-1.059Zm23.49-16.725-3.47.5,0.92,6.307-0.05.008a4.26,4.26,0,0,0-4.11-1.5c-2.89.42-5.14,3.02-4.48,7.571,0.53,3.612,2.67,6.837,6.57,6.269a4.213,4.213,0,0,0,3.52-2.558l0.05-.007,0.24,1.657,3.39-.492Zm-7.59,12.62c-0.3-2.078.16-4.14,2.36-4.46,2.37-.345,3.28,1.7,3.58,3.8,0.29,1.954-.31,3.91-2.51,4.23C1464.21,913.14,1463.24,910.806,1463.01,909.248Zm20.45-.3a2.261,2.261,0,0,1-2.02,1.759c-2.8.406-3.32-1.791-3.56-2.766l9.03-1.313-0.09-.618c-0.88-6.01-4.64-6.726-7.24-6.348-5.76.838-5.57,5.987-5.34,7.57,0.79,5.417,3.89,6.784,7.6,6.245a5.767,5.767,0,0,0,5.18-5.046Zm-5.81-3.272c-0.05-1.76.66-2.925,2.29-3.162,1.12-.162,2.57.283,3.08,2.381Zm13.36-12.02-3.46.5,2.58,17.759,3.46-.5Zm10.97,7.473c1.21,8.335,7.54,8.45,9.89,8.108s8.38-2.255,7.17-10.59-7.54-8.45-9.89-8.109S1500.76,892.8,1501.98,901.133Zm3.71-.54c-0.73-4.971,1.91-6.618,3.92-6.909s5,0.535,5.72,5.506-1.92,6.619-3.92,6.91S1506.41,905.565,1505.69,900.593Zm18.32-11.732-3.46.5,2.58,17.759,3.46-.5Zm4.09,4.1,1.91,13.158,3.46-.5-1.91-13.159Zm2.77-5.277-3.47.5,0.47,3.216,3.46-.5Zm15.83,2.572-3.69.536-1.38,10.1-0.05.007-4.13-9.3-3.86.561,6.64,12.472,3.63-.529Zm14.83,4.561c-0.69-4.749-4.19-6.461-7.73-5.947s-6.41,3.155-5.72,7.9,4.2,6.461,7.73,5.947S1562.22,899.57,1561.53,894.821Zm-3.56.518c0.25,1.682.09,4.079-2.58,4.467s-3.51-1.864-3.75-3.546-0.09-4.079,2.58-4.467S1557.73,893.657,1557.97,895.339Z"/>
  <path id="Calle_Villa_de_la_Barrica" data-name="Calle Villa de la Barrica" class="cls-4" d="M238.461,776.148c-0.579-2.593-3.263-5.941-8.581-5.168-4.576.665-7.7,4.353-6.8,10.561,0.892,6.134,4.745,8.832,9.469,8.145,4.452-.647,6.583-3.71,6.764-7.676l-3.711.539a3.83,3.83,0,0,1-3.447,3.911c-3.141.457-4.819-2.229-5.283-5.42-0.731-5.021,1.719-6.589,3.5-6.848a3.648,3.648,0,0,1,4.378,2.5ZM252,776.477c-0.471-3.24-3.942-3.316-5.8-3.046-2.7.392-5.408,1.367-5.218,5.456l3.339-.485a1.883,1.883,0,0,1,1.861-2.14c0.891-.129,2.287-0.257,2.5,1.2a1.16,1.16,0,0,1-1.061,1.215l-3.048.923c-2.155.641-3.6,2.19-3.223,4.762a3.731,3.731,0,0,0,4.565,3.251,5.412,5.412,0,0,0,3.977-2.523,5.853,5.853,0,0,0,.548,1.512l3.735-.544-0.076-.519c-0.442-.087-0.838-0.383-1.065-1.941Zm-2.665,5.465a2.9,2.9,0,0,1-2.714,3.046,1.526,1.526,0,0,1-1.838-1.349c-0.209-1.435.808-1.911,2.062-2.32a5.121,5.121,0,0,0,2.245-1.059Zm8.15-14.5-3.463.5,2.582,17.758,3.463-.5Zm6.877-1-3.462.5,2.582,17.758,3.462-.5Zm13.079,12.293a2.247,2.247,0,0,1-2.017,1.758c-2.795.406-3.317-1.791-3.56-2.766l9.028-1.313-0.09-.618c-0.874-6.01-4.64-6.726-7.237-6.348-5.763.838-5.57,5.988-5.34,7.571,0.788,5.416,3.891,6.784,7.6,6.244A5.759,5.759,0,0,0,281,778.221Zm-5.8-3.273c-0.054-1.76.661-2.925,2.293-3.162,1.113-.162,2.567.283,3.074,2.381Zm23.356,0.266-0.05.007-5.765-12.9-3.982.579,8.567,16.888,3.537-.514,3.453-18.636-3.858.561Zm8.609-10.294,1.914,13.159,3.463-.5-1.914-13.158Zm2.769-5.277-3.463.5,0.468,3.215,3.463-.5Zm6.9-.827-3.463.5,2.582,17.759,3.463-.5Zm6.878-1-3.463.5L319.27,776.6l3.463-.5Zm15.148,6.031c-0.471-3.24-3.942-3.316-5.8-3.046-2.7.392-5.408,1.367-5.218,5.456l3.339-.486a1.882,1.882,0,0,1,1.861-2.139c0.891-.13,2.286-0.257,2.5,1.2a1.161,1.161,0,0,1-1.061,1.215l-3.048.923c-2.155.641-3.6,2.189-3.223,4.762a3.731,3.731,0,0,0,4.565,3.251,5.414,5.414,0,0,0,3.977-2.523,5.832,5.832,0,0,0,.548,1.511l3.735-.543-0.076-.519c-0.442-.087-0.838-0.383-1.065-1.942Zm-2.665,5.464a2.9,2.9,0,0,1-2.714,3.047,1.526,1.526,0,0,1-1.838-1.349c-0.209-1.435.808-1.911,2.062-2.321a5.1,5.1,0,0,0,2.245-1.059ZM356.12,753.1l-3.463.5,0.918,6.308-0.05.007a4.265,4.265,0,0,0-4.107-1.5c-2.894.42-5.143,3.021-4.481,7.572,0.525,3.611,2.661,6.836,6.569,6.268a4.223,4.223,0,0,0,3.517-2.557l0.05-.008,0.241,1.657,3.388-.492Zm-7.586,12.62c-0.3-2.078.156-4.139,2.358-4.46,2.374-.345,3.277,1.7,3.583,3.8,0.284,1.954-.316,3.91-2.517,4.231C349.732,769.616,348.761,767.282,348.534,765.724Zm20.444-.3a2.247,2.247,0,0,1-2.017,1.758c-2.8.406-3.317-1.791-3.559-2.766l9.027-1.313-0.09-.618c-0.874-6.01-4.64-6.726-7.237-6.348-5.763.838-5.57,5.988-5.339,7.571,0.787,5.416,3.891,6.783,7.6,6.244a5.759,5.759,0,0,0,5.176-5.046Zm-5.805-3.273c-0.054-1.76.661-2.925,2.293-3.162,1.113-.162,2.567.283,3.074,2.381Zm20.237-13.02-3.463.5L382.53,767.4l3.462-.5Zm15.149,6.031c-0.471-3.24-3.943-3.317-5.8-3.047-2.7.392-5.408,1.367-5.217,5.457l3.339-.486a1.88,1.88,0,0,1,1.861-2.139c0.89-.13,2.286-0.257,2.5,1.2a1.159,1.159,0,0,1-1.061,1.215l-3.048.923c-2.154.642-3.6,2.19-3.222,4.762a3.731,3.731,0,0,0,4.564,3.252,5.408,5.408,0,0,0,3.977-2.524,5.84,5.84,0,0,0,.549,1.512l3.734-.543-0.075-.52c-0.442-.087-0.839-0.383-1.066-1.941Zm-2.666,5.464a2.9,2.9,0,0,1-2.714,3.047,1.527,1.527,0,0,1-1.838-1.35c-0.208-1.434.808-1.91,2.062-2.32a5.091,5.091,0,0,0,2.245-1.059Zm14.32,2.742,7.519-1.094c3.636-.528,4.511-1.287,5.381-2.424a5.21,5.21,0,0,0,1-3.883,4.185,4.185,0,0,0-3.371-3.9,3.585,3.585,0,0,0,1.648-3.952c-0.266-1.83-1.775-4.389-6.128-3.756l-8.632,1.255Zm2.426-8.334,4.724-.687c1.335-.194,2.757.205,2.984,1.764,0.262,1.805-.661,2.748-2.467,3.01l-4.551.662Zm-1-6.876,4.254-.619c1.682-.244,2.785.05,3,1.509,0.2,1.41-.875,2.148-2.335,2.36l-4.353.633Zm25.415,1.406c-0.472-3.24-3.943-3.316-5.8-3.046-2.7.392-5.408,1.367-5.218,5.456l3.339-.485a1.883,1.883,0,0,1,1.861-2.14c0.891-.129,2.287-0.257,2.5,1.2a1.16,1.16,0,0,1-1.061,1.215l-3.048.923c-2.155.642-3.6,2.19-3.223,4.762a3.731,3.731,0,0,0,4.565,3.251,5.41,5.41,0,0,0,3.977-2.523,5.853,5.853,0,0,0,.548,1.512l3.735-.543-0.075-.52c-0.443-.087-0.839-0.383-1.066-1.941Zm-2.666,5.465a2.9,2.9,0,0,1-2.714,3.046,1.526,1.526,0,0,1-1.838-1.349c-0.209-1.435.808-1.911,2.062-2.32a5.114,5.114,0,0,0,2.245-1.059Zm7.146,3.785,3.462-.5-1-6.851c-0.212-1.459.038-3.213,2.734-3.605a6.557,6.557,0,0,1,1-.1l-0.511-3.512a6.074,6.074,0,0,0-.675.048c-2.1.305-2.707,1.707-3.23,3.147l-0.049.007-0.331-2.276-3.315.482Zm9.623-1.4,3.463-.5-1-6.852c-0.212-1.459.038-3.213,2.734-3.605a6.657,6.657,0,0,1,1-.094l-0.51-3.512a6.074,6.074,0,0,0-.676.047c-2.1.306-2.706,1.707-3.229,3.147l-0.05.007-0.331-2.275-3.314.482Zm7.834-14.575L460.9,756l3.463-.5-1.913-13.158Zm2.769-5.278-3.463.5,0.468,3.215,3.462-.5ZM474.8,749.081a2.439,2.439,0,0,1-2.015,2.642c-2.622.382-3.085-2.456-3.293-3.89-0.238-1.633.015-3.892,2.191-4.208a2.254,2.254,0,0,1,2.61,1.792l3.512-.51c-0.919-4.06-4.468-4.5-6.546-4.2-4.452.647-5.865,3.959-5.246,8.214,0.4,2.77,2.09,6.389,7.037,5.669a5.687,5.687,0,0,0,5.262-6.018Zm15.888-7.311c-0.471-3.24-3.942-3.316-5.8-3.046-2.7.392-5.409,1.367-5.218,5.456l3.339-.485a1.882,1.882,0,0,1,1.861-2.14c0.89-.129,2.286-0.256,2.5,1.2a1.159,1.159,0,0,1-1.06,1.215l-3.049.923c-2.154.642-3.6,2.19-3.222,4.762a3.731,3.731,0,0,0,4.564,3.251,5.412,5.412,0,0,0,3.978-2.523,5.853,5.853,0,0,0,.548,1.512l3.735-.543-0.076-.52c-0.442-.087-0.839-0.383-1.065-1.941Zm-2.666,5.465a2.9,2.9,0,0,1-2.714,3.046,1.526,1.526,0,0,1-1.838-1.349c-0.208-1.435.809-1.911,2.062-2.32a5.109,5.109,0,0,0,2.246-1.059Z"/>
  <path id="Calle_Villa_de_la_Barrica_copia" data-name="Calle Villa de la Barrica copia" class="cls-4" d="M710.425,706.991c-0.579-2.593-3.263-5.941-8.58-5.168-4.576.666-7.7,4.353-6.8,10.561,0.892,6.134,4.745,8.832,9.469,8.145,4.452-.647,6.583-3.71,6.764-7.676l-3.71.539a3.83,3.83,0,0,1-3.447,3.911c-3.142.457-4.82-2.229-5.284-5.419-0.73-5.021,1.719-6.59,3.5-6.849a3.648,3.648,0,0,1,4.378,2.5Zm13.54,0.33c-0.471-3.241-3.943-3.317-5.8-3.047-2.7.392-5.408,1.367-5.218,5.456l3.34-.485a1.881,1.881,0,0,1,1.861-2.14c0.89-.129,2.286-0.256,2.5,1.2a1.16,1.16,0,0,1-1.061,1.215l-3.048.923c-2.155.642-3.6,2.19-3.222,4.762a3.73,3.73,0,0,0,4.564,3.251,5.4,5.4,0,0,0,3.977-2.523,5.876,5.876,0,0,0,.548,1.512l3.735-.543-0.075-.52c-0.442-.087-0.839-0.383-1.066-1.941Zm-2.666,5.464a2.9,2.9,0,0,1-2.714,3.046,1.526,1.526,0,0,1-1.838-1.349c-0.209-1.434.808-1.911,2.062-2.32a5.1,5.1,0,0,0,2.245-1.059Zm8.15-14.5-3.463.5,2.582,17.759,3.463-.5Zm6.878-1-3.463.5,2.582,17.759,3.463-.5Zm13.078,12.293a2.246,2.246,0,0,1-2.017,1.758c-2.8.407-3.316-1.791-3.559-2.766l9.028-1.312-0.09-.619c-0.874-6.01-4.641-6.725-7.238-6.348-5.762.838-5.569,5.988-5.339,7.571,0.787,5.417,3.891,6.784,7.6,6.244a5.758,5.758,0,0,0,5.176-5.046Zm-5.8-3.273c-0.054-1.76.661-2.925,2.294-3.162,1.113-.162,2.566.283,3.074,2.382Zm23.356,0.266-0.049.007-5.766-12.9-3.982.579,8.568,16.889,3.537-.515L772.716,692l-3.858.561Zm8.61-10.294,1.913,13.159,3.463-.5-1.913-13.158ZM778.334,691l-3.462.5,0.467,3.215,3.463-.5Zm6.9-.827-3.462.5,2.582,17.759,3.463-.5Zm6.878-1-3.463.5,2.582,17.759,3.463-.5Zm15.149,6.031c-0.472-3.24-3.943-3.316-5.8-3.046-2.7.392-5.408,1.367-5.217,5.456l3.339-.485a1.881,1.881,0,0,1,1.861-2.14c0.89-.129,2.286-0.257,2.5,1.2a1.16,1.16,0,0,1-1.061,1.215l-3.048.923c-2.155.641-3.6,2.19-3.222,4.762a3.73,3.73,0,0,0,4.564,3.251,5.41,5.41,0,0,0,3.977-2.523,5.89,5.89,0,0,0,.548,1.512l3.735-.544-0.075-.519c-0.442-.087-0.839-0.383-1.066-1.941Zm-2.666,5.465a2.9,2.9,0,0,1-2.714,3.046,1.526,1.526,0,0,1-1.838-1.349c-0.209-1.435.808-1.911,2.062-2.32a5.114,5.114,0,0,0,2.245-1.059Zm23.487-16.726-3.463.5,0.917,6.307-0.05.007a4.265,4.265,0,0,0-4.107-1.5c-2.894.421-5.143,3.021-4.481,7.572,0.525,3.611,2.661,6.836,6.569,6.268a4.224,4.224,0,0,0,3.518-2.557l0.049-.008,0.241,1.658,3.389-.493Zm-7.586,12.62c-0.3-2.077.156-4.139,2.357-4.459,2.374-.346,3.277,1.7,3.583,3.8,0.284,1.954-.315,3.911-2.517,4.231C821.7,700.459,820.725,698.125,820.5,696.567Zm20.444-.295a2.248,2.248,0,0,1-2.018,1.758c-2.795.406-3.316-1.791-3.559-2.766l9.028-1.313-0.09-.618c-0.874-6.01-4.64-6.725-7.237-6.348-5.763.838-5.57,5.988-5.34,7.571,0.788,5.416,3.891,6.784,7.6,6.244a5.758,5.758,0,0,0,5.176-5.046Zm-5.8-3.273c-0.054-1.76.66-2.925,2.293-3.162,1.113-.162,2.567.283,3.074,2.382Zm20.236-13.02-3.462.5,2.582,17.759,3.463-.5Zm15.149,6.031c-0.471-3.24-3.942-3.316-5.8-3.047-2.7.392-5.409,1.368-5.218,5.457l3.339-.486a1.881,1.881,0,0,1,1.861-2.139c0.89-.13,2.286-0.257,2.5,1.2a1.159,1.159,0,0,1-1.06,1.215l-3.049.923c-2.154.642-3.6,2.19-3.222,4.763a3.732,3.732,0,0,0,4.564,3.251,5.415,5.415,0,0,0,3.978-2.523,5.832,5.832,0,0,0,.548,1.511l3.735-.543-0.076-.519c-0.442-.088-0.839-0.383-1.065-1.942Zm-2.666,5.464a2.9,2.9,0,0,1-2.714,3.047,1.527,1.527,0,0,1-1.838-1.349c-0.208-1.435.809-1.911,2.062-2.321a5.1,5.1,0,0,0,2.246-1.059Zm14.321,2.742,7.519-1.093c3.636-.529,4.51-1.288,5.381-2.424a5.218,5.218,0,0,0,1-3.884,4.184,4.184,0,0,0-3.372-3.9,3.584,3.584,0,0,0,1.648-3.953c-0.266-1.83-1.774-4.389-6.128-3.756l-8.632,1.255Zm2.425-8.334,4.724-.687c1.336-.194,2.758.2,2.984,1.764,0.263,1.805-.661,2.748-2.467,3.01l-4.551.662Zm-1-6.876,4.254-.618c1.682-.245,2.786.049,3,1.508,0.2,1.41-.875,2.148-2.334,2.36l-4.353.633Zm25.415,1.407c-0.471-3.241-3.943-3.317-5.8-3.047-2.7.392-5.408,1.367-5.217,5.457l3.339-.486a1.881,1.881,0,0,1,1.861-2.14c0.89-.129,2.286-0.256,2.5,1.2a1.159,1.159,0,0,1-1.061,1.215l-3.048.923c-2.154.642-3.6,2.19-3.222,4.762a3.731,3.731,0,0,0,4.564,3.251,5.4,5.4,0,0,0,3.977-2.523,5.877,5.877,0,0,0,.549,1.512l3.734-.543-0.075-.52c-0.442-.087-0.839-0.383-1.065-1.941Zm-2.666,5.464a2.894,2.894,0,0,1-2.714,3.046,1.526,1.526,0,0,1-1.838-1.349c-0.208-1.434.808-1.911,2.062-2.32a5.116,5.116,0,0,0,2.246-1.059Zm7.146,3.785,3.463-.5-1-6.851c-0.212-1.459.038-3.213,2.734-3.605a6.427,6.427,0,0,1,1-.094l-0.511-3.513a6.325,6.325,0,0,0-.675.048c-2.1.306-2.707,1.707-3.23,3.147l-0.049.007-0.331-2.276-3.314.482Zm9.624-1.4,3.462-.5-1-6.851c-0.212-1.46.038-3.213,2.734-3.605a6.532,6.532,0,0,1,1-.1l-0.51-3.512a6.057,6.057,0,0,0-.675.048c-2.1.3-2.707,1.707-3.23,3.146l-0.05.008-0.33-2.276-3.315.482Zm7.833-14.575,1.914,13.158,3.463-.5-1.914-13.159Zm2.769-5.277-3.463.5,0.468,3.216,3.463-.5Zm13.042,11.515a2.441,2.441,0,0,1-2.016,2.642c-2.621.381-3.084-2.456-3.293-3.891-0.237-1.632.015-3.892,2.192-4.208a2.253,2.253,0,0,1,2.609,1.792l3.512-.51c-0.918-4.059-4.468-4.5-6.546-4.2-4.452.648-5.865,3.96-5.246,8.214,0.4,2.77,2.091,6.389,7.038,5.67a5.689,5.689,0,0,0,5.262-6.019Zm15.887-7.311c-0.471-3.24-3.942-3.317-5.8-3.047-2.7.392-5.408,1.367-5.218,5.457l3.339-.486a1.883,1.883,0,0,1,1.861-2.14c0.891-.129,2.286-0.256,2.5,1.2a1.16,1.16,0,0,1-1.061,1.215l-3.048.923c-2.155.642-3.6,2.19-3.223,4.762a3.733,3.733,0,0,0,4.565,3.252,5.412,5.412,0,0,0,3.977-2.524,5.84,5.84,0,0,0,.548,1.512l3.735-.543-0.076-.52c-0.442-.087-0.838-0.383-1.065-1.941Zm-2.665,5.464a2.9,2.9,0,0,1-2.714,3.046,1.525,1.525,0,0,1-1.838-1.349c-0.209-1.434.808-1.91,2.062-2.32a5.109,5.109,0,0,0,2.245-1.059Z"/>
  <path id="Calle_Villa_de_la_Barrica_copia_2" data-name="Calle Villa de la Barrica copia 2" class="cls-4" d="M1262.73,620.661c-0.58-2.593-3.27-5.94-8.58-5.167-4.58.665-7.71,4.353-6.8,10.561,0.89,6.134,4.74,8.832,9.47,8.145,4.45-.647,6.58-3.71,6.76-7.677l-3.71.54a3.829,3.829,0,0,1-3.45,3.911c-3.14.456-4.82-2.229-5.28-5.42-0.73-5.021,1.72-6.589,3.5-6.848a3.647,3.647,0,0,1,4.38,2.5Zm13.54,0.33c-0.47-3.24-3.95-3.316-5.8-3.046-2.7.392-5.41,1.367-5.22,5.456l3.34-.486a1.883,1.883,0,0,1,1.86-2.139c0.89-.13,2.29-0.257,2.5,1.2a1.161,1.161,0,0,1-1.06,1.215l-3.05.923c-2.15.641-3.6,2.189-3.22,4.762a3.725,3.725,0,0,0,4.56,3.251,5.413,5.413,0,0,0,3.98-2.523,5.69,5.69,0,0,0,.55,1.511l3.73-.543-0.07-.519c-0.44-.087-0.84-0.383-1.07-1.942Zm-2.67,5.464a2.9,2.9,0,0,1-2.71,3.047,1.525,1.525,0,0,1-1.84-1.349c-0.21-1.435.81-1.911,2.06-2.321a5.163,5.163,0,0,0,2.25-1.059Zm8.15-14.5-3.46.5,2.58,17.759,3.46-.5Zm6.88-1-3.46.5,2.58,17.759,3.46-.5Zm13.08,12.292a2.261,2.261,0,0,1-2.02,1.759c-2.8.406-3.32-1.791-3.56-2.766l9.03-1.313-0.09-.618c-0.88-6.011-4.64-6.726-7.24-6.348-5.76.838-5.57,5.987-5.34,7.57,0.79,5.417,3.89,6.784,7.6,6.245a5.767,5.767,0,0,0,5.18-5.046Zm-5.81-3.272c-0.05-1.76.66-2.925,2.3-3.163,1.11-.161,2.56.284,3.07,2.382Zm23.36,0.266-0.05.007-5.77-12.9-3.98.579,8.57,16.888,3.54-.514,3.45-18.636-3.86.561Zm8.61-10.294,1.91,13.158,3.46-.5-1.91-13.159Zm2.77-5.277-3.47.5,0.47,3.216,3.46-.5Zm6.9-.827-3.46.5,2.58,17.759,3.46-.5Zm6.88-1-3.47.5,2.59,17.759,3.46-.5Zm15.15,6.031c-0.48-3.24-3.95-3.316-5.8-3.047-2.7.392-5.41,1.368-5.22,5.457l3.34-.486a1.883,1.883,0,0,1,1.86-2.139c0.89-.13,2.29-0.257,2.5,1.2a1.16,1.16,0,0,1-1.06,1.215l-3.05.923c-2.15.642-3.6,2.19-3.22,4.763a3.725,3.725,0,0,0,4.56,3.251,5.413,5.413,0,0,0,3.98-2.523,5.7,5.7,0,0,0,.55,1.511l3.73-.543-0.07-.519c-0.45-.088-0.84-0.384-1.07-1.942Zm-2.67,5.464a2.9,2.9,0,0,1-2.71,3.047,1.525,1.525,0,0,1-1.84-1.35c-0.21-1.434.81-1.91,2.06-2.32a5.163,5.163,0,0,0,2.25-1.059Zm23.49-16.725-3.47.5,0.92,6.307-0.05.007a4.275,4.275,0,0,0-4.11-1.5c-2.89.421-5.14,3.021-4.48,7.572,0.53,3.611,2.66,6.837,6.57,6.269a4.226,4.226,0,0,0,3.52-2.558l0.05-.007,0.24,1.657,3.39-.492Zm-7.59,12.62c-0.3-2.078.16-4.14,2.36-4.46,2.37-.345,3.28,1.7,3.58,3.8,0.28,1.954-.31,3.91-2.52,4.23S1373.03,611.8,1372.8,610.238Zm20.44-.3a2.239,2.239,0,0,1-2.01,1.759c-2.8.406-3.32-1.791-3.56-2.766l9.03-1.313-0.09-.618c-0.88-6.011-4.64-6.726-7.24-6.348-5.76.838-5.57,5.987-5.34,7.57,0.79,5.417,3.89,6.784,7.6,6.245a5.769,5.769,0,0,0,5.18-5.047Zm-5.8-3.272c-0.05-1.761.66-2.925,2.29-3.163,1.12-.162,2.57.284,3.08,2.382Zm20.24-13.02-3.47.5,2.59,17.759,3.46-.5Zm15.14,6.031c-0.47-3.241-3.94-3.317-5.79-3.047-2.7.392-5.41,1.367-5.22,5.456l3.34-.485a1.884,1.884,0,0,1,1.86-2.14c0.89-.129,2.29-0.256,2.5,1.2a1.16,1.16,0,0,1-1.06,1.215l-3.05.923c-2.16.642-3.6,2.19-3.22,4.762a3.724,3.724,0,0,0,4.56,3.251,5.407,5.407,0,0,0,3.98-2.523,5.7,5.7,0,0,0,.55,1.512l3.73-.543-0.07-.52c-0.45-.087-0.84-0.383-1.07-1.941Zm-2.66,5.464a2.9,2.9,0,0,1-2.71,3.046,1.525,1.525,0,0,1-1.84-1.349c-0.21-1.434.81-1.911,2.06-2.32a5.045,5.045,0,0,0,2.24-1.059Zm14.32,2.741,7.52-1.093c3.63-.528,4.51-1.287,5.38-2.424a5.178,5.178,0,0,0,1-3.883,4.183,4.183,0,0,0-3.37-3.9,3.584,3.584,0,0,0,1.65-3.952c-0.27-1.831-1.78-4.39-6.13-3.756l-8.63,1.255Zm2.42-8.333,4.73-.687c1.33-.194,2.76.205,2.98,1.763,0.27,1.806-.66,2.748-2.46,3.011l-4.55.662Zm-1-6.876,4.26-.619c1.68-.244,2.78.05,3,1.509,0.2,1.41-.88,2.148-2.34,2.36l-4.35.633Zm25.42,1.406c-0.47-3.24-3.94-3.316-5.8-3.046-2.69.392-5.41,1.367-5.22,5.456l3.34-.486a1.883,1.883,0,0,1,1.86-2.139c0.89-.13,2.29-0.257,2.5,1.2a1.153,1.153,0,0,1-1.06,1.215l-3.05.923c-2.15.641-3.59,2.19-3.22,4.762a3.737,3.737,0,0,0,4.57,3.251,5.39,5.39,0,0,0,3.97-2.523,6.06,6.06,0,0,0,.55,1.511l3.74-.543-0.08-.519c-0.44-.087-0.84-0.383-1.06-1.942Zm-2.67,5.464c0.24,1.608-1.18,2.824-2.71,3.047a1.529,1.529,0,0,1-1.84-1.349c-0.21-1.435.81-1.911,2.06-2.321a5.1,5.1,0,0,0,2.25-1.059Zm7.15,3.785,3.46-.5-0.99-6.851c-0.22-1.46.03-3.214,2.73-3.606a6.624,6.624,0,0,1,1-.094l-0.51-3.512a6.045,6.045,0,0,0-.68.048c-2.1.305-2.71,1.706-3.23,3.146l-0.05.008-0.33-2.276-3.31.482Zm9.62-1.4,3.47-.5-1-6.851c-0.21-1.459.04-3.213,2.73-3.605a6.6,6.6,0,0,1,1-.094l-0.51-3.512a6.214,6.214,0,0,0-.68.047c-2.1.306-2.7,1.707-3.23,3.147l-0.04.007-0.34-2.275-3.31.482Zm7.84-14.576,1.91,13.159,3.46-.5-1.91-13.158Zm2.77-5.277-3.47.5,0.47,3.215,3.46-.5Zm13.04,11.515a2.441,2.441,0,0,1-2.02,2.642c-2.62.381-3.08-2.456-3.29-3.89-0.24-1.633.01-3.892,2.19-4.209a2.255,2.255,0,0,1,2.61,1.793l3.51-.511c-0.92-4.059-4.47-4.5-6.54-4.2-4.46.647-5.87,3.959-5.25,8.213,0.4,2.771,2.09,6.389,7.04,5.67a5.691,5.691,0,0,0,5.26-6.018Zm15.89-7.311c-0.48-3.24-3.95-3.316-5.8-3.046-2.7.392-5.41,1.367-5.22,5.456l3.34-.485a1.883,1.883,0,0,1,1.86-2.14c0.89-.13,2.29-0.257,2.5,1.2a1.16,1.16,0,0,1-1.06,1.215l-3.05.923c-2.16.641-3.6,2.19-3.22,4.762a3.724,3.724,0,0,0,4.56,3.251,5.413,5.413,0,0,0,3.98-2.523,5.69,5.69,0,0,0,.55,1.511l3.73-.543-0.07-.519c-0.45-.087-0.84-0.383-1.07-1.941Zm-2.67,5.464a2.9,2.9,0,0,1-2.71,3.047,1.525,1.525,0,0,1-1.84-1.349c-0.21-1.435.81-1.911,2.06-2.321a5.033,5.033,0,0,0,2.24-1.059Z"/>
  <path id="FRACC_RESIDENCIAL_VT" data-name="FRACC RESIDENCIAL VT" class="cls-4" d="M789.3,1153.77l7.816-1.14-0.456-3.14-7.816,1.14-0.583-4.01,8.929-1.3-0.457-3.14-12.639,1.84,2.582,17.76,3.71-.54Zm12.492,5.81,3.636-.53-1.01-6.95,3.833-.56c2.746-.4,3.031.52,3.383,2.94a11.942,11.942,0,0,0,.917,3.53l4.106-.59-0.068-.47c-0.835-.19-0.928-0.83-1.306-3.43-0.482-3.31-1.352-3.74-2.9-4.17a4.284,4.284,0,0,0,2.13-4.63c-0.223-1.53-1.6-4.89-6.32-4.21l-8.978,1.31Zm2.19-10.47-0.69-4.75,4.625-.68c2.177-.31,2.8,1.01,2.935,1.95,0.256,1.76-.587,2.56-2.517,2.84Zm18.9,3.66,6.555-.95,1.67,3.5,4.031-.59-8.84-16.85-4.278.62-3.75,18.68,3.908-.57Zm1.8-10.56,0.049-.01,3.223,6.7-4.526.66Zm25.148-1.82c-0.579-2.59-3.263-5.94-8.58-5.16-4.576.66-7.7,4.35-6.8,10.56,0.892,6.13,4.745,8.83,9.469,8.14,4.452-.64,6.583-3.71,6.764-7.67l-3.71.54a3.832,3.832,0,0,1-3.447,3.91c-3.142.45-4.82-2.23-5.284-5.42-0.73-5.02,1.719-6.59,3.5-6.85a3.643,3.643,0,0,1,4.378,2.49Zm17.862-2.59c-0.579-2.6-3.263-5.94-8.581-5.17-4.575.66-7.7,4.35-6.8,10.56,0.892,6.13,4.745,8.83,9.469,8.15,4.452-.65,6.583-3.71,6.764-7.68l-3.711.54a3.831,3.831,0,0,1-3.447,3.91c-3.141.46-4.819-2.23-5.283-5.42-0.73-5.02,1.719-6.59,3.5-6.85a3.655,3.655,0,0,1,4.378,2.5Zm5.392-6.72-3.71.54,2.582,17.76,3.71-.54Zm3.964,8.49c1.212,8.33,7.543,8.45,9.893,8.11s8.385-2.26,7.173-10.59-7.543-8.45-9.892-8.11S875.83,1131.23,877.042,1139.57Zm3.71-.54c-0.723-4.97,1.917-6.62,3.92-6.91s5,0.53,5.726,5.51-1.917,6.61-3.92,6.91S881.475,1144,880.752,1139.03Zm27.67-.46h-0.05l-8.847-11.34-3.908.57,2.582,17.76,3.463-.5-1.842-12.67,0.05-.01,9.088,11.61,3.71-.53-2.582-17.76-3.463.5Zm11.039,0.16,6.555-.95,1.67,3.49,4.031-.58-8.84-16.85-4.279.62-3.749,18.68,3.908-.57Zm1.8-10.57h0.049l3.223,6.7-4.526.66Zm27.3-8.06-5.367.78-1.131,14.46-0.049.01-5.251-13.53-5.417.79,2.583,17.75,3.462-.5-2.158-14.84,0.05-.01,5.4,14.37,3.636-.53,1.156-15.32,0.05-.01,2.158,14.84,3.462-.5Zm6.98-1.01-3.71.54,2.582,17.76,3.71-.54Zm16.524-2.41-13.06,1.9,2.582,17.76,13.48-1.96-0.456-3.14-9.844,1.43-0.669-4.6,8.656-1.26-0.456-3.14-8.657,1.26-0.543-3.73,9.423-1.37Zm16.073,10.3h-0.049l-8.848-11.34-3.908.57,2.583,17.76,3.462-.5-1.841-12.67,0.049-.01,9.089,11.61,3.71-.54-2.582-17.75-3.463.5Zm13.228-11.35,5.37-.78-0.46-3.14-14.441,2.1,0.456,3.14,5.368-.78,2.125,14.62,3.712-.54Zm6.63,4.9c1.21,8.33,7.54,8.45,9.89,8.11s8.39-2.26,7.17-10.59-7.54-8.45-9.89-8.11S1006.78,1112.19,1007.99,1120.53Zm3.71-.54c-0.72-4.97,1.92-6.62,3.92-6.91s5,0.53,5.72,5.51-1.91,6.61-3.92,6.91S1012.42,1124.96,1011.7,1119.99Zm24.5,5.5,3.63-.53-1.01-6.95,3.84-.55c2.74-.4,3.03.52,3.38,2.94a11.8,11.8,0,0,0,.92,3.53l4.1-.6-0.07-.47c-0.83-.18-0.93-0.82-1.3-3.42-0.48-3.31-1.36-3.74-2.91-4.17a4.282,4.282,0,0,0,2.13-4.63c-0.22-1.54-1.59-4.9-6.32-4.21l-8.98,1.3Zm2.19-10.47-0.69-4.75,4.62-.67c2.18-.32,2.8,1.01,2.94,1.95,0.25,1.75-.59,2.56-2.52,2.84Zm26.15-11.78-13.06,1.9,2.58,17.76,13.48-1.96-0.46-3.15-9.84,1.44-0.67-4.6,8.65-1.26-0.45-3.14-8.66,1.25-0.54-3.73,9.42-1.37Zm4.31,11.92c0.32,2.2,1.98,5.78,8.46,4.84,1.55-.23,6.93-1.49,6.15-6.83-0.46-3.2-2.83-3.86-5.34-4.1l-4.49-.44c-0.76-.06-1.95-0.19-2.15-1.58-0.23-1.61,1.38-2.37,2.79-2.57,3.24-.48,3.81,1.36,4.02,2.14l3.56-.52c-0.34-2.17-2.32-5.52-7.76-4.73-5.76.84-6.32,4.48-6.03,6.46,0.57,3.91,3.43,4.15,6.4,4.4l1.97,0.16c1.94,0.18,3.33.35,3.53,1.74,0.28,1.88-1.62,2.58-3.37,2.84-3.24.47-4.01-1.34-4.18-2.32Zm19.04-15.32-3.71.54,2.58,17.76,3.71-.54Zm6.05,17.26,7.69-1.12c5.86-.85,6.57-6.56,6.02-10.37-0.49-3.37-2.47-8.28-8.45-7.41l-7.84,1.14Zm1.5-15.22,3.56-.52c1.58-.23,4.14-0.17,4.9,5.07,0.43,2.92-.14,6.11-3.16,6.55l-3.61.52Zm26.84-7.04-13.06,1.9,2.58,17.76,13.48-1.96-0.46-3.14-9.84,1.43-0.67-4.6,8.66-1.26-0.46-3.14-8.66,1.26-0.54-3.74,9.42-1.37Zm16.07,10.29-0.05.01-8.85-11.34-3.9.57,2.58,17.76,3.46-.51-1.84-12.66,0.05-.01,9.09,11.61,3.71-.54-2.59-17.76-3.46.51Zm21.11-9.76c-0.58-2.59-3.26-5.94-8.58-5.17-4.57.67-7.7,4.36-6.8,10.56,0.9,6.14,4.75,8.84,9.47,8.15,4.45-.65,6.59-3.71,6.77-7.68l-3.71.54a3.837,3.837,0,0,1-3.45,3.91c-3.14.46-4.82-2.23-5.28-5.42-0.73-5.02,1.71-6.59,3.5-6.85a3.649,3.649,0,0,1,4.37,2.5Zm5.4-6.72-3.71.54,2.58,17.76,3.71-.54Zm9.27,13.05,6.55-.95,1.67,3.49,4.04-.59-8.84-16.84-4.28.62-3.75,18.68,3.91-.57Zm1.8-10.57h0.05l3.22,6.7-4.53.66Zm13.96-6.12-3.71.54,2.58,17.76,12.54-1.82-0.46-3.22-8.83,1.28Zm24.69,10.15-0.05.01-5.76-12.9-3.98.57,8.56,16.89,3.54-.51,3.45-18.64-3.85.56Zm11.53-15.42-3.71.54,2.58,17.76,3.71-.54Zm7.18-1.04-3.71.54,2.58,17.76,12.54-1.82-0.47-3.22-8.83,1.28Zm15.11-2.2-3.71.54,2.58,17.76,12.54-1.82-0.46-3.22-8.83,1.29Zm17.22,11.9,6.55-.96,1.67,3.5,4.03-.59-8.84-16.85-4.28.63L1261,1092.8l3.91-.56Zm1.79-10.57,0.05-.01,3.23,6.71-4.53.66Zm22.66-4.18,5.37-.78-0.46-3.14-14.44,2.1,0.46,3.14,5.36-.78,2.13,14.62,3.71-.54Zm6.63,4.9c1.21,8.33,7.54,8.45,9.89,8.11s8.39-2.26,7.18-10.59-7.55-8.45-9.9-8.11S1295.49,1070.21,1296.7,1078.55Zm3.71-.54c-0.72-4.97,1.92-6.62,3.92-6.91s5,0.53,5.73,5.51-1.92,6.61-3.93,6.9S1301.13,1082.98,1300.41,1078.01Zm15.91,1.17c0.32,2.2,1.98,5.77,8.46,4.83,1.55-.22,6.93-1.49,6.15-6.83-0.46-3.19-2.83-3.85-5.34-4.1l-4.49-.43c-0.76-.07-1.95-0.2-2.15-1.58-0.23-1.61,1.38-2.37,2.79-2.58,3.24-.47,3.81,1.37,4.02,2.14l3.56-.51c-0.34-2.18-2.32-5.53-7.76-4.73-5.76.83-6.32,4.48-6.03,6.45,0.57,3.91,3.43,4.15,6.4,4.4l1.97,0.17c1.94,0.17,3.33.35,3.53,1.73,0.28,1.88-1.62,2.59-3.37,2.84-3.24.48-4.01-1.33-4.18-2.32Zm31.51-11.2c-0.58-2.59-3.26-5.94-8.58-5.17-4.58.67-7.7,4.36-6.8,10.56,0.89,6.14,4.75,8.84,9.47,8.15,4.45-.65,6.58-3.71,6.76-7.68l-3.71.54a3.829,3.829,0,0,1-3.44,3.91c-3.14.46-4.82-2.23-5.29-5.42-0.73-5.02,1.72-6.59,3.5-6.85a3.655,3.655,0,0,1,4.38,2.5Zm7.79,7.33,6.55-.95,1.67,3.49,4.04-.58-8.84-16.85-4.28.62-3.75,18.68,3.9-.57Zm1.8-10.57h0.05l3.22,6.7-4.53.66Zm22.88,5.21-0.05.01-8.84-11.34-3.91.57,2.58,17.75,3.46-.5-1.84-12.66,0.05-.01,9.09,11.61,3.71-.54-2.58-17.76-3.47.51Zm11.04,0.16,6.56-.95,1.67,3.5,4.03-.59-8.84-16.85-4.28.62-3.75,18.68,3.91-.56Zm1.8-10.56,0.05-.01,3.22,6.71-4.52.65Z"/>
  <path id="Calle_Villa_de_la_Uva" data-name="Calle Villa de la Uva" class="cls-4" d="M1699.33,812.962c-2.41,1.1-5.13,4.421-3.28,9.464,1.6,4.34,5.85,6.636,11.74,4.469,5.82-2.14,7.66-6.467,6.01-10.947-1.55-4.223-4.99-5.674-8.91-5.031l1.3,3.518a3.833,3.833,0,0,1,4.54,2.564c1.09,2.979-1.19,5.177-4.21,6.29-4.76,1.753-6.81-.319-7.43-2.008a3.645,3.645,0,0,1,1.54-4.8Zm-2.47-13.314c-3.07,1.13-2.43,4.542-1.78,6.3,0.94,2.556,2.45,5.008,6.41,3.977l-1.16-3.167a1.882,1.882,0,0,1-2.48-1.378c-0.31-.845-0.72-2.184.66-2.694a1.164,1.164,0,0,1,1.41.787l1.53,2.792c1.07,1.975,2.89,3.066,5.33,2.168,2.58-.949,2.92-3.261,2.23-5.138a5.413,5.413,0,0,0-3.29-3.37,5.9,5.9,0,0,0,1.37-.848l-1.3-3.542-0.5.181c0.01,0.451-.2.9-1.68,1.444Zm5.9,1.478c1.52-.561,3,0.572,3.54,2.026a1.528,1.528,0,0,1-.94,2.077c-1.36.5-2.04-.4-2.7-1.538a5.072,5.072,0,0,0-1.5-1.978Zm-15.87-4.977,1.21,3.284,16.84-6.2-1.21-3.284Zm-2.4-6.523,1.21,3.284,16.84-6.2-1.21-3.284Zm9.32-15.337a2.25,2.25,0,0,1,2.14,1.61c0.97,2.651-1.07,3.615-1.97,4.054l-3.15-8.561-0.59.216c-5.7,2.1-5.62,5.93-4.71,8.393,2.01,5.465,7.01,4.212,8.51,3.659,5.13-1.89,5.83-5.209,4.54-8.727a5.767,5.767,0,0,0-6.01-4.022Zm-2,6.356c-1.71.417-3-.042-3.57-1.59-0.39-1.055-.25-2.57,1.7-3.5Zm-4.57-22.906,0.02,0.047-11.43,8.308,1.39,3.776L1691.97,758l-1.23-3.354-18.95.474,1.34,3.66Zm-11.85-6.3,12.48-4.592-1.21-3.284-12.48,4.592Zm-5.74-1.618,1.21,3.284,3.05-1.122-1.21-3.284Zm-2.23-6.583,1.21,3.284,16.84-6.2-1.21-3.284Zm-2.4-6.522,1.21,3.284,16.84-6.2-1.21-3.284Zm2.77-16.068c-3.08,1.131-2.43,4.543-1.78,6.3,0.94,2.557,2.45,5.009,6.41,3.977l-1.16-3.167a1.882,1.882,0,0,1-2.48-1.378c-0.31-.845-0.72-2.184.66-2.693a1.163,1.163,0,0,1,1.41.786l1.53,2.792c1.07,1.975,2.89,3.066,5.33,2.168,2.58-.949,2.92-3.261,2.23-5.138a5.408,5.408,0,0,0-3.29-3.369,5.933,5.933,0,0,0,1.37-.849l-1.31-3.542-0.49.181c0.01,0.451-.2.9-1.68,1.444Zm5.89,1.478a2.9,2.9,0,0,1,3.55,2.026,1.528,1.528,0,0,1-.94,2.077c-1.36.5-2.04-.4-2.7-1.538a5.09,5.09,0,0,0-1.5-1.978Zm-21.21-19.521,1.2,3.283,5.99-2.2,0.01,0.047a4.278,4.278,0,0,0-.62,4.329c1.01,2.744,4.02,4.407,8.34,2.819,3.42-1.261,6.14-4.017,4.77-7.723a4.208,4.208,0,0,0-3.22-2.913l-0.02-.047,1.57-.579-1.18-3.213Zm13.91,4.813c-1.97.725-4.08,0.7-4.85-1.385-0.83-2.251.98-3.557,2.98-4.29,1.85-.682,3.89-0.5,4.65,1.587C1669.94,705.446,1667.86,706.878,1666.38,707.422Zm-4.51-19.942a2.239,2.239,0,0,1,2.13,1.611c0.98,2.65-1.06,3.615-1.97,4.054l-3.15-8.561-0.58.215c-5.7,2.1-5.63,5.931-4.72,8.394,2.01,5.465,7.01,4.211,8.51,3.659,5.14-1.89,5.83-5.209,4.54-8.728a5.767,5.767,0,0,0-6.01-4.021Zm-2.01,6.357c-1.71.416-2.99-.042-3.56-1.59-0.39-1.056-.26-2.57,1.69-3.5Zm-16.92-17.108,1.21,3.283,16.84-6.2-1.21-3.284Zm2.77-16.069c-3.07,1.131-2.43,4.543-1.78,6.3,0.94,2.557,2.45,5.009,6.42,3.977l-1.17-3.166a1.885,1.885,0,0,1-2.48-1.379c-0.31-.844-0.72-2.184.66-2.693a1.159,1.159,0,0,1,1.41.787l1.53,2.791c1.08,1.976,2.89,3.066,5.33,2.169a3.733,3.733,0,0,0,2.24-5.138,5.413,5.413,0,0,0-3.29-3.37,6.006,6.006,0,0,0,1.36-.849l-1.3-3.541-0.49.181c0,0.45-.21.9-1.68,1.443Zm5.9,1.479c1.52-.561,3,0.571,3.54,2.025a1.529,1.529,0,0,1-.94,2.078c-1.36.5-2.04-.4-2.7-1.538a5.072,5.072,0,0,0-1.5-1.978Zm-22.08-21.867,1.32,3.588,11.09-4.083c2.04-.751,3.58-0.2,4.47,2.219,0.6,1.642.07,3.382-2.28,4.245l-10.93,4.023,1.32,3.589,11.17-4.109a6.566,6.566,0,0,0,3.6-2.816,7.689,7.689,0,0,0,.07-6.1c-1.56-4.245-4.45-6.22-8.88-4.589Zm-0.94-16.012,1.28,3.5,10.17-.733,0.02,0.047-8.24,5.964,1.34,3.659,10.83-9.072-1.27-3.448Zm-0.94-12.682c-3.07,1.131-2.43,4.543-1.78,6.3,0.94,2.557,2.45,5.009,6.41,3.977l-1.16-3.166a1.883,1.883,0,0,1-2.48-1.379c-0.31-.844-0.72-2.183.66-2.693a1.164,1.164,0,0,1,1.41.787l1.53,2.792c1.07,1.975,2.89,3.066,5.33,2.168a3.722,3.722,0,0,0,2.23-5.138,5.413,5.413,0,0,0-3.29-3.37,5.865,5.865,0,0,0,1.37-.849l-1.3-3.541-0.5.181c0.01,0.45-.2.9-1.68,1.443Zm5.9,1.479c1.52-.561,3,0.571,3.54,2.026a1.528,1.528,0,0,1-.94,2.077c-1.36.5-2.04-.4-2.7-1.538a5.072,5.072,0,0,0-1.5-1.978Z"/>
  <path id="Calle_del_Vino_Tinto" data-name="Calle del Vino Tinto" class="cls-4" d="M1125.06,894.072c-2.58.623-5.89,3.364-5.02,8.668,0.74,4.563,4.48,7.626,10.67,6.618,6.12-1,8.75-4.893,7.99-9.6-0.73-4.441-3.83-6.519-7.8-6.633l0.61,3.7a3.837,3.837,0,0,1,3.97,3.38c0.51,3.133-2.15,4.857-5.33,5.375-5.01.815-6.62-1.607-6.91-3.383a3.65,3.65,0,0,1,2.42-4.421Zm0.1-13.543c-3.23.526-3.25,4-2.95,5.849,0.44,2.689,1.46,5.384,5.54,5.124l-0.54-3.33a1.882,1.882,0,0,1-2.17-1.825c-0.14-.888-0.29-2.281,1.16-2.518a1.155,1.155,0,0,1,1.23,1.04l0.98,3.032c0.68,2.143,2.25,3.558,4.82,3.141a3.733,3.733,0,0,0,3.17-4.619,5.414,5.414,0,0,0-2.59-3.934,5.754,5.754,0,0,0,1.5-.574l-0.61-3.725-0.51.085c-0.08.443-.37,0.845-1.93,1.1Zm5.51,2.573a2.9,2.9,0,0,1,3.09,2.662,1.526,1.526,0,0,1-1.32,1.86c-1.43.233-1.92-.775-2.35-2.022a5.124,5.124,0,0,0-1.1-2.227Zm-14.64-7.9,0.57,3.454,17.71-2.884-0.56-3.453Zm-1.11-6.859,0.56,3.453,17.71-2.883-0.56-3.454Zm12.07-13.286a2.251,2.251,0,0,1,1.79,1.987c0.45,2.788-1.74,3.346-2.71,3.606l-1.46-9-0.62.1c-5.99.976-6.64,4.754-6.22,7.344,0.93,5.748,6.08,5.467,7.66,5.21,5.4-.879,6.71-4,6.11-7.706a5.756,5.756,0,0,0-5.13-5.09Zm-3.18,5.86c-1.76.083-2.93-.611-3.2-2.24-0.18-1.11.24-2.571,2.33-3.114Zm-14.73-28.45,0.56,3.454,6.29-1.024,0.01,0.049a4.27,4.27,0,0,0-1.43,4.132c0.47,2.887,3.11,5.091,7.65,4.352,3.6-.587,6.79-2.777,6.15-6.675a4.223,4.223,0,0,0-2.61-3.474l-0.01-.049,1.65-.269-0.55-3.38Zm12.74,7.37c-2.07.338-4.14-.085-4.49-2.281-0.39-2.368,1.64-3.3,3.73-3.647,1.95-.317,3.92.249,4.27,2.445C1125.7,838.571,1123.38,839.581,1121.82,839.834Zm-0.64-20.436a2.241,2.241,0,0,1,1.79,1.988c0.46,2.787-1.73,3.346-2.7,3.605l-1.47-9-0.61.1c-6,.975-6.65,4.753-6.23,7.344,0.94,5.747,6.08,5.467,7.66,5.21,5.41-.88,6.72-4.006,6.12-7.706a5.767,5.767,0,0,0-5.14-5.09Zm-3.17,5.86c-1.76.084-2.94-.611-3.2-2.239-0.18-1.11.24-2.571,2.33-3.114Zm-12.25-13.153,0.57,3.454,17.71-2.884-0.56-3.453Zm11-17.063,0.01,0.049-12.8,5.984,0.64,3.972,16.74-8.854-0.57-3.528-18.69-3.135,0.62,3.848Zm-10.44-8.434,13.13-2.137-0.57-3.453-13.12,2.136Zm-5.32-2.679,0.56,3.454,3.21-.522-0.56-3.454Zm6.34-16.606c-2.89.469-4.07,2.713-3.65,5.278a4.265,4.265,0,0,0,2.91,3.578l0.01,0.049-1.93.313,0.54,3.306,13.13-2.137-0.57-3.453-7.52,1.225c-2,.325-3.23-0.69-3.48-2.22-0.35-2.2,1.27-2.51,2.23-2.667l7.97-1.3-0.57-3.453Zm-0.07-16.276c-4.74.771-6.39,4.307-5.82,7.835s3.27,6.356,8,5.585,6.39-4.307,5.82-7.834S1112.01,750.276,1107.27,751.047Zm0.58,3.553c1.68-.274,4.07-0.158,4.51,2.507s-1.81,3.535-3.48,3.808-4.08.157-4.51-2.507S1106.17,754.873,1107.85,754.6Zm-10.98-16.857L1096,732.39l-3.13.51,2.34,14.407,3.14-.51-0.87-5.353,14.58-2.374-0.61-3.7Zm0.26-7.616,13.12-2.137-0.56-3.453-13.12,2.136Zm-5.33-2.679,0.57,3.454,3.2-.522-0.56-3.454Zm6.34-16.606c-2.89.469-4.06,2.713-3.65,5.278a4.294,4.294,0,0,0,2.91,3.578l0.01,0.049-1.92.313,0.54,3.306,13.12-2.137-0.56-3.453L1101.06,719c-1.99.325-3.22-.69-3.47-2.22-0.36-2.2,1.26-2.51,2.22-2.667l7.97-1.3-0.56-3.453ZM1089.39,705l0.56,3.454,3.55-.579,0.29,1.776,2.47-.4-0.29-1.776,7.97-1.3c1.7-.277,2.75-1,2.26-3.989l-0.07-.444c-0.09-.543-0.2-1.082-0.31-1.62l-2.62.425a7.281,7.281,0,0,1,.17.708c0.23,1.406-.07,1.479-0.83,1.6l-7.13,1.161-0.35-2.146-2.47.4,0.35,2.147Zm7.35-18.646c-4.74.772-6.39,4.307-5.82,7.835s3.26,6.357,8,5.586,6.39-4.307,5.82-7.835S1101.47,685.578,1096.74,686.349Zm0.57,3.553c1.68-.273,4.08-0.157,4.52,2.507s-1.81,3.535-3.49,3.808-4.07.157-4.51-2.507S1095.64,690.175,1097.31,689.9Z"/>
  <path id="Calle_de_la_Vendimia" data-name="Calle de la Vendimia" class="cls-4" d="M567.434,951.383c-2.583.623-5.885,3.363-5.021,8.667,0.743,4.564,4.483,7.627,10.675,6.619,6.118-1,8.75-4.894,7.983-9.606-0.723-4.44-3.822-6.518-7.791-6.632l0.6,3.7a3.832,3.832,0,0,1,3.969,3.381c0.51,3.133-2.147,4.857-5.329,5.375-5.008.815-6.618-1.607-6.907-3.383a3.65,3.65,0,0,1,2.42-4.421Zm0.1-13.543c-3.232.526-3.249,4-2.948,5.848,0.438,2.689,1.459,5.385,5.544,5.125l-0.542-3.331a1.881,1.881,0,0,1-2.171-1.824c-0.144-.888-0.3-2.282,1.16-2.519a1.16,1.16,0,0,1,1.233,1.041l0.975,3.031c0.678,2.144,2.25,3.559,4.816,3.142a3.731,3.731,0,0,0,3.173-4.619,5.411,5.411,0,0,0-2.59-3.934,5.868,5.868,0,0,0,1.5-.574l-0.607-3.725-0.518.084c-0.079.444-.369,0.845-1.923,1.1Zm5.508,2.573a2.9,2.9,0,0,1,3.093,2.661,1.527,1.527,0,0,1-1.318,1.861c-1.431.233-1.924-.776-2.355-2.022a5.109,5.109,0,0,0-1.1-2.227Zm-14.631-7.9,0.562,3.454,17.712-2.884-0.562-3.454Zm-1.117-6.86,0.562,3.454,17.712-2.884-0.562-3.453Zm12.068-13.285a2.247,2.247,0,0,1,1.793,1.987c0.453,2.787-1.735,3.346-2.7,3.605l-1.466-9-0.617.1c-5.994.976-6.646,4.753-6.224,7.344,0.936,5.748,6.081,5.467,7.66,5.21,5.4-.88,6.717-4.006,6.115-7.706a5.76,5.76,0,0,0-5.134-5.09Zm-3.173,5.859c-1.759.084-2.936-.611-3.2-2.239-0.181-1.11.24-2.571,2.329-3.114Zm-14.736-28.449,0.563,3.453,6.29-1.024,0.008,0.05a4.268,4.268,0,0,0-1.429,4.132c0.47,2.886,3.108,5.09,7.647,4.352,3.6-.587,6.79-2.777,6.156-6.675a4.223,4.223,0,0,0-2.617-3.474l-0.008-.049,1.653-.269-0.55-3.38Zm12.748,7.37c-2.073.337-4.142-.085-4.5-2.281-0.385-2.368,1.64-3.306,3.737-3.647,1.949-.317,3.915.249,4.272,2.444C568.072,895.882,565.755,896.892,564.2,897.145Zm-0.643-20.436a2.248,2.248,0,0,1,1.792,1.987c0.454,2.788-1.734,3.347-2.705,3.606l-1.466-9-0.616.1c-6,.976-6.646,4.754-6.225,7.344,0.936,5.748,6.082,5.468,7.661,5.211,5.4-.88,6.716-4.006,6.114-7.706a5.757,5.757,0,0,0-5.134-5.09Zm-3.174,5.86c-1.759.084-2.936-.611-3.2-2.239-0.18-1.11.24-2.571,2.33-3.114Zm-13.362-20.013,0.562,3.454,17.713-2.884-0.562-3.453Zm5.773-15.249c-3.232.526-3.249,4-2.948,5.849,0.438,2.689,1.459,5.384,5.545,5.124l-0.542-3.331a1.881,1.881,0,0,1-2.171-1.824c-0.145-.888-0.3-2.281,1.16-2.518a1.16,1.16,0,0,1,1.233,1.04l0.974,3.032c0.678,2.143,2.251,3.558,4.817,3.141a3.732,3.732,0,0,0,3.173-4.619,5.412,5.412,0,0,0-2.591-3.934,5.854,5.854,0,0,0,1.5-.574l-0.606-3.725-0.518.085c-0.08.443-.369,0.845-1.923,1.1Zm5.509,2.573a2.9,2.9,0,0,1,3.092,2.662,1.526,1.526,0,0,1-1.318,1.86c-1.431.233-1.924-.775-2.355-2.022a5.1,5.1,0,0,0-1.1-2.227Zm-2.517-18.107,0.008,0.05-12.8,5.984,0.647,3.971,16.74-8.853-0.574-3.528-18.692-3.136,0.626,3.849Zm-2.2-16.333a2.249,2.249,0,0,1,1.793,1.988c0.454,2.787-1.735,3.346-2.7,3.605l-1.466-9-0.617.1c-5.994.975-6.646,4.753-6.224,7.344,0.936,5.747,6.081,5.467,7.66,5.21,5.4-.88,6.717-4.006,6.115-7.706a5.76,5.76,0,0,0-5.134-5.09Zm-3.173,5.86c-1.759.084-2.936-.611-3.2-2.239-0.181-1.11.24-2.571,2.329-3.114Zm-4.965-22.872c-2.886.47-4.065,2.713-3.648,5.279a4.282,4.282,0,0,0,2.912,3.577l0.008,0.05-1.924.313,0.538,3.3,13.124-2.136-0.562-3.454-7.524,1.225c-2,.325-3.227-0.69-3.476-2.219-0.357-2.2,1.263-2.51,2.225-2.667l7.968-1.3-0.562-3.454Zm-11.108-13.794,0.562,3.454,6.291-1.024,0.008,0.049a4.264,4.264,0,0,0-1.429,4.132c0.469,2.887,3.107,5.091,7.646,4.352,3.6-.587,6.791-2.777,6.156-6.675a4.224,4.224,0,0,0-2.616-3.474l-0.008-.049,1.652-.269-0.55-3.38ZM547.084,792c-2.072.338-4.142-.085-4.5-2.281-0.386-2.368,1.639-3.3,3.736-3.647,1.949-.317,3.915.249,4.273,2.445C550.955,790.741,548.638,791.751,547.084,792Zm-8.677-11.3,13.124-2.136-0.563-3.454-13.124,2.137Zm-5.324-2.678,0.562,3.453,3.207-.522L536.29,777.5Zm5.212-23.515c-2.886.47-4.065,2.713-3.648,5.279a4.152,4.152,0,0,0,2.667,3.162,3.8,3.8,0,0,0-1.5,3.992,3.954,3.954,0,0,0,2.876,3.356l0.008,0.049-1.924.313,0.538,3.306,13.124-2.137-0.562-3.453-7.993,1.3c-1.431.233-2.65-.1-2.915-1.729-0.338-2.072,1.217-2.325,2.327-2.506l7.894-1.285-0.562-3.453-7.87,1.281c-1.554.253-2.789-.179-3.07-1.906-0.165-1.012.336-1.979,2.285-2.3l7.968-1.3-0.562-3.454Zm-4.576-2.6,13.124-2.136-0.563-3.454-13.124,2.137Zm-5.324-2.678,0.563,3.454,3.207-.523-0.563-3.453Zm5.946-15.277c-3.232.526-3.249,4-2.948,5.848,0.438,2.689,1.459,5.384,5.544,5.124l-0.542-3.33a1.881,1.881,0,0,1-2.171-1.824c-0.144-.888-0.3-2.282,1.16-2.519a1.16,1.16,0,0,1,1.233,1.04l0.975,3.032c0.678,2.144,2.251,3.559,4.816,3.141a3.73,3.73,0,0,0,3.173-4.619,5.406,5.406,0,0,0-2.59-3.933,5.868,5.868,0,0,0,1.5-.574l-0.606-3.725-0.518.084c-0.08.444-.369,0.845-1.924,1.1Zm5.508,2.572a2.9,2.9,0,0,1,3.093,2.662,1.527,1.527,0,0,1-1.318,1.861c-1.431.233-1.924-.776-2.355-2.022a5.111,5.111,0,0,0-1.1-2.228Z"/> -->
</svg>
