<svg id="Manzana" data-desarrollo="sahara-residencial" xmlns="http://www.w3.org/2000/svg" xmlns:xlink="http://www.w3.org/1999/xlink" width="100%" height="100%" viewBox="0 0 3300 5100">
  <defs>
    <style>
      @import url(./css/mapas.css);
    </style>
    <filter id="filter" filterUnits="userSpaceOnUse">
      <!-- <feFlood result="flood" flood-color="#de9f27"/> -->
      <feComposite result="composite" operator="in" in2="SourceGraphic"/>
      <feBlend result="blend" in2="SourceGraphic"/>
    </filter>
  </defs>
  <g class="cls-1">
  <path data-manzana="M1" id="M1-2" data-name="M1" class="cls-2" d="M1739,2083l-84,40-374,313-130,108-105,88-75,63L848,2798,667,2948l-67,13,96,155,325-203,325-204,37-23,34-22,35-22,35-21s21.07-15.38,30-23,29-27,29-27l28-32s19-25.78,24-35,22-43,22-43,17-38.58,20-53,31-83,31-83l18-52s16.8-56.38,21-75,13-52,13-52Z"/>
  <path id="M2-2" data-name="M2" class="cls-2" d="M599,2961l-88,14,21,63s21.219,6.72,31,28c15.78,29.61-1,56-1,56s11.219,34.72,13,37c11.78,13.95,26,7,26,7l90-57"/>
  <path data-manzana="M3" id="M3-2" data-name="M3" class="cls-2" d="M532,3038l-21-63-140,23-78,92,60,174,51,150,18,50,13,51,21,103,14,68s23.44,0.05,33,6,12.09,11.05,29,17,49.248-2.8,54-3,54-10,54-10l-23-111-11-52-11-52s-13.354-55.6-19-71-17-50-17-50l-16-50-17-49-17-49-17-51s-3.087-13.24-8-16-19.183-8.26-28-28-1.212-45.65,1-51,16.293-30.71,45-32C525.9,3032.93,532,3038,532,3038Z"/>
  <path id="AREA_VERDE" data-name="AREA VERDE" class="cls-2" d="M293,3089l-75,88,114,332,71,342,26,198,25,182,3,33,68,115,48,6-72-541s18.8-4.89,40-34c6.012-9.81,22.891-19.4,30-21s85-17,85-17l-16-77s-82.377,15.44-84,15-23.839,3.75-42-11-41.677-11.88-44-13-36-171-36-171l-12-51-69-200Z"/>
  <path id="AMENIDADES" data-name ="AMENIDADES" class="cls-2" d="M538,3736l7,36s-16.16,9.17-26,24-18.619,21.68-36,27-36.377-3.83-42-7-26.454-19.32-27-43,11-39,11-39,14.431-18.99,38-21,26.081,3.91,31,5c4.19,2.91,13,8,13,8a180.579,180.579,0,0,0,17,7A97.03,97.03,0,0,0,538,3736Z"/>
  <path data-manzana="M6" id="M6-2" data-name="M6" class="cls-2" d="M656,3772s-84.1,16.07-89,18-21.464,11.11-25,20-26.657,31.51-41,34c-0.462.08,9,63,9,63l41,315,22,163,266,36,37,44,345,43s-56.21-4.47-53-64a63.783,63.783,0,0,1,8-27s4.24-8.9-7-42c-2.82-8.32-30.51-9.38-44-11-14.57-1.74-97-14-97-14l-45-12-44-18s-28.093-17.91-45-23-44-7-44-7l-47-6s-33.6-6.95-41-13-16.65-11-30-28-17-42-17-42l-7-53-14-104-13-106-8-51S659,3776.99,656,3772Z"/>
  <path data-manzana="M7" id="M7-2" data-name="M7" class="cls-2" d="M907,3100l12,60,28,136,20,96,27,129,17,81s0.15,11.17-4,15c-4.37,4.03-3.45,5.72-13,8-13.8,3.29-57,10-57,10l-72,15-120,23a25.014,25.014,0,0,1-21,0c-11.571-5.15-10.429-13.13-11-14s-6-33-6-33l-19-88-30-136-30-88-15-42s-4-11.28,1-19,25.857-18.7,31-22,117-73,117-73l95-60s22.143-14.42,25-15S901.714,3078.86,907,3100Z"/>
  <path data-manzana="M8" id="M8-2" data-name="M8" class="cls-2" d="M987,3016l199-124s24.33-9.52,29,11,31,144,31,144l28,137,21,105,26,121,25,120s5.94,23.71-17,28-208,42-208,42-22.66,6.33-28-4c-3.69-7.14-6.82-10.91-12-43-1.13-6.99-20-97-20-97l-27-133-30-145-25-122S966.828,3024.35,987,3016Z"/>
  <path data-manzana="M9" id="M9-2" data-name="M9" class="cls-2" d="M1535,2755l37,181,38,180,28,137,28,136,15,70s6.25,21.91-6,28-64,15-64,15l-60,12s-94.6,22.63-108,20-14.97-4.08-19-14-16-78-16-78l-28-135-28-137-37-180-31-146s-4.47-11.77,11-21,198-125,198-125,21.77-13.13,31,7C1525.69,2708.69,1535,2755,1535,2755Z"/>
  <path data-manzana="M10" id="M10-2" data-name="M10" class="cls-2" d="M1784,2363l58,284,47,227,37,181,29,136,18,90,19,90,11,54-210,42s-27.56,8.04-33-15-16-78-16-78l-37-178-28-136-28-136-37-178-20-94s-9.57-21.64,3-35,35.83-36.45,55-68,41.3-85.05,50-111c5.36-16,29.86-87.32,41-94C1748.43,2340.74,1775.89,2334.36,1784,2363Z"/>
  <path data-manzana="M11" id="M11-2" data-name="M11" class="cls-2" d="M1918,3563l95-19s13.24-2.96,18,1,20,14,20,14,3.87,13.24,8,38,37.81,185.5,38,182,28,139,28,139l28,132,47,226,37,180,29,143,9,39-341-41s52.09,4.3,65-34-5-57-5-57l-18-19s-2.41-4.02-8-28-73-357-73-357l-38-181-46-224-12-54s-11.4-44.46-2-53c7.69-6.98,24.34-8.47,27-9C1849.91,3575.82,1918,3563,1918,3563Z"/>
  <path data-manzana="M12" id="M12-2" data-name="M12" class="cls-2" d="M1582,3629l99-20s29.52-10.75,35,19,24,117,24,117l37,181,37,180,29,136,28,135,24,112s1.85,13.52,0,15c-1.11,2.4-10.52,20.18-10,34,0.81,21.61,9.25,50.12,52,59s-364-45-364-45,47.1,10.72,66-33c13.08-30.25.92-49.49-2-55s-20-22-20-22-3.37-1.49-6-18-45-221-45-221l-37-180-37-181-33-156s-6.22-17.74,2-29c5.18-7.1,23.42-9.93,32-11C1500.01,3645.13,1582,3629,1582,3629Z"/>
  <path data-manzana="M13" id="M13-2" data-name="M13" class="cls-2" d="M1246,3695l105-21s24.91-5.37,28,16,34,166,34,166l38,185,37,177,43,213,5,23s1.02,7.59-5,16-10.42,46.01,12,65,37,18,37,18l-360-45s44.9,3.47,60-33c13.01-31.42-1.82-56.68-5-60s-18-18-18-18-0.27,3.99-9-40c-8.95-45.11-37-178-37-178l-43-210-47-222s-5.86-26.87,14-31C1153.1,3712.24,1246,3695,1246,3695Z"/>
  <path data-manzana="M14" id="M14-2" data-name="M14" class="cls-2" d="M890,3766l118-24s21.38-4.7,26,1,7.07,2.03,16,48,10,49,10,49l10,51,17,80,19,90,22,108,11,53s8.43,30.22,8,42-4.74,14.85-11,18-12.25,1.39-16,1-67.68-5.95-107-20-65-28-65-28-26.605-17.47-70-22-51-6-51-6-20.808-2.83-27-6-7.422-9.81-8-18-13-103-13-103l-15-117-15-112s-5.635-36.6-5-42c0.476-6.35,7.217-14.91,17-18S890,3766,890,3766Z"/>
  <path id="M15-2" data-name="M15" class="cls-2" d="M2146,1824s166.86,226.64,327,450c95.06,132.59,176.88,269.69,233,384,33.78,68.81,53.02,126.54,75,178,133.82,313.27,163.68,707.71,192,1168,18.22,296.16,53.37,557.94,58,726,0.06,2.35-674-85-674-85L2136,3578s-7.5-15.3,8-26,53.7-37.7,46-103c-6.29-53.31-64-75-64-75s-12.5.7-16-22-260-1255-260-1255l22-60s6.5-18.8,32-36S2146,1824,2146,1824Z"/>
  <path id="M16-2" data-name="M16" class="cls-2" d="M1501,140s63.45,328.6,82,433c10.66,60.012,32.31,173.245,51,269,14.37,73.619,33.06,123.207,39,149,13.19,57.24,48.52,157.79,100,267,14.98,31.78,30.24,62.81,48,93,27.48,46.7,52.81,98.77,100,164,77.64,107.33,155,213,155,213s-75.17,54.87-149,109c-63.88,46.83-126.51,93.31-136,105-26.65,32.84-51.63,110.68-64,147-0.33.98-72,35-72,35l-69-412-115-683-51-303Z"/>
  <circle id="M17-2" data-name="M17" class="cls-2" cx="2092.44" cy="3467.44" r="39.56"/>
  <path id="M18-2" data-name="M18" class="cls-2" d="M1455,3598l80-15s1.62,0.09,6-2,71-27,71-27l113-22,103-20,71-15,92-18s4.56-.64,5,1-2.22,2.53-6,3-53,10-53,10l-27,6-75,28-76,15-85,17-82,16-83,16-53,11s-5.63,2.09-6-1C1449.7,3598.48,1455,3598,1455,3598Z"/>
  <path id="M19-2" data-name="M19" class="cls-2" d="M749,3738l75-15,77-28,200-40,106-21,70-14,71-13s3.26-.63,2,2-20,5-20,5l-58,11s-70.03,26.82-82,30c-20.88,5.55-174,33-174,33l-134,27-92,18-40,8-8,2s-5.861-1.09,0-4C742.845,3738.58,749,3738,749,3738Z"/>
  </g>
  <circle class="cls-4" cx="1154.875" cy="2686.875" r="40"/>
  <text id="_1" data-name="1" class="cls-5" transform="translate(1155.429 2703.607) scale(1.99)"><tspan x="-5">1</tspan></text>
  <circle id="Ellipse" class="cls-4" cx="588.875" cy="3026.875" r="35"/>
  <text id="_2" data-name="2" class="cls-5" transform="translate(589.429 3041.604) scale(1.99)"><tspan x="-5">2</tspan></text>
  <circle id="Ellipse-2" data-name="Ellipse" class="cls-4" cx="489.875" cy="3381.875" r="40"/>
  <text id="_3" data-name="3" class="cls-5" transform="translate(490.429 3396.605) scale(1.99)"><tspan x="-5">3</tspan></text>
  <circle id="Ellipse-5" data-name="Ellipse" class="cls-4" cx="648.875" cy="4298.875" r="40"/>
  <text id="_6" data-name="6" class="cls-5" transform="translate(649.43 4313.605) scale(1.99)"><tspan x="-5">6</tspan></text>
  <circle id="Ellipse-6" data-name="Ellipse" class="cls-4" cx="803.875" cy="3368.875" r="40"/>
  <text id="_7" data-name="7" class="cls-5" transform="translate(804.428 3383.605) scale(1.99)"><tspan x="-5">7</tspan></text>
  <circle id="Ellipse-7" data-name="Ellipse" class="cls-4" cx="1164.875" cy="3297.875" r="40"/>
  <text id="_8" data-name="8" class="cls-5" transform="translate(1165.428 3312.603) scale(1.99)"><tspan x="-5">8</tspan></text>
  <circle id="Ellipse-8" data-name="Ellipse" class="cls-4" cx="1480.875" cy="3140.875" r="40"/>
  <text id="_9" data-name="9" class="cls-5" transform="translate(1481.429 3155.605) scale(1.99)"><tspan x="-5">9</tspan></text>
  <circle id="Ellipse-9" data-name="Ellipse" class="cls-4" cx="1793.875" cy="2987.875" r="40"/>
  <text id="_10" data-name="10" class="cls-5" transform="translate(1795.428 3000.605) scale(1.99)"><tspan x="-14">10</tspan></text>
  <circle id="Ellipse_" data-name="Ellipse " class="cls-4" cx="2012.875" cy="4028.875" r="40"/>
  <text id="_11" data-name="11" class="cls-7" transform="translate(2014.429 4042.607) scale(1.99)"><tspan x="-14">11</tspan></text>
  <circle id="Ellipse_copy-2" data-name="Ellipse  copy" class="cls-4" cx="1661.875" cy="4040.875" r="40"/>
  <text id="_12" data-name="12" class="cls-7" transform="translate(1662.428 4054.607) scale(1.99)"><tspan x="-15">12</tspan></text>
  <circle id="Ellipse-10" data-name="Ellipse" class="cls-4" cx="1317.875" cy="4062.875" r="40"/>
  <text id="_13" data-name="13" class="cls-7" transform="translate(1318.429 4076.603) scale(1.99)"><tspan x="-15">13</tspan></text>
  <circle id="Ellipse-11" data-name="Ellipse" class="cls-4" cx="926" cy="3958" r="40"/>
  <text id="_14" data-name="14" class="cls-7" transform="translate(926.429 3972.604) scale(1.99)"><tspan x="-15">14</tspan></text>
  <circle id="Ellipse-12" data-name="Ellipse" class="cls-4" cx="2551" cy="3532" r="40"/>
  <text id="_15" data-name="15" class="cls-7" transform="translate(2551.428 3546.606) scale(1.99)"><tspan x="-13">15</tspan></text>
  <circle id="Ellipse-13" data-name="Ellipse" class="cls-4" cx="1756" cy="1605" r="40"/>
  <text id="_16" data-name="16" class="cls-7" transform="translate(1756.428 1619.607) scale(1.99)"><tspan x="-14">16</tspan></text>
</svg>
