<svg id="Manzana 7" data-desarrollo="costa-dorada" data-name="Manzana 7" xmlns="http://www.w3.org/2000/svg" xmlns:xlink="http://www.w3.org/1999/xlink" width="1890" height="1417" viewBox="0 0 2500 2027">
  <defs>
    <style>
    @import url(./css/mapas.css);
    </style>
    <filter id="filter" filterUnits="userSpaceOnUse">
      <feComposite result="composite" operator="in" in2="SourceGraphic"/>
      <feBlend result="blend" in2="SourceGraphic"/>
    </filter>
  </defs>
<g class="cls-1" id="map" pointer-events="all">
<path id="M7-L1" class="cls-2" d="M588.076,89.859l6.784,13.378L569,116.354l-9.5-18.729,18.289-8.154L582.7,88.1l4.032,1.319Z"/>
    <path id="M7-L2" class="cls-2" d="M594.86,103.237l4.975,9.811-25.864,13.117L569,116.354Z"/>
    <path id="M7-L3" class="cls-2" d="M599.835,113.048l4.975,9.811-25.864,13.116-4.975-9.81Z"/>
    <path id="M7-L4" class="cls-2" d="M604.81,122.859l4.523,8.918-25.864,13.117-4.523-8.919Z"/>
    <path id="M7-L5" class="cls-2" d="M609.333,131.777l4.976,9.811L588.444,154.7l-4.975-9.81Z"/>
    <path id="M7-L6" class="cls-2" d="M614.309,141.588l4.975,9.81L593.42,164.515l-4.976-9.811Z"/>
    <path id="M7-L7" class="cls-2" d="M619.284,151.4l4.975,9.811L598.4,174.325l-4.975-9.81Z"/>
    <path id="M7-L8" class="cls-2" d="M624.259,161.209l4.523,8.919-25.864,13.116-4.523-8.919Z"/>
    <path id="M7-L9" class="cls-2" d="M628.782,170.128l4.975,9.81-25.864,13.117-4.975-9.811Z"/>
    <path id="M7-L10" class="cls-2" d="M633.757,179.938l4.975,9.811-25.864,13.116-4.975-9.81Z"/>
    <path id="M7-L11" class="cls-2" d="M638.732,189.749l4.976,9.81-25.865,13.117-4.975-9.811Z"/>
    <path id="M7-L12" class="cls-2" d="M643.708,199.559l4.523,8.919L622.366,221.6l-4.523-8.919Z"/>
    <path id="M7-L13" class="cls-2" d="M648.231,208.478l4.522,8.919-25.864,13.116-4.523-8.918Z"/>
    <path id="M7-L14" class="cls-2" d="M652.753,217.4l4.976,9.81-25.865,13.117-4.975-9.811Z"/>
    <path id="M7-L15" class="cls-2" d="M657.729,227.207l4.975,9.811L636.84,250.134l-4.976-9.81Z"/>
    <path id="M7-L16" class="cls-2" d="M662.7,237.018l4.975,9.811-25.864,13.116-4.975-9.811Z"/>
    <path id="M7-L17" class="cls-2" d="M667.679,246.829l4.523,8.918-25.864,13.117-4.523-8.919Z"/>
    <path id="M7-L18" class="cls-2" d="M672.2,255.747l4.975,9.811-25.864,13.116-4.975-9.81Z"/>
    <path id="M7-L19" class="cls-2" d="M677.177,265.558l4.976,9.81-25.865,13.117-4.975-9.811Z"/>
    <path id="M7-L20" class="cls-2" d="M682.153,275.368l4.975,9.811L661.263,298.3l-4.975-9.81Z"/>
    <path id="M7-L21" class="cls-2" d="M687.128,285.179l4.975,9.81-25.864,13.117-4.976-9.811Z"/>
    <path id="M7-L22" class="cls-2" d="M692.1,294.989l4.07,8.027-0.879,2.689-0.439,1.344-23.189,11.759-5.427-10.7Z"/>
    <path id="M7-L23" class="cls-2" d="M671.666,318.808l-24.972,12.665-1.344-.44-1.345-.44-1.344-.439-4.07-8.027,27.648-14.021Z"/>
    <path id="M7-L24" class="cls-2" d="M666.239,308.106l-4.976-9.811L633.59,312.329l4.975,9.811Z"/>
    <path id="M7-L25" class="cls-2" d="M661.263,298.3l-4.975-9.81-27.673,14.034,4.975,9.81Z"/>
    <path id="M7-L26" class="cls-2" d="M656.288,288.485l-4.975-9.811L623.64,292.708l4.975,9.811Z"/>
    <path id="M7-L27" class="cls-2" d="M651.313,278.674l-4.975-9.81L618.664,282.9l4.976,9.81Z"/>
    <path id="M7-L28" class="cls-2" d="M646.338,268.864l-4.523-8.919-27.674,14.034,4.523,8.919Z"/>
    <path id="M7-L29" class="cls-2" d="M641.815,259.945l-4.975-9.811-27.674,14.034,4.975,9.811Z"/>
    <path id="M7-L30" class="cls-2" d="M636.84,250.134l-4.976-9.81-27.673,14.034,4.975,9.81Z"/>
    <path id="M7-L31" class="cls-2" d="M631.864,240.324l-4.975-9.811-27.673,14.034,4.975,9.811Z"/>
    <path id="M7-L32" class="cls-2" d="M626.889,230.513l-4.523-8.918-27.673,14.034,4.523,8.918Z"/>
    <path id="M7-L33" class="cls-2" d="M622.366,221.6l-4.523-8.919L590.17,226.71l4.523,8.919Z"/>
    <path id="M7-L34" class="cls-2" d="M617.843,212.676l-4.975-9.811L585.2,216.9l4.975,9.811Z"/>
    <path id="M7-L35" class="cls-2" d="M612.868,202.865l-4.975-9.81-27.674,14.034,4.976,9.81Z"/>
    <path id="M7-L36" class="cls-2" d="M607.893,193.055l-4.975-9.811-27.674,14.034,4.975,9.811Z"/>
    <path id="M7-L37" class="cls-2" d="M602.918,183.244l-4.523-8.919L570.721,188.36l4.523,8.918Z"/>
    <path id="M7-L38" class="cls-2" d="M598.4,174.325l-4.975-9.81-27.674,14.034,4.975,9.811Z"/>
    <path id="M7-L39" class="cls-2" d="M593.42,164.515l-4.976-9.811-27.673,14.034,4.975,9.811Z"/>
    <path id="M7-L40" class="cls-2" d="M588.444,154.7l-4.975-9.81L555.8,158.928l4.975,9.81Z"/>
    <path id="M7-L41" class="cls-2" d="M583.469,144.894l-4.523-8.919-27.673,14.034,4.523,8.919Z"/>
    <path id="M7-L42" class="cls-2" d="M578.946,135.975l-4.975-9.81L546.3,140.2l4.976,9.81Z"/>
    <path id="M7-L43" class="cls-2" d="M573.971,126.165L569,116.354l-27.674,14.034L546.3,140.2Z"/>
    <path id="M7-L44" class="cls-2" d="M569,116.354l-9.5-18.729-15.175,5.453-0.892.452-9.81,4.975-1.345,4.046,9.046,17.837Z"/>
    <path id="M7-L45" class="cls-2" d="M564,107l-5-9-7,2-8,3-4,2-4,2-3,2-1,3,4,8,1,1,4-3,5-3Z"/>
  </g>
  <g class="cls-1">
    <path data-manzana="M4" id="M4-2" data-name="M4" class="cls-2" d="M363.172,177.005L481.22,409.783l-1.758,5.376L431.3,439.583l-3.58-.427L304.7,196.568l29-11.346,29.018-9.109Z"/>
    <path data-manzana="M5" id="M5-2" data-name="M5" class="cls-2" d="M436.808,149.753l109,214.94-7.486,20.615-37.458,19-3.141-1.771-118.5-233.67,28.566-10,28.565-10Z"/>
    <path data-manzana="M6" id="M6-2" data-name="M6" class="cls-2" d="M513.108,118.908L625.276,340.092,624.4,342.78l-39.242,19.9-4.033-1.319-1.344-.44-1.344-.439-5.377-1.759-7.16-.853L455.085,139.363l12.487-6.332,15.613-6.8,6.7-2.275,8.479-3.178,9.371-3.632Z"/>
    <path data-manzana="M8" id="M8-2" data-name="M8" class="cls-2" d="M665.279,60.8l104.028,205.13-1.319,4.033-48.161,24.424-2.236.012-2.231.011L609.071,84.818l0.874-2.686,2.676-1.357L635.37,70.36l24.081-12.212,5.376,1.758Z"/>
    <path data-manzana="M9" id="M9-2" data-name="M9" class="cls-2" d="M740.248,31.75l99.956,197.1,0.013,2.236a1.65,1.65,0,0,1-.44,1.344c-0.533.362-49.053,24.876-49.053,24.876l-1.344-.439-1.8-1.332L685.366,53.976l0.439-1.344L733.074,28.66l6.721,2.2Z"/>
    <path data-manzana="M10" id="M10-2" data-name="M10" class="cls-2" d="M794.225,7.74l99.956,197.1,0.013,2.236-29.432,14.926-2.236.013-1.344-.44-2.688-.879-0.453-.892L760.8,28.055l-0.013-2.236-0.013-2.236-0.013-2.236,7.135-3.618,23.189-11.76,1.344,0.44Z"/>
    <path data-manzana="M12" id="M12-2" data-name="M12" class="cls-2" d="M230,587l3,1,17,32,8,15,8,16,8,16,6,13,7,13,9,19,8,18,11,22,9,19,10,20,10,20,6,13v4l-2,4-47,24-43,21-12,6-4-2-3-5-8-34-5-27-7-29-8-32-8-28-10-24-10-23-8-15-10-17-7-13-3-6,38-22,27-14Z"/>
    <path data-manzana="M13" id="M13-2" data-name="M13" class="cls-2" d="M298,537l2,1,6,10,7,11,6,13,8,17,8,15,8,16,7,12,4,8-1,5-21,11-15,8-10,4-3-2-9-14-5-11-8-16-6-11-6-13-7-13-8-17-3-7,2-4,27-14Z"/>
    <path data-manzana="M14" id="M14-2" class="cls-2" d="M369,501l2,1,6,10,7,11,6,13,8,17,8,15,8,16,7,12,4,8-1,5-21,11-15,8-10,4-3-2-9-14-5-11-8-16-6-11-6-13-7-13-8-17-3-7,2-4,27-14Z"/>
    <path data-manzana="M15" id="M15-2" data-name="M15" class="cls-2" d="M440,466l2,1,6,10,7,11,6,13,8,17,8,15,8,16,7,12,4,8-1,5-21,11-15,8-10,4-3-2-9-14-5-11-8-16-6-11-6-13-7-13-8-17-3-7,2-4,27-14Z"/>
    <path data-manzana="M16" id="M16-2" data-name="M16" class="cls-2" d="M522.513,435.934L570,529.58l-1.319,4.033-47.269,23.971-4.032-1.318-47.943-94.539,1.318-4.032,47.269-23.972,4.033,1.319Z"/>
    <path data-manzana="M17" id="M17-2" data-name="M17" class="cls-2" d="M576.076,417.741L619.5,503.36l-2.21,4.485-24.081,12.212-3.58-.427-49.3-97.214,2.663-3.593,14.27-7.237,18.366,5.263Z"/>
    <path data-manzana="M18" id="M18-2" data-name="M18" class="cls-2" d="M643.342,371.294l48.4,95.43-1.319,4.033-48.161,24.424-3.58-.427-44.325-87.4,5.715-17.474,38.35-19.448Z"/>
    <path data-manzana="M19" id="M19-2" data-name="M19" class="cls-2" d="M716.476,334.206l47.943,94.538-5.326,7.186L714.5,458.545l-5.83-2.65-47.943-94.538,2.651-5.829,47.269-23.972,5.377,1.758Z"/>
    <path data-manzana="M20" id="M20-2" data-name="M20" class="cls-2" d="M787.825,298.023l47.491,93.646-2.65,5.829-46.377,23.519-4.925-.866-0.452-.892-48.395-95.43,1.758-5.377,47.269-23.971,5.829,2.65Z"/>
    <path data-manzana="M21" id="M21-2" data-name="M21" class="cls-2" d="M858.723,260.948l47.943,94.538-2.211,4.485-47.269,23.971-4.925-.866-48.395-95.43,0.867-4.925L852.894,258.3Z"/>
    <path data-manzana="M22" id="M22-2" data-name="M22" class="cls-2" d="M905.539,236.084L1088.27,596.4l60.56,33.2,35.28,69.566-2.2,6.72-4.46,2.262-17.86,4.574-16.96,6.357-25.55-10.588-233.837-461.1L885,242.015l16.946-8.594,3.14,1.771Z"/>
    <path data-manzana="M23" id="M23-2" data-name="M23" class="cls-2" d="M920.222,380.006l60.155,118.619-1.319,4.032L930.9,527.081l-4.033-1.319-60.607-119.51-0.025-4.472,48.161-24.424,5.376,1.758Z"/>
    <path data-manzana="M24" id="M24-2" data-name="M24" class="cls-2" d="M848.872,416.189l61.06,120.4-1.759,5.376L886.341,556.4l-22.283,13.544-5.377-1.758L795.36,443.327l0.414-5.816,47.269-23.972,5.377,1.758Z"/>
    <path data-manzana="M25" id="M25-2" data-name="M25" class="cls-2" d="M777.988,455.5l66.034,130.212-20.436,23.819-20.023,18-6.721-2.2L723.118,479.962l1.759-5.376,46.377-23.519,6.281,3.542Z"/>
    <path data-manzana="M26" id="M26-2" data-name="M26" class="cls-2" d="M706.638,491.684l78.7,155.185-9.32,12.575L764.448,669.8l-20.01,20.239-5.377-1.758-86.84-171.239-0.025-4.472,48.161-24.424,5.829,2.65Z"/>
    <path data-manzana="M27" id="M27-2" data-name="M27" class="cls-2" d="M635.728,526.523L728,708.465,707.145,738.1l-4.033-1.319L604.06,541.462l2.211-4.485,24.972-12.664,4.033,1.318Z"/>
    <path data-manzana="M28" id="M28-2" data-name="M28" class="cls-2" d="M586.248,554.979l59.7,117.727-1.319,4.033-48.161,24.423-4.032-1.318L531.832,580.333l1.318-4.032,47.269-23.972,5.377,1.759Z"/>
    <path data-manzana="M29" id="M29-2" data-name="M29" class="cls-2" d="M514.446,590.271L574.149,708l-0.414,5.816-47.269,23.971-5.377-1.758-60.607-119.51,1.319-4.033,48.161-24.424,4.032,1.319Z"/>
    <path data-manzana="M30" id="M30-2" data-name="M30" class="cls-2" d="M445.346,628.678l59.7,117.726-2.65,5.829-46.377,23.52-4.033-1.319L391.381,654.923l1.319-4.032,48.161-24.424,4.032,1.319Z"/>
    <path data-manzana="M31" id="M31-2" data-name="M31" class="cls-2" d="M372.212,665.766l59.7,117.727-1.759,5.376-46.377,23.519L378.4,810.63,318.248,692.011l0.866-4.924,47.269-23.971,5.377,1.758Z"/>
    <path id="M32-2" data-name="M32" class="cls-2" d="M305.447,879.022l71.915,141.808-49,33.82-6.772-11.14-7.676-12.93L292.667,990.9l-5.893-13.83-6.809-17.85-8.18-22.762L264.937,911.9l-3.217-15.187,39.243-19.9L305,878.13Z"/>
    <path class="cls-2" d="M275,946l51-25,38,72,13,27-1,2-47,32-29-50-5-8-8-20Z"/>
    <path class="cls-2" d="M326,921l-51,25-11-42-1-7,3-2,35-18,3,1Z"/>
    <path data-manzana="M33" id="M33-2" data-name="M33" class="cls-2" d="M374.561,842.852l67.844,133.78L417.91,994.66l-0.892.453L392.511,1010.9,320.6,869.1l1.318-4.032,47.269-23.971,4.925,0.866Z"/>
    <path data-manzana="M34" id="M34-2" data-name="M34" class="cls-2" d="M445.019,807.121L507.887,931.09l-22.711,17.124-1.783.9-24.508,15.792L391.494,832.022l1.318-4.032,48.161-24.424,3.593,2.663Z"/>
    <path data-manzana="M35" id="M35-2" data-name="M35" class="cls-2" d="M515.89,765.573l-56.187,28.5,67.391,132.888,27.17-19.385-0.452-.892L567.19,899.9l0.892-.452,8.568,12.473,7.2,7.562,17.436-.994,8.944-.05,20.952-11.747,13.353-11.257,37.37-34.648,12.435-15.276,17.321-21.118,19.068-28.731,17.748-24.7L767.1,743.573l16.43-20.666,5.791-4.058,22.22-24.723-11.759-23.189-2.236.013-4.46,2.261-19.557,21.131-15.563,15.741L743.762,728.5l-19.079,26.494-19.08,26.5-19.972,26.947-19.972,26.947-19.57,18.894-13.353,11.257-21.379,15.327-13.818,8.128-15.7-8.855-8.09-7.109L519.923,766.892Z"/>
    <path data-manzana="M36" id="M36-2" data-name="M36" class="cls-2" d="M588.6,732.065l49.3,97.214-23.138,20.7L595.616,865.3l-3.568,1.81-3.141-1.771L535.537,760.1l0.867-4.924,48.161-24.424,3.58,0.427Z"/>
    <path data-manzana="M37" id="M37-2" data-name="M37" class="cls-2" d="M658.15,694.551l32.565,64.214L671.648,787.5l-15.965,23.793-3.567,1.81-3.141-1.772-45.229-89.186,1.319-4.033,49.944-25.328,2.689,0.879Z"/>
    <path data-manzana="M41" id="M41-2" data-name="M41" class="cls-2" d="M860.267,611.113l105.384,207.8L963,824.747,941.6,835.6l-24.055,16.684-4.033-1.318L812.647,652.081l21.768-25.616,18.226-19.334,0.892-.452,6.281,3.542Z"/>
    <path data-manzana="M42" id="M42-2" data-name="M42" class="cls-2" d="M923.94,562l108.1,213.157-2.21,4.484-31.218,15.83-6.231,5.4-10.25,6.32-2.7-.875L869.527,589.6l1.315-6.273L919,558.9l4.485,2.211Z"/>
    <path data-manzana="M43" id="M43-2" data-name="M43" class="cls-2" d="M992.576,520.469L1093.44,719.356l-4.8,21.494-12.47,8.568-24.07,14.448-4.03-1.319L940.42,550.282l-0.93-6.256,49.053-24.876,3.58,0.427Z"/>
    <path data-manzana="M45" id="M45-2" data-name="M45" class="cls-2" d="M1184.27,648.626l23.06,45.485,294.96,119.52,7.68,15.162,0.93,6.255-0.93,71.114,4.56,15.627,6.33,12.486,17.04,7.058,39.38,4.7,39.38,4.7,17.45,1.243-11.36-31.241-79.22-10.283-2.68-.879-0.48-5.364,0.69-36.229-0.14-24.6,0.28-28.177,0.81-16.1-13.46-6.632-30.93-12.346-28.24-11.467-32.27-12.786-40.79-16.316-34.07-14.117-42.13-16.755-47.97-19.4-47.96-19.4-27.36-14.155Z"/>
    <path id="M46-2" data-name="M46" class="cls-2" d="M1540.86,798.961l0.44,111,75.95,9.383-32.49-100.165-1.99-3.01Z"/>
    <path id="M47-2" data-name="M47" class="cls-2" d="M1345.9,790.528L1400.37,895.8s14.15,28.084,15.85,29.08a27.811,27.811,0,0,1,2.99,2.015l3.01-.985,8.02-4.959s63.07-34.217,64.19-37.678,1.05-9.994,1.05-9.994,0.6-32.067-.83-33-3.98-3.02-3.98-3.02l-20.96-9.106-65.86-27.332-31.93-15.161s-13.45-5.982-16.97-6.085-6.99-.036-6.99-0.036l-2.02,2.99-2.02,2.99Z"/>
    <path data-manzana="M48" id="M48-2" data-name="M48" class="cls-2" d="M1306.99,760.18L1394.74,933.2l-3.54,6.281-45.49,23.067-4.92-.866-113.53-223.86,3.09-7.173,3.57-1.809,72.62,30.445Z"/>
    <path data-manzana="M49" id="M49-2" data-name="M49" class="cls-2" d="M1199.89,721.434l127.09,250.615-1.32,4.033-39.24,19.9-18.82-6.154-122.12-240.8,4.84-14.786,8.48-3.179,11.15-4.535,20.98-7.275,8.05,0.4Z"/>
    <path data-manzana="M50" id="M50-2" data-name="M50" class="cls-2" d="M1122.8,770.619l119.4,235.451-3.54,6.28-1.29,8.51-0.86,7.16-0.44,1.34-41.91,21.26L1062.09,790.2l0.85-7.16,41.03-20.806,18.38,7.5Z"/>
    <path data-manzana="M51" id="M51-2" data-name="M51" class="cls-2" d="M1049.17,800.107l130.72,257.753-1.33,1.79-53.52,27.14L996.14,832.609l2.65-5.829,24.07-14.448,23.17-14,2.69,0.88A0.888,0.888,0,0,1,1049.17,800.107Z"/>
    <path data-manzana="M52" id="M52-2" data-name="M52" class="cls-2" d="M979.646,842.094l128.9,254.186-2.22,2.25-53.52,27.13L925.72,875.048l3.1-4.937,23.616-15.34,25.412-14.008Z"/>
    <path data-manzana="M53" id="M53-2" data-name="M53" class="cls-2" d="M812,695.018L1039.05,1142.74l-27.65,14.02L789.776,719.741l18.214-21.57,2.663-3.593Z"/>
    <path data-manzana="M60" id="M60-2" data-name="M60" class="cls-2" d="M1205.03,1077.07l15.31,25.43,12.32,25.35,11.34,24.31,13.18,30.37,15.17,30.43,14.21,29.4,14.2,29.39,7.56,16.22-1.11,3.97-22.29,10.39-1.97-1.05-1.97-1.05-14.23-28.4-10.37-23.29-13.29-26.38-17.04-35.47-13.2-29.37-17.96-38.51-13.21-29.37,1.09-2.97Z"/>
    <path data-manzana="M61" id="M61-2" data-name="M61" class="cls-2" d="M1265.19,1066.69l94.55,199.76-1.43,3.99-21.7,10.27-4.42-2.33-99.25-209.7,1.42-3.99,13.56-6.42,16.84,7.52Z"/>
    <path data-manzana="M64" id="M64-2" data-name="M64" class="cls-2" d="M1340.12,1014.63l100.53,212.41-2.8,5.75-46.1,21.82-5.33-1.9-94.97-200.66,2.38-6.66,1.9-5.32,0.1-4.47,0.09-4.48,38.87-18.39,4.9,1Z"/>
    <path data-manzana="M65" id="M65-2" data-name="M65" class="cls-2" d="M1357,1001l50-25,2,1,34,69,28,57,20,44,21,44-1,5-45,24-7-1-32-68-25-52-26-55Z"/>
    <path data-manzana="M66" id="M66-2" data-name="M66" class="cls-2" d="M1428,962l60-27,24,53,22,48,29,59,24,51,3,6v3l-2,4-51,25-5-2-32-67-24-51-30-62-18-37v-3Z"/>
    <path data-manzana="M67" id="M67-2" data-name="M67" class="cls-2" d="M1543.84,991.24l-4.12,3.869-0.1,3,4.74,8.153,52.52,108.76s14.17,29.69,16.02,30.53,5,0.16,5,.16l5.09-2.84s50.13-23.08,50.88-26.37a5.714,5.714,0,0,0-.84-5.03l-12.67-41.43s-17.65-59.75-19.02-61.64a12.124,12.124,0,0,0-3.9-3.13l-7.96-1.26Z"/>
    <path data-manzana="M78" id="M78-2" data-name="M78" class="cls-2" d="M1547.34,1547.57l-11.79,28.69-20.74-9.57-21.69-11.59-18.73-10.51-18.66-12.52-18.64-13.51-18.61-14.51-16.59-15.46L1380.53,1465l-18.42-21.51-16.4-22.46-11.48-19.32-19.03-35.53-13.29-26.37-8.51-18.24,1.06-1.97,25.31-11.31,2.98,1.08,8.61,14.24,10.37,23.29,11.4,22.32,11.42,21.32,13.48,19.37,11.58,15.32,11.59,15.32,9.73,10.27,13.61,14.38,13.64,13.37,19.58,15.54,16.67,12.46,22.61,14.62,23.64,13.65,18.77,8.52Z"/>
    <path data-manzana="M79" id="M79-2" data-name="M79" class="cls-2" d="M1366.41,1285.55l-24.34,12.34-0.06,2,15.15,31.42,7.56,16.21,10.45,20.3,14.37,23.4,14.45,20.4,19.37,23.53,20.44,20.57,18.56,16.51,22.56,16.62,25.55,16.7,28.61,14.79,11.86,5.32,4,0.11,8.51-18.77,3.19-6.92-0.97-1.03-32.55-16.89-25.58-15.7-24.51-18.68-17.61-14.48-14.58-15.4-12.62-14.35-15.47-19.43-10.59-15.3-9.53-17.26-9.54-17.27L1382.7,1312l-8.56-16.24-5.73-10.16-2-.05h0Z"/>
    <path data-manzana="M80" id="M80-2" data-name="M80" class="cls-2" d="M1399.21,1269.1l46.65-22.97,4.02,1.36,89.66,182.13-0.01,2.24-5.39,2.65-33.85-21.23-21.36-18.47-16.89-16.2-15.1-17.09-10.64-14.83-4.88-7.63-33.12-67.29Z"/>
    <path data-manzana="M81" id="M81-2" data-name="M81" class="cls-2" d="M1470.98,1233.76l47.55-23.41,2.68,0.91,120.58,244.93-1.82,5.36-3.59,1.76-41.09-8.75-22.32-6.84-103.8-210.84Z"/>
    <path data-manzana="M82" id="M82-2" data-name="M82" class="cls-2" d="M1543.2,1199.32l53.83-26.5,4.01,1.37,104.24,211.73-14.75-.54-0.9.44-2.17,61.26,0.39,9.84,34.42,2,20.13,0.13,22.79,3.27,3.11,1.81-6.26.85-35.32-1.56-23.7-.59-21.91-1.48-12.06-1.86L1542.29,1202Z"/>
    <path data-manzana="M83" id="M83-2" data-name="M83" class="cls-2" d="M1624.84,1159.13l49.34-24.29,4.46,2.26,9.64,33.16,9.2,30.02,10.11,29.57,13.58,45.71,12.72,39.43,7.02,23.3,13.16,40.33,1.74,8.06-25.02-3.28-108.21-219.81Z"/>
    <path data-manzana="M89" id="M89-2" data-name="M89" class="cls-2" d="M1478.31,1811.79l34.07,11.81,34.05,7.8,24.02,3.87,45.04,6.74,44.01,2.75,15-.08,5.01,0.97-38,.22-38.99,1.22-41,1.23-43.99,2.25-52.99,1.3-2.04-6.99,14.81-33.09h1Z"/>
    <path data-manzana="M90" id="M90-2" data-name="M90" class="cls-2" d="M1508.83,1726.61l21.04,6.89,40.06,9.77,39.04,6.78,54.02,4.69,242-1.37-0.81,33.01-0.84,28-16,1.09-30.99,1.18-114.98,4.65-51.99,1.29-44,.25-28.02-2.84-44.04-6.75-44.05-9.75-38.07-12.78-7.02-2.97-0.02-3,10.84-28.06,12.83-30.07Z"/>
    <path data-manzana="M91" id="M91-2" data-name="M91" class="cls-2" d="M1540.35,1640.43l25.04,6.86,33.04,7.82,24.02,3.86,36.02,3.8,227-1.29,14.2,34.92,8.12,20.96,0.01,2-1.99,2.01-0.94,10v1l-223.99,1.27-27.02-1.85-29.01-2.83-49.05-8.72-37.05-8.8-23.05-7.86-0.02-4,13.8-35.08,9.87-24.06Z"/>
    <path data-manzana="M92" id="M92-2" data-name="M92" class="cls-2" d="M1572.86,1554.25l24.04,6.86,26.03,5.86,7.01,0.96,25.01,2.86,18-.11,181-1.02,12.16,27.93,3.04,6.98,10.16,28.95,0.03,4-2.99,3.01-198.99,1.13-31.02-1.82-33.02-4.82-32.04-6.82-34.06-10.8-0.03-4,11.84-29.07,9.85-27.06,2.98-3.01Z"/>
    <path data-manzana="M93" id="M93-2" data-name="M93" class="cls-2" d="M1591.56,1501.14l10.02,3.95,26.04,5.85,25.01,2.86,17.01,1.9,165-.93,1-.01,2.01,1.99,9.15,26.95,0.02,2-3.99,3.02-176.99,1-15.01-.91-19.02-2.89-19.02-3.9-23.03-5.87-11.03-3.93-0.03-7Z"/>
    <path id="M191-2" data-name="M191" class="cls-2" d="M1690.53,1385.38l47.41-1.05,17.87,2.35,17.86,77.03-7.15-.94-21.89-3.71-23.7-.59-24.14-1.49-9.38-.96,2.18-63.49Z"/>
    <path data-manzana="M200" id="M200-2" data-name="M200" class="cls-2" d="M1193.92,1117.79l-12.21-29.35-25.4,14.32-20.29,10.45-26.43,15.28-16.21,7.56-19.29,10.48-14.21,7.62-9.16,5.75,14.28,26.4,20.32-11.45,22.32-11.4,23.35-12.37,20.32-11.45,20.29-10.45,1.05-1.97,2.08-2.94,3.11-3.92,3.03-.92,8.99,0.25,0.98,1.02Z"/>
    <path data-manzana="M201" id="M201-2" data-name="M201" class="cls-2" d="M1228.86,1193.77l-29.25-64.82-0.05,2-0.11,3.99-1.08,2.98-4.13,4.88-3.09,2.92-2.02.95-6-.17-3-.08-21.32,11.43-14.21,7.61-23.35,12.37-11.18,6.7-11.16,5.7-13.19,6.64-12.18,6.67-0.06,2,25.63,50.72,1.97,1.05,24.35-12.34,30.45-16.18,32.48-17.12,16.24-8.56,5.19-6.86,4.08-2.89,5.05-1.87Z"/>
    <path data-manzana="M202" id="M202-2" data-name="M202" class="cls-2" d="M1263.91,1265.75l-7.53-17.21-9.45-20.27-6.65-13.18-4.75-9.14-0.05,2-2.08,2.95-3.11,3.91-2.06,1.95-3.05,1.92-11.02.7-5.08,2.86-11.19,6.7-9.13,4.75-10.13,4.72-15.24,8.59-11.16,5.7-25.38,13.31-14.21,7.62-3.05,1.92-0.06,2,13.29,26.37,13.31,25.37,2,0.06,34.51-18.07,21.32-11.42,13.21-7.65,18.27-9.5,14.21-7.62,5.13-4.86,4.14-4.89,2.02-.95,10,0.28Z"/>
    <path data-manzana="M203" id="M203-2" data-name="M203" class="cls-2" d="M1269.58,1277.91l16.23,28.45,10.43,21.29,2.81,7.08-17.3,10.53-18.24,8.51-16.23,8.56-26.4,14.29-20.3,10.45-21.32,11.42-2.99-.08-12.4-22.35-9.59-15.26-6.67-12.19,1.08-2.97,33.48-17.1,27.4-14.25,24.37-13.35,15.24-8.58,2.06-1.95,9.99,0.27,8.22-7.77Z"/>
    <path data-manzana="M204" id="M204-2" data-name="M204" class="cls-2" d="M1305.66,1348.92l-28.48,17.23-0.02,1,10.39,22.29,12.4,22.34,17.2,29.48,19.31,25.54,18.37,23.51,22.36,23.62,24.42,21.67,19.56,16.54,22.58,15.62,10.83,6.3,23.64,13.65,18.72,10.51,1.97,1.05-5.46,16.86-9.73,26.75-6.43,15.83-9.63,22.74-7.54,19.8-8.57,20.78-7.49,17.8-4.35,12.89-7.43,15.8-3.25,8.92-5.35,12.86-7.46,16.8-5.38,13.86-5.38,13.86-7.46,16.8-3.24,8.91,28.99,0.79,1.02-.97,8.6-21.77,10.68-24.72,9.73-26.75,6.52-18.83,7.59-21.8,10.68-24.72,10.65-23.71,9.68-24.75,7.65-23.8,8.62-22.77,9.57-20.75,10.84-30.72L1500,1559.29l-18.72-10.52-26.52-17.72-26.48-19.73-21.5-18.6-27.22-28.75-22.29-26.61-19.25-27.54-18.1-33.51-12.34-24.34Z"/>
    <path data-manzana="M205" id="M205-2" data-name="M205" class="cls-2" d="M1256.94,1374.6l22.88,41.64,20.12,32.56,23.12,32.64,23.31,25.64,29.23,28.81,25.39,22.7,36.3,26,32.44,20.89,19.75,9.54,3.95,2.11-11.84,30.69-11.79,28.69-8.62,22.77-9.57,20.75-12.87,31.66-5.38,13.86-10.68,24.72-6.51,18.83-9.68,24.74-11.73,26.69-42.04.86-56.06,1.47-74.03-.01-36.01.01-75-1.04,8.88-325.88-1.81-7.05-13.37-23.37-11.5-18.32-7.62-14.22,0.14-4.99,3.08-2.92,37.58-20.99,50.77-27.62,3,0.08,15.15,31.42,2.76,9.08-2.72,62.95-1.14,41.99-6.19,226.91,2.81,7.08,6.65,13.19,5.83,6.16,8.81,7.24,10.91,3.3,6,0.16,66.03-.2,38.04-.96,21.04-1.43,14.3-10.61,8.27-9.78,7.49-17.81,8.59-21.77,26.82-66.29,18.27-46.52,8.54-19.78-43.24-28.19-29.42-21.81-37.09-34.02-31.06-34.86-30.95-38.86-23.96-38.66-16.17-30.45-6.62-14.19,2.05-1.94,25.37-13.32Z"/>
    <path data-manzana="M206" id="M206-2" data-name="M206" class="cls-2" d="M1293.33,1544.65l15.58,15.43,9.73,10.27,17.55,16.49,22.53,17.62,22.53,17.62,18.67,12.51,8.8,7.24,3.84,6.11,0.78,8.02-3.19,6.92-4.3,10.89-7.51,18.8-6.41,14.83-7.49,17.8-6.46,16.83-4.32,11.89-4.28,9.89-2.19,6.94-3.19,6.91-3.24,8.92-2.13,4.94-2.11,3.95-4.08,2.89-8.14,4.78-116.95-3.19-3.92-3.11-7.72-10.21,1.96-71.97,1.63-59.98,1.74-63.98,1.28-46.98,0.5-17.99,7.32-11.81,7.19-6.81,2.02-.94,10,0.27,4.97,1.14,4.89,4.13,1.89,4.05-5.99,219.92-0.25,9,0.95,2.03,3.78,8.1,2.89,4.08,6.86,5.19,1.97,1.06,44.98,1.22,3.03-.92,5.08-2.86,9.24-8.75,4.22-7.89,6.35-12.83,4.38-13.89,7.49-17.8,6.46-16.83,4.43-15.88,0.06-2-2.81-7.08-4.78-8.14-11.72-10.32-20.59-15.57-17.58-15.48-14.64-13.4-7.75-9.22-2.87-5.08,0.93-33.99,5.08-2.86Z"/>
    <path id="M207-2" data-name="M207" class="cls-2" d="M1284.22,1618.88l5-.03,22.08,14.88,18.08,12.9,22.08,13.87,3.01,2.99,1.01,0.99,0.02,3-2.96,8.02-6.91,16.04-4.92,13.03-5.93,13.03-6.9,18.04-6.91,15.04-1.99,2.01-1,1-42,.24-4.01-2.98,1.49-90.01,0.81-34,6.96-7.04,1.99-1.01Z"/>
    <path data-manzana="M208" id="M208-2" data-name="M208" class="cls-2" d="M1030.48,1168.35l1,0.03,27.54,53.77,18.99,37.53,16.12,32.45,19.04,35.53,19.01,36.54,25.77,45.72,0.97,1.02-30.54,19.18-2.99-.08-18.15-31.51-15.26-27.43-15.29-26.42-14.2-29.4-15.23-28.43-17.07-34.47-16.18-30.46-16.037-35.45,1.054-1.97Z"/>
  </g>
  <path id="_4" data-name="4" class="cls-4" d="M393.877,294.849a9.511,9.511,0,1,1-9.963,9.5A9.74,9.74,0,0,1,393.877,294.849Z"/>
  <path id="_4-2" data-name="4" class="cls-5" d="M390.927,300.972l7.349,0.314,0.019,0.037c-0.405.214-2.479,1.238-5.648,2.909Zm3.849,7.3-0.768-1.456,8.179-4.315-1.545-2.929-10.5-.609-2.229,1.176,2.721,5.158-2.892,1.526,1.361,2.579L392,307.871l0.768,1.455Z"/>
  <path id="_5" data-name="5" class="cls-4" d="M464.877,257.849a9.511,9.511,0,1,1-9.963,9.5A9.74,9.74,0,0,1,464.877,257.849Z"/>
  <path id="_5-2" data-name="5" class="cls-5" d="M468.408,263.816l2.809,5.324,2.174-1.147-3.79-7.184L461.94,263.7l1.1,2.361a2.056,2.056,0,0,1,1.853,1.236c0.719,1.364-.168,2.538-1.329,3.15-1.4.739-2.829,0.575-3.48-.66a1.969,1.969,0,0,1,.825-2.766l-1.361-2.579a4.514,4.514,0,0,0-1.605,6.287,5,5,0,0,0,7.2,2.274,4.451,4.451,0,0,0,2.129-6.186,4.063,4.063,0,0,0-1.953-1.961Z"/>
  <path id="_6" data-name="6" class="cls-4" d="M535.877,223.849a9.511,9.511,0,1,1-9.963,9.5A9.74,9.74,0,0,1,535.877,223.849Z"/>
  <path id="_6-2" data-name="6" class="cls-5" d="M541.41,235.5a4.016,4.016,0,0,0,1.827-2.518,5.187,5.187,0,0,0-.562-3.118c-2.391-4.532-6.932-2.56-9.419-1.248-3.26,1.72-6.168,4.243-4.079,8.2,1.332,2.524,4.171,3.263,7.027,1.757a4.374,4.374,0,0,0,1.925-6.126,3.1,3.1,0,0,0-2.38-1.877l0.018-.056c1.743-.8,3.863-1.426,4.748.25a1.518,1.518,0,0,1-.456,2.172Zm-6.788.614c-1.769.933-2.944,0.447-3.439-.493-0.652-1.234-.066-2.579,1.352-3.328,1.64-.865,2.773-0.191,3.288.786A2.169,2.169,0,0,1,534.622,236.117Z"/>
  <path id="_8" data-name="8" class="cls-4" d="M683.877,155.849a9.511,9.511,0,1,1-9.963,9.5A9.74,9.74,0,0,1,683.877,155.849Z"/>
  <path id="_8-2" data-name="8" class="cls-5" d="M684.642,164.484a1.821,1.821,0,0,1,.737-2.532,1.768,1.768,0,0,1,2.554.913A1.835,1.835,0,0,1,684.642,164.484Zm-1.506,6.564a3.519,3.519,0,0,0,2.12-3.615,3.16,3.16,0,0,0,3.431.121c1.806-.952,2.65-3.235,1.221-5.943-1.205-2.284-3.492-3.362-5.721-2.186a3.009,3.009,0,0,0-1.725,2.936,3.746,3.746,0,0,0-4.366-.241c-1.787.943-3.366,3.26-1.588,6.632A4.736,4.736,0,0,0,683.136,171.048Zm-1.51-2.595a2.149,2.149,0,0,1-3.045-.772,2.1,2.1,0,0,1,1.081-3,2.048,2.048,0,0,1,3,.773A2.11,2.11,0,0,1,681.626,168.453Z"/>
  <path id="_9" data-name="9" class="cls-4" d="M756.877,121.849a9.511,9.511,0,1,1-9.963,9.5A9.74,9.74,0,0,1,756.877,121.849Z"/>
  <path id="_9-2" data-name="9" class="cls-5" d="M758.417,128.12c1.879-.992,2.842.031,3.192,0.694,0.7,1.326.119,2.457-1.373,3.244a2.2,2.2,0,0,1-3.193-.741C756.528,130.341,756.446,129.159,758.417,128.12Zm-6.954.7c-1.965,1.319-2.409,3.6-1.233,5.831,1.244,2.358,4.148,3.888,9.213,1.215,1.843-.972,6.685-3.621,4.294-8.153-1.35-2.56-3.844-3.67-7.049-1.979a4.377,4.377,0,0,0-2,6.118,3.2,3.2,0,0,0,2.417,1.9l-0.017.056c-2.755,1.43-4.221.838-4.785-.231a1.578,1.578,0,0,1,.493-2.191l0.018-.009Z"/>
  <path id="_10" data-name="10" class="cls-4" d="M819.877,92.849a9.511,9.511,0,1,1-9.963,9.5A9.74,9.74,0,0,1,819.877,92.849Z"/>
  <path id="_10-2" data-name="10" class="cls-5" d="M817.12,91.292l1.642,3.113-9.008,4.752,1.361,2.579,13.079-6.9-1.117-2.118c-1.006.46-2.645,0.477-3.957-2.01l-0.2-.368Zm2.411,10.953c-4.587,2.42-5.956,5-4.333,8.079s4.528,3.4,9.115.984,5.938-4.993,4.315-8.069S824.118,99.825,819.531,102.245Zm1.4,2.653c3.371-1.779,4.856-2.044,5.633-.571s-0.279,2.55-3.651,4.329-4.874,2.053-5.652.58S817.56,106.676,820.931,104.9Z"/>
  <path id="_22" data-name="22" class="cls-4" d="M998.877,437.849a9.511,9.511,0,1,1-9.963,9.5A9.739,9.739,0,0,1,998.877,437.849Z"/>
  <path id="_22-2" data-name="22" class="cls-5" d="M996.966,438.007c0.967-.487,2.489-1.219,3.444.587a2,2,0,0,1-.911,2.787c-1.474.777-2.632,0.187-5.59-1.267-3.56-1.748-5.221-1.013-6.8-.3l4.713,8.934,2.285-1.2-2.994-5.674c0.764-.026,1.83.566,3.959,1.656,1.536,0.814,3.446,1.667,5.7.481,2.65-1.4,3.07-4.167,1.75-6.672-0.61-1.16-2.621-4.079-6.876-1.834Zm5.4,10.245c0.97-.487,2.49-1.219,3.44.586a2,2,0,0,1-.91,2.787c-1.47.778-2.63,0.188-5.586-1.266-3.56-1.748-5.22-1.013-6.8-.3L997.23,459l2.284-1.2-2.993-5.674c0.763-.026,1.829.566,3.959,1.656,1.54,0.814,3.45,1.667,5.69.481,2.66-1.4,3.08-4.167,1.76-6.672-0.61-1.16-2.63-4.079-6.88-1.834Z"/>
  <path id="_21" data-name="21" class="cls-4" d="M856.877,312.849a9.511,9.511,0,1,1-9.963,9.5A9.74,9.74,0,0,1,856.877,312.849Z"/>
  <path id="_21-2" data-name="21" class="cls-5" d="M854.746,314.043c0.967-.487,2.489-1.219,3.441.586a2,2,0,0,1-.908,2.787c-1.474.778-2.633,0.188-5.59-1.266-3.56-1.748-5.221-1.013-6.8-.3l4.714,8.935,2.285-1.2-2.994-5.674c0.763-.026,1.829.566,3.959,1.656,1.536,0.814,3.446,1.667,5.693.481,2.653-1.4,3.077-4.167,1.755-6.672-0.612-1.161-2.623-4.079-6.878-1.834Zm4.976,8.093,1.642,3.113L852.356,330l1.361,2.579,13.079-6.9-1.118-2.118c-1,.46-2.645.477-3.957-2.01l-0.194-.369Z"/>
  <path id="_20" data-name="20" class="cls-4" d="M785.877,347.849a9.511,9.511,0,1,1-9.963,9.5A9.74,9.74,0,0,1,785.877,347.849Z"/>
  <path id="_20-2" data-name="20" class="cls-5" d="M783.967,348.36c0.968-.487,2.489-1.219,3.442.586a2,2,0,0,1-.909,2.787c-1.473.778-2.632,0.188-5.59-1.266-3.559-1.748-5.221-1.013-6.8-.3l4.714,8.935,2.284-1.2-2.994-5.674c0.764-.026,1.83.565,3.959,1.656,1.537,0.814,3.446,1.666,5.694.481,2.653-1.4,3.077-4.167,1.755-6.672-0.612-1.161-2.623-4.08-6.879-1.834Zm1.982,8.8c-4.587,2.42-5.956,5-4.333,8.079s4.528,3.4,9.115.984,5.938-4.993,4.315-8.069S790.536,354.741,785.949,357.161Zm1.4,2.653c3.371-1.779,4.856-2.044,5.633-.571s-0.28,2.55-3.651,4.329-4.874,2.053-5.652.579S783.978,361.592,787.349,359.814Z"/>
  <path id="_19" data-name="19" class="cls-4" d="M712.877,386.849a9.511,9.511,0,1,1-9.963,9.5A9.74,9.74,0,0,1,712.877,386.849Z"/>
  <path id="_19-2" data-name="19" class="cls-5" d="M708.666,385.071l1.643,3.114-9.008,4.752,1.36,2.579,13.08-6.9-1.118-2.119c-1.006.46-2.645,0.477-3.957-2.01l-0.194-.368Zm6.129,12.242c1.879-.991,2.842.031,3.192,0.694,0.7,1.327.119,2.457-1.373,3.245a2.2,2.2,0,0,1-3.193-.741C712.906,399.534,712.824,398.353,714.8,397.313Zm-6.954.7c-1.965,1.32-2.409,3.6-1.233,5.832,1.244,2.358,4.147,3.888,9.213,1.215,1.842-.972,6.685-3.621,4.294-8.153-1.35-2.561-3.844-3.671-7.049-1.98a4.378,4.378,0,0,0-2,6.119,3.2,3.2,0,0,0,2.417,1.9l-0.017.057c-2.755,1.429-4.221.837-4.785-.231a1.578,1.578,0,0,1,.493-2.191l0.018-.01Z"/>
  <path id="_17" data-name="17" class="cls-4" d="M580.877,456.849a9.511,9.511,0,1,1-9.963,9.5A9.74,9.74,0,0,1,580.877,456.849Z"/>
  <path id="_17-2" data-name="17" class="cls-5" d="M577.487,454.964l1.643,3.113-9.008,4.753,1.36,2.579,13.08-6.9-1.118-2.118c-1,.459-2.645.477-3.957-2.01l-0.194-.369ZM591.2,471.633l-4.86-9.211-2.313,1.15,3.43,6.5c-1.762-.483-7.655-1.566-13.032.918l1.4,2.653a20.166,20.166,0,0,1,13.386-.963Z"/>
  <path id="_16" data-name="16" class="cls-4" d="M520.877,486.849a9.511,9.511,0,1,1-9.963,9.5A9.74,9.74,0,0,1,520.877,486.849Z"/>
  <path id="_16-2" data-name="16" class="cls-5" d="M518.344,483.7l1.643,3.113-9.008,4.752,1.36,2.58,13.08-6.9L524.3,485.12c-1,.46-2.645.478-3.957-2.009l-0.194-.369Zm10.408,17.9a4.016,4.016,0,0,0,1.827-2.518,5.179,5.179,0,0,0-.562-3.118c-2.391-4.532-6.932-2.56-9.418-1.248-3.261,1.72-6.169,4.243-4.079,8.2,1.331,2.524,4.171,3.263,7.026,1.757a4.373,4.373,0,0,0,1.925-6.126,3.1,3.1,0,0,0-2.379-1.877l0.017-.056c1.743-.8,3.863-1.426,4.748.25a1.518,1.518,0,0,1-.456,2.172Zm-6.788.614c-1.768.933-2.943,0.446-3.439-.493-0.651-1.234-.066-2.579,1.353-3.328,1.639-.865,2.772-0.191,3.287.786A2.168,2.168,0,0,1,521.964,502.205Z"/>
  <path id="_18" data-name="18" class="cls-4" d="M642.877,425.849a9.511,9.511,0,1,1-9.963,9.5A9.74,9.74,0,0,1,642.877,425.849Z"/>
  <path id="_18-2" data-name="18" class="cls-5" d="M639.212,423.584l1.643,3.113-9.008,4.753,1.36,2.579,13.08-6.9-1.118-2.118c-1.006.46-2.645,0.477-3.957-2.01l-0.194-.368Zm6.212,14.765a1.821,1.821,0,0,1,.737-2.532,1.768,1.768,0,0,1,2.554.913A1.835,1.835,0,0,1,645.424,438.349Zm-1.506,6.564a3.519,3.519,0,0,0,2.12-3.615,3.162,3.162,0,0,0,3.431.121c1.806-.953,2.651-3.235,1.222-5.943-1.206-2.284-3.493-3.362-5.722-2.186a3.009,3.009,0,0,0-1.725,2.936,3.744,3.744,0,0,0-4.365-.241c-1.787.943-3.367,3.26-1.589,6.631A4.736,4.736,0,0,0,643.918,444.913Zm-1.51-2.6a2.149,2.149,0,0,1-3.045-.772,2.1,2.1,0,0,1,1.081-3,2.047,2.047,0,0,1,3,.773A2.11,2.11,0,0,1,642.408,442.318Z"/>
  <path id="_15" data-name="15" class="cls-4" d="M449.877,532.849a9.511,9.511,0,1,1-9.963,9.5A9.74,9.74,0,0,1,449.877,532.849Z"/>
  <path id="_15-2" data-name="15" class="cls-5" d="M447.9,530.452l1.642,3.113-9.008,4.752,1.36,2.579,13.08-6.9-1.118-2.119c-1.006.46-2.645,0.477-3.957-2.009l-0.194-.369Zm8.344,11.755,2.809,5.324,2.174-1.147L457.44,539.2l-7.66,2.887,1.1,2.361a2.056,2.056,0,0,1,1.853,1.236c0.719,1.363-.168,2.538-1.329,3.151-1.4.738-2.829,0.574-3.48-.661a1.969,1.969,0,0,1,.825-2.766l-1.361-2.579a4.514,4.514,0,0,0-1.605,6.287,5,5,0,0,0,7.205,2.274,4.451,4.451,0,0,0,2.129-6.186,4.066,4.066,0,0,0-1.952-1.961Z"/>
  <path id="_14" data-name="14" class="cls-4" d="M376.877,566.849a9.511,9.511,0,1,1-9.963,9.5A9.74,9.74,0,0,1,376.877,566.849Z"/>
  <path id="_14-2" data-name="14" class="cls-5" d="M374.2,564.018l1.642,3.113-9.008,4.752,1.361,2.579,13.079-6.9-1.117-2.119c-1.006.46-2.645,0.477-3.957-2.01l-0.2-.368Zm1.89,13.535,7.348,0.315,0.02,0.037c-0.405.214-2.479,1.237-5.648,2.909Zm3.849,7.295-0.768-1.455,8.179-4.315-1.545-2.929-10.5-.61-2.229,1.176,2.721,5.158-2.892,1.526,1.361,2.579,2.892-1.525,0.768,1.455Z"/>
  <path id="_13" data-name="13" class="cls-4" d="M308.877,602.849a9.511,9.511,0,1,1-9.963,9.5A9.74,9.74,0,0,1,308.877,602.849Z"/>
  <path id="_13-2" data-name="13" class="cls-5" d="M306.32,600.863l1.642,3.114-9.008,4.752,1.361,2.579,13.079-6.9-1.118-2.119c-1,.46-2.644.477-3.957-2.01l-0.194-.368Zm3.526,14.628c0.631,1.2,1.471,2.968-.316,3.911a2.174,2.174,0,0,1-3.176-.8c-0.913-1.731.574-2.751,1.274-3.121l0.028,0.009-1.331-2.524c-4.09,2.158-2.617,5.62-1.966,6.854a4.7,4.7,0,0,0,6.571,2.232,3.3,3.3,0,0,0,2-3.574l0.037-.02a3.034,3.034,0,0,0,3.313.254c2.764-1.458,2.433-4.227,1.51-5.977-1.556-2.948-4.034-3.406-6.485-2.113l1.264,2.394c0.46-.243,2.137-1.127,3.07.641a1.779,1.779,0,0,1-.812,2.525c-1.694.894-2.516-.486-2.925-1.26l-0.214-.4Z"/>
  <path id="_12" data-name="12" class="cls-4" d="M247.2,753.159a7.977,7.977,0,1,1-8.356,7.968A8.169,8.169,0,0,1,247.2,753.159Z"/>
  <path id="_12-2" data-name="12" class="cls-5" d="M245.155,750.966l1.377,2.611-7.555,3.986,1.141,2.163,10.97-5.787-0.937-1.777c-0.844.386-2.219,0.4-3.319-1.686l-0.163-.309Zm4.893,10.4c0.811-.409,2.087-1.023,2.886.491a1.677,1.677,0,0,1-.762,2.338c-1.236.652-2.207,0.158-4.688-1.062-2.986-1.467-4.379-.85-5.7-0.251l3.954,7.494,1.915-1.011-2.51-4.759c0.64-.022,1.534.475,3.32,1.389,1.289,0.683,2.89,1.4,4.775.4,2.225-1.174,2.581-3.5,1.472-5.6-0.513-.974-2.2-3.422-5.769-1.539Z"/>
  <path id="_32" data-name="32" class="cls-4" d="M312.877,956.849a9.511,9.511,0,1,1-9.963,9.5A9.74,9.74,0,0,1,312.877,956.849Z"/>
  <path id="_32-2" data-name="32" class="cls-5" d="M309.214,960.674c0.632,1.2,1.471,2.968-.315,3.911a2.174,2.174,0,0,1-3.176-.8c-0.914-1.731.573-2.751,1.273-3.121l0.028,0.009-1.331-2.524c-4.09,2.158-2.617,5.619-1.965,6.854a4.7,4.7,0,0,0,6.57,2.232,3.306,3.306,0,0,0,2-3.575l0.037-.019a3.036,3.036,0,0,0,3.313.254c2.763-1.458,2.432-4.227,1.509-5.977-1.555-2.948-4.034-3.406-6.484-2.114l1.263,2.395c0.461-.243,2.137-1.127,3.07.641a1.776,1.776,0,0,1-.811,2.524c-1.695.894-2.517-.485-2.925-1.259l-0.214-.4Zm7.714,8.014c0.967-.487,2.489-1.219,3.441.587a2,2,0,0,1-.908,2.786c-1.474.778-2.633,0.188-5.59-1.266-3.56-1.748-5.221-1.013-6.8-.3l4.714,8.935,2.284-1.205-2.993-5.674c0.763-.026,1.829.566,3.959,1.656,1.536,0.814,3.446,1.667,5.693.481,2.653-1.4,3.077-4.167,1.755-6.672-0.612-1.161-2.623-4.079-6.878-1.834Z"/>
  <path id="_33" data-name="33" class="cls-4" d="M379.877,910.849a9.511,9.511,0,1,1-9.963,9.5A9.74,9.74,0,0,1,379.877,910.849Z"/>
  <path id="_33-2" data-name="33" class="cls-5" d="M375.891,913.868c0.631,1.2,1.471,2.968-.316,3.911a2.174,2.174,0,0,1-3.176-.8c-0.913-1.731.574-2.751,1.274-3.121l0.028,0.009-1.331-2.524c-4.09,2.158-2.617,5.62-1.966,6.854a4.7,4.7,0,0,0,6.571,2.232,3.3,3.3,0,0,0,2-3.575l0.037-.019a3.035,3.035,0,0,0,3.313.254c2.764-1.458,2.433-4.227,1.509-5.977-1.554-2.948-4.033-3.406-6.484-2.113l1.264,2.394c0.46-.243,2.137-1.127,3.07.642a1.776,1.776,0,0,1-.812,2.523c-1.694.894-2.516-.485-2.925-1.259l-0.213-.405Zm5.4,10.245c0.631,1.2,1.471,2.968-.316,3.91a2.173,2.173,0,0,1-3.176-.8c-0.913-1.731.574-2.751,1.274-3.121l0.028,0.009-1.331-2.524c-4.09,2.158-2.617,5.62-1.966,6.854a4.7,4.7,0,0,0,6.571,2.232,3.3,3.3,0,0,0,2-3.575l0.037-.019a3.035,3.035,0,0,0,3.313.254c2.764-1.458,2.433-4.227,1.51-5.977-1.555-2.948-4.034-3.406-6.484-2.114l1.263,2.395c0.461-.243,2.137-1.127,3.07.641a1.777,1.777,0,0,1-.811,2.524c-1.695.894-2.517-.485-2.925-1.259l-0.214-.405Z"/>
  <path id="_34" data-name="34" class="cls-4" d="M447.877,873.849a9.511,9.511,0,1,1-9.963,9.5A9.74,9.74,0,0,1,447.877,873.849Z"/>
  <path id="_34-2" data-name="34" class="cls-5" d="M444.016,876.951c0.632,1.2,1.471,2.968-.316,3.911a2.173,2.173,0,0,1-3.175-.8c-0.914-1.731.573-2.751,1.273-3.12l0.028,0.008-1.331-2.524c-4.09,2.158-2.617,5.62-1.966,6.854a4.7,4.7,0,0,0,6.571,2.232,3.306,3.306,0,0,0,2-3.575l0.037-.019a3.034,3.034,0,0,0,3.313.254c2.763-1.458,2.432-4.227,1.509-5.977-1.555-2.948-4.034-3.406-6.484-2.113l1.263,2.394c0.461-.242,2.137-1.127,3.07.642a1.776,1.776,0,0,1-.811,2.523c-1.695.895-2.517-.485-2.925-1.259l-0.214-.4Zm3.769,9.153,7.349,0.315,0.019,0.037c-0.405.214-2.479,1.237-5.648,2.909Zm3.849,7.295-0.768-1.455,8.179-4.315L457.5,884.7l-10.5-.61-2.229,1.176,2.722,5.158-2.893,1.526,1.361,2.579L448.858,893l0.768,1.456Z"/>
  <path id="_35" data-name="35" class="cls-4" d="M516.877,829.849a9.511,9.511,0,1,1-9.963,9.5A9.74,9.74,0,0,1,516.877,829.849Z"/>
  <path id="_35-2" data-name="35" class="cls-5" d="M512.2,833.247c0.632,1.2,1.472,2.968-.315,3.911a2.174,2.174,0,0,1-3.176-.8c-0.913-1.732.574-2.752,1.274-3.121l0.028,0.008-1.332-2.523c-4.089,2.157-2.616,5.619-1.965,6.853a4.7,4.7,0,0,0,6.57,2.233,3.3,3.3,0,0,0,2-3.575l0.037-.02a3.034,3.034,0,0,0,3.313.254c2.763-1.458,2.433-4.227,1.509-5.977-1.555-2.948-4.034-3.406-6.484-2.113l1.264,2.395c0.46-.243,2.137-1.128,3.07.641a1.778,1.778,0,0,1-.812,2.524c-1.694.894-2.517-.486-2.925-1.26l-0.213-.4Zm10.225,7.373,2.809,5.324,2.173-1.147-3.79-7.185-7.661,2.888,1.105,2.361a2.057,2.057,0,0,1,1.853,1.236c0.719,1.363-.169,2.538-1.329,3.15-1.4.739-2.829,0.574-3.48-.66a1.968,1.968,0,0,1,.824-2.766l-1.36-2.579a4.512,4.512,0,0,0-1.605,6.286,5,5,0,0,0,7.205,2.275,4.453,4.453,0,0,0,2.129-6.187,4.068,4.068,0,0,0-1.953-1.96Z"/>
  <circle id="_35_copia" data-name="35 copia" class="cls-4" cx="712.454" cy="798.64" r="8.234"/>
  <path id="_35_copia_2" data-name="35 copia 2" class="cls-5" d="M706.318,796.667c1.008,0.523,2.432,1.342,1.651,2.845a1.821,1.821,0,0,1-2.569.968,1.874,1.874,0,0,1-.613-2.759l0.023-.007-2.123-1.1c-1.787,3.441.881,5.123,1.92,5.662a3.942,3.942,0,0,0,5.594-1.6,2.772,2.772,0,0,0-.33-3.419l0.016-.031a2.546,2.546,0,0,0,2.405-1.408c1.207-2.324-.343-4.075-1.816-4.839-2.479-1.289-4.406-.42-5.477,1.641l2.014,1.047a1.721,1.721,0,0,1,2.422-1.025,1.491,1.491,0,0,1,.647,2.127c-0.741,1.425-1.967.868-2.617,0.529l-0.341-.177Zm10.568,0.2,4.479,2.327,0.95-1.828-6.044-3.141-3.9,5.65,1.889,1.1a1.726,1.726,0,0,1,1.868-.033c1.146,0.6,1.1,1.829.589,2.8-0.612,1.178-1.675,1.747-2.714,1.208a1.65,1.65,0,0,1-.753-2.3l-2.17-1.128a3.784,3.784,0,0,0,1.9,5.1,4.19,4.19,0,0,0,6.052-1.874,3.733,3.733,0,0,0-1.488-5.28,3.4,3.4,0,0,0-2.282-.418Z"/>
  <path id="_36" data-name="36" class="cls-4" d="M582.877,781.849a9.511,9.511,0,1,1-9.963,9.5A9.74,9.74,0,0,1,582.877,781.849Z"/>
  <path id="_36-2" data-name="36" class="cls-5" d="M578.16,784.61c0.631,1.2,1.471,2.968-.315,3.911a2.174,2.174,0,0,1-3.176-.8c-0.914-1.732.573-2.752,1.273-3.122l0.028,0.009-1.331-2.524c-4.09,2.158-2.617,5.62-1.965,6.854a4.7,4.7,0,0,0,6.57,2.232,3.3,3.3,0,0,0,2-3.574l0.037-.02a3.034,3.034,0,0,0,3.313.254c2.763-1.458,2.432-4.227,1.509-5.977-1.555-2.948-4.034-3.406-6.484-2.113l1.263,2.395c0.461-.244,2.137-1.128,3.07.641a1.777,1.777,0,0,1-.811,2.524c-1.695.894-2.517-.486-2.925-1.26l-0.214-.4Zm12.287,13.514a4.016,4.016,0,0,0,1.827-2.518,5.179,5.179,0,0,0-.562-3.118c-2.391-4.532-6.932-2.56-9.419-1.248-3.26,1.72-6.168,4.243-4.078,8.2,1.331,2.524,4.17,3.263,7.026,1.757a4.375,4.375,0,0,0,1.925-6.127,3.1,3.1,0,0,0-2.38-1.876l0.018-.057c1.743-.8,3.863-1.426,4.748.251a1.518,1.518,0,0,1-.456,2.172Zm-6.788.614c-1.769.933-2.944,0.446-3.44-.493-0.651-1.234-.065-2.58,1.353-3.328,1.64-.865,2.773-0.191,3.288.785A2.17,2.17,0,0,1,583.659,798.738Z"/>
  <path id="_37" data-name="37" class="cls-4" d="M648.877,735.849a9.511,9.511,0,1,1-9.963,9.5A9.74,9.74,0,0,1,648.877,735.849Z"/>
  <path id="_37-2" data-name="37" class="cls-5" d="M644.45,739.128c0.632,1.2,1.472,2.968-.315,3.911a2.173,2.173,0,0,1-3.176-.8c-0.914-1.732.573-2.752,1.273-3.121l0.028,0.009-1.331-2.524c-4.09,2.158-2.617,5.619-1.965,6.853a4.7,4.7,0,0,0,6.57,2.233,3.306,3.306,0,0,0,2-3.575l0.037-.019a3.034,3.034,0,0,0,3.313.253c2.763-1.457,2.432-4.227,1.509-5.977-1.555-2.947-4.034-3.406-6.484-2.113l1.263,2.395c0.461-.243,2.137-1.127,3.07.641a1.777,1.777,0,0,1-.811,2.524c-1.7.894-2.517-.486-2.925-1.259l-0.214-.4Zm15.6,12.287-4.86-9.211-2.313,1.15,3.43,6.5c-1.762-.484-7.655-1.566-13.032.918l1.4,2.653a20.175,20.175,0,0,1,13.386-.964Z"/>
  <path id="_43" data-name="43" class="cls-4" d="M1013.88,621.849a9.511,9.511,0,1,1-9.97,9.5A9.738,9.738,0,0,1,1013.88,621.849Z"/>
  <path id="_43-2" data-name="43" class="cls-5" d="M1008.44,623.167l7.35,0.315,0.02,0.037c-0.41.214-2.48,1.237-5.65,2.909Zm3.85,7.295-0.77-1.455,8.18-4.316-1.55-2.929-10.49-.609-2.23,1.176,2.72,5.158-2.89,1.526,1.36,2.579,2.89-1.526,0.77,1.456Zm3.19,4.042c0.63,1.2,1.47,2.968-.32,3.91a2.167,2.167,0,0,1-3.17-.8c-0.92-1.731.57-2.751,1.27-3.121l0.03,0.009-1.33-2.524c-4.09,2.158-2.62,5.619-1.97,6.854a4.7,4.7,0,0,0,6.57,2.232,3.3,3.3,0,0,0,2-3.575l0.04-.019a3.033,3.033,0,0,0,3.31.254c2.76-1.458,2.43-4.228,1.51-5.977-1.55-2.948-4.03-3.406-6.48-2.114l1.26,2.395c0.46-.243,2.14-1.127,3.07.641a1.775,1.775,0,0,1-.81,2.524c-1.7.894-2.52-.485-2.93-1.259l-0.21-.4Z"/>
  <path id="_42" data-name="42" class="cls-4" d="M942.877,659.849a9.511,9.511,0,1,1-9.963,9.5A9.74,9.74,0,0,1,942.877,659.849Z"/>
  <path id="_42-2" data-name="42" class="cls-5" d="M936.894,661.435l7.348,0.315,0.02,0.037c-0.4.214-2.479,1.237-5.648,2.909Zm3.849,7.3-0.768-1.455,8.179-4.315-1.545-2.929-10.5-.61-2.229,1.176,2.721,5.158-2.892,1.526,1.361,2.579,2.892-1.526,0.768,1.456Zm5.5,1.811c0.968-.487,2.489-1.219,3.442.586a2,2,0,0,1-.909,2.788c-1.473.777-2.632,0.187-5.589-1.267-3.56-1.748-5.221-1.013-6.8-.3l4.714,8.934,2.284-1.205-2.993-5.674c0.763-.026,1.829.566,3.958,1.656,1.537,0.814,3.446,1.667,5.694.481,2.653-1.4,3.077-4.166,1.755-6.672-0.612-1.16-2.623-4.079-6.879-1.834Z"/>
  <path id="_41" data-name="41" class="cls-4" d="M886.877,724.849a9.511,9.511,0,1,1-9.963,9.5A9.74,9.74,0,0,1,886.877,724.849Z"/>
  <path id="_41-2" data-name="41" class="cls-5" d="M881.737,727.379l7.349,0.315,0.019,0.037c-0.4.213-2.479,1.237-5.647,2.909Zm3.849,7.295-0.768-1.455L893,728.9l-1.545-2.929-10.5-.609-2.229,1.176,2.722,5.158-2.893,1.526,1.361,2.579,2.892-1.526,0.768,1.455Zm5.071-.341,1.643,3.113-9.008,4.753,1.36,2.579,13.08-6.9-1.118-2.118c-1,.46-2.645.477-3.957-2.01l-0.194-.369Z"/>
  <circle id="_45" data-name="45" class="cls-4" cx="1370.345" cy="744.61" r="8.065"/>
  <path id="_45-2" data-name="45" class="cls-5" d="M1362.7,742.342l4.9-3.572,0.03,0.013c-0.15.347-.96,2.072-2.14,4.779Zm6.23,2.729-1.24-.545,3.06-6.986-2.5-1.095-7.09,5-0.83,1.9,4.41,1.93-1.09,2.47,2.21,0.965,1.08-2.471,1.24,0.545Zm5.77-3.362,4.55,1.991,0.81-1.857-6.14-2.687-3.45,5.8,1.92,0.956a1.7,1.7,0,0,1,1.83-.155,1.892,1.892,0,0,1,.76,2.715c-0.52,1.2-1.53,1.824-2.58,1.362a1.617,1.617,0,0,1-.89-2.208l-2.2-.965a3.721,3.721,0,0,0,2.19,4.88,4.125,4.125,0,0,0,5.82-2.234,3.672,3.672,0,0,0-1.81-5.085,3.329,3.329,0,0,0-2.26-.261Z"/>
  <path id="_52" data-name="52" class="cls-4" d="M1010.88,961.849a9.511,9.511,0,1,1-9.97,9.5A9.738,9.738,0,0,1,1010.88,961.849Z"/>
  <path id="_52-2" data-name="52" class="cls-5" d="M1010.83,962.232l2.8,5.323,2.18-1.146-3.79-7.185-7.66,2.888,1.1,2.361a2.067,2.067,0,0,1,1.86,1.236c0.71,1.363-.17,2.538-1.33,3.15-1.4.739-2.83,0.574-3.48-.66a1.961,1.961,0,0,1,.82-2.766l-1.36-2.579a4.518,4.518,0,0,0-1.61,6.286,5,5,0,0,0,7.21,2.275,4.458,4.458,0,0,0,2.13-6.187,4.077,4.077,0,0,0-1.95-1.96Zm2.89,10.886c0.97-.487,2.49-1.219,3.44.587a2,2,0,0,1-.91,2.787c-1.47.777-2.63,0.188-5.59-1.267-3.56-1.748-5.22-1.013-6.79-.3l4.71,8.934,2.28-1.205-2.99-5.674c0.76-.026,1.83.566,3.96,1.656,1.53,0.814,3.44,1.667,5.69.481,2.65-1.4,3.08-4.166,1.76-6.672-0.62-1.16-2.63-4.079-6.88-1.834Z"/>
  <path id="_51" data-name="51" class="cls-4" d="M1083.88,928.849a9.511,9.511,0,1,1-9.97,9.5A9.738,9.738,0,0,1,1083.88,928.849Z"/>
  <path id="_51-2" data-name="51" class="cls-5" d="M1084.72,930.381l2.81,5.324,2.17-1.147-3.79-7.184-7.66,2.888,1.11,2.361a2.063,2.063,0,0,1,1.85,1.236c0.72,1.363-.17,2.538-1.33,3.15-1.4.739-2.83,0.574-3.48-.66a1.97,1.97,0,0,1,.82-2.767L1075.86,931a4.516,4.516,0,0,0-1.6,6.287,4.992,4.992,0,0,0,7.2,2.274,4.441,4.441,0,0,0,2.13-6.186,4.077,4.077,0,0,0-1.95-1.96Zm2.47,8.735,1.64,3.113-9.01,4.753,1.36,2.579,13.08-6.9-1.12-2.118c-1,.46-2.64.477-3.95-2.01l-0.2-.369Z"/>
  <path id="_50" data-name="50" class="cls-4" d="M1152.88,889.849a9.511,9.511,0,1,1-9.97,9.5A9.738,9.738,0,0,1,1152.88,889.849Z"/>
  <path id="_50-2" data-name="50" class="cls-5" d="M1152.88,889.7l2.81,5.324,2.17-1.147-3.79-7.184-7.66,2.888,1.1,2.361a2.067,2.067,0,0,1,1.86,1.236c0.71,1.363-.17,2.538-1.33,3.15-1.4.738-2.83,0.574-3.48-.66a1.963,1.963,0,0,1,.82-2.767l-1.36-2.579a4.508,4.508,0,0,0-1.6,6.287c2.03,3.85,5.41,3.217,7.2,2.274a4.457,4.457,0,0,0,2.13-6.186,4.077,4.077,0,0,0-1.95-1.96Zm-0.53,9.443c-4.59,2.42-5.96,5-4.34,8.079s4.53,3.4,9.12.985,5.94-4.994,4.31-8.07S1156.93,896.727,1152.35,899.147Zm1.4,2.653c3.37-1.779,4.85-2.044,5.63-.57s-0.28,2.549-3.65,4.328-4.87,2.054-5.65.58S1150.38,903.578,1153.75,901.8Z"/>
  <path id="_49" data-name="49" class="cls-4" d="M1237.88,854.849a9.511,9.511,0,1,1-9.97,9.5A9.738,9.738,0,0,1,1237.88,854.849Z"/>
  <path id="_49-2" data-name="49" class="cls-5" d="M1231.2,856.186l7.35,0.315,0.02,0.037c-0.4.213-2.48,1.237-5.65,2.909Zm3.85,7.295-0.76-1.455,8.17-4.315-1.54-2.929-10.5-.61-2.22,1.176,2.72,5.158-2.9,1.526,1.37,2.579,2.89-1.526,0.77,1.456Zm5.8,1.656c1.88-.992,2.84.031,3.19,0.694,0.7,1.326.12,2.457-1.37,3.244a2.207,2.207,0,0,1-3.2-.741C1238.96,867.358,1238.88,866.177,1240.85,865.137Zm-6.96.7c-1.96,1.319-2.4,3.6-1.23,5.831,1.25,2.359,4.15,3.888,9.21,1.216,1.85-.972,6.69-3.622,4.3-8.153-1.35-2.561-3.85-3.671-7.05-1.98a4.38,4.38,0,0,0-2,6.118,3.2,3.2,0,0,0,2.42,1.9l-0.02.056c-2.76,1.43-4.22.838-4.79-.231a1.583,1.583,0,0,1,.5-2.191l0.02-.009Z"/>
  <path id="_48" data-name="48" class="cls-4" d="M1314.88,833.849a9.511,9.511,0,1,1-9.97,9.5A9.738,9.738,0,0,1,1314.88,833.849Z"/>
  <path id="_48-2" data-name="48" class="cls-5" d="M1308.8,835.687l7.34,0.315,0.02,0.037c-0.4.214-2.48,1.237-5.64,2.909Zm3.84,7.295-0.76-1.455,8.18-4.315-1.55-2.929-10.49-.61-2.23,1.176,2.72,5.158-2.89,1.526,1.36,2.579,2.89-1.526,0.77,1.456Zm5.88,4.179a1.828,1.828,0,0,1,.74-2.532,1.763,1.763,0,0,1,2.55.913A1.835,1.835,0,0,1,1318.52,847.161Zm-1.5,6.564a3.532,3.532,0,0,0,2.12-3.615,3.157,3.157,0,0,0,3.43.121c1.8-.952,2.65-3.235,1.22-5.943-1.21-2.284-3.49-3.362-5.72-2.186a3,3,0,0,0-1.73,2.936,3.736,3.736,0,0,0-4.36-.241c-1.79.943-3.37,3.26-1.59,6.632A4.738,4.738,0,0,0,1317.02,853.725Zm-1.51-2.6a2.153,2.153,0,0,1-3.05-.772,2.108,2.108,0,0,1,1.08-2.995,2.05,2.05,0,0,1,3,.773A2.108,2.108,0,0,1,1315.51,851.13Z"/>
  <path id="_47" data-name="47" class="cls-4" d="M1426.88,840.849a9.511,9.511,0,1,1-9.97,9.5A9.738,9.738,0,0,1,1426.88,840.849Z"/>
  <path id="_47-2" data-name="47" class="cls-5" d="M1420.59,843.451l7.35,0.315,0.02,0.037c-0.4.213-2.48,1.237-5.65,2.909Zm3.85,7.295-0.77-1.455,8.18-4.315-1.54-2.93-10.5-.609-2.23,1.176,2.73,5.158-2.9,1.526,1.36,2.579,2.9-1.526,0.76,1.455Zm13.39,6.083-4.86-9.211-2.32,1.15,3.43,6.5c-1.76-.483-7.65-1.566-13.03.918l1.4,2.653a20.178,20.178,0,0,1,13.39-.963Z"/>
  <path id="_46" data-name="46" class="cls-4" d="M1571.88,851.849a9.511,9.511,0,1,1-9.97,9.5A9.738,9.738,0,0,1,1571.88,851.849Z"/>
  <path id="_46-2" data-name="46" class="cls-5" d="M1565.57,853.372l7.34,0.315,0.02,0.037c-0.4.214-2.48,1.237-5.64,2.909Zm3.84,7.3-0.76-1.455,8.18-4.316-1.55-2.929-10.49-.609-2.23,1.176,2.72,5.158-2.89,1.526,1.36,2.579,2.89-1.526,0.77,1.455Zm10.08,7.311a4.022,4.022,0,0,0,1.82-2.518,5.161,5.161,0,0,0-.56-3.119c-2.39-4.531-6.93-2.559-9.42-1.247-3.26,1.72-6.16,4.243-4.07,8.2,1.33,2.523,4.17,3.263,7.02,1.756a4.376,4.376,0,0,0,1.93-6.126,3.116,3.116,0,0,0-2.38-1.877l0.01-.056c1.75-.8,3.87-1.426,4.75.251a1.518,1.518,0,0,1-.45,2.171Zm-6.79.614c-1.77.933-2.94,0.446-3.44-.493-0.65-1.235-.07-2.58,1.35-3.328,1.64-.865,2.78-0.191,3.29.785A2.166,2.166,0,0,1,1572.7,868.592Z"/>
  <path id="_66" data-name="66" class="cls-4" d="M1510.59,1056.24a9.509,9.509,0,1,1-10.22,9.22A9.74,9.74,0,0,1,1510.59,1056.24Z"/>
  <path id="_66-2" data-name="66" class="cls-5" d="M1512.67,1061.96a4.026,4.026,0,0,0,1.89-2.47,5.161,5.161,0,0,0-.47-3.13c-2.27-4.6-6.86-2.75-9.38-1.51-3.31,1.63-6.29,4.08-4.3,8.09,1.26,2.56,4.08,3.38,6.97,1.95a4.37,4.37,0,0,0,2.09-6.07,3.073,3.073,0,0,0-2.33-1.94l0.02-.06c1.77-.75,3.9-1.32,4.74.38a1.517,1.517,0,0,1-.51,2.16Zm-6.8.42c-1.8.89-2.96,0.37-3.43-.58-0.62-1.25.01-2.58,1.44-3.29,1.67-.82,2.78-0.12,3.27.87A2.162,2.162,0,0,1,1505.87,1062.38Zm11.92,9.96a4.03,4.03,0,0,0,1.9-2.46,5.2,5.2,0,0,0-.48-3.14c-2.27-4.59-6.86-2.74-9.38-1.5-3.31,1.63-6.28,4.07-4.3,8.09,1.26,2.56,4.08,3.38,6.97,1.95a4.381,4.381,0,0,0,2.1-6.07,3.087,3.087,0,0,0-2.33-1.94l0.02-.06c1.76-.75,3.9-1.32,4.74.38a1.521,1.521,0,0,1-.52,2.16Zm-6.8.43c-1.79.89-2.95,0.37-3.42-.58-0.62-1.26,0-2.58,1.44-3.29,1.66-.82,2.78-0.12,3.26.87A2.163,2.163,0,0,1,1510.99,1072.77Z"/>
  <path id="_65" data-name="65" class="cls-4" d="M1430.69,1088.07a9.514,9.514,0,1,1-10.22,9.23A9.746,9.746,0,0,1,1430.69,1088.07Z"/>
  <path id="_65-2" data-name="65" class="cls-5" d="M1433.11,1094.58a4,4,0,0,0,1.89-2.47,5.171,5.171,0,0,0-.48-3.13c-2.26-4.6-6.86-2.75-9.38-1.5-3.3,1.63-6.28,4.07-4.3,8.09,1.26,2.55,4.08,3.37,6.98,1.94a4.372,4.372,0,0,0,2.09-6.07,3.133,3.133,0,0,0-2.33-1.94l0.02-.06c1.76-.75,3.9-1.32,4.74.38a1.509,1.509,0,0,1-.52,2.16Zm-6.81.43c-1.79.88-2.95,0.36-3.42-.59-0.62-1.25,0-2.58,1.44-3.29a2.222,2.222,0,0,1,3.27.88A2.176,2.176,0,0,1,1426.3,1095.01Zm10.03,3.76,2.67,5.4,2.2-1.09-3.59-7.28-7.74,2.68,1.04,2.39a2.054,2.054,0,0,1,1.82,1.28c0.68,1.38-.24,2.53-1.41,3.12-1.42.7-2.85,0.49-3.46-.76a1.956,1.956,0,0,1,.9-2.74l-1.29-2.62a4.515,4.515,0,0,0-1.78,6.24,4.988,4.988,0,0,0,7.14,2.47,4.455,4.455,0,0,0,2.3-6.12,4.129,4.129,0,0,0-1.9-2.02Z"/>
  <path id="_64" data-name="64" class="cls-4" d="M1364.63,1126.29a9.509,9.509,0,1,1-10.22,9.22A9.74,9.74,0,0,1,1364.63,1126.29Z"/>
  <path id="_64-2" data-name="64" class="cls-5" d="M1366.75,1132a3.968,3.968,0,0,0,1.9-2.46,5.158,5.158,0,0,0-.48-3.13c-2.26-4.6-6.86-2.75-9.38-1.51-3.31,1.63-6.28,4.07-4.3,8.09,1.26,2.56,4.08,3.38,6.98,1.95a4.378,4.378,0,0,0,2.09-6.07,3.087,3.087,0,0,0-2.33-1.94l0.02-.06c1.76-.75,3.9-1.32,4.74.38a1.519,1.519,0,0,1-.52,2.16Zm-6.8.43c-1.79.89-2.95,0.37-3.42-.58-0.62-1.25,0-2.58,1.44-3.29,1.66-.82,2.78-0.12,3.26.87A2.163,2.163,0,0,1,1359.95,1132.43Zm3.53,5.37,7.34,0.52,0.02,0.03c-0.41.21-2.51,1.17-5.73,2.76Zm3.65,7.4-0.73-1.48,8.3-4.09-1.47-2.97-10.47-.89-2.26,1.11,2.58,5.23-2.94,1.45,1.29,2.61,2.94-1.44,0.72,1.47Z"/>
  <path id="_61" data-name="61" class="cls-4" d="M1297.01,1162.26a5.928,5.928,0,1,1-6.36,5.75A6.071,6.071,0,0,1,1297.01,1162.26Z"/>
  <path id="_61-2" data-name="61" class="cls-5" d="M1299.46,1164.95a3.083,3.083,0,0,0-.14-2.22,3.661,3.661,0,0,0-2.37-2.22,6.936,6.936,0,0,0-4.54.62,6.813,6.813,0,0,0-3.59,2.65,3.682,3.682,0,0,0,1.78,5.08,3.8,3.8,0,0,0,2.93-.11,3.731,3.731,0,0,0,2.09-1.89,3.042,3.042,0,0,0,.07-2.52,2.488,2.488,0,0,0-1.63-1.48,5.285,5.285,0,0,1,2.58-.42,1.41,1.41,0,0,1,1,.84,1.127,1.127,0,0,1,.03.88,1.483,1.483,0,0,1-.72.73l1,1.83A3.309,3.309,0,0,0,1299.46,1164.95Zm-6.2-1.1a1.307,1.307,0,0,1,.84.78,1.327,1.327,0,0,1-.06,1.18,2.43,2.43,0,0,1-1.32,1,2.336,2.336,0,0,1-1.57.21,1.229,1.229,0,0,1-.8-0.74,1.4,1.4,0,0,1,.11-1.23,2.48,2.48,0,0,1,1.31-1.06A2.058,2.058,0,0,1,1293.26,1163.85Zm10.36,9.38-0.66-1.61a4,4,0,0,1-2.17-.57,6.348,6.348,0,0,1-1.66-1.3l-1.8.74a7.5,7.5,0,0,0,2.55,1.95l-7.48,3.06,0.81,1.99Z"/>
  <path id="_62" data-name="62" class="cls-4" d="M1244.17,1182.56a6.89,6.89,0,1,1-7.4,6.69A7.061,7.061,0,0,1,1244.17,1182.56Z"/>
  <path id="_60" data-name="60" class="cls-5" d="M1245.9,1185.44a2.528,2.528,0,0,0-.3-1.75,2.947,2.947,0,0,0-2.08-1.57,5.56,5.56,0,0,0-3.55.88,5.45,5.45,0,0,0-2.63,2.41,2.8,2.8,0,0,0,.13,2.46,2.759,2.759,0,0,0,1.72,1.43,3.007,3.007,0,0,0,2.32-.34,2.942,2.942,0,0,0,1.49-1.67,2.427,2.427,0,0,0-.15-2.01,2.007,2.007,0,0,0-1.42-1.05,4.052,4.052,0,0,1,2.01-.54,1.12,1.12,0,0,1,.87.57,0.951,0.951,0,0,1,.1.71,1.2,1.2,0,0,1-.52.63l0.95,1.38A2.7,2.7,0,0,0,1245.9,1185.44Zm-5.03-.35a1.058,1.058,0,0,1,.74.55,1.09,1.09,0,0,1,.05.95,1.925,1.925,0,0,1-.96.9,1.871,1.871,0,0,1-1.23.3,0.989,0.989,0,0,1-.7-0.52,1.1,1.1,0,0,1-.02-0.99,1.976,1.976,0,0,1,.95-0.95A1.677,1.677,0,0,1,1240.87,1185.09Zm6.56,3.92a5.93,5.93,0,0,0-3.62.95,6,6,0,0,0-2.78,2.4,2.589,2.589,0,0,0,.12,2.33,2.4,2.4,0,0,0,1.77,1.35,5.9,5.9,0,0,0,3.63-.95,5.963,5.963,0,0,0,2.79-2.5,2.7,2.7,0,0,0-1.91-3.58h0Zm0.6,2.61a1.545,1.545,0,0,1-.51.72,9.552,9.552,0,0,1-1.82,1.17,9.827,9.827,0,0,1-2.06.9,1.338,1.338,0,0,1-.8,0,0.882,0.882,0,0,1-.44-0.39,0.839,0.839,0,0,1-.09-0.58,1.585,1.585,0,0,1,.5-0.72,14.483,14.483,0,0,1,3.89-2.08,1.338,1.338,0,0,1,.8,0,0.821,0.821,0,0,1,.44.4A0.83,0.83,0,0,1,1248.03,1191.62Z"/>
  <path id="_67" data-name="67" class="cls-4" d="M1631.82,1049.54a9.509,9.509,0,1,1-10.22,9.22A9.74,9.74,0,0,1,1631.82,1049.54Z"/>
  <path id="_67-2" data-name="67" class="cls-5" d="M1630.73,1056.31a3.259,3.259,0,0,0-1.04-2.26,4.12,4.12,0,0,0-2.4-.83c-4.09-.11-4.5,3.83-4.56,6.08-0.08,2.94.53,5.96,4.12,6.06,2.28,0.06,3.91-1.63,3.98-4.21a3.5,3.5,0,0,0-3.52-3.75,2.49,2.49,0,0,0-2.24.93l-0.03-.04c0.12-1.53.52-3.25,2.04-3.21a1.21,1.21,0,0,1,1.33,1.17Zm-2.24,4.98c-0.04,1.6-.84,2.22-1.69,2.2a1.946,1.946,0,0,1-1.79-2.25,1.764,1.764,0,0,1,1.84-1.98A1.735,1.735,0,0,1,1628.49,1061.29Zm11.94-7.51-8.33-.23-0.1,2.06,5.88,0.16a16.49,16.49,0,0,0-4.48,9.45l2.4,0.07a16.154,16.154,0,0,1,4.58-9.71Z"/>
  <path id="E200" class="cls-4" d="M1116.33,1135.37c4.17-.03,7.56,2.91,7.58,6.56s-3.34,6.61-7.5,6.64-7.56-2.91-7.58-6.56S1112.17,1135.39,1116.33,1135.37Z"/>
  <path id="_200" data-name="200" class="cls-5" d="M1113.19,1137.04a1.838,1.838,0,0,1,.43.09c0.16,0.05.49,0.18,0.99,0.4a8.9,8.9,0,0,0,1.12.41,3.294,3.294,0,0,0,.99.11,2.344,2.344,0,0,0,.85-0.2,1.751,1.751,0,0,0,.97-1.06,2.158,2.158,0,0,0-.15-1.63,2.432,2.432,0,0,0-1.04-1.18,2.073,2.073,0,0,0-1.67-.03l0.4,1.21a1.314,1.314,0,0,1,.85-0.08,0.976,0.976,0,0,1,.53,1.16,0.907,0.907,0,0,1-.5.48,1.5,1.5,0,0,1-.83.08,8.96,8.96,0,0,1-1.43-.52,8.566,8.566,0,0,0-2.05-.65,3.029,3.029,0,0,0-1.34.13l1.85,4.08,1.08-.49Zm6.38,2.39a4.36,4.36,0,0,0-2.74.51,4.422,4.422,0,0,0-2.19,1.65,1.916,1.916,0,0,0-.04,1.73,1.823,1.823,0,0,0,1.25,1.1,4.426,4.426,0,0,0,2.75-.52,4.357,4.357,0,0,0,2.2-1.71,2,2,0,0,0-1.23-2.76h0Zm0.31,1.96a1.221,1.221,0,0,1-.41.52,7.561,7.561,0,0,1-1.42.77,7.074,7.074,0,0,1-1.58.56,0.911,0.911,0,0,1-.59-0.04,0.624,0.624,0,0,1-.31-0.31,0.666,0.666,0,0,1-.04-0.44,1.15,1.15,0,0,1,.41-0.51,7.561,7.561,0,0,1,1.42-.77,7.835,7.835,0,0,1,1.58-.57,1.027,1.027,0,0,1,.6.04,0.624,0.624,0,0,1,.3.32A0.584,0.584,0,0,1,1119.88,1141.39Zm2.13,3.44a6.121,6.121,0,0,0-4.93,2.16,1.937,1.937,0,0,0-.04,1.74,1.832,1.832,0,0,0,1.25,1.09,4.426,4.426,0,0,0,2.75-.52,4.357,4.357,0,0,0,2.2-1.71,2,2,0,0,0-1.23-2.76h0Zm0.31,1.96a1.166,1.166,0,0,1-.41.52,7.561,7.561,0,0,1-1.42.77,7.074,7.074,0,0,1-1.58.56,0.929,0.929,0,0,1-.59-0.03,0.643,0.643,0,0,1-.31-0.32,0.666,0.666,0,0,1-.04-0.44,1.206,1.206,0,0,1,.41-0.51,7.561,7.561,0,0,1,1.42-.77,7.835,7.835,0,0,1,1.58-.57,1.027,1.027,0,0,1,.6.04,0.624,0.624,0,0,1,.3.32A0.588,0.588,0,0,1,1122.32,1146.79Z"/>
  <path id="E201" class="cls-4" d="M1146.35,1190.03c4.61-.02,8.36,3.23,8.39,7.26s-3.7,7.32-8.31,7.35-8.36-3.22-8.39-7.26S1141.74,1190.06,1146.35,1190.03Z"/>
  <path id="_201" data-name="201" class="cls-5" d="M1141.96,1192.43a3.23,3.23,0,0,1,.55.12c0.2,0.06.62,0.23,1.26,0.5a11.81,11.81,0,0,0,1.43.53,4.431,4.431,0,0,0,1.25.14,2.767,2.767,0,0,0,1.09-.26,2.262,2.262,0,0,0,1.24-1.35,2.765,2.765,0,0,0-.2-2.08,2.976,2.976,0,0,0-1.32-1.5,2.633,2.633,0,0,0-2.13-.04l0.52,1.55a1.543,1.543,0,0,1,1.07-.1,1.046,1.046,0,0,1,.61.61,1.1,1.1,0,0,1,.07.86,1.132,1.132,0,0,1-.64.61,1.811,1.811,0,0,1-1.05.1,11.366,11.366,0,0,1-1.83-.66,10.719,10.719,0,0,0-2.61-.83,3.942,3.942,0,0,0-1.71.17l2.35,5.2,1.38-.62Zm8.12,3.04a5.581,5.581,0,0,0-3.49.66,5.65,5.65,0,0,0-2.78,2.09,2.417,2.417,0,0,0-.05,2.22,2.334,2.334,0,0,0,1.58,1.4,5.729,5.729,0,0,0,3.51-.67,5.608,5.608,0,0,0,2.81-2.18,2.3,2.3,0,0,0,.01-2.12,2.329,2.329,0,0,0-1.59-1.4h0Zm0.4,2.51a1.4,1.4,0,0,1-.52.65,8.883,8.883,0,0,1-1.81.99,9.256,9.256,0,0,1-2.01.72,1.3,1.3,0,0,1-.76-0.05,0.819,0.819,0,0,1-.39-0.41,0.8,0.8,0,0,1-.05-0.55,1.433,1.433,0,0,1,.53-0.65,8.883,8.883,0,0,1,1.81-.99,9.256,9.256,0,0,1,2.01-.72,1.22,1.22,0,0,1,.76.05,0.8,0.8,0,0,1,.39.4A0.83,0.83,0,0,1,1150.48,1197.98Zm4.88,7.06-0.54-1.2a3.082,3.082,0,0,1-1.66-.38,4.8,4.8,0,0,1-1.3-.94l-1.34.61a5.5,5.5,0,0,0,1.99,1.41l-5.6,2.53,0.67,1.48Z"/>
  <path id="E202" class="cls-4" d="M1179.64,1263.3c4.93-.03,8.95,3.45,8.98,7.77s-3.96,7.84-8.89,7.86-8.96-3.44-8.98-7.76S1174.7,1263.33,1179.64,1263.3Z"/>
  <path id="_202" data-name="202" class="cls-5" d="M1174.6,1265.29a2.036,2.036,0,0,1,.51.11,10.762,10.762,0,0,1,1.17.47,10.05,10.05,0,0,0,1.33.48,3.879,3.879,0,0,0,1.17.14,2.928,2.928,0,0,0,1-.24,2.091,2.091,0,0,0,1.16-1.26,2.561,2.561,0,0,0-.18-1.93,2.942,2.942,0,0,0-1.23-1.4,2.507,2.507,0,0,0-1.99-.03l0.49,1.44a1.436,1.436,0,0,1,.99-0.1,0.985,0.985,0,0,1,.58.57,1.032,1.032,0,0,1,.06.8,1.055,1.055,0,0,1-.6.57,1.717,1.717,0,0,1-.97.09,9.88,9.88,0,0,1-1.7-.61,9.986,9.986,0,0,0-2.43-.77,3.548,3.548,0,0,0-1.59.15l2.19,4.84,1.28-.58Zm7.55,2.82a7.262,7.262,0,0,0-5.83,2.56,2.237,2.237,0,0,0-.04,2.06,2.137,2.137,0,0,0,1.47,1.3,7.1,7.1,0,0,0,5.87-2.65,2.375,2.375,0,0,0-1.47-3.27h0Zm0.37,2.33a1.366,1.366,0,0,1-.49.61,8.41,8.41,0,0,1-1.68.92,8.815,8.815,0,0,1-1.86.67,1.215,1.215,0,0,1-.71-0.05,0.762,0.762,0,0,1-.4-0.89,1.263,1.263,0,0,1,.48-0.61,9.2,9.2,0,0,1,1.68-.91,8.476,8.476,0,0,1,1.87-.67,1.227,1.227,0,0,1,.71.04,0.739,0.739,0,0,1,.36.38A0.7,0.7,0,0,1,1182.52,1270.44Zm-2.14,7.64a2.6,2.6,0,0,1,.51.11c0.19,0.06.58,0.21,1.17,0.47a10.481,10.481,0,0,0,1.33.49,3.847,3.847,0,0,0,1.17.13,2.53,2.53,0,0,0,1-.24,2.074,2.074,0,0,0,1.16-1.25,2.546,2.546,0,0,0-.19-1.94,2.806,2.806,0,0,0-1.22-1.39,2.461,2.461,0,0,0-1.99-.04l0.49,1.44a1.424,1.424,0,0,1,.99-0.09,1.129,1.129,0,0,1,.64,1.36,1.055,1.055,0,0,1-.6.57,1.632,1.632,0,0,1-.97.1,10.89,10.89,0,0,1-1.7-.61,10.115,10.115,0,0,0-2.43-.78,3.858,3.858,0,0,0-1.59.15l2.19,4.84,1.28-.58Z"/>
  <path id="E203" class="cls-4" d="M1214.33,1337.16c5.06-.03,9.19,3.54,9.21,7.97s-4.06,8.05-9.12,8.08-9.19-3.55-9.22-7.98S1209.26,1337.18,1214.33,1337.16Z"/>
  <path id="_203" data-name="203" class="cls-5" d="M1209.16,1339.2a2.206,2.206,0,0,1,.52.11q0.285,0.09,1.2.48a9.95,9.95,0,0,0,1.36.5,4.168,4.168,0,0,0,1.21.14,2.933,2.933,0,0,0,1.03-.25,2.094,2.094,0,0,0,1.18-1.29,2.6,2.6,0,0,0-.19-1.98,2.907,2.907,0,0,0-1.26-1.44,2.519,2.519,0,0,0-2.03-.03l0.49,1.48a1.491,1.491,0,0,1,1.03-.1,1.031,1.031,0,0,1,.58.58,1.042,1.042,0,0,1,.07.82,1.08,1.08,0,0,1-.62.58,1.645,1.645,0,0,1-1,.1,11.246,11.246,0,0,1-1.74-.62,10,10,0,0,0-2.49-.8,3.884,3.884,0,0,0-1.63.16l2.24,4.96,1.32-.59Zm7.75,2.9a7.434,7.434,0,0,0-5.99,2.62,2.33,2.33,0,0,0-.05,2.12,2.232,2.232,0,0,0,1.52,1.33,7.283,7.283,0,0,0,6.02-2.72,2.435,2.435,0,0,0-1.5-3.35h0Zm0.38,2.39a1.419,1.419,0,0,1-.5.62,8.5,8.5,0,0,1-1.73.94,9.152,9.152,0,0,1-1.91.69,1.2,1.2,0,0,1-.73-0.05,0.761,0.761,0,0,1-.37-0.38,0.807,0.807,0,0,1-.05-0.53,1.419,1.419,0,0,1,.5-0.62,8.5,8.5,0,0,1,1.73-.94,9.184,9.184,0,0,1,1.92-.69,1.222,1.222,0,0,1,.73.04,0.873,0.873,0,0,1,.37.39A0.8,0.8,0,0,1,1217.29,1344.49Zm-3.63,6.98a2.652,2.652,0,0,0,.17,1.92,2.7,2.7,0,0,0,1.49,1.46,2.438,2.438,0,0,0,1.98-.04,1.91,1.91,0,0,1,3.16-1.83,1.9,1.9,0,0,0,.99-1.07,2.432,2.432,0,0,0-.09-1.97,2.789,2.789,0,0,0-.73-1,1.974,1.974,0,0,0-.97-0.48,3.1,3.1,0,0,0-1.26.07l0.37,1.41a1.274,1.274,0,0,1,.88-0.02,0.929,0.929,0,0,1,.53.5,0.883,0.883,0,0,1,.04.69,0.844,0.844,0,0,1-.49.49,0.99,0.99,0,0,1-.84.02,1.347,1.347,0,0,1-.65-0.77l-1.22.37a3.275,3.275,0,0,1,.4.6,1.025,1.025,0,0,1,0,.84,1.29,1.29,0,0,1-.72.67,1.409,1.409,0,0,1-1.03.11,1.09,1.09,0,0,1-.67-0.59,1.062,1.062,0,0,1-.03-0.82,1.449,1.449,0,0,1,.64-0.72l-0.79-1.29A2.479,2.479,0,0,0,1213.66,1351.47Z"/>
  <path id="E208" class="cls-4" d="M1076.5,1297.12c5.9-.03,10.7,4.12,10.73,9.28s-4.73,9.37-10.62,9.4-10.7-4.12-10.73-9.28S1070.61,1297.15,1076.5,1297.12Z"/>
  <path id="_208" data-name="208" class="cls-5" d="M1070.49,1299.49a3.277,3.277,0,0,1,.61.14c0.22,0.06.68,0.25,1.39,0.55a11.947,11.947,0,0,0,1.59.59,4.815,4.815,0,0,0,1.4.16,3.2,3.2,0,0,0,1.2-.29,2.448,2.448,0,0,0,1.37-1.5,3.074,3.074,0,0,0-.21-2.31,3.424,3.424,0,0,0-1.47-1.67,2.956,2.956,0,0,0-2.37-.04l0.58,1.72a1.716,1.716,0,0,1,1.19-.11,1.167,1.167,0,0,1,.68.68,1.236,1.236,0,0,1,.08.95,1.273,1.273,0,0,1-.72.68,1.93,1.93,0,0,1-1.16.11,12.233,12.233,0,0,1-2.03-.73,12.275,12.275,0,0,0-2.9-.92,4.336,4.336,0,0,0-1.9.18l2.61,5.78,1.53-.69Zm9.02,3.38a6.2,6.2,0,0,0-3.88.74,6.308,6.308,0,0,0-3.1,2.32,2.731,2.731,0,0,0-.05,2.46,2.6,2.6,0,0,0,1.76,1.55,8.5,8.5,0,0,0,7.02-3.16,2.844,2.844,0,0,0-1.75-3.91h0Zm0.44,2.79a1.634,1.634,0,0,1-.58.72,10.491,10.491,0,0,1-2.02,1.09,9.553,9.553,0,0,1-2.22.8,1.353,1.353,0,0,1-.85-0.05,0.9,0.9,0,0,1-.43-0.45,0.859,0.859,0,0,1-.05-0.61,1.579,1.579,0,0,1,.58-0.73,10.558,10.558,0,0,1,2.01-1.09,10.093,10.093,0,0,1,2.23-.8,1.353,1.353,0,0,1,.85.05,0.9,0.9,0,0,1,.43.45A0.882,0.882,0,0,1,1079.95,1305.66Zm-1.24,6.15a2.783,2.783,0,0,0-1.44.24,2.656,2.656,0,0,0-1.58,1.82,3.408,3.408,0,0,0,.27,2.23,3.008,3.008,0,0,0,1.66,1.68,2.809,2.809,0,0,0,2.28-.11,2.389,2.389,0,0,0,1.1-.95,2.5,2.5,0,0,0,.35-1.46,2.162,2.162,0,0,0,1.11.55,2.1,2.1,0,0,0,1.2-.17,2.315,2.315,0,0,0,1.29-1.4,2.991,2.991,0,0,0-.24-2.19,2.955,2.955,0,0,0-1.49-1.62,2.271,2.271,0,0,0-1.89.04,2.093,2.093,0,0,0-.9.76,2.131,2.131,0,0,0-.33,1.27A2.481,2.481,0,0,0,1078.71,1311.81Zm4.08,0.22a1.16,1.16,0,0,1,.62.63,1.089,1.089,0,0,1,.06.86,1.109,1.109,0,0,1-.62.62,1.046,1.046,0,0,1-1.51-.56A1.173,1.173,0,0,1,1082.79,1312.03Zm-3.59,1.46a1.148,1.148,0,0,1,.83.71,1.275,1.275,0,0,1,.02,1.03,1.5,1.5,0,0,1-.82.78,1.665,1.665,0,0,1-1.21.14,1.227,1.227,0,0,1-.75-0.68,1.258,1.258,0,0,1-.01-1.04,1.644,1.644,0,0,1,.9-0.83A1.684,1.684,0,0,1,1079.2,1313.49Z"/>
  <path id="E205" class="cls-4" d="M1170.98,1466.08c6.15-.04,11.16,4.3,11.19,9.68s-4.93,9.77-11.08,9.8-11.16-4.29-11.19-9.68S1164.83,1466.11,1170.98,1466.08Z"/>
  <path id="_205" data-name="205" class="cls-5" d="M1164.7,1468.55a3.372,3.372,0,0,1,.64.14c0.23,0.07.71,0.27,1.46,0.58a10.682,10.682,0,0,0,1.65.61,4.932,4.932,0,0,0,1.46.17,3.418,3.418,0,0,0,1.25-.3,2.58,2.58,0,0,0,1.44-1.56,3.194,3.194,0,0,0-.23-2.41,3.474,3.474,0,0,0-1.53-1.74,3.029,3.029,0,0,0-2.47-.04l0.6,1.79a1.781,1.781,0,0,1,1.25-.12,1.267,1.267,0,0,1,.71.71,1.241,1.241,0,0,1,.07.99,1.3,1.3,0,0,1-.74.71,2.015,2.015,0,0,1-1.21.12,12.984,12.984,0,0,1-2.12-.76,12.347,12.347,0,0,0-3.02-.96,4.532,4.532,0,0,0-1.98.18l2.72,6.03,1.6-.72Zm9.41,3.53a6.45,6.45,0,0,0-4.04.76,6.553,6.553,0,0,0-3.23,2.43,2.787,2.787,0,0,0-.05,2.56,2.679,2.679,0,0,0,1.83,1.62,6.6,6.6,0,0,0,4.06-.77,6.51,6.51,0,0,0,3.26-2.53,2.954,2.954,0,0,0-1.83-4.07h0Zm0.46,2.9a1.7,1.7,0,0,1-.6.76,11.465,11.465,0,0,1-2.1,1.14,10.914,10.914,0,0,1-2.32.83,1.478,1.478,0,0,1-.89-0.05,1.025,1.025,0,0,1-.45-0.47,0.942,0.942,0,0,1-.05-0.64,1.7,1.7,0,0,1,.6-0.76,16.094,16.094,0,0,1,4.43-1.98,1.511,1.511,0,0,1,.88.06,0.9,0.9,0,0,1,.45.47A0.887,0.887,0,0,1,1174.57,1474.98Zm-4.39,8.58a3.283,3.283,0,0,0,.25,2.33,3.131,3.131,0,0,0,2.28,1.89,3.569,3.569,0,0,0,2.27-.25,3.321,3.321,0,0,0,1.8-1.77,2.842,2.842,0,0,0-.05-2.32,2.8,2.8,0,0,0-.81-1.04l1.64-.42,1.47,3.24,1.61-.73-2.06-4.54-5.07,1.22,0.43,1.49a1.956,1.956,0,0,1,1.26,1.03,1.362,1.362,0,0,1,.02,1.15,1.9,1.9,0,0,1-1.07.93,2.22,2.22,0,0,1-1.49.23,1.286,1.286,0,0,1-.85-0.72,1.324,1.324,0,0,1-.04-0.98,1.574,1.574,0,0,1,.73-0.85l-0.95-1.64A3.011,3.011,0,0,0,1170.18,1483.56Z"/>
  <path id="E205_copia" data-name="E205 copia" class="cls-4" d="M1126.18,1674.05c2.33-5.75,8.29-8.75,13.32-6.71s7.21,8.34,4.88,14.09-8.29,8.75-13.31,6.71S1123.85,1679.79,1126.18,1674.05Z"/>
  <path id="_205_copia" data-name="205 copia" class="cls-5" d="M1126.08,1680.85a2.891,2.891,0,0,1,.37-0.54c0.16-.19.52-0.57,1.11-1.14a12.384,12.384,0,0,0,1.2-1.3,5.526,5.526,0,0,0,.72-1.3,3.431,3.431,0,0,0,.19-1.28,2.587,2.587,0,0,0-.9-1.94,3.21,3.21,0,0,0-2.34-.71,3.576,3.576,0,0,0-2.2.75,3.13,3.13,0,0,0-.99,2.29l1.9,0.13a1.852,1.852,0,0,1,.37-1.21,1.291,1.291,0,0,1,.93-0.39,1.312,1.312,0,0,1,.96.31,1.325,1.325,0,0,1,.37.97,2.22,2.22,0,0,1-.35,1.18,14.325,14.325,0,0,1-1.52,1.67,12.5,12.5,0,0,0-2.06,2.45,4.616,4.616,0,0,0-.59,1.92l6.66-.22-0.05-1.77Zm6.9-7.42a9.059,9.059,0,0,0,.18,8,2.841,2.841,0,0,0,2.37,1.04,2.732,2.732,0,0,0,2.21-1.09,8.883,8.883,0,0,0-.27-8.09,2.982,2.982,0,0,0-4.49.14h0Zm2.88,0.69a1.691,1.691,0,0,1,.47.85,16.1,16.1,0,0,1,.15,4.88,1.462,1.462,0,0,1-.4.8,0.969,0.969,0,0,1-.61.24,0.99,0.99,0,0,1-.62-0.19,1.732,1.732,0,0,1-.47-0.86,11.086,11.086,0,0,1-.25-2.39,10.574,10.574,0,0,1,.11-2.49,1.531,1.531,0,0,1,.39-0.8,0.888,0.888,0,0,1,.61-0.24A0.924,0.924,0,0,1,1135.86,1674.12Zm6.3,7.39a3.369,3.369,0,0,0,2.27.66,3.179,3.179,0,0,0,2.64-1.4,3.67,3.67,0,0,0,.64-2.21,3.369,3.369,0,0,0-.96-2.36,2.847,2.847,0,0,0-2.18-.85,3.055,3.055,0,0,0-1.29.36l0.24-1.69,3.59-.12-0.06-1.78-5.03.17-0.8,5.19,1.55,0.17a1.973,1.973,0,0,1,1.45-.77,1.348,1.348,0,0,1,1.08.42,2.029,2.029,0,0,1,.45,1.36,2.228,2.228,0,0,1-.36,1.47,1.323,1.323,0,0,1-.99.52,1.344,1.344,0,0,1-.94-0.35,1.634,1.634,0,0,1-.51-1l-1.89.26A3.092,3.092,0,0,0,1142.16,1681.51Z"/>
  <path id="E205_copia_2" data-name="E205 copia 2" class="cls-4" d="M1371.56,1832.43c5.45-.03,9.89,3.81,9.92,8.58s-4.37,8.66-9.82,8.69-9.89-3.81-9.92-8.58S1366.11,1832.46,1371.56,1832.43Z"/>
  <path id="_205_copia_2" data-name="205 copia 2" class="cls-5" d="M1366,1834.63a2.091,2.091,0,0,1,.56.12c0.21,0.06.64,0.23,1.3,0.51a10.7,10.7,0,0,0,1.46.54,4.413,4.413,0,0,0,1.29.15,2.745,2.745,0,0,0,1.11-.27,2.267,2.267,0,0,0,1.28-1.38,2.873,2.873,0,0,0-.2-2.14,3.19,3.19,0,0,0-1.36-1.54,2.773,2.773,0,0,0-2.19-.04l0.53,1.59a1.572,1.572,0,0,1,1.1-.1,1.128,1.128,0,0,1,.64.63,1.14,1.14,0,0,1,.06.88,1.157,1.157,0,0,1-.66.62,1.787,1.787,0,0,1-1.07.11,12.084,12.084,0,0,1-1.87-.67,11.411,11.411,0,0,0-2.69-.86,4.109,4.109,0,0,0-1.75.17l2.41,5.34,1.42-.64Zm8.34,3.12a5.713,5.713,0,0,0-3.59.68,5.825,5.825,0,0,0-2.86,2.14,2.51,2.51,0,0,0-.04,2.28,2.351,2.351,0,0,0,1.62,1.43,7.816,7.816,0,0,0,6.49-2.92,2.422,2.422,0,0,0,.01-2.18,2.366,2.366,0,0,0-1.63-1.43h0Zm0.41,2.57a1.432,1.432,0,0,1-.54.67,9.184,9.184,0,0,1-1.86,1.01,9.4,9.4,0,0,1-2.06.74,1.278,1.278,0,0,1-.78-0.05,0.839,0.839,0,0,1-.4-0.41,0.867,0.867,0,0,1-.05-0.57,1.432,1.432,0,0,1,.54-0.67,9.724,9.724,0,0,1,1.86-1.01,9.4,9.4,0,0,1,2.06-.74,1.278,1.278,0,0,1,.78.05,0.8,0.8,0,0,1,.4.41A0.808,0.808,0,0,1,1374.75,1840.32Zm-3.9,7.6a2.994,2.994,0,0,0,.22,2.07,2.786,2.786,0,0,0,2.03,1.67,3.116,3.116,0,0,0,2.01-.22,2.913,2.913,0,0,0,1.59-1.57,2.486,2.486,0,0,0-.04-2.05,2.572,2.572,0,0,0-.72-0.93l1.46-.37,1.29,2.88,1.43-.65-1.82-4.03-4.49,1.09,0.38,1.32a1.723,1.723,0,0,1,1.11.91,1.178,1.178,0,0,1,.02,1.02,1.732,1.732,0,0,1-.95.83,1.924,1.924,0,0,1-1.32.19,1.138,1.138,0,0,1-.78-1.5,1.418,1.418,0,0,1,.64-0.76l-0.84-1.44A2.664,2.664,0,0,0,1370.85,1847.92Z"/>
  <path id="E205_copia_3" data-name="E205 copia 3" class="cls-4" d="M1252.14,1390.78c4.96-.03,9.01,3.47,9.03,7.81s-3.98,7.9-8.94,7.92-9.02-3.47-9.04-7.81S1247.17,1390.81,1252.14,1390.78Z"/>
  <path id="_205_copia_3" data-name="205 copia 3" class="cls-5" d="M1247.07,1392.78a2.036,2.036,0,0,1,.51.11c0.19,0.06.58,0.21,1.18,0.47a9.1,9.1,0,0,0,1.33.49,4.338,4.338,0,0,0,1.18.14,2.73,2.73,0,0,0,1.01-.25,2.063,2.063,0,0,0,1.16-1.26,2.614,2.614,0,0,0-.18-1.95,2.817,2.817,0,0,0-1.24-1.4,2.424,2.424,0,0,0-1.99-.03l0.49,1.44a1.451,1.451,0,0,1,1-.09,1.176,1.176,0,0,1,.64,1.37,1.108,1.108,0,0,1-.61.57,1.656,1.656,0,0,1-.98.1,10.89,10.89,0,0,1-1.7-.61,9.547,9.547,0,0,0-2.44-.78,3.579,3.579,0,0,0-1.6.15l2.19,4.87,1.29-.58Zm7.6,2.84a7.28,7.28,0,0,0-5.88,2.58,2.287,2.287,0,0,0-.04,2.07,2.187,2.187,0,0,0,1.48,1.31,7.16,7.16,0,0,0,5.91-2.67,2.159,2.159,0,0,0,.01-1.98,2.187,2.187,0,0,0-1.48-1.31h0Zm0.37,2.35a1.366,1.366,0,0,1-.49.61,12.9,12.9,0,0,1-3.57,1.59,1.141,1.141,0,0,1-.71-0.04,0.8,0.8,0,0,1-.37-0.38,0.776,0.776,0,0,1-.04-0.52,1.366,1.366,0,0,1,.49-0.61,8.359,8.359,0,0,1,1.69-.92,9.272,9.272,0,0,1,1.88-.68,1.205,1.205,0,0,1,.71.05,0.761,0.761,0,0,1,.37.38A0.776,0.776,0,0,1,1255.04,1397.97Zm-3.55,6.92a2.676,2.676,0,0,0,.2,1.88,2.513,2.513,0,0,0,1.84,1.53,2.82,2.82,0,0,0,1.83-.2,2.66,2.66,0,0,0,1.46-1.43,2.3,2.3,0,0,0-.04-1.87,2.13,2.13,0,0,0-.66-0.84l1.33-.34,1.18,2.62,1.3-.59-1.65-3.67-4.1.99,0.35,1.2a1.559,1.559,0,0,1,1.01.83,1.084,1.084,0,0,1,.02.93,1.579,1.579,0,0,1-.87.75,1.7,1.7,0,0,1-1.2.18,1.04,1.04,0,0,1-.71-1.37,1.284,1.284,0,0,1,.58-0.69l-0.76-1.32A2.466,2.466,0,0,0,1251.49,1404.89Z"/>
  <path id="E206" class="cls-4" d="M1387.23,1658.94c4.76-.03,8.63,3.32,8.65,7.49s-3.81,7.56-8.57,7.58-8.63-3.32-8.65-7.49S1382.47,1658.97,1387.23,1658.94Z"/>
  <path id="_206" data-name="206" class="cls-5" d="M1382.37,1660.86a2.6,2.6,0,0,1,.5.1c0.17,0.06.55,0.21,1.12,0.45a9.128,9.128,0,0,0,1.28.47,3.634,3.634,0,0,0,1.13.13,2.551,2.551,0,0,0,.97-0.23,1.982,1.982,0,0,0,1.11-1.21,2.517,2.517,0,0,0-.17-1.86,2.747,2.747,0,0,0-1.19-1.35,2.4,2.4,0,0,0-1.91-.03l0.47,1.38a1.4,1.4,0,0,1,.96-0.09,0.988,0.988,0,0,1,.55.55,0.913,0.913,0,0,1-.52,1.32,1.613,1.613,0,0,1-.94.09,10.524,10.524,0,0,1-1.63-.59,9.658,9.658,0,0,0-2.34-.74,3.469,3.469,0,0,0-1.54.14l2.11,4.66,1.24-.55Zm7.28,2.72a6.908,6.908,0,0,0-5.62,2.47,2.132,2.132,0,0,0-.04,1.98,2.056,2.056,0,0,0,1.42,1.25,6.781,6.781,0,0,0,5.65-2.55,2.288,2.288,0,0,0-1.41-3.15h0Zm0.36,2.25a1.318,1.318,0,0,1-.47.58,8.028,8.028,0,0,1-1.62.88,8.263,8.263,0,0,1-1.8.65,1.112,1.112,0,0,1-.68-0.05,0.721,0.721,0,0,1-.35-0.36,0.692,0.692,0,0,1-.04-0.49,1.3,1.3,0,0,1,.46-0.59,12.692,12.692,0,0,1,3.43-1.53,1.121,1.121,0,0,1,.68.05A0.74,0.74,0,0,1,1390.01,1665.83Zm4.13,6.97a2.119,2.119,0,0,0-.15-1.51,2.493,2.493,0,0,0-1.67-1.45,4.688,4.688,0,0,0-3.07.53,4.593,4.593,0,0,0-2.37,1.89,2.385,2.385,0,0,0-.04,2.1,2.35,2.35,0,0,0,1.37,1.31,2.591,2.591,0,0,0,1.99-.15,2.485,2.485,0,0,0,1.37-1.33,2.065,2.065,0,0,0-.01-1.72,1.714,1.714,0,0,0-1.14-.97,3.472,3.472,0,0,1,1.74-.34,0.962,0.962,0,0,1,.7.54,0.79,0.79,0,0,1,.04.6,0.982,0.982,0,0,1-.47.51l0.72,1.23A2.317,2.317,0,0,0,1394.14,1672.8Zm-4.25-.6a0.921,0.921,0,0,1,.58,1.31,1.668,1.668,0,0,1-.87.72,1.57,1.57,0,0,1-1.06.18,0.857,0.857,0,0,1-.56-0.49,0.93,0.93,0,0,1,.04-0.84,1.693,1.693,0,0,1,.87-0.75A1.422,1.422,0,0,1,1389.89,1672.2Z"/>
  <path id="E207" class="cls-4" d="M1296.01,1697.36c1.87-4.87,6.84-7.5,11.1-5.86s6.2,6.9,4.33,11.77-6.83,7.49-11.1,5.86S1294.14,1702.23,1296.01,1697.36Z"/>
  <path id="_207" data-name="207" class="cls-5" d="M1296.03,1703.08a2.859,2.859,0,0,1,.31-0.46c0.13-.16.43-0.49,0.91-0.97a10.92,10.92,0,0,0,.99-1.12,4.361,4.361,0,0,0,.58-1.1,2.853,2.853,0,0,0,.15-1.09,2.2,2.2,0,0,0-.79-1.61,2.756,2.756,0,0,0-1.98-.57,2.987,2.987,0,0,0-1.84.68,2.614,2.614,0,0,0-.8,1.94l1.6,0.07a1.551,1.551,0,0,1,.29-1.02,1.09,1.09,0,0,1,.78-0.34,1.032,1.032,0,0,1,.81.25,1.117,1.117,0,0,1,.33.8,1.774,1.774,0,0,1-.28,1,11.567,11.567,0,0,1-1.25,1.43,10.411,10.411,0,0,0-1.69,2.1,3.883,3.883,0,0,0-.47,1.62l5.61-.29-0.08-1.49Zm5.69-6.35a5.456,5.456,0,0,0-.64,3.43,5.524,5.524,0,0,0,.92,3.3,2.4,2.4,0,0,0,2.01.83,2.278,2.278,0,0,0,1.84-.95,5.575,5.575,0,0,0,.64-3.45,5.5,5.5,0,0,0-.99-3.35,2.519,2.519,0,0,0-3.78.19h0Zm2.43,0.53a1.324,1.324,0,0,1,.41.71,8.761,8.761,0,0,1,.26,2.01,8.971,8.971,0,0,1-.06,2.09,1.171,1.171,0,0,1-.32.68,0.778,0.778,0,0,1-.5.21,0.824,0.824,0,0,1-.53-0.15,1.464,1.464,0,0,1-.41-0.71,8.925,8.925,0,0,1-.25-2.01,9.888,9.888,0,0,1,.05-2.1,1.307,1.307,0,0,1,.32-0.68,0.827,0.827,0,0,1,.51-0.21A0.751,0.751,0,0,1,1304.15,1697.26Zm7.84-.29a11.614,11.614,0,0,0-1.63,3.31,10.475,10.475,0,0,0-.53,3.56l1.54-.08a9.7,9.7,0,0,1,.23-2.52,10.728,10.728,0,0,1,.93-2.71,8.59,8.59,0,0,1,1.27-1.98l-0.06-1.16-5.46.29,0.07,1.48Z"/>
  <path id="E204" class="cls-4" d="M1410.66,1516.98c4.31-2.02,9.23-.6,11,3.17s-0.29,8.46-4.6,10.48-9.23.6-11-3.17S1406.36,1519,1410.66,1516.98Z"/>
  <path id="_204" data-name="204" class="cls-5" d="M1407.06,1520.76a2.212,2.212,0,0,1,.49-0.11c0.18-.03.59-0.05,1.21-0.07a8.8,8.8,0,0,0,1.36-.11,3.914,3.914,0,0,0,1.08-.35,2.461,2.461,0,0,0,.78-0.62,1.962,1.962,0,0,0,.5-1.56,2.422,2.422,0,0,0-.94-1.62,2.736,2.736,0,0,0-1.64-.73,2.364,2.364,0,0,0-1.74.78l1,1.06a1.394,1.394,0,0,1,.83-0.49,0.97,0.97,0,0,1,.73.27,0.953,0.953,0,0,1,.38.67,1.018,1.018,0,0,1-.29.74,1.707,1.707,0,0,1-.82.48,9.681,9.681,0,0,1-1.73.15,10.085,10.085,0,0,0-2.43.3,3.547,3.547,0,0,0-1.33.78l3.86,3.35,0.89-1.03Zm7.75-.58a6.962,6.962,0,0,0-4.07,4.6,2.192,2.192,0,0,0,.79,1.82,2.1,2.1,0,0,0,1.82.54,6.863,6.863,0,0,0,4.06-4.69,2.292,2.292,0,0,0-2.6-2.27h0Zm1.27,1.89a1.349,1.349,0,0,1-.19.73,8.144,8.144,0,0,1-1.1,1.48,8.488,8.488,0,0,1-1.36,1.34,1.088,1.088,0,0,1-.64.24,0.692,0.692,0,0,1-.47-0.18,0.715,0.715,0,0,1-.24-0.43,1.3,1.3,0,0,1,.18-0.73,8.293,8.293,0,0,1,1.1-1.48,8.462,8.462,0,0,1,1.36-1.34,1.187,1.187,0,0,1,.64-0.25,0.78,0.78,0,0,1,.47.18A0.754,0.754,0,0,1,1416.08,1522.07Zm2.02,10.04,1-1.16,0.72,0.62,0.84-.97-0.72-.62,3.16-3.65-0.92-.8-5.67,1.49-0.83.97,2.35,2.04-1,1.16Zm-0.55-4.2,3.03-.82-1.71,1.97Z"/>
  <path id="E78" class="cls-4" d="M1385.2,1447c4.33-2.15,9.36-.82,11.24,2.97s-0.11,8.6-4.44,10.75-9.36.81-11.24-2.97S1380.87,1449.14,1385.2,1447Z"/>
  <path id="_78" data-name="78" class="cls-5" d="M1387.79,1449.54a10.856,10.856,0,0,0-3.19,1.23,9.9,9.9,0,0,0-2.6,2.1l1.1,0.91a9.411,9.411,0,0,1,1.74-1.58,10.733,10.733,0,0,1,2.33-1.26,7.906,7.906,0,0,1,2.12-.55l0.69-.83-3.91-3.24-0.88,1.06Zm1.08,4.64a2.255,2.255,0,0,0-.98.69,2.2,2.2,0,0,0-.51,1.91,2.772,2.772,0,0,0,1,1.55,2.487,2.487,0,0,0,1.83.64,2.318,2.318,0,0,0,1.64-.9,1.968,1.968,0,0,0,.47-1.1,2.049,2.049,0,0,0-.27-1.2,1.737,1.737,0,0,0,1.01,0,1.648,1.648,0,0,0,.83-0.55,1.857,1.857,0,0,0,.44-1.5,2.436,2.436,0,0,0-.95-1.52,2.389,2.389,0,0,0-1.69-.66,1.88,1.88,0,0,0-1.38.71,1.835,1.835,0,0,0-.39.89,1.686,1.686,0,0,0,.22,1.04A2.037,2.037,0,0,0,1388.87,1454.18Zm3.08-1.31a1.021,1.021,0,0,1,1.04.86,0.9,0.9,0,0,1-.24.67,0.853,0.853,0,0,1-1.31.14,0.88,0.88,0,0,1-.36-0.62,0.942,0.942,0,0,1,.25-0.69A0.956,0.956,0,0,1,1391.95,1452.87Zm-2.12,2.37a0.916,0.916,0,0,1,.86.23,1,1,0,0,1,.39.75,1.205,1.205,0,0,1-.32.86,1.393,1.393,0,0,1-.84.55,0.994,0.994,0,0,1-.79-0.23,1.022,1.022,0,0,1-.39-0.77,1.364,1.364,0,0,1,.37-0.94A1.39,1.39,0,0,1,1389.83,1455.24Z"/>
  <path id="E79" class="cls-4" d="M1422.5,1406.98c4.17-2.53,9.35-1.62,11.56,2.03s0.63,8.66-3.54,11.19-9.35,1.62-11.56-2.03S1418.33,1409.51,1422.5,1406.98Z"/>
  <path id="_79" data-name="79" class="cls-5" d="M1425.32,1409.31a11.015,11.015,0,0,0-3.1,1.52,10.016,10.016,0,0,0-2.43,2.33l1.19,0.82a8.749,8.749,0,0,1,1.61-1.73,10.311,10.311,0,0,1,2.24-1.47,7.968,7.968,0,0,1,2.08-.74l0.62-.89-4.21-2.92-0.79,1.14Zm0.13,7.35a2.2,2.2,0,0,0,.94,1.25,2.6,2.6,0,0,0,2.24.4,4.844,4.844,0,0,0,2.41-2.09,4.725,4.725,0,0,0,1.1-2.92,2.42,2.42,0,0,0-1.08-1.86,2.38,2.38,0,0,0-1.89-.43,2.634,2.634,0,0,0-1.67,1.17,2.543,2.543,0,0,0-.51,1.9,2.143,2.143,0,0,0,.9,1.49,1.811,1.811,0,0,0,1.53.27,3.607,3.607,0,0,1-1.35,1.21,0.954,0.954,0,0,1-.89-0.1,0.815,0.815,0,0,1-.36-0.51,1.039,1.039,0,0,1,.15-0.69l-1.29-.7A2.376,2.376,0,0,0,1425.45,1416.66Zm4.07-1.71a0.947,0.947,0,0,1-.79-0.13,0.927,0.927,0,0,1-.41-0.72,1.708,1.708,0,0,1,.38-1.08,1.753,1.753,0,0,1,.84-0.73,0.887,0.887,0,0,1,.76.13,0.989,0.989,0,0,1,.4.76,1.7,1.7,0,0,1-.37,1.12A1.463,1.463,0,0,1,1429.52,1414.95Z"/>
  <path id="E80" class="cls-4" d="M1450.24,1307.51c4.76-.02,8.64,3.33,8.66,7.49s-3.81,7.56-8.57,7.59-8.64-3.33-8.66-7.49S1445.49,1307.54,1450.24,1307.51Z"/>
  <path id="_80" data-name="80" class="cls-5" d="M1447.59,1309.29a2.146,2.146,0,0,0-1.16.19,2.1,2.1,0,0,0-1.27,1.47,2.74,2.74,0,0,0,.21,1.8,2.481,2.481,0,0,0,1.34,1.36,2.286,2.286,0,0,0,1.84-.1,1.908,1.908,0,0,0,.89-0.76,1.994,1.994,0,0,0,.28-1.18,1.734,1.734,0,0,0,.9.44,1.579,1.579,0,0,0,.97-0.14,1.853,1.853,0,0,0,1.04-1.12,2.85,2.85,0,0,0-1.39-3.08,1.822,1.822,0,0,0-1.53.04,1.671,1.671,0,0,0-.73.61,1.723,1.723,0,0,0-.26,1.02A1.971,1.971,0,0,0,1447.59,1309.29Zm3.3,0.18a0.907,0.907,0,0,1,.5.5,0.863,0.863,0,0,1,.04.7,0.844,0.844,0,0,1-.49.49,0.949,0.949,0,0,1-.73.06,0.926,0.926,0,0,1-.5-0.51,0.91,0.91,0,0,1-.05-0.7,0.946,0.946,0,0,1,.52-0.5A0.887,0.887,0,0,1,1450.89,1309.47Zm-2.9,1.17a0.927,0.927,0,0,1,.67.57,1,1,0,0,1,.01.83,1.141,1.141,0,0,1-.66.63,1.325,1.325,0,0,1-.97.12,0.976,0.976,0,0,1-.61-0.55,1.025,1.025,0,0,1-.01-0.84,1.383,1.383,0,0,1,.73-0.67A1.348,1.348,0,0,1,1447.99,1310.64Zm5.82,3.77a5,5,0,0,0-3.13.59,5.092,5.092,0,0,0-2.5,1.88,2.192,2.192,0,0,0-.04,1.98,2.072,2.072,0,0,0,1.42,1.25,6.783,6.783,0,0,0,5.66-2.55,2.288,2.288,0,0,0-1.41-3.15h0Zm0.36,2.25a1.4,1.4,0,0,1-.47.58,7.9,7.9,0,0,1-1.63.88,8.051,8.051,0,0,1-1.79.65,1.158,1.158,0,0,1-.69-0.04,0.686,0.686,0,0,1-.34-0.37,0.694,0.694,0,0,1-.05-0.49,1.333,1.333,0,0,1,.47-0.59,8.426,8.426,0,0,1,1.63-.88,8.612,8.612,0,0,1,1.79-.65,1.146,1.146,0,0,1,.69.05,0.721,0.721,0,0,1,.35.36A0.78,0.78,0,0,1,1454.17,1316.66Z"/>
  <path id="E81" class="cls-4" d="M1527.95,1280.25c4.86,0.44,8.47,4.25,8.09,8.49s-4.64,7.33-9.5,6.89-8.47-4.25-8.08-8.5S1523.1,1279.8,1527.95,1280.25Z"/>
  <path id="_81" data-name="81" class="cls-5" d="M1525.07,1281.79a2.237,2.237,0,0,0-1.2.08,2.17,2.17,0,0,0-1.44,1.37,2.772,2.772,0,0,0,.04,1.86,2.479,2.479,0,0,0,1.23,1.52,2.347,2.347,0,0,0,1.88.09,2.027,2.027,0,0,0,.99-0.69,2.088,2.088,0,0,0,.4-1.18,1.827,1.827,0,0,0,.87.54,1.711,1.711,0,0,0,1-.04,1.908,1.908,0,0,0,1.17-1.05,2.878,2.878,0,0,0-1.11-3.27,1.848,1.848,0,0,0-1.56-.12,1.89,1.89,0,0,0-.81.55,1.784,1.784,0,0,0-.36,1.02A2.038,2.038,0,0,0,1525.07,1281.79Zm3.34,0.51a0.97,0.97,0,0,1,.47.57,0.87,0.87,0,0,1-.03.71,0.883,0.883,0,0,1-.55.46,0.964,0.964,0,0,1-.75-0.02,0.908,0.908,0,0,1-.46-0.56,0.936,0.936,0,0,1,.02-0.72,0.949,0.949,0,0,1,.58-0.46A0.893,0.893,0,0,1,1528.41,1282.3Zm-3.07.91a0.956,0.956,0,0,1,.63.65,1.008,1.008,0,0,1-.07.85,1.241,1.241,0,0,1-.73.58,1.409,1.409,0,0,1-1.01.02,0.986,0.986,0,0,1-.56-0.62,1.033,1.033,0,0,1,.07-0.86,1.378,1.378,0,0,1,.81-0.61A1.4,1.4,0,0,1,1525.34,1283.21Zm7.31,7.07-0.39-1.15a2.78,2.78,0,0,1-1.49-.49,4.49,4.49,0,0,1-1.1-.97l-1.28.43a5.04,5.04,0,0,0,1.69,1.47l-5.33,1.81,0.48,1.42Z"/>
  <path id="E82" class="cls-4" d="M1608.35,1252.65c4.96-.03,9,3.47,9.03,7.81s-3.98,7.88-8.94,7.91-9.01-3.47-9.03-7.81S1603.39,1252.68,1608.35,1252.65Z"/>
  <path id="_82" data-name="82" class="cls-5" d="M1605.59,1254.5a2.294,2.294,0,0,0-1.21.19,2.2,2.2,0,0,0-1.33,1.54,2.8,2.8,0,0,0,.22,1.88,2.546,2.546,0,0,0,1.4,1.41,2.393,2.393,0,0,0,1.92-.09,2.146,2.146,0,0,0,.93-0.8,2.176,2.176,0,0,0,.29-1.24,1.8,1.8,0,0,0,.93.47,1.694,1.694,0,0,0,1.01-.14,1.98,1.98,0,0,0,1.09-1.18,2.5,2.5,0,0,0-.2-1.84,2.468,2.468,0,0,0-1.25-1.37,1.944,1.944,0,0,0-1.6.04,1.76,1.76,0,0,0-.76.64,1.783,1.783,0,0,0-.27,1.06A2.076,2.076,0,0,0,1605.59,1254.5Zm3.43,0.18a0.965,0.965,0,0,1,.52.53,0.9,0.9,0,0,1,.05.73,0.93,0.93,0,0,1-.52.51,0.913,0.913,0,0,1-.75.06,0.95,0.95,0,0,1-.53-0.53,0.985,0.985,0,0,1-.05-0.73,0.974,0.974,0,0,1,.55-0.52A0.9,0.9,0,0,1,1609.02,1254.68Zm-3.02,1.23a0.938,0.938,0,0,1,.69.6,1.035,1.035,0,0,1,.02.86,1.278,1.278,0,0,1-.69.66,1.429,1.429,0,0,1-1.01.12,1.018,1.018,0,0,1-.63-0.57,1.007,1.007,0,0,1-.01-0.88,1.354,1.354,0,0,1,.76-0.7A1.426,1.426,0,0,1,1606,1255.91Zm1.38,7.52a2.858,2.858,0,0,1,.52.11c0.18,0.06.57,0.21,1.17,0.47a9.111,9.111,0,0,0,1.34.49,3.915,3.915,0,0,0,1.17.14,2.73,2.73,0,0,0,1.01-.25,2.013,2.013,0,0,0,1.16-1.26,2.586,2.586,0,0,0-.18-1.94,2.917,2.917,0,0,0-1.23-1.41,2.532,2.532,0,0,0-2-.03l0.49,1.45a1.464,1.464,0,0,1,1-.1,1.176,1.176,0,0,1,.64,1.37,1.069,1.069,0,0,1-.6.58,1.667,1.667,0,0,1-.98.09,10.181,10.181,0,0,1-1.71-.61,10.3,10.3,0,0,0-2.44-.78,3.906,3.906,0,0,0-1.6.15l2.2,4.87,1.29-.58Z"/>
  <path id="E83" class="cls-4" d="M1692.03,1234.2c5.15-.46,9.65,2.81,10.06,7.32s-3.44,8.53-8.59,8.99-9.65-2.81-10.05-7.32S1686.88,1234.66,1692.03,1234.2Z"/>
  <path id="_83" data-name="83" class="cls-5" d="M1689.33,1236.36a2.359,2.359,0,0,0-1.24.31,2.335,2.335,0,0,0-1.25,1.71,2.931,2.931,0,0,0,.4,1.93,2.7,2.7,0,0,0,1.57,1.35,2.5,2.5,0,0,0,1.98-.27,2.132,2.132,0,0,0,.9-0.91,2.187,2.187,0,0,0,.19-1.31,1.836,1.836,0,0,0,2.05.17,1.993,1.993,0,0,0,1.02-1.32,3.076,3.076,0,0,0-1.78-3.2,2,2,0,0,0-1.65.18,1.856,1.856,0,0,0-.74.73,1.935,1.935,0,0,0-.19,1.13A2.123,2.123,0,0,0,1689.33,1236.36Zm3.58-.11a1,1,0,0,1,.59.51,0.96,0.96,0,0,1,.11.75,1.123,1.123,0,0,1-1.28.7,1.111,1.111,0,0,1-.7-1.25,1.03,1.03,0,0,1,.52-0.6A0.99,0.99,0,0,1,1692.91,1236.25Zm-3.03,1.54a0.982,0.982,0,0,1,.77.56,1.1,1.1,0,0,1,.1.9,1.342,1.342,0,0,1-.66.74,1.513,1.513,0,0,1-1.05.21,1.03,1.03,0,0,1-.7-0.54,1.114,1.114,0,0,1-.09-0.91,1.491,1.491,0,0,1,.73-0.79A1.45,1.45,0,0,1,1689.88,1237.79Zm0.56,6.93a2.969,2.969,0,0,0,1.98,3.3,2.523,2.523,0,0,0,2.01-.21,2,2,0,0,0,.91-1,1.87,1.87,0,0,0,.04-1.32,1.964,1.964,0,0,0,2.1.19,1.943,1.943,0,0,0,.92-1.18,2.439,2.439,0,0,0-.26-2,2.943,2.943,0,0,0-.82-0.95,2.149,2.149,0,0,0-1.04-.41,3.264,3.264,0,0,0-1.27.19l0.49,1.39a1.3,1.3,0,0,1,.89-0.09,0.927,0.927,0,0,1,.59.47,0.861,0.861,0,0,1-.36,1.24,0.987,0.987,0,0,1-.85.08,1.392,1.392,0,0,1-.72-0.72l-1.22.48a2.694,2.694,0,0,1,.46.58,1.012,1.012,0,0,1,.08.85,1.362,1.362,0,0,1-.67.74,1.451,1.451,0,0,1-1.04.2,1.041,1.041,0,0,1-.73-0.54,1.056,1.056,0,0,1-.11-0.83,1.436,1.436,0,0,1,.59-0.78l-0.91-1.25A2.529,2.529,0,0,0,1690.44,1244.72Z"/>
  <path id="E191" class="cls-4" d="M1716.83,1420.55c2.24-5.01,7.62-7.47,12-5.5s6.12,7.62,3.87,12.63-7.63,7.47-12.01,5.5S1714.58,1425.56,1716.83,1420.55Z"/>
  <path id="_191" data-name="191" class="cls-5" d="M1718.51,1419.31h-1.37a3.111,3.111,0,0,1-1.07,1.4,4.975,4.975,0,0,1-1.43.82l-0.01,1.53a5.939,5.939,0,0,0,2.18-1.27l-0.02,6.34,1.69,0.01Zm4.32,8.45a2.484,2.484,0,0,0,1.66.56,2.911,2.911,0,0,0,2.33-1.06,5.435,5.435,0,0,0,.91-3.48,5.348,5.348,0,0,0-.85-3.4,2.728,2.728,0,0,0-2.19-1.05,2.676,2.676,0,0,0-2.02.82,2.951,2.951,0,0,0-.81,2.15,2.918,2.918,0,0,0,.75,2.08,2.362,2.362,0,0,0,1.79.81,2.029,2.029,0,0,0,1.59-.73,4,4,0,0,1-.48,1.99,1.042,1.042,0,0,1-.88.47,0.932,0.932,0,0,1-.67-0.24,1.156,1.156,0,0,1-.31-0.74l-1.63.18A2.669,2.669,0,0,0,1722.83,1427.76Zm2.68-4.18a1.078,1.078,0,0,1-1.66-.02,1.978,1.978,0,0,1-.33-1.26,1.819,1.819,0,0,1,.31-1.2,0.975,0.975,0,0,1,.78-0.37,1.077,1.077,0,0,1,.86.45,1.887,1.887,0,0,1,.37,1.27A1.693,1.693,0,0,1,1725.51,1423.58Zm8.62-4.22h-1.37a3.042,3.042,0,0,1-1.07,1.4,4.975,4.975,0,0,1-1.43.82l-0.01,1.53a5.859,5.859,0,0,0,2.18-1.27l-0.02,6.34,1.69,0.01Z"/>
  <path id="E93" class="cls-4" d="M1702.18,1529.21c2.04-5.09,7.3-7.77,11.75-5.98s6.41,7.36,4.37,12.45-7.31,7.76-11.76,5.97S1700.13,1534.29,1702.18,1529.21Z"/>
  <path id="_93" data-name="93" class="cls-5" d="M1704.77,1536.69a2.473,2.473,0,0,0,1.68.49,2.894,2.894,0,0,0,2.28-1.15,7.171,7.171,0,0,0-.21-6.87,2.877,2.877,0,0,0-4.22-.06,3.3,3.3,0,0,0,.11,4.23,2.385,2.385,0,0,0,1.82.74,2.041,2.041,0,0,0,1.56-.8,3.913,3.913,0,0,1-.4,2,1.1,1.1,0,0,1-.86.52,0.963,0.963,0,0,1-.68-0.22,1.218,1.218,0,0,1-.34-0.72l-1.62.24A2.638,2.638,0,0,0,1704.77,1536.69Zm2.5-4.28a1.039,1.039,0,0,1-.8.41,1.072,1.072,0,0,1-.85-0.36,2.535,2.535,0,0,1-.12-2.46,0.972,0.972,0,0,1,.76-0.39,1.067,1.067,0,0,1,.88.41,1.93,1.93,0,0,1,.42,1.25A1.669,1.669,0,0,1,1707.27,1532.41Zm5.29,3.85a2.868,2.868,0,0,0,2,.61,2.944,2.944,0,0,0,2.07-.89,2.634,2.634,0,0,0,.77-2,2.119,2.119,0,0,0-.5-1.34,2.093,2.093,0,0,0-1.24-.68,1.993,1.993,0,0,0,.53-3.32,2.613,2.613,0,0,0-2.02-.72,3,3,0,0,0-1.29.32,2.271,2.271,0,0,0-.89.78,3.677,3.677,0,0,0-.44,1.29l1.56,0.21a1.389,1.389,0,0,1,.34-0.89,1.017,1.017,0,0,1,.73-0.33,0.9,0.9,0,0,1,.99.94,1.014,1.014,0,0,1-.32.84,1.516,1.516,0,0,1-1.03.34l-0.14,1.38a2.859,2.859,0,0,1,.77-0.16,1.067,1.067,0,0,1,.84.34,1.39,1.39,0,0,1,.38.99,1.547,1.547,0,0,1-.31,1.08,1.15,1.15,0,0,1-.87.43,1.138,1.138,0,0,1-.83-0.3,1.527,1.527,0,0,1-.46-0.94l-1.62.26A2.69,2.69,0,0,0,1712.56,1536.26Z"/>
  <path id="E92" class="cls-4" d="M1706.02,1602.17c1.94-5.42,7.36-8.43,12.1-6.73s7.01,7.47,5.06,12.88-7.36,8.43-12.1,6.73S1704.08,1607.58,1706.02,1602.17Z"/>
  <path id="_92" data-name="92" class="cls-5" d="M1709.03,1609.92a2.6,2.6,0,0,0,1.79.44,3.025,3.025,0,0,0,2.35-1.3,5.719,5.719,0,0,0,.66-3.7,5.6,5.6,0,0,0-1.16-3.49,3.023,3.023,0,0,0-4.43.1,3.12,3.12,0,0,0-.66,2.32,3.07,3.07,0,0,0,.95,2.12,2.458,2.458,0,0,0,1.93.69,2.079,2.079,0,0,0,1.61-.89,4.379,4.379,0,0,1-.34,2.12,1.158,1.158,0,0,1-.89.57,0.971,0.971,0,0,1-.71-0.2,1.252,1.252,0,0,1-.39-0.75l-1.69.32A2.777,2.777,0,0,0,1709.03,1609.92Zm2.46-4.59a1.069,1.069,0,0,1-.82.46,1.091,1.091,0,0,1-.91-0.35,2.621,2.621,0,0,1-.22-2.57,1.018,1.018,0,0,1,.78-0.44,1.139,1.139,0,0,1,.94.4,1.952,1.952,0,0,1,.49,1.29A1.781,1.781,0,0,1,1711.49,1605.33Zm7.18,2.64a2.712,2.712,0,0,1,.32-0.52c0.14-.17.46-0.54,0.98-1.09a11.653,11.653,0,0,0,1.07-1.26,5.2,5.2,0,0,0,.62-1.22,3.238,3.238,0,0,0,.13-1.2,2.413,2.413,0,0,0-.91-1.77,3,3,0,0,0-2.19-.57,3.336,3.336,0,0,0-2.03.78,2.9,2.9,0,0,0-.82,2.16l1.76,0.05a1.736,1.736,0,0,1,.3-1.13,1.168,1.168,0,0,1,.85-0.4,1.209,1.209,0,0,1,.9.25,1.266,1.266,0,0,1,.38.88,1.955,1.955,0,0,1-.28,1.11,12.352,12.352,0,0,1-1.35,1.61,11.974,11.974,0,0,0-1.82,2.35,4.3,4.3,0,0,0-.47,1.8l6.18-.45-0.13-1.64Z"/>
  <path id="E91" class="cls-4" d="M1711.92,1693.53c1.79-5.49,7.13-8.67,11.93-7.1s7.25,7.28,5.46,12.76-7.13,8.67-11.93,7.1S1710.14,1699.01,1711.92,1693.53Z"/>
  <path id="_91" data-name="91" class="cls-5" d="M1715.17,1701.21a2.675,2.675,0,0,0,1.81.39,3.019,3.019,0,0,0,2.31-1.37,7.547,7.547,0,0,0-.71-7.2,2.9,2.9,0,0,0-2.41-.84,2.828,2.828,0,0,0-2.02,1.08,3.084,3.084,0,0,0-.6,2.34,3.049,3.049,0,0,0,1.01,2.09,2.513,2.513,0,0,0,1.96.65,2.114,2.114,0,0,0,1.58-.95,4.276,4.276,0,0,1-.27,2.13,1.148,1.148,0,0,1-.87.6,1,1,0,0,1-.73-0.18,1.253,1.253,0,0,1-.4-0.73l-1.69.36A2.838,2.838,0,0,0,1715.17,1701.21Zm2.33-4.68a1.068,1.068,0,0,1-.81.49,1.1,1.1,0,0,1-.92-0.32,2.048,2.048,0,0,1-.49-1.27,1.979,1.979,0,0,1,.19-1.3,1.046,1.046,0,0,1,.77-0.47,1.181,1.181,0,0,1,.96.38,2.021,2.021,0,0,1,.53,1.28A1.732,1.732,0,0,1,1717.5,1696.53Zm8.54-5.36-1.43.14a3.214,3.214,0,0,1-.96,1.59,4.911,4.911,0,0,1-1.41,1.01l0.17,1.6a6.13,6.13,0,0,0,2.14-1.57l0.69,6.64,1.76-.19Z"/>
  <path id="E90" class="cls-4" d="M1717.24,1784.22c2.19-5.07,7.57-7.62,12-5.7s6.25,7.59,4.05,12.66-7.57,7.62-12,5.7S1715.04,1789.29,1717.24,1784.22Z"/>
  <path id="_90" data-name="90" class="cls-5" d="M1719.64,1791.83a2.529,2.529,0,0,0,1.68.54,2.9,2.9,0,0,0,2.33-1.1,7.2,7.2,0,0,0-.03-6.92,2.889,2.889,0,0,0-4.24-.18,2.98,2.98,0,0,0-.78,2.18,2.945,2.945,0,0,0,.78,2.09,2.374,2.374,0,0,0,1.81.78,2.017,2.017,0,0,0,1.59-.75,4.121,4.121,0,0,1-.45,2,1.118,1.118,0,0,1-.89.5,0.932,0.932,0,0,1-.67-0.24,1.16,1.16,0,0,1-.32-0.74l-1.64.2A2.607,2.607,0,0,0,1719.64,1791.83Zm2.64-4.24a1.027,1.027,0,0,1-.82.39,1.1,1.1,0,0,1-.85-0.39,2.036,2.036,0,0,1-.35-1.26,1.969,1.969,0,0,1,.3-1.22,1,1,0,0,1,.78-0.37,1.1,1.1,0,0,1,.88.44,1.983,1.983,0,0,1,.39,1.27A1.722,1.722,0,0,1,1722.28,1787.59Zm5.15-3.41a5.8,5.8,0,0,0-.83,3.6,5.92,5.92,0,0,0,.82,3.53,2.551,2.551,0,0,0,2.09.97,2.453,2.453,0,0,0,2-.92,7.944,7.944,0,0,0-.07-7.21,2.654,2.654,0,0,0-4.01.03h0Zm2.56,0.67a1.558,1.558,0,0,1,.4.77,9.509,9.509,0,0,1,.18,2.14,9.12,9.12,0,0,1-.16,2.21,1.243,1.243,0,0,1-.36.7,0.813,0.813,0,0,1-.55.2,0.829,0.829,0,0,1-.55-0.18,1.558,1.558,0,0,1-.4-0.77,9.509,9.509,0,0,1-.18-2.14,9.215,9.215,0,0,1,.16-2.22,1.279,1.279,0,0,1,.36-0.7,0.846,0.846,0,0,1,.55-0.2A0.856,0.856,0,0,1,1729.99,1784.85Z"/>
  <path id="E89" class="cls-4" d="M1526.91,1836.68c1.63-4.79,6.36-7.51,10.55-6.08s6.26,6.47,4.63,11.26-6.36,7.52-10.55,6.09S1525.28,1841.47,1526.91,1836.68Z"/>
  <path id="_89" data-name="89" class="cls-5" d="M1528.9,1840.35a2.363,2.363,0,0,0-.21,1.23,2.246,2.246,0,0,0,1.03,1.8,2.865,2.865,0,0,0,1.89.41,2.577,2.577,0,0,0,1.83-.87,2.449,2.449,0,0,0,.55-1.88,2.031,2.031,0,0,0-.46-1.16,2.135,2.135,0,0,0-1.09-.7,1.81,1.81,0,0,0,.76-0.74,1.789,1.789,0,0,0,.2-1.03,1.923,1.923,0,0,0-.77-1.43,2.51,2.51,0,0,0-1.84-.43,2.563,2.563,0,0,0-1.74.75,1.959,1.959,0,0,0-.49,1.55,1.747,1.747,0,0,0,1.29,1.57A2.138,2.138,0,0,0,1528.9,1840.35Zm1.33-3.24a1.065,1.065,0,0,1,1.4-.13,0.941,0.941,0,0,1,.33.67,1.015,1.015,0,0,1-.2.75,0.938,0.938,0,0,1-.68.32,0.961,0.961,0,0,1-.72-0.19,0.992,0.992,0,0,1-.33-0.7A0.925,0.925,0,0,1,1530.23,1837.11Zm0.17,3.32a0.954,0.954,0,0,1,.81-0.47,1.05,1.05,0,0,1,.84.27,1.278,1.278,0,0,1,.4.88,1.407,1.407,0,0,1-.22,1.02,1.032,1.032,0,0,1-.76.42,1.09,1.09,0,0,1-.85-0.28,1.458,1.458,0,0,1-.42-0.97A1.4,1.4,0,0,1,1530.4,1840.43Zm6.44,2.38a2.3,2.3,0,0,0,1.57.37,2.657,2.657,0,0,0,2.05-1.18,4.915,4.915,0,0,0,.53-3.26,4.968,4.968,0,0,0-1.06-3.06,2.521,2.521,0,0,0-2.1-.76,2.467,2.467,0,0,0-1.8.92,2.732,2.732,0,0,0-.55,2.04,2.663,2.663,0,0,0,.87,1.85,2.2,2.2,0,0,0,1.71.59,1.845,1.845,0,0,0,1.39-.81,3.678,3.678,0,0,1-.26,1.87,1.019,1.019,0,0,1-.77.51,0.854,0.854,0,0,1-.64-0.17,1.091,1.091,0,0,1-.34-0.65l-1.49.3A2.439,2.439,0,0,0,1536.84,1842.81Zm2.1-4.07a0.971,0.971,0,0,1-.72.42,0.936,0.936,0,0,1-.8-0.3,2.255,2.255,0,0,1-.23-2.25,0.875,0.875,0,0,1,.68-0.4,0.985,0.985,0,0,1,.83.34,1.7,1.7,0,0,1,.45,1.13A1.56,1.56,0,0,1,1538.94,1838.74Z"/>
  <circle id="_53" data-name="53" class="cls-4" cx="907.843" cy="925.438" r="8.031"/>
  <path id="_53-2" data-name="53" class="cls-5" d="M908.826,917.721l2.264,4.291,1.752-.924-3.055-5.791-6.175,2.328,0.89,1.9a1.658,1.658,0,0,1,1.494,1,1.857,1.857,0,0,1-1.071,2.539c-1.128.6-2.28,0.463-2.8-.532a1.587,1.587,0,0,1,.665-2.23l-1.1-2.078a3.637,3.637,0,0,0-1.294,5.067,4.028,4.028,0,0,0,5.808,1.833,3.587,3.587,0,0,0,1.715-4.986,3.278,3.278,0,0,0-1.573-1.581Zm0.472,10.573c0.509,0.965,1.186,2.392-.254,3.152a1.752,1.752,0,0,1-2.56-.642,1.8,1.8,0,0,1,1.027-2.516l0.022,0.007-1.073-2.034c-3.3,1.739-2.109,4.529-1.584,5.524a3.789,3.789,0,0,0,5.3,1.8,2.663,2.663,0,0,0,1.612-2.881l0.03-.016a2.445,2.445,0,0,0,2.67.205c2.227-1.175,1.961-3.407,1.216-4.818-1.253-2.376-3.251-2.745-5.226-1.7l1.019,1.93a1.653,1.653,0,0,1,2.474.517,1.433,1.433,0,0,1-.654,2.034c-1.366.721-2.029-.391-2.358-1.015l-0.172-.326Z"/>
  <path id="_31" data-name="31" class="cls-4" d="M375.877,732.849a9.511,9.511,0,1,1-9.963,9.5A9.74,9.74,0,0,1,375.877,732.849Z"/>
  <path id="_31-2" data-name="31" class="cls-5" d="M371.622,736.363c0.632,1.2,1.472,2.968-.315,3.91a2.173,2.173,0,0,1-3.176-.8c-0.914-1.731.573-2.751,1.273-3.121l0.029,0.009L368.1,733.84c-4.09,2.158-2.616,5.62-1.965,6.854a4.7,4.7,0,0,0,6.57,2.232,3.306,3.306,0,0,0,2-3.575l0.037-.019a3.036,3.036,0,0,0,3.313.254c2.763-1.458,2.432-4.227,1.509-5.977-1.555-2.948-4.034-3.406-6.484-2.113l1.263,2.394c0.461-.243,2.137-1.127,3.07.641a1.776,1.776,0,0,1-.811,2.524c-1.695.894-2.517-.485-2.925-1.259l-0.214-.405Zm7.285,5.862,1.642,3.113-9.008,4.753,1.361,2.579,13.079-6.9-1.118-2.118c-1,.46-2.645.477-3.957-2.01l-0.194-.368Z"/>
  <path id="_30" data-name="30" class="cls-4" d="M450.877,696.849a9.511,9.511,0,1,1-9.963,9.5A9.74,9.74,0,0,1,450.877,696.849Z"/>
  <path id="_30-2" data-name="30" class="cls-5" d="M445.561,699.73c0.631,1.2,1.471,2.968-.316,3.911a2.174,2.174,0,0,1-3.176-.8c-0.913-1.732.574-2.752,1.274-3.121l0.028,0.008-1.331-2.523c-4.09,2.157-2.617,5.619-1.966,6.853a4.7,4.7,0,0,0,6.571,2.233,3.305,3.305,0,0,0,2-3.575l0.037-.02a3.035,3.035,0,0,0,3.313.254c2.764-1.458,2.433-4.227,1.51-5.977-1.555-2.947-4.034-3.406-6.485-2.113l1.264,2.395c0.46-.243,2.137-1.128,3.07.641a1.778,1.778,0,0,1-.811,2.524c-1.695.894-2.517-.486-2.925-1.259l-0.214-.406Zm4.29,6.571c-4.587,2.42-5.956,5-4.333,8.079s4.528,3.4,9.115.984,5.938-4.993,4.315-8.069S454.438,703.88,449.851,706.3Zm1.4,2.652c3.371-1.778,4.856-2.044,5.633-.57s-0.279,2.55-3.651,4.328-4.874,2.054-5.651.58S447.88,710.732,451.251,708.953Z"/>
  <path id="_29" data-name="29" class="cls-4" d="M519.877,657.849a9.511,9.511,0,1,1-9.963,9.5A9.74,9.74,0,0,1,519.877,657.849Z"/>
  <path id="_29-2" data-name="29" class="cls-5" d="M517.558,658.938c0.968-.487,2.49-1.219,3.442.586a2,2,0,0,1-.908,2.787c-1.474.778-2.633,0.188-5.59-1.266-3.56-1.748-5.221-1.013-6.8-.3l4.714,8.934,2.285-1.205-2.994-5.674c0.763-.026,1.829.566,3.959,1.656,1.536,0.814,3.446,1.667,5.693.481,2.653-1.4,3.077-4.167,1.755-6.672-0.612-1.16-2.623-4.079-6.878-1.834Zm5.7,10.09c1.879-.992,2.843.031,3.193,0.694,0.7,1.326.118,2.457-1.374,3.244a2.2,2.2,0,0,1-3.193-.741C521.369,671.249,521.287,670.068,523.258,669.028Zm-6.953.7c-1.965,1.319-2.409,3.6-1.233,5.831,1.244,2.358,4.147,3.888,9.213,1.215,1.842-.971,6.685-3.621,4.294-8.152-1.351-2.561-3.844-3.671-7.05-1.98a4.378,4.378,0,0,0-2,6.118,3.205,3.205,0,0,0,2.418,1.9l-0.018.056c-2.754,1.43-4.221.838-4.784-.231a1.578,1.578,0,0,1,.492-2.191l0.019-.009Z"/>
  <path id="_28" data-name="28" class="cls-4" d="M591.877,621.849a9.511,9.511,0,1,1-9.963,9.5A9.74,9.74,0,0,1,591.877,621.849Z"/>
  <path id="_28-2" data-name="28" class="cls-5" d="M589.35,622.866c0.968-.487,2.489-1.219,3.441.586a2,2,0,0,1-.907,2.787c-1.474.777-2.633,0.188-5.591-1.266-3.559-1.748-5.221-1.014-6.8-.3l4.714,8.935,2.284-1.206L583.5,626.73c0.763-.026,1.829.565,3.958,1.655,1.536,0.815,3.447,1.668,5.694.482,2.653-1.4,3.077-4.167,1.755-6.672-0.612-1.161-2.623-4.08-6.879-1.835Zm5.783,12.612a1.82,1.82,0,0,1,.737-2.531,1.767,1.767,0,0,1,2.554.913A1.835,1.835,0,0,1,595.133,635.478Zm-1.506,6.564a3.518,3.518,0,0,0,2.12-3.614,3.162,3.162,0,0,0,3.431.12c1.806-.952,2.65-3.235,1.222-5.943-1.206-2.284-3.493-3.361-5.722-2.185a3.007,3.007,0,0,0-1.725,2.935,3.744,3.744,0,0,0-4.366-.24c-1.786.943-3.366,3.26-1.588,6.631A4.736,4.736,0,0,0,593.627,642.042Zm-1.51-2.594a2.15,2.15,0,0,1-3.045-.772,2.106,2.106,0,0,1,1.081-3,2.049,2.049,0,0,1,3,.773A2.111,2.111,0,0,1,592.117,639.448Z"/>
  <path id="_27" data-name="27" class="cls-4" d="M657.877,597.849a9.511,9.511,0,1,1-9.963,9.5A9.74,9.74,0,0,1,657.877,597.849Z"/>
  <path id="_27-2" data-name="27" class="cls-5" d="M655.674,599.366c0.968-.487,2.489-1.219,3.441.587a2,2,0,0,1-.908,2.787c-1.473.777-2.632,0.188-5.589-1.267-3.561-1.748-5.221-1.013-6.8-.3l4.714,8.934,2.284-1.205-2.994-5.674c0.764-.026,1.83.566,3.959,1.656,1.536,0.814,3.447,1.667,5.694.481,2.652-1.4,3.077-4.166,1.755-6.672-0.612-1.16-2.623-4.079-6.879-1.834Zm13.287,14.517-4.859-9.21-2.314,1.149,3.431,6.5c-1.762-.483-7.655-1.566-13.033.918l1.4,2.653a20.173,20.173,0,0,1,13.386-.963Z"/>
  <path id="_26" data-name="26" class="cls-4" d="M714.877,569.849a9.511,9.511,0,1,1-9.963,9.5A9.74,9.74,0,0,1,714.877,569.849Z"/>
  <path id="_26-2" data-name="26" class="cls-5" d="M713.084,570.56c0.967-.487,2.489-1.219,3.441.586a2,2,0,0,1-.908,2.787c-1.474.778-2.632,0.188-5.59-1.266-3.56-1.748-5.221-1.013-6.8-.3l4.713,8.935,2.285-1.205-2.994-5.674c0.764-.026,1.83.565,3.959,1.656,1.536,0.814,3.446,1.667,5.694.481,2.652-1.4,3.076-4.167,1.755-6.672-0.613-1.161-2.624-4.08-6.879-1.834Zm9.978,15.744a4.008,4.008,0,0,0,1.827-2.518,5.187,5.187,0,0,0-.561-3.118c-2.391-4.532-6.932-2.56-9.419-1.248-3.261,1.72-6.168,4.243-4.079,8.2,1.332,2.524,4.171,3.263,7.026,1.757a4.373,4.373,0,0,0,1.925-6.126,3.1,3.1,0,0,0-2.379-1.877l0.017-.056c1.744-.8,3.864-1.426,4.748.25a1.517,1.517,0,0,1-.455,2.172Zm-6.787.614c-1.769.933-2.944,0.447-3.44-.493-0.651-1.234-.066-2.579,1.353-3.328,1.639-.865,2.772-0.19,3.287.786A2.168,2.168,0,0,1,716.275,586.918Z"/>
  <path id="_25" data-name="25" class="cls-4" d="M781.877,522.849a9.511,9.511,0,1,1-9.963,9.5A9.74,9.74,0,0,1,781.877,522.849Z"/>
  <path id="_25-2" data-name="25" class="cls-5" d="M780.307,523.847c0.968-.487,2.489-1.219,3.442.587a2,2,0,0,1-.908,2.787c-1.474.777-2.633,0.187-5.59-1.267-3.56-1.748-5.221-1.013-6.8-.3l4.714,8.935,2.284-1.205-2.993-5.674c0.763-.026,1.829.566,3.958,1.656,1.537,0.814,3.447,1.667,5.694.481,2.653-1.4,3.077-4.167,1.755-6.672-0.612-1.161-2.623-4.079-6.879-1.834Zm7.916,9.6,2.809,5.324,2.174-1.147-3.791-7.184-7.66,2.888,1.1,2.361a2.057,2.057,0,0,1,1.853,1.236c0.719,1.363-.168,2.537-1.329,3.15-1.4.738-2.829,0.574-3.48-.66a1.97,1.97,0,0,1,.825-2.767l-1.361-2.579a4.514,4.514,0,0,0-1.605,6.287,5,5,0,0,0,7.205,2.274,4.451,4.451,0,0,0,2.129-6.186,4.067,4.067,0,0,0-1.953-1.961Z"/>
  <path id="_24" data-name="24" class="cls-4" d="M852.877,484.849a9.511,9.511,0,1,1-9.963,9.5A9.74,9.74,0,0,1,852.877,484.849Z"/>
  <path id="_24-2" data-name="24" class="cls-5" d="M850.8,485.326c0.968-.487,2.489-1.219,3.442.586a2,2,0,0,1-.909,2.787c-1.473.777-2.632,0.188-5.59-1.266-3.559-1.749-5.221-1.014-6.8-.3l4.714,8.934,2.284-1.2-2.993-5.674c0.763-.026,1.829.566,3.958,1.656,1.536,0.815,3.446,1.667,5.694.482,2.653-1.4,3.077-4.167,1.755-6.672-0.612-1.161-2.623-4.08-6.879-1.835Zm1.461,11.383,7.349,0.315,0.019,0.037c-0.4.214-2.479,1.237-5.648,2.909Zm3.849,7.3-0.768-1.455,8.179-4.315-1.545-2.929-10.5-.61-2.229,1.176,2.721,5.158-2.892,1.526,1.361,2.579,2.892-1.525,0.768,1.455Z"/>
  <path id="_23" data-name="23" class="cls-4" d="M923.877,447.849a9.511,9.511,0,1,1-9.963,9.5A9.74,9.74,0,0,1,923.877,447.849Z"/>
  <path id="_23-2" data-name="23" class="cls-5" d="M922.877,449.669c0.968-.487,2.489-1.219,3.441.586a2,2,0,0,1-.908,2.787c-1.474.778-2.632,0.188-5.59-1.266-3.56-1.748-5.221-1.013-6.8-.3l4.714,8.934,2.284-1.2-2.994-5.674c0.764-.026,1.83.566,3.959,1.656,1.537,0.814,3.446,1.667,5.694.481,2.652-1.4,3.077-4.166,1.755-6.672-0.613-1.16-2.624-4.079-6.879-1.834Zm3.1,12.476c0.631,1.2,1.471,2.968-.316,3.91a2.173,2.173,0,0,1-3.176-.8c-0.913-1.731.574-2.752,1.274-3.121l0.028,0.009-1.331-2.524c-4.09,2.158-2.617,5.619-1.966,6.854a4.7,4.7,0,0,0,6.571,2.232,3.307,3.307,0,0,0,2-3.575l0.036-.019a3.037,3.037,0,0,0,3.313.254c2.764-1.458,2.433-4.228,1.51-5.978-1.555-2.947-4.034-3.4-6.485-2.113l1.264,2.4c0.461-.243,2.137-1.127,3.07.641a1.777,1.777,0,0,1-.811,2.524c-1.7.894-2.517-.485-2.925-1.259l-0.214-.4Z"/>
</svg>