<svg id="Manzana 22" data-desarrollo="costa-dorada" data-name="Manzana 22" xmlns="http://www.w3.org/2000/svg" xmlns:xlink="http://www.w3.org/1999/xlink" width="1890" height="1417" viewBox="0 0 1890 1417">
  <defs>
    <style>
    @import url(./css/mapas.css);
    </style>
    <filter id="filter" filterUnits="userSpaceOnUse">
      <feComposite result="composite" operator="in" in2="SourceGraphic"/>
      <feBlend result="blend" in2="SourceGraphic"/>
    </filter>
  </defs>
  <g id="map" pointer-events="all" class="cls-1">
    <path id="M22-L1" class="cls-2" d="M945.087,290.192l7.237,14.27-22.3,11.308-6.784-13.378L925,297.015l16.946-8.594Z"/>
    <path id="M22-L2" class="cls-2" d="M952.324,304.462l9.95,19.621-22.3,11.308-9.951-19.621Z"/>
    <path id="M22-L3" class="cls-2" d="M962.274,324.083l7.689,15.162-22.3,11.308-7.689-15.162Z"/>
    <path id="M22-L4" class="cls-2" d="M969.963,339.245l6.785,13.378-22.3,11.308-6.784-13.378Z"/>
    <path id="M22-L5" class="cls-2" d="M976.748,352.623l7.236,14.27-22.3,11.308-7.237-14.27Z"/>
    <path id="M22-L6" class="cls-2" d="M983.984,366.893l7.237,14.27-22.3,11.308-7.236-14.27Z"/>
    <path id="M22-L7" class="cls-2" d="M991.221,381.163l6.332,12.486-22.3,11.308-6.332-12.486Z"/>
    <path id="M22-L8" class="cls-2" d="M997.553,393.649l6.337,12.487-22.3,11.307-6.332-12.486Z"/>
    <path id="M22-L9" class="cls-2" d="M1003.89,406.136l6.78,13.378-22.3,11.307-6.785-13.378Z"/>
    <path id="M22-L10" class="cls-2" d="M1010.67,419.514L1017,432l-22.295,11.307-6.332-12.486Z"/>
    <path id="M22-L11" class="cls-2" d="M1017,432l6.79,13.378-22.3,11.307-6.785-13.378Z"/>
    <path id="M22-L12" class="cls-2" d="M1023.79,445.378l6.33,12.486-22.3,11.307-6.33-12.486Z"/>
    <path id="M22-L13" class="cls-2" d="M1030.12,457.864l6.33,12.486-22.3,11.307-6.33-12.486Z"/>
    <path id="M22-L14" class="cls-2" d="M1036.45,470.35l6.33,12.486-22.29,11.308-6.34-12.487Z"/>
    <path id="M22-L15" class="cls-2" d="M1042.78,482.836l6.79,13.378-22.3,11.308-6.78-13.378Z"/>
    <path id="M22-L16" class="cls-2" d="M1049.57,496.214l5.88,11.6-22.3,11.307-5.88-11.594Z"/>
    <path id="M22-L17" class="cls-2" d="M1055.45,507.809l6.33,12.486-22.3,11.307-6.33-12.486Z"/>
    <path id="M22-L18" class="cls-2" d="M1061.78,520.295l6.78,13.378-22.29,11.307-6.79-13.378Z"/>
    <path id="M22-L19" class="cls-2" d="M1068.56,533.673l5.88,11.594-22.29,11.308-5.88-11.6Z"/>
    <path id="M22-L20" class="cls-2" d="M1074.44,545.267l6.33,12.486-22.29,11.308-6.33-12.486Z"/>
    <path id="M22-L21" class="cls-2" d="M1080.77,557.753l6.34,12.487-22.3,11.307-6.33-12.486Z"/>
    <path id="M22-L22" class="cls-2" d="M1087.11,570.24l6.33,12.486-22.3,11.307-6.33-12.486Z"/>
    <path id="M22-L23" class="cls-2" d="M1093.44,582.726l6.33,12.486-22.3,11.307-6.33-12.486Z"/>
    <path id="M22-L24" class="cls-2" d="M1099.77,595.212l6.33,12.486-22.29,11.307-6.34-12.486Z"/>
    <path id="M22-L25" class="cls-2" d="M1106.1,607.7l6.34,12.486-22.3,11.308-6.33-12.487Z"/>
    <path id="M22-L26" class="cls-2" d="M1112.44,620.184l6.33,12.486-22.3,11.308-6.33-12.486Z"/>
    <path id="M22-L27" class="cls-2" d="M1118.77,632.67l7.69,15.162-22.3,11.308-7.69-15.162Z"/>
    <path id="M22-L28" class="cls-2" d="M1126.46,647.832l1.35,2.676,11.22,6.644-28.54,14.474-6.33-12.486Z"/>
    <path id="M22-L29" class="cls-2" d="M1139.03,657.152l-28.54,14.474,5.43,10.7,35.67-18.092Z"/>
    <path id="M22-L30" class="cls-2" d="M1151.59,664.236l-35.67,18.092,4.97,9.811,42.81-21.71-12.11-6.193"/>
    <path id="M22-L31" class="cls-2" d="M1163.7,670.429l25.13,14.168,8.59,16.945-25.86,13.117-19.45-38.351Z"/>
    <path id="M22-L32" class="cls-2" d="M1197.42,701.542l4.98,9.811-25.87,13.116-4.97-9.81Z"/>
    <path id="M22-L33" class="cls-2" d="M1202.4,711.353l4.97,9.81-25.86,13.117-4.98-9.811Z"/>
    <path id="M22-L34" class="cls-2" d="M1207.37,721.163l5.43,10.7-25.86,13.116-5.43-10.7Z"/>
    <path id="M22-L35" class="cls-2" d="M1212.8,731.866l4.98,9.81-25.87,13.117-4.97-9.811Z"/>
    <path id="M22-L36" class="cls-2" d="M1217.78,741.676l6.33,12.487-1.75,7.612-10.71,3.192-12.95,3.2-6.79-13.378Z"/>
    <path id="M22-L37" class="cls-2" d="M1198.7,768.171l-16.07,5.9-25.55-10.588-1.36-2.675,31.22-15.831Z"/>
    <path id="M22-L38" class="cls-2" d="M1186.94,744.982l-5.43-10.7-31.22,15.83,5.43,10.7Z"/>
    <path id="M22-L39" class="cls-2" d="M1181.51,734.28l-4.52-8.919-31.22,15.831,4.52,8.918Z"/>
    <path id="M22-L40" class="cls-2" d="M1176.99,725.361l-5.43-10.7-31.22,15.83,5.43,10.7Z"/>
    <path id="M22-L41" class="cls-2" d="M1171.56,714.659l-4.52-8.919-31.22,15.83,4.52,8.919Z"/>
    <path id="M22-L42" class="cls-2" d="M1167.04,705.74l-4.98-9.81-31.22,15.83,4.98,9.81Z"/>
    <path id="M22-L43" class="cls-2" d="M1162.06,695.93l-4.52-8.919-31.22,15.83,4.52,8.919Z"/>
    <path id="M22-L44" class="cls-2" d="M1157.54,687.011l-5.43-10.7-31.22,15.831,5.43,10.7Z"/>
  </g>
  <g class="cls-1">
    <path data-manzana ="M2" id="M2" data-name="M2" class="cls-2" d="M448.074,499.635L171.6,639.845l18.932,26.279L412.6,553.5l18.239-17.1,10.224-10.792L455.273,507.2l-1.81-3.568Z"/>
    <path data-manzana="M4" id="M4" data-name="M4" class="cls-2" d="M403.172,232.005L521.22,464.783l-1.758,5.376L471.3,494.583l-3.58-.427L344.7,251.568l29-11.346,29.018-9.109Z"/>
    <path data-manzana="M5" id="M5-2" data-name="M5" class="cls-2" d="M476.808,204.753l109,214.94-7.486,20.615-37.458,19-3.141-1.771-118.5-233.669,28.565-10,28.565-10Z"/>
    <path data-manzana="M6" id="M6-2" data-name="M6" class="cls-2" d="M553.108,173.908L665.276,395.092,664.4,397.78l-39.242,19.9-4.033-1.319-1.344-.44-1.344-.439-5.377-1.758-7.16-.854L495.085,194.363l12.487-6.332,15.614-6.8,6.695-2.275,8.479-3.178,9.371-3.631Z"/>
    <path data-manzana="M7" id="M7-2" data-name="M7" class="cls-2" d="M628.528,145.751L736.174,358.016l-1.319,4.033-48.161,24.424-4.058-1.306L572.276,167.551l1.345-4.046,10.7-5.427,16.067-5.906,16.053-8.141,4.912-1.369,6.721,2.2Z"/>
    <path data-manzana="M8" id="M8-2" data-name="M8" class="cls-2" d="M705.28,115.8l104.027,205.13-1.319,4.033-48.161,24.424-2.236.012-2.231.011L649.071,139.818l0.874-2.686,2.676-1.357L675.37,125.36l24.081-12.212,5.376,1.759Z"/>
    <path data-manzana="M9" id="M9-2" data-name="M9" class="cls-2" d="M780.248,86.75l99.956,197.1,0.013,2.236a1.65,1.65,0,0,1-.44,1.344c-0.533.362-49.053,24.876-49.053,24.876l-1.344-.439-1.8-1.332L725.366,108.976l0.439-1.344L773.074,83.66l6.721,2.2Z"/>
    <path data-manzana="M10" id="M10-2" data-name="M10" class="cls-2" d="M834.225,62.74l99.956,197.1,0.013,2.237-29.432,14.925-2.236.013-1.344-.44-2.688-.879-0.452-.892L800.8,83.055l-0.013-2.236-0.013-2.236-0.012-2.236,7.134-3.618,23.189-11.76,1.344,0.44Z"/>
    <path data-manzana="M12" id="M12-2" data-name="M12" class="cls-2" d="M278.045,641.923l120.31,237.238-2.65,5.829-92.768,44.8-5.376-1.758-1.357-2.676L283.438,882.5l-8.23-31.7-9.135-33.49-10.919-32.585-10.918-32.585-14.047-32.12-23.971-47.269,66.89-33.922,4.485,2.21Z"/>
    <path data-manzana="M13" id="M13-2" data-name="M13" class="cls-2" d="M353.478,616l40.706,80.268-2.21,4.485L347.38,723.37l-4.485-2.21-40.254-79.376,0.867-4.925,46.377-23.519,3.141,1.771Z"/>
    <path data-manzana="M14" id="M14-2" data-name="M14" class="cls-2" d="M433.81,586.477l36.183,71.349-1.319,4.033-51.728,26.233-2.688-.879-36.636-72.242L377.6,610.5l51.729-26.233,4.032,1.319Z"/>
    <path data-manzana="M15" id="M15-2" data-name="M15" class="cls-2" d="M501.541,543.158l38.9,76.7-1.758,5.377-50.837,25.78-4.485-2.21-36.635-72.242,15.99-19.321,22.673-23.832,15.7,8.856Z"/>
    <path data-manzana="M16" id="M16-2" data-name="M16" class="cls-2" d="M562.513,490.934L610,584.58l-1.319,4.033-47.269,23.971-4.032-1.318-47.943-94.539,1.318-4.032,47.269-23.972,4.033,1.319Z"/>
    <path data-manzana="M17" id="M17-2" data-name="M17" class="cls-2" d="M616.076,472.741L659.5,558.36l-2.21,4.485-24.081,12.212-3.58-.427-49.3-97.214,2.663-3.593,14.27-7.237,18.366,5.263Z"/>
    <path data-manzana="M18" id="M18-2" data-name="M18" class="cls-2" d="M683.343,426.294l48.4,95.43-1.319,4.033-48.161,24.424-3.58-.427-44.325-87.4,5.715-17.474,38.35-19.448Z"/>
    <path data-manzana="M19" id="M19-2" data-name="M19" class="cls-2" d="M756.476,389.206l47.943,94.538-5.326,7.186L754.5,513.545l-5.829-2.65-47.943-94.538,2.65-5.829,47.269-23.972,5.377,1.758Z"/>
    <path data-manzana="M20" id="M20-2" data-name="M20" class="cls-2" d="M827.825,353.023l47.491,93.646-2.65,5.829-46.377,23.519-4.925-.866-0.452-.892-48.395-95.43,1.758-5.377,47.269-23.971,5.829,2.65Z"/>
    <path data-manzana="M21" id="M21-2" data-name="M21" class="cls-2" d="M898.723,315.948l47.943,94.538-2.211,4.485-47.269,23.971-4.924-.866-48.4-95.43,0.867-4.925L892.894,313.3Z"/>
    <path data-manzana="M23" id="M23-2" data-name="M23" class="cls-2" d="M960.222,435.006l60.158,118.619-1.32,4.032L970.9,582.081l-4.033-1.319-60.607-119.51-0.025-4.472,48.161-24.424,5.376,1.758Z"/>
    <path data-manzana="M24" id="M24-2" data-name="M24" class="cls-2" d="M888.872,471.189l61.06,120.4-1.759,5.376L926.342,611.4l-22.284,13.543-5.377-1.758L835.36,498.327l0.414-5.816,47.269-23.972,5.377,1.758Z"/>
    <path data-manzana="M25" id="M25-2" data-name="M25" class="cls-2" d="M817.988,510.5l66.034,130.213-20.436,23.819-20.023,18-6.721-2.2L763.118,534.963l1.759-5.377,46.377-23.519,6.281,3.542Z"/>
    <path data-manzana="M26" id="M26-2" data-name="M26" class="cls-2" d="M746.638,546.684l78.7,155.185-9.32,12.576L804.448,724.8l-20.01,20.239-5.377-1.758-86.84-171.239-0.025-4.472,48.161-24.424,5.829,2.65Z"/>
    <path data-manzana="M27" id="M27-2" data-name="M27" class="cls-2" d="M675.728,581.523L768,763.465,747.145,793.1l-4.033-1.319L644.06,596.462l2.211-4.485,24.972-12.664,4.033,1.318Z"/>
    <path data-manzana="M28" id="M28-2" data-name="M28" class="cls-2" d="M626.248,609.98l59.7,117.726-1.319,4.033-48.161,24.424-4.032-1.319L571.832,635.333l1.318-4.032,47.269-23.972,5.377,1.759Z"/>
    <path data-manzana="M29" id="M29-2" data-name="M29" class="cls-2" d="M554.446,645.271L614.149,763l-0.414,5.816-47.269,23.971-5.377-1.758-60.607-119.51,1.319-4.033,48.161-24.424,4.032,1.319Z"/>
    <path data-manzana="M30" id="M30-2" data-name="M30" class="cls-2" d="M485.346,683.678l59.7,117.726-2.65,5.829-46.377,23.52-4.033-1.319L431.381,709.923l1.319-4.032,48.161-24.424,4.032,1.319Z"/>
    <path data-manzana="M31" id="M31-2" data-name="M31" class="cls-2" d="M412.212,720.766l59.7,117.727-1.759,5.376-46.377,23.519L418.4,865.63,358.248,747.011l0.866-4.924,47.269-23.971,5.377,1.758Z"/>
    <path data-manzana="M32" id="M32-2" data-name="M32" class="cls-2" d="M345.447,934.022l71.915,141.808-49,33.82-6.772-11.14-7.676-12.93-21.245-39.68-5.892-13.83-6.81-17.85-8.18-22.762L304.937,966.9l-3.217-15.187,39.243-19.9L345,933.131Z"/>
    <path data-manzana="M33" id="M33-2" data-name="M33" class="cls-2" d="M414.561,897.852l67.844,133.778-24.495,18.03-0.892.45-24.507,15.79L360.6,924.1l1.318-4.032,47.269-23.971,4.925,0.866Z"/>
    <path data-manzana="M34" id="M34-2" data-name="M34" class="cls-2" d="M485.019,862.121l62.868,123.97-22.711,17.119-1.783.91-24.508,15.79L431.494,887.022l1.319-4.032,48.16-24.424,3.593,2.663Z"/>
    <path data-manzana="M35" id="M35-2" data-name="M35" class="cls-2" d="M555.891,820.573l-56.188,28.5,67.391,132.888,27.171-19.385-0.453-.892L607.19,954.9l0.892-.452,8.568,12.473,7.2,7.562,17.436-.993,8.944-.051,20.953-11.747,13.352-11.257,37.37-34.648,12.435-15.276,17.321-21.118,19.068-28.731,17.748-24.7L807.1,798.573l16.429-20.666,5.791-4.058,22.22-24.723-11.759-23.189-2.236.013-4.46,2.261-19.557,21.131-15.563,15.741L783.762,783.5l-19.079,26.494-19.08,26.5-19.972,26.947-19.972,26.947-19.57,18.894-13.353,11.257-21.379,15.327-13.818,8.128-15.7-8.855-8.09-7.109L559.923,821.892Z"/>
    <path data-manzana="M36" id="M36-2" data-name="M36" class="cls-2" d="M628.6,787.066l49.3,97.213-23.138,20.7L635.616,920.3l-3.568,1.81-3.14-1.771L575.537,815.1l0.867-4.924,48.161-24.424,3.58,0.427Z"/>
    <path data-manzana="M37" id="M37-2" data-name="M37" class="cls-2" d="M698.15,749.551l32.565,64.214L711.648,842.5l-15.965,23.793-3.567,1.81-3.141-1.772-45.229-89.186,1.319-4.033L695.01,747.78l2.688,0.879Z"/>  
    <path data-manzana="M38" id="M38-2" data-name="M38" class="cls-2" d="M747.666,884.777l-3.529,8.517-0.867,4.925,0.9,1.783,4.071,8.027,5.828,2.65,51.109,100.781-1.318,4.03-46.377,23.52-9.4-.84L710.1,963.254l1.306-6.268-0.918-4.02-1.809-3.567-1.8-1.332-8.065-2.637-7.16-.854-3.116,2.7-5.326,7.186-0.866,4.924,0.013,2.236,3.618,7.135,7.625,3.982,31.661,62.43-2.211,4.49-2.675,1.35-56.806-1.46-13.983-20.94-28.87-43.667-0.452-.892,0.891-.452,21.029,1.669,8.04-1.834L659.6,969.8l12.913-9.913,10.237-8.555,14.684-13.053,13.793-12.6,11.129-9.007,7.549-9.435,11.544-14.824,5.325-7.186Z"/>
    <path data-manzana="M39" id="M39-2" data-name="M39" class="cls-2" d="M800.472,812.027l-3.1,4.937-1.758,5.377,0.465,3.128,3.618,7.135,5.829,2.65,1.8,1.331L873.807,967.69l-3.1,4.937-45.887,31.123-5.376-1.76-50.205-99,1.306-6.268,0.427-3.58-2.261-4.46-4.937-3.1-5.377-1.758-5.816-.415-4.912,1.37,51.462-73.19Z"/>
    <path data-manzana="M40" id="M40-2" data-name="M40" class="cls-2" d="M830.668,774.289L1052.29,1211.3l-29.43,14.93L821.59,829.349l0.866-4.925-0.013-2.236-4.07-8.027-0.905-1.783-1.8-1.332-4.925-.866-3.58-.427-3.128.465-3.567,1.809-1.344-.44,22.182-31.431L827.1,776.1Z"/> 
    <path data-manzana="M41" id="M41-2" data-name="M41" class="cls-2" d="M900.267,666.113l105.383,207.8-2.65,5.829L981.6,890.6l-24.055,16.684-4.033-1.318L852.647,707.081l21.768-25.616,18.226-19.334,0.892-.452,6.281,3.542Z"/>
    <path data-manzana="M42" id="M42-2" data-name="M42" class="cls-2" d="M963.94,617l108.1,213.157-2.21,4.484-31.22,15.831-6.23,5.4-10.25,6.319-2.7-.875L909.527,644.6l1.315-6.273L959,613.9l4.485,2.211Z"/>
    <path data-manzana="M43" id="M43-2" data-name="M43" class="cls-2" d="M1032.58,575.469l100.86,198.887-4.8,21.494-12.47,8.568-24.07,14.448-4.03-1.319L980.421,605.282l-0.93-6.256,49.049-24.876,3.58,0.427Z"/>
    <path data-manzana="M45" id="M45-2" data-name="M45" class="cls-2" d="M1224.27,703.626l23.06,45.485,294.96,119.52,7.68,15.162,0.93,6.255-0.93,71.114,4.56,15.627,6.33,12.486,17.04,7.058,39.38,4.7,39.38,4.69,17.45,1.25-11.36-31.244-79.22-10.283-2.68-.879-0.48-5.364,0.69-36.229-0.14-24.6,0.28-28.177,0.81-16.1-13.46-6.632-30.93-12.346-28.24-11.467-32.27-12.786-40.79-16.316-34.07-14.117-42.13-16.755-47.97-19.4-47.96-19.4-27.36-14.155Z"/> 
    <path data-manzana="M46" id="M46-2" data-name="M46" class="cls-2" d="M1580.86,853.961l0.44,111,75.95,9.383-32.49-100.165-1.99-3.01Z"/>
    <path data-manzana="M47" id="M47-2" data-name="M47" class="cls-2" d="M1385.9,845.528L1440.37,950.8s14.15,28.084,15.85,29.08a27.811,27.811,0,0,1,2.99,2.015l3.01-.985,8.02-4.959s63.07-34.217,64.19-37.677,1.05-10,1.05-10,0.6-32.067-.83-33-3.98-3.02-3.98-3.02l-20.96-9.106-65.86-27.332-31.93-15.161s-13.45-5.982-16.96-6.085-7-.036-7-0.036l-2.02,2.99-2.01,2.99Z"/>
    <path data-manzana="M48" id="M48-2" data-name="M48" class="cls-2" d="M1346.99,815.18L1434.74,988.2l-3.54,6.281-45.49,23.066-4.92-.87L1267.26,792.825l3.09-7.173,3.57-1.809,72.62,30.445Z"/>
    <path data-manzana="M49" id="M49-2" data-name="M49" class="cls-2" d="M1239.89,776.434l127.09,250.616-1.32,4.03-39.24,19.9-18.82-6.15L1185.48,804.024l4.84-14.786,8.48-3.179,11.15-4.535,20.98-7.275,8.05,0.4Z"/>
    <path data-manzana="M50" id="M50-2" data-name="M50" class="cls-2" d="M1162.8,825.619l119.4,235.451-3.54,6.28-1.29,8.51-0.86,7.16-0.44,1.34-41.91,21.26L1102.09,845.2l0.85-7.16,41.03-20.806,18.38,7.5Z"/>
    <path data-manzana="M51" id="M51-2" data-name="M51" class="cls-2" d="M1089.17,855.107l130.72,257.753-1.33,1.79-53.52,27.14-128.9-254.181,2.65-5.829,24.07-14.448,23.17-14,2.69,0.88A0.888,0.888,0,0,1,1089.17,855.107Z"/>
    <path data-manzana="M52" id="M52-2" data-name="M52" class="cls-2" d="M1019.65,897.094l128.9,254.186-2.22,2.25-53.52,27.13L965.72,930.048l3.1-4.937,23.615-15.34,25.412-14.008Z"/>    
    <path data-manzana="M53" id="M53-2" data-name="M53" class="cls-2" d="M852,750.018L1079.05,1197.74l-27.65,14.02L829.776,774.741l18.214-21.57,2.663-3.593Z"/>
    <path data-manzana="M54" id="M54-2" data-name="M54" class="cls-2" d="M887.79,988.63l123.48,243.48-57.084,28.95L833.424,1022.93l2.21-4.49,15.149-9.92,20.048-13.533,13.818-8.128,2.688,0.879Z"/> 
    <path data-manzana="M55" id="M55-2" data-name="M55" class="cls-2" d="M817.383,1033.31L937.24,1269.65l-64.189,37.04-0.452-.89,7.574-4.97,1.319-4.03,0.867-4.92-3.167-6.25-5.389-3.99-1.344-.44L760.743,1060.91l0.879-2.69,52.62-26.69Z"/>
    <path data-manzana="M56" id="M56-2" data-name="M56" class="cls-2" d="M738.822,1059.69L855.061,1288.9l-1.306,6.27,0.013,2.24,4.07,8.02,9.41,3.08,4.459-2.26,0.892-.45L850.754,1318l-15.792-24.51-17.136-24.95-13.983-20.94-7.676-12.92-7.211-9.8-7.212-9.8-9.925-15.15-9.02-13.36-9.021-13.37-7.224-12.03-12.626-18.27-13.078-19.15-6.306-8.02-12.187-19.61-9.02-13.36-15.792-24.51,59.933,1Z"/>
    <path data-manzana="M62" id="M62-2" data-name="M62" class="cls-2" d="M1260.61,1117.99l104.93,206.92-2.19,6.72-48.16,24.42-4.04-1.32-105.38-207.8-0.47-3.13,52.62-26.69,2.24-.01Z"/>
    <path data-manzana="M63" id="M63-2" data-name="M63" class="cls-2" d="M1308.85,1106.99l99.96,197.1-1.32,4.03-21.41,10.86-4.48-2.21-104.93-206.92,1.32-4.03,13.37-6.79,17.04,7.06Z"/>
    <path data-manzana="M64" id="M64-2" data-name="M64" class="cls-2" d="M1382.33,1052.9l106.29,209.59-2.65,5.83-45.48,23.07-5.38-1.76-100.41-198,2.2-6.72,1.76-5.37-0.03-4.48-0.02-4.47,38.35-19.45,4.92,0.87Z"/>
    <path data-manzana="M65" id="M65-2" data-name="M65" class="cls-2" d="M1452.33,1014.04l106.74,210.48-2.2,6.72-44.59,22.62-6.27-1.31-107.65-212.26-0.01-2.24,50.84-25.78,2.68,0.88Z"/>
    <path data-manzana="M66" id="M66-2" data-name="M66" class="cls-2" d="M1534.89,984.5l101.77,200.667-2.65,5.83-50.84,25.78-5.83-2.65-108.09-213.15-0.47-3.132,62.43-31.66,1.8,1.331-0.38,12.525Z"/>
    <path data-manzana="M67" id="M67-2" data-name="M67" class="cls-2" d="M1585.35,1023.97l-4.02,3.98-0.02,3,4.96,8.02,55.46,107.28s14.98,29.3,16.85,30.09,5,0.02,5,.02l5.02-2.97s49.48-24.44,50.14-27.75a5.694,5.694,0,0,0-.98-5l-13.79-41.07s-19.27-59.26-20.69-61.11a12.115,12.115,0,0,0-3.99-3.02l-7.99-1.04Z"/>

</g>
  <path id="_2" data-name="2" class="cls-4" d="M297.877,584.849a9.511,9.511,0,1,1-9.963,9.5A9.74,9.74,0,0,1,297.877,584.849Z"/>
  <path id="_2-2" data-name="2" class="cls-5" d="M298.806,590.3c0.967-.487,2.489-1.219,3.441.587a2,2,0,0,1-.908,2.787c-1.474.777-2.632,0.187-5.59-1.267-3.56-1.748-5.221-1.013-6.8-.3l4.714,8.934,2.284-1.2-2.994-5.674c0.764-.026,1.829.566,3.959,1.656,1.536,0.814,3.446,1.667,5.694.481,2.652-1.4,3.076-4.167,1.755-6.672-0.613-1.16-2.624-4.079-6.879-1.834Z"/>
  <path id="_4" data-name="4" class="cls-4" d="M433.877,349.849a9.511,9.511,0,1,1-9.963,9.5A9.74,9.74,0,0,1,433.877,349.849Z"/>
  <path id="_4-2" data-name="4" class="cls-5" d="M430.927,355.972l7.349,0.314,0.019,0.037c-0.405.214-2.479,1.238-5.648,2.909Zm3.849,7.3-0.768-1.456,8.179-4.315-1.545-2.929-10.5-.609-2.229,1.176,2.721,5.158-2.892,1.526,1.361,2.579L432,362.871l0.768,1.455Z"/>
  <path id="_5" data-name="5" class="cls-4" d="M504.877,312.849a9.511,9.511,0,1,1-9.963,9.5A9.74,9.74,0,0,1,504.877,312.849Z"/>
  <path id="_5-2" data-name="5" class="cls-5" d="M508.408,318.816l2.809,5.324,2.174-1.147-3.79-7.184L501.94,318.7l1.1,2.361a2.056,2.056,0,0,1,1.853,1.236c0.72,1.364-.168,2.538-1.328,3.15-1.4.739-2.83,0.575-3.481-.659a1.97,1.97,0,0,1,.825-2.767l-1.361-2.579a4.514,4.514,0,0,0-1.605,6.287A5,5,0,0,0,505.153,328a4.451,4.451,0,0,0,2.128-6.186,4.063,4.063,0,0,0-1.953-1.961Z"/>
  <path id="_6" data-name="6" class="cls-4" d="M575.877,278.849a9.511,9.511,0,1,1-9.963,9.5A9.74,9.74,0,0,1,575.877,278.849Z"/>
  <path id="_6-2" data-name="6" class="cls-5" d="M581.41,290.5a4.016,4.016,0,0,0,1.827-2.518,5.187,5.187,0,0,0-.562-3.118c-2.391-4.532-6.932-2.56-9.419-1.248-3.26,1.72-6.168,4.244-4.078,8.2,1.331,2.524,4.17,3.263,7.026,1.757a4.374,4.374,0,0,0,1.925-6.126,3.1,3.1,0,0,0-2.38-1.877l0.018-.056c1.743-.8,3.863-1.426,4.748.25a1.518,1.518,0,0,1-.456,2.172Zm-6.788.614c-1.769.933-2.944,0.447-3.439-.493-0.652-1.234-.066-2.579,1.352-3.328,1.64-.865,2.773-0.191,3.288.786A2.168,2.168,0,0,1,574.622,291.117Z"/>
  <path id="_7" data-name="7" class="cls-4" d="M646.877,239.849a9.511,9.511,0,1,1-9.963,9.5A9.74,9.74,0,0,1,646.877,239.849Z"/>
  <path id="_7-2" data-name="7" class="cls-5" d="M654.99,251.065l-4.859-9.21L647.817,243l3.431,6.5c-1.762-.483-7.655-1.565-13.033.918l1.4,2.653A20.173,20.173,0,0,1,653,252.115Z"/>
  <path id="_8" data-name="8" class="cls-4" d="M723.877,210.849a9.511,9.511,0,1,1-9.963,9.5A9.74,9.74,0,0,1,723.877,210.849Z"/>
  <path id="_8-2" data-name="8" class="cls-5" d="M724.642,219.484a1.821,1.821,0,0,1,.737-2.532,1.768,1.768,0,0,1,2.554.914A1.835,1.835,0,0,1,724.642,219.484Zm-1.506,6.564a3.519,3.519,0,0,0,2.12-3.615,3.16,3.16,0,0,0,3.431.121c1.806-.952,2.65-3.235,1.221-5.943-1.205-2.284-3.492-3.361-5.721-2.186a3.009,3.009,0,0,0-1.725,2.936,3.744,3.744,0,0,0-4.366-.24c-1.787.942-3.366,3.259-1.588,6.631A4.736,4.736,0,0,0,723.136,226.048Zm-1.51-2.595a2.149,2.149,0,0,1-3.045-.771,2.106,2.106,0,0,1,1.081-3,2.048,2.048,0,0,1,3,.773A2.11,2.11,0,0,1,721.626,223.453Z"/>
  <path id="_9" data-name="9" class="cls-4" d="M796.877,176.849a9.511,9.511,0,1,1-9.963,9.5A9.74,9.74,0,0,1,796.877,176.849Z"/>
  <path id="_9-2" data-name="9" class="cls-5" d="M798.417,183.12c1.879-.992,2.842.031,3.192,0.694,0.7,1.326.119,2.457-1.373,3.244a2.2,2.2,0,0,1-3.193-.741C796.528,185.341,796.446,184.159,798.417,183.12Zm-6.954.7c-1.965,1.319-2.408,3.6-1.232,5.831,1.244,2.358,4.147,3.888,9.212,1.215,1.843-.972,6.686-3.621,4.294-8.152-1.35-2.561-3.844-3.671-7.049-1.98a4.377,4.377,0,0,0-2,6.118,3.205,3.205,0,0,0,2.417,1.9l-0.017.056c-2.755,1.43-4.221.838-4.785-.231a1.578,1.578,0,0,1,.493-2.191l0.018-.009Z"/>
  <path id="_10" data-name="10" class="cls-4" d="M859.877,147.849a9.511,9.511,0,1,1-9.963,9.5A9.74,9.74,0,0,1,859.877,147.849Z"/>
  <path id="_10-2" data-name="10" class="cls-5" d="M857.12,146.292l1.643,3.113-9.009,4.753,1.361,2.579,13.079-6.9-1.117-2.118c-1.006.46-2.645,0.477-3.957-2.01l-0.2-.369Zm2.411,10.953c-4.587,2.42-5.956,5-4.333,8.079s4.528,3.405,9.115.984,5.938-4.993,4.315-8.069S864.118,154.825,859.531,157.245Zm1.4,2.653c3.371-1.779,4.856-2.044,5.633-.57s-0.279,2.549-3.65,4.328-4.875,2.054-5.652.58S857.56,161.676,860.931,159.9Z"/>
  <path id="_21" data-name="21" class="cls-4" d="M896.877,367.849a9.511,9.511,0,1,1-9.963,9.5A9.74,9.74,0,0,1,896.877,367.849Z"/>
  <path id="_21-2" data-name="21" class="cls-5" d="M894.746,369.043c0.967-.487,2.489-1.219,3.441.586a2,2,0,0,1-.908,2.787c-1.474.778-2.633,0.188-5.59-1.266-3.56-1.748-5.221-1.013-6.8-.3l4.713,8.935,2.285-1.2-2.994-5.674c0.764-.026,1.829.566,3.959,1.656,1.536,0.814,3.446,1.667,5.694.481,2.652-1.4,3.076-4.167,1.755-6.672-0.613-1.161-2.624-4.079-6.879-1.834Zm4.976,8.093,1.642,3.113L892.356,385l1.361,2.579,13.079-6.9-1.117-2.118c-1.006.46-2.646,0.477-3.957-2.01l-0.195-.369Z"/>
  <path id="_20" data-name="20" class="cls-4" d="M825.877,402.849a9.511,9.511,0,1,1-9.963,9.5A9.74,9.74,0,0,1,825.877,402.849Z"/>
  <path id="_20-2" data-name="20" class="cls-5" d="M823.967,403.36c0.968-.487,2.489-1.219,3.442.586a2,2,0,0,1-.909,2.787c-1.473.778-2.632,0.188-5.59-1.266-3.559-1.748-5.22-1.013-6.8-.3l4.714,8.935,2.284-1.2-2.994-5.674c0.764-.026,1.83.565,3.959,1.656,1.537,0.814,3.446,1.666,5.694.481,2.653-1.4,3.077-4.167,1.755-6.672-0.612-1.161-2.623-4.08-6.879-1.834Zm1.982,8.8c-4.587,2.42-5.956,5-4.333,8.079s4.528,3.4,9.115.984,5.938-4.993,4.315-8.069S830.536,409.741,825.949,412.161Zm1.4,2.653c3.371-1.779,4.856-2.044,5.633-.571s-0.279,2.55-3.65,4.329-4.875,2.053-5.652.58S823.978,416.592,827.349,414.814Z"/>
  <path id="_19" data-name="19" class="cls-4" d="M752.877,441.849a9.511,9.511,0,1,1-9.963,9.5A9.74,9.74,0,0,1,752.877,441.849Z"/>
  <path id="_19-2" data-name="19" class="cls-5" d="M748.666,440.071l1.643,3.114-9.008,4.752,1.36,2.579,13.08-6.9-1.118-2.119c-1.006.46-2.645,0.477-3.957-2.01l-0.194-.368Zm6.129,12.242c1.879-.991,2.842.031,3.192,0.694,0.7,1.327.119,2.457-1.373,3.245a2.2,2.2,0,0,1-3.193-.741C752.906,454.535,752.824,453.353,754.8,452.313Zm-6.954.7c-1.965,1.32-2.408,3.6-1.233,5.832,1.244,2.358,4.148,3.888,9.213,1.215,1.842-.972,6.685-3.621,4.294-8.153-1.35-2.561-3.844-3.671-7.049-1.98a4.378,4.378,0,0,0-2,6.119,3.2,3.2,0,0,0,2.417,1.9l-0.017.057c-2.755,1.429-4.221.837-4.785-.231a1.578,1.578,0,0,1,.493-2.191l0.018-.01Z"/>
  <path id="_17" data-name="17" class="cls-4" d="M620.877,511.849a9.511,9.511,0,1,1-9.963,9.5A9.74,9.74,0,0,1,620.877,511.849Z"/>
  <path id="_17-2" data-name="17" class="cls-5" d="M617.487,509.964l1.643,3.113-9.008,4.753,1.36,2.579,13.08-6.9-1.118-2.118c-1,.46-2.645.477-3.957-2.01l-0.194-.369ZM631.2,526.633l-4.86-9.211-2.313,1.15,3.431,6.5c-1.763-.483-7.656-1.566-13.033.918l1.4,2.653a20.166,20.166,0,0,1,13.386-.963Z"/>
  <path id="_16" data-name="16" class="cls-4" d="M560.877,541.849a9.511,9.511,0,1,1-9.963,9.5A9.74,9.74,0,0,1,560.877,541.849Z"/>
  <path id="_16-2" data-name="16" class="cls-5" d="M558.345,538.7l1.642,3.113-9.008,4.752,1.361,2.58,13.079-6.9L564.3,540.12c-1,.46-2.645.478-3.957-2.009l-0.194-.369Zm10.407,17.9a4.012,4.012,0,0,0,1.827-2.518,5.179,5.179,0,0,0-.562-3.118c-2.391-4.532-6.931-2.56-9.418-1.248-3.261,1.72-6.169,4.244-4.079,8.2,1.331,2.524,4.171,3.263,7.026,1.757a4.373,4.373,0,0,0,1.925-6.126,3.1,3.1,0,0,0-2.379-1.877l0.017-.056c1.744-.8,3.864-1.426,4.748.25a1.518,1.518,0,0,1-.456,2.172Zm-6.788.614c-1.768.933-2.943,0.447-3.439-.493-0.651-1.234-.066-2.579,1.353-3.328,1.639-.865,2.772-0.191,3.287.786A2.168,2.168,0,0,1,561.964,557.205Z"/>
  <path id="_18" data-name="18" class="cls-4" d="M682.877,480.849a9.511,9.511,0,1,1-9.963,9.5A9.74,9.74,0,0,1,682.877,480.849Z"/>
  <path id="_18-2" data-name="18" class="cls-5" d="M679.212,478.584l1.643,3.113-9.008,4.753,1.36,2.579,13.08-6.9-1.118-2.119c-1.006.46-2.645,0.477-3.957-2.01l-0.194-.368Zm6.212,14.765a1.821,1.821,0,0,1,.737-2.532,1.768,1.768,0,0,1,2.554.913A1.835,1.835,0,0,1,685.424,493.349Zm-1.506,6.564a3.519,3.519,0,0,0,2.12-3.615,3.161,3.161,0,0,0,3.432.121c1.8-.953,2.65-3.235,1.221-5.943-1.205-2.284-3.493-3.362-5.722-2.186a3.009,3.009,0,0,0-1.725,2.936,3.745,3.745,0,0,0-4.365-.241c-1.787.943-3.367,3.26-1.588,6.631A4.735,4.735,0,0,0,683.918,499.913Zm-1.509-2.6a2.149,2.149,0,0,1-3.045-.772,2.1,2.1,0,0,1,1.08-3,2.047,2.047,0,0,1,3,.773A2.111,2.111,0,0,1,682.409,497.318Z"/>
  <path id="_15" data-name="15" class="cls-4" d="M492.877,588.849a9.511,9.511,0,1,1-9.963,9.5A9.74,9.74,0,0,1,492.877,588.849Z"/>
  <path id="_15-2" data-name="15" class="cls-5" d="M490.9,586.452l1.642,3.113-9.008,4.753L484.9,596.9l13.079-6.9-1.118-2.118c-1,.459-2.645.477-3.957-2.01l-0.194-.369Zm8.345,11.755,2.808,5.324,2.174-1.147-3.79-7.184-7.661,2.887,1.1,2.361a2.056,2.056,0,0,1,1.853,1.236c0.72,1.363-.168,2.538-1.328,3.151-1.4.738-2.829,0.574-3.481-.661a1.969,1.969,0,0,1,.825-2.766l-1.36-2.579a4.513,4.513,0,0,0-1.606,6.287,5,5,0,0,0,7.205,2.274,4.452,4.452,0,0,0,2.13-6.186,4.071,4.071,0,0,0-1.953-1.961Z"/>
  <path id="_14" data-name="14" class="cls-4" d="M421.877,626.849a9.511,9.511,0,1,1-9.963,9.5A9.74,9.74,0,0,1,421.877,626.849Z"/>
  <path id="_14-2" data-name="14" class="cls-5" d="M419.2,624.018l1.643,3.113-9.008,4.752,1.36,2.579,13.08-6.9-1.118-2.119c-1.006.46-2.645,0.477-3.957-2.01l-0.2-.368Zm1.89,13.536,7.349,0.314,0.019,0.037c-0.405.214-2.479,1.237-5.648,2.909Zm3.849,7.294-0.768-1.455,8.179-4.315-1.545-2.929-10.5-.61-2.229,1.177,2.721,5.158-2.892,1.525,1.361,2.579,2.892-1.525,0.768,1.455Z"/>
  <path id="_13" data-name="13" class="cls-4" d="M348.877,657.849a9.511,9.511,0,1,1-9.963,9.5A9.74,9.74,0,0,1,348.877,657.849Z"/>
  <path id="_13-2" data-name="13" class="cls-5" d="M346.32,655.863l1.642,3.114-9.008,4.752,1.361,2.579,13.079-6.9-1.117-2.119c-1.006.46-2.645,0.477-3.957-2.01l-0.195-.368Zm3.526,14.628c0.631,1.2,1.471,2.968-.316,3.911a2.174,2.174,0,0,1-3.176-.8c-0.913-1.731.574-2.751,1.274-3.121l0.028,0.009-1.331-2.524c-4.09,2.158-2.617,5.62-1.966,6.854a4.7,4.7,0,0,0,6.571,2.232,3.3,3.3,0,0,0,2-3.574l0.037-.02a3.035,3.035,0,0,0,3.313.254c2.764-1.458,2.433-4.227,1.51-5.977-1.556-2.948-4.034-3.406-6.484-2.113l1.263,2.395c0.46-.244,2.137-1.128,3.07.64a1.779,1.779,0,0,1-.811,2.525c-1.695.894-2.517-.486-2.926-1.26l-0.213-.4Z"/>
  <path id="_12" data-name="12" class="cls-4" d="M290.877,795.849a9.511,9.511,0,1,1-9.963,9.5A9.74,9.74,0,0,1,290.877,795.849Z"/>
  <path id="_12-2" data-name="12" class="cls-5" d="M288.44,793.234l1.643,3.113-9.008,4.753,1.36,2.579,13.08-6.9L294.4,794.66c-1,.46-2.645.477-3.957-2.01l-0.194-.369Zm5.835,12.4c0.967-.487,2.488-1.219,3.441.586a2,2,0,0,1-.908,2.787c-1.474.778-2.633,0.188-5.59-1.266-3.56-1.749-5.221-1.013-6.8-.3l4.714,8.935,2.284-1.206-2.993-5.673c0.764-.026,1.829.565,3.959,1.655,1.536,0.815,3.446,1.667,5.693.482,2.653-1.4,3.077-4.167,1.755-6.672-0.612-1.161-2.623-4.08-6.878-1.835Z"/>
  <path id="_32" data-name="32" class="cls-4" d="M352.877,1011.85a9.511,9.511,0,1,1-9.963,9.5A9.738,9.738,0,0,1,352.877,1011.85Z"/>
  <path id="_32-2" data-name="32" class="cls-5" d="M349.214,1015.67c0.632,1.2,1.472,2.97-.315,3.91a2.171,2.171,0,0,1-3.176-.79c-0.914-1.73.573-2.75,1.273-3.12l0.029,0.01-1.332-2.53c-4.09,2.16-2.617,5.62-1.965,6.85a4.7,4.7,0,0,0,6.57,2.24,3.313,3.313,0,0,0,2-3.58l0.037-.02a3.037,3.037,0,0,0,3.313.26c2.763-1.46,2.432-4.23,1.509-5.98-1.555-2.95-4.034-3.41-6.484-2.11l1.263,2.39c0.461-.24,2.137-1.13,3.07.64a1.786,1.786,0,0,1-.811,2.53c-1.695.89-2.517-.49-2.925-1.26l-0.214-.41Zm7.714,8.02c0.967-.49,2.489-1.22,3.441.58a2,2,0,0,1-.908,2.79c-1.474.78-2.633,0.19-5.59-1.26-3.56-1.75-5.221-1.02-6.8-.3l4.714,8.93,2.284-1.2-2.993-5.68c0.764-.02,1.829.57,3.959,1.66,1.536,0.81,3.446,1.66,5.693.48,2.653-1.4,3.077-4.17,1.755-6.67-0.612-1.16-2.623-4.08-6.878-1.84Z"/>
  <path id="_33" data-name="33" class="cls-4" d="M419.877,965.849a9.511,9.511,0,1,1-9.963,9.5A9.74,9.74,0,0,1,419.877,965.849Z"/>
  <path id="_33-2" data-name="33" class="cls-5" d="M415.891,968.868c0.631,1.2,1.471,2.968-.316,3.911a2.173,2.173,0,0,1-3.175-.8c-0.914-1.731.573-2.751,1.273-3.121l0.028,0.009-1.331-2.524c-4.09,2.158-2.617,5.62-1.966,6.854a4.7,4.7,0,0,0,6.571,2.232,3.3,3.3,0,0,0,2-3.575l0.037-.019a3.035,3.035,0,0,0,3.313.254c2.764-1.458,2.433-4.227,1.51-5.977-1.555-2.948-4.034-3.406-6.485-2.113l1.264,2.394c0.461-.242,2.137-1.127,3.07.642a1.776,1.776,0,0,1-.811,2.523c-1.695.9-2.517-.485-2.926-1.259l-0.213-.405Zm5.4,10.245c0.631,1.2,1.471,2.968-.315,3.91a2.173,2.173,0,0,1-3.176-.8c-0.914-1.731.573-2.751,1.273-3.121l0.028,0.009-1.331-2.524c-4.09,2.158-2.617,5.62-1.966,6.854a4.7,4.7,0,0,0,6.571,2.232,3.306,3.306,0,0,0,2-3.575l0.036-.019a3.035,3.035,0,0,0,3.313.254c2.764-1.458,2.433-4.227,1.51-5.977-1.555-2.948-4.034-3.406-6.484-2.113l1.263,2.394c0.461-.243,2.137-1.127,3.07.641a1.777,1.777,0,0,1-.811,2.524c-1.695.894-2.517-.485-2.925-1.259l-0.214-.405Z"/>
  <path id="_34" data-name="34" class="cls-4" d="M487.877,928.849a9.511,9.511,0,1,1-9.963,9.5A9.74,9.74,0,0,1,487.877,928.849Z"/>
  <path id="_34-2" data-name="34" class="cls-5" d="M484.016,931.951c0.632,1.2,1.471,2.968-.315,3.911a2.173,2.173,0,0,1-3.176-.8c-0.914-1.731.573-2.751,1.273-3.12l0.028,0.008-1.331-2.524c-4.09,2.158-2.617,5.62-1.965,6.854a4.7,4.7,0,0,0,6.57,2.232,3.3,3.3,0,0,0,2-3.574l0.037-.02a3.034,3.034,0,0,0,3.313.254c2.763-1.458,2.432-4.227,1.509-5.977-1.555-2.948-4.034-3.406-6.484-2.113l1.263,2.394c0.461-.242,2.137-1.127,3.07.642a1.777,1.777,0,0,1-.811,2.524c-1.695.894-2.517-.486-2.925-1.26l-0.214-.4Zm3.769,9.153,7.349,0.315,0.019,0.037c-0.405.214-2.479,1.237-5.647,2.909Zm3.849,7.295-0.768-1.455,8.179-4.315L497.5,939.7l-10.5-.61-2.229,1.176,2.722,5.158-2.893,1.526,1.361,2.579L488.858,948l0.768,1.456Z"/>
  <path id="_35" data-name="35" class="cls-4" d="M556.877,884.849a9.511,9.511,0,1,1-9.963,9.5A9.74,9.74,0,0,1,556.877,884.849Z"/>
  <path id="_35-2" data-name="35" class="cls-5" d="M552.2,888.247c0.632,1.2,1.472,2.968-.315,3.911a2.174,2.174,0,0,1-3.176-.8c-0.913-1.732.574-2.752,1.274-3.121l0.028,0.008-1.332-2.523c-4.089,2.157-2.616,5.619-1.965,6.853a4.7,4.7,0,0,0,6.571,2.233,3.3,3.3,0,0,0,2-3.575l0.037-.02a3.034,3.034,0,0,0,3.313.254c2.763-1.458,2.433-4.227,1.509-5.977-1.555-2.948-4.034-3.406-6.484-2.113l1.264,2.395c0.46-.243,2.137-1.128,3.07.641a1.778,1.778,0,0,1-.812,2.524c-1.694.894-2.516-.486-2.925-1.26l-0.213-.4Zm10.225,7.373,2.809,5.324,2.173-1.147-3.79-7.185-7.661,2.888,1.105,2.361a2.059,2.059,0,0,1,1.853,1.236c0.719,1.363-.168,2.538-1.329,3.15-1.4.739-2.829,0.574-3.48-.66a1.968,1.968,0,0,1,.824-2.766l-1.36-2.579a4.513,4.513,0,0,0-1.605,6.286,5,5,0,0,0,7.205,2.275,4.453,4.453,0,0,0,2.129-6.187,4.068,4.068,0,0,0-1.953-1.96Z"/>
  <circle id="_35_copia" data-name="35 copia" class="cls-6" cx="752.454" cy="853.64" r="8.234"/>
  <path id="_35_copia_2" data-name="35 copia 2" class="cls-5" d="M746.318,851.667c1.008,0.523,2.432,1.342,1.651,2.846a1.822,1.822,0,0,1-2.569.967,1.874,1.874,0,0,1-.613-2.759l0.023-.007-2.123-1.1c-1.787,3.44.881,5.122,1.92,5.661a3.941,3.941,0,0,0,5.594-1.6,2.772,2.772,0,0,0-.33-3.419l0.016-.031a2.547,2.547,0,0,0,2.405-1.407c1.208-2.325-.343-4.075-1.815-4.84-2.48-1.289-4.407-.42-5.478,1.641l2.014,1.047a1.721,1.721,0,0,1,2.422-1.025,1.49,1.49,0,0,1,.647,2.127c-0.741,1.425-1.967.868-2.617,0.529l-0.341-.177Zm10.568,0.2,4.479,2.327,0.95-1.828-6.044-3.141-3.9,5.65,1.888,1.1a1.726,1.726,0,0,1,1.868-.033c1.147,0.6,1.1,1.829.589,2.806-0.612,1.177-1.675,1.747-2.714,1.207a1.65,1.65,0,0,1-.753-2.3l-2.17-1.127a3.784,3.784,0,0,0,1.9,5.1,4.19,4.19,0,0,0,6.052-1.874,3.733,3.733,0,0,0-1.488-5.28,3.4,3.4,0,0,0-2.282-.418Z"/>
  <path id="_36" data-name="36" class="cls-4" d="M622.877,836.849a9.511,9.511,0,1,1-9.963,9.5A9.74,9.74,0,0,1,622.877,836.849Z"/>
  <path id="_36-2" data-name="36" class="cls-5" d="M618.16,839.61c0.632,1.2,1.471,2.968-.315,3.911a2.174,2.174,0,0,1-3.176-.8c-0.914-1.732.573-2.752,1.273-3.121l0.028,0.008-1.331-2.524c-4.09,2.158-2.617,5.62-1.965,6.854a4.7,4.7,0,0,0,6.57,2.232,3.3,3.3,0,0,0,2-3.574l0.037-.02a3.034,3.034,0,0,0,3.313.254c2.763-1.458,2.432-4.227,1.509-5.977-1.555-2.948-4.034-3.406-6.484-2.113l1.263,2.395c0.461-.243,2.137-1.128,3.07.641a1.777,1.777,0,0,1-.811,2.524c-1.695.894-2.517-.486-2.925-1.26l-0.214-.4Zm12.287,13.514a4.016,4.016,0,0,0,1.827-2.518,5.179,5.179,0,0,0-.562-3.118c-2.391-4.532-6.932-2.56-9.419-1.248-3.26,1.72-6.168,4.243-4.078,8.2,1.331,2.524,4.17,3.263,7.026,1.757a4.374,4.374,0,0,0,1.925-6.126,3.1,3.1,0,0,0-2.379-1.877l0.017-.056c1.743-.8,3.863-1.426,4.748.25a1.518,1.518,0,0,1-.456,2.172Zm-6.788.614c-1.768.933-2.944,0.446-3.439-.493-0.652-1.234-.066-2.58,1.352-3.328,1.64-.865,2.773-0.191,3.288.785A2.17,2.17,0,0,1,623.659,853.738Z"/>
  <path id="_37" data-name="37" class="cls-4" d="M688.877,790.849a9.511,9.511,0,1,1-9.963,9.5A9.74,9.74,0,0,1,688.877,790.849Z"/>
  <path id="_37-2" data-name="37" class="cls-5" d="M684.45,794.129c0.632,1.2,1.472,2.967-.315,3.91a2.173,2.173,0,0,1-3.176-.8c-0.914-1.732.573-2.752,1.273-3.121l0.029,0.009-1.332-2.524c-4.089,2.158-2.617,5.619-1.965,6.853a4.7,4.7,0,0,0,6.57,2.233,3.306,3.306,0,0,0,2-3.575l0.037-.019a3.036,3.036,0,0,0,3.313.254c2.763-1.458,2.432-4.228,1.509-5.978-1.555-2.947-4.034-3.4-6.484-2.113l1.263,2.395c0.461-.243,2.137-1.127,3.07.641a1.777,1.777,0,0,1-.811,2.524c-1.7.894-2.517-.485-2.925-1.259l-0.214-.4Zm15.6,12.286-4.86-9.211-2.313,1.15,3.431,6.5c-1.763-.483-7.656-1.566-13.033.918l1.4,2.653a20.166,20.166,0,0,1,13.386-.963Z"/>
  <path id="_43" data-name="43" class="cls-4" d="M1053.88,676.849a9.511,9.511,0,1,1-9.97,9.5A9.738,9.738,0,0,1,1053.88,676.849Z"/>
  <path id="_43-2" data-name="43" class="cls-5" d="M1048.44,678.167l7.35,0.315,0.02,0.037c-0.41.214-2.48,1.237-5.65,2.909Zm3.85,7.295-0.77-1.455,8.18-4.315-1.55-2.929-10.49-.61-2.23,1.176,2.72,5.158-2.89,1.526,1.36,2.579,2.89-1.526,0.77,1.456Zm3.19,4.042c0.63,1.2,1.47,2.968-.32,3.91a2.167,2.167,0,0,1-3.17-.8c-0.92-1.731.57-2.751,1.27-3.121l0.03,0.009-1.33-2.524c-4.09,2.158-2.62,5.62-1.97,6.854a4.7,4.7,0,0,0,6.57,2.232,3.3,3.3,0,0,0,2-3.575l0.04-.019a3.033,3.033,0,0,0,3.31.254c2.76-1.458,2.43-4.227,1.51-5.977-1.55-2.948-4.03-3.406-6.48-2.114l1.26,2.395c0.46-.243,2.14-1.127,3.07.641a1.775,1.775,0,0,1-.81,2.524c-1.7.894-2.52-.485-2.93-1.259l-0.21-.4Z"/>
  <path id="_42" data-name="42" class="cls-4" d="M982.877,714.849a9.511,9.511,0,1,1-9.963,9.5A9.74,9.74,0,0,1,982.877,714.849Z"/>
  <path id="_42-2" data-name="42" class="cls-5" d="M976.894,716.435l7.349,0.315,0.019,0.037c-0.4.214-2.479,1.237-5.648,2.909Zm3.849,7.3-0.768-1.455,8.179-4.315-1.545-2.929-10.5-.61-2.229,1.176,2.721,5.158-2.892,1.526,1.361,2.579,2.892-1.526,0.768,1.456Zm5.5,1.811c0.968-.487,2.489-1.219,3.442.587a2,2,0,0,1-.908,2.787c-1.474.777-2.633,0.187-5.59-1.267-3.56-1.748-5.221-1.013-6.8-.3l4.714,8.934,2.284-1.205-2.993-5.674c0.763-.026,1.829.566,3.958,1.656,1.537,0.814,3.447,1.667,5.694.481,2.653-1.4,3.077-4.166,1.755-6.672-0.612-1.16-2.623-4.079-6.879-1.834Z"/>
  <path id="_41" data-name="41" class="cls-4" d="M926.877,779.849a9.511,9.511,0,1,1-9.963,9.5A9.74,9.74,0,0,1,926.877,779.849Z"/>
  <path id="_41-2" data-name="41" class="cls-5" d="M921.737,782.379l7.349,0.315,0.019,0.037c-0.4.213-2.479,1.237-5.647,2.909Zm3.849,7.295-0.768-1.455L933,783.9l-1.545-2.929-10.5-.609-2.229,1.176,2.722,5.158-2.893,1.526,1.361,2.579,2.892-1.526,0.768,1.455Zm5.071-.341,1.643,3.113-9.008,4.753,1.361,2.579,13.079-6.9-1.118-2.118c-1,.46-2.645.477-3.957-2.01l-0.194-.369Z"/>
  <circle id="_45" data-name="45" class="cls-6" cx="1410.345" cy="799.61" r="8.065"/>
  <path id="_45-2" data-name="45" class="cls-5" d="M1402.7,797.342l4.9-3.572,0.04,0.013c-0.16.347-.97,2.072-2.15,4.779Zm6.23,2.729-1.24-.545,3.06-6.986-2.5-1.095-7.09,5-0.83,1.9,4.41,1.93-1.09,2.47,2.21,0.965,1.08-2.471,1.24,0.545Zm5.77-3.362,4.55,1.991,0.81-1.857-6.14-2.687-3.45,5.8,1.92,0.956a1.7,1.7,0,0,1,1.83-.155,1.892,1.892,0,0,1,.76,2.715c-0.52,1.2-1.53,1.824-2.58,1.362a1.617,1.617,0,0,1-.89-2.208l-2.2-.965a3.721,3.721,0,0,0,2.19,4.88,4.125,4.125,0,0,0,5.82-2.234,3.672,3.672,0,0,0-1.81-5.085,3.336,3.336,0,0,0-2.26-.261Z"/>
  <path id="_52" data-name="52" class="cls-4" d="M1050.88,1016.85a9.511,9.511,0,1,1-9.97,9.5A9.737,9.737,0,0,1,1050.88,1016.85Z"/>
  <path id="_52-2" data-name="52" class="cls-5" d="M1050.83,1017.23l2.8,5.33,2.18-1.15-3.79-7.19-7.66,2.89,1.1,2.36a2.067,2.067,0,0,1,1.86,1.24c0.71,1.36-.17,2.54-1.33,3.15-1.4.74-2.83,0.57-3.48-.66a1.968,1.968,0,0,1,.82-2.77l-1.36-2.58a4.524,4.524,0,0,0-1.61,6.29,5,5,0,0,0,7.21,2.27,4.449,4.449,0,0,0,2.13-6.18,4.063,4.063,0,0,0-1.95-1.96Zm2.89,10.89c0.97-.49,2.49-1.22,3.44.58a2,2,0,0,1-.91,2.79c-1.47.78-2.63,0.19-5.59-1.26-3.56-1.75-5.22-1.02-6.79-.3l4.71,8.93,2.28-1.2-2.99-5.68c0.76-.02,1.83.57,3.96,1.66,1.53,0.81,3.44,1.66,5.69.48,2.65-1.4,3.08-4.17,1.76-6.67-0.62-1.16-2.63-4.08-6.88-1.84Z"/>
  <path id="_51" data-name="51" class="cls-4" d="M1123.88,983.849a9.512,9.512,0,1,1-9.97,9.5A9.738,9.738,0,0,1,1123.88,983.849Z"/>
  <path id="_51-2" data-name="51" class="cls-5" d="M1124.72,985.381l2.81,5.324,2.17-1.146-3.79-7.185-7.66,2.888,1.11,2.361a2.063,2.063,0,0,1,1.85,1.236c0.72,1.363-.17,2.538-1.33,3.15-1.4.739-2.83,0.574-3.48-.66a1.97,1.97,0,0,1,.82-2.767L1115.86,986a4.516,4.516,0,0,0-1.6,6.287,4.994,4.994,0,0,0,7.2,2.275,4.442,4.442,0,0,0,2.13-6.187,4.077,4.077,0,0,0-1.95-1.96Zm2.47,8.735,1.64,3.113-9.01,4.751,1.36,2.58,13.08-6.9-1.12-2.118c-1,.46-2.64.477-3.95-2.01l-0.2-.368Z"/>
  <path id="_50" data-name="50" class="cls-4" d="M1192.88,944.849a9.511,9.511,0,1,1-9.97,9.5A9.738,9.738,0,0,1,1192.88,944.849Z"/>
  <path id="_50-2" data-name="50" class="cls-5" d="M1192.88,944.705l2.81,5.323,2.17-1.147-3.79-7.184-7.66,2.888,1.1,2.361a2.067,2.067,0,0,1,1.86,1.236c0.71,1.363-.17,2.538-1.33,3.15-1.4.739-2.83,0.574-3.48-.66a1.963,1.963,0,0,1,.82-2.767l-1.36-2.579a4.508,4.508,0,0,0-1.6,6.287c2.03,3.85,5.41,3.217,7.2,2.275a4.458,4.458,0,0,0,2.13-6.187,4.077,4.077,0,0,0-1.95-1.96Zm-0.53,9.442c-4.59,2.42-5.96,5-4.34,8.079s4.53,3.4,9.12.985,5.94-4.993,4.31-8.07S1196.93,951.727,1192.35,954.147Zm1.4,2.653c3.37-1.779,4.85-2.044,5.63-.57s-0.28,2.549-3.65,4.328-4.87,2.054-5.65.58S1190.38,958.578,1193.75,956.8Z"/>
  <path id="_49" data-name="49" class="cls-4" d="M1277.88,909.849a9.511,9.511,0,1,1-9.97,9.5A9.738,9.738,0,0,1,1277.88,909.849Z"/>
  <path id="_49-2" data-name="49" class="cls-5" d="M1271.2,911.186l7.35,0.315,0.02,0.037c-0.4.214-2.48,1.237-5.65,2.909Zm3.85,7.295-0.76-1.455,8.17-4.315-1.54-2.929-10.5-.61-2.22,1.176,2.72,5.158-2.9,1.526,1.37,2.579,2.89-1.526,0.77,1.456Zm5.8,1.656c1.88-.992,2.84.031,3.19,0.694,0.7,1.326.12,2.457-1.37,3.244a2.207,2.207,0,0,1-3.2-.741C1278.96,922.358,1278.88,921.177,1280.85,920.137Zm-6.96.7c-1.96,1.32-2.4,3.6-1.23,5.831,1.25,2.359,4.15,3.888,9.21,1.216,1.85-.972,6.69-3.622,4.3-8.153-1.35-2.561-3.85-3.671-7.05-1.98a4.38,4.38,0,0,0-2,6.118,3.2,3.2,0,0,0,2.42,1.9l-0.02.056c-2.76,1.43-4.22.838-4.79-.231a1.582,1.582,0,0,1,.5-2.19l0.02-.01Z"/>
  <path id="_48" data-name="48" class="cls-4" d="M1354.88,888.849a9.511,9.511,0,1,1-9.97,9.5A9.738,9.738,0,0,1,1354.88,888.849Z"/>
  <path id="_48-2" data-name="48" class="cls-5" d="M1348.8,890.687l7.34,0.315,0.02,0.037c-0.4.214-2.48,1.237-5.64,2.909Zm3.84,7.295-0.76-1.455,8.18-4.315-1.55-2.929-10.49-.61-2.23,1.176,2.72,5.158-2.89,1.526,1.36,2.579,2.89-1.526,0.77,1.456Zm5.88,4.179a1.828,1.828,0,0,1,.74-2.532,1.763,1.763,0,0,1,2.55.913A1.835,1.835,0,0,1,1358.52,902.161Zm-1.5,6.564a3.532,3.532,0,0,0,2.12-3.615,3.157,3.157,0,0,0,3.43.121c1.8-.952,2.65-3.235,1.22-5.943-1.21-2.284-3.49-3.362-5.72-2.186a3,3,0,0,0-1.73,2.936,3.736,3.736,0,0,0-4.36-.241c-1.79.943-3.37,3.26-1.59,6.632A4.738,4.738,0,0,0,1357.02,908.725Zm-1.51-2.6a2.153,2.153,0,0,1-3.05-.772,2.108,2.108,0,0,1,1.08-2.995,2.05,2.05,0,0,1,3,.773A2.108,2.108,0,0,1,1355.51,906.13Z"/>
  <path id="_47" data-name="47" class="cls-4" d="M1466.88,895.849a9.511,9.511,0,1,1-9.97,9.5A9.738,9.738,0,0,1,1466.88,895.849Z"/>
  <path id="_47-2" data-name="47" class="cls-5" d="M1460.59,898.451l7.35,0.315,0.02,0.037c-0.4.214-2.48,1.237-5.65,2.909Zm3.85,7.295-0.77-1.455,8.18-4.315-1.54-2.93-10.5-.609-2.22,1.176,2.72,5.158-2.9,1.526,1.36,2.579,2.9-1.526,0.76,1.455Zm13.39,6.083-4.86-9.211-2.32,1.15,3.43,6.5c-1.76-.483-7.65-1.566-13.03.918l1.4,2.653a20.178,20.178,0,0,1,13.39-.963Z"/>
  <path id="_46" data-name="46" class="cls-4" d="M1611.88,906.849a9.511,9.511,0,1,1-9.97,9.5A9.738,9.738,0,0,1,1611.88,906.849Z"/>
  <path id="_46-2" data-name="46" class="cls-5" d="M1605.57,908.372l7.34,0.315,0.02,0.037c-0.4.214-2.48,1.237-5.64,2.909Zm3.84,7.3-0.76-1.455,8.18-4.315-1.55-2.929-10.49-.61-2.23,1.176,2.72,5.158-2.89,1.526,1.36,2.579,2.89-1.526,0.77,1.456Zm10.08,7.311a4.022,4.022,0,0,0,1.82-2.518,5.163,5.163,0,0,0-.56-3.119c-2.39-4.531-6.93-2.559-9.42-1.247-3.26,1.72-6.16,4.243-4.07,8.2,1.33,2.523,4.17,3.263,7.02,1.756a4.376,4.376,0,0,0,1.93-6.126,3.111,3.111,0,0,0-2.38-1.876l0.01-.057c1.75-.8,3.87-1.426,4.75.251a1.518,1.518,0,0,1-.45,2.171Zm-6.79.614c-1.77.933-2.94,0.446-3.44-.493-0.65-1.235-.07-2.58,1.35-3.328,1.64-.865,2.78-0.191,3.29.785A2.166,2.166,0,0,1,1612.7,923.592Z"/>
  <path id="_45-3" data-name="45" class="cls-4" d="M1657.88,1091.85a9.511,9.511,0,1,1-9.97,9.5A9.737,9.737,0,0,1,1657.88,1091.85Z"/>
  <path id="_66" data-name="66" class="cls-4" d="M1553.88,1089.85a9.511,9.511,0,1,1-9.97,9.5A9.737,9.737,0,0,1,1553.88,1089.85Z"/>
  <path id="_66-2" data-name="66" class="cls-5" d="M1556.11,1095.51a4,4,0,0,0,1.83-2.52,5.225,5.225,0,0,0-.56-3.12c-2.39-4.53-6.93-2.56-9.42-1.25-3.26,1.72-6.17,4.25-4.08,8.21,1.33,2.52,4.17,3.26,7.03,1.75a4.366,4.366,0,0,0,1.92-6.12,3.1,3.1,0,0,0-2.38-1.88l0.02-.06c1.74-.8,3.86-1.42,4.75.25a1.531,1.531,0,0,1-.46,2.18Zm-6.79.61c-1.76.93-2.94,0.45-3.43-.49-0.66-1.24-.07-2.58,1.35-3.33a2.213,2.213,0,0,1,3.29.79A2.171,2.171,0,0,1,1549.32,1096.12Zm12.2,9.63a4.078,4.078,0,0,0,1.83-2.52,5.2,5.2,0,0,0-.57-3.11c-2.39-4.54-6.93-2.56-9.42-1.25-3.26,1.72-6.16,4.24-4.07,8.2,1.33,2.53,4.17,3.26,7.02,1.76a4.38,4.38,0,0,0,1.93-6.13,3.1,3.1,0,0,0-2.38-1.87l0.01-.06c1.75-.8,3.87-1.43,4.75.25a1.516,1.516,0,0,1-.45,2.17Zm-6.79.62c-1.77.93-2.94,0.44-3.44-.5-0.65-1.23-.06-2.58,1.35-3.33,1.64-.86,2.78-0.19,3.29.79A2.171,2.171,0,0,1,1554.73,1106.37Z"/>
  <path id="_65" data-name="65" class="cls-4" d="M1474.88,1123.85a9.511,9.511,0,1,1-9.97,9.5A9.737,9.737,0,0,1,1474.88,1123.85Z"/>
  <path id="_65-2" data-name="65" class="cls-5" d="M1477.47,1130.29a4.021,4.021,0,0,0,1.82-2.52,5.151,5.151,0,0,0-.56-3.12c-2.39-4.53-6.93-2.56-9.42-1.25-3.26,1.72-6.16,4.24-4.07,8.21,1.33,2.52,4.17,3.26,7.02,1.75a4.371,4.371,0,0,0,1.93-6.12,3.114,3.114,0,0,0-2.38-1.88l0.01-.06c1.75-.8,3.87-1.42,4.75.25a1.529,1.529,0,0,1-.45,2.18Zm-6.79.61c-1.77.93-2.94,0.45-3.44-.49-0.65-1.24-.07-2.58,1.35-3.33,1.64-.87,2.78-0.19,3.29.78A2.169,2.169,0,0,1,1470.68,1130.9Zm10.13,3.49,2.81,5.32,2.17-1.14-3.79-7.19-7.66,2.89,1.11,2.36a2.063,2.063,0,0,1,1.85,1.24c0.72,1.36-.17,2.53-1.33,3.15-1.4.74-2.83,0.57-3.48-.66a1.971,1.971,0,0,1,.82-2.77l-1.36-2.58a4.519,4.519,0,0,0-1.6,6.29c2.03,3.85,5.42,3.21,7.2,2.27a4.434,4.434,0,0,0,2.13-6.18,4.017,4.017,0,0,0-1.95-1.96Z"/>
  <path id="_64" data-name="64" class="cls-4" d="M1409.88,1163.85a9.511,9.511,0,1,1-9.97,9.5A9.737,9.737,0,0,1,1409.88,1163.85Z"/>
  <path id="_64-2" data-name="64" class="cls-5" d="M1412.16,1169.5a3.986,3.986,0,0,0,1.83-2.51,5.225,5.225,0,0,0-.56-3.12c-2.4-4.53-6.94-2.56-9.42-1.25-3.26,1.72-6.17,4.24-4.08,8.2,1.33,2.53,4.17,3.27,7.02,1.76a4.364,4.364,0,0,0,1.93-6.12,3.114,3.114,0,0,0-2.38-1.88l0.02-.06c1.74-.8,3.86-1.42,4.74.25a1.508,1.508,0,0,1-.45,2.17Zm-6.79.62c-1.77.93-2.94,0.45-3.44-.49-0.65-1.24-.06-2.58,1.36-3.33,1.64-.87,2.77-0.19,3.28.78A2.171,2.171,0,0,1,1405.37,1170.12Zm3.68,5.27,7.35,0.31,0.02,0.04c-0.41.21-2.48,1.24-5.65,2.91Zm3.85,7.29-0.77-1.45,8.18-4.32-1.55-2.93-10.49-.6-2.23,1.17,2.72,5.16-2.89,1.53,1.36,2.57,2.89-1.52,0.77,1.45Z"/>
  <path id="_63" data-name="63" class="cls-4" d="M1342.11,1200.28a7.894,7.894,0,1,1-8.27,7.88A8.082,8.082,0,0,1,1342.11,1200.28Z"/>
  <path id="_63-2" data-name="63" class="cls-5" d="M1344.85,1205.32a3.384,3.384,0,0,0,1.52-2.09,4.35,4.35,0,0,0-.47-2.59c-1.99-3.76-5.76-2.13-7.82-1.04-2.71,1.43-5.12,3.52-3.39,6.81,1.11,2.1,3.47,2.71,5.84,1.46a3.631,3.631,0,0,0,1.6-5.08,2.584,2.584,0,0,0-1.98-1.56l0.01-.05c1.45-.67,3.21-1.18,3.95.21a1.256,1.256,0,0,1-.38,1.8Zm-5.64.51c-1.46.77-2.44,0.37-2.85-.41a2.027,2.027,0,0,1,1.12-2.77,1.847,1.847,0,0,1,2.73.66A1.8,1.8,0,0,1,1339.21,1205.83Zm4.41,5.28c0.53,0.99,1.22,2.46-.26,3.24a1.8,1.8,0,0,1-2.64-.66,1.863,1.863,0,0,1,1.06-2.59l0.03,0.01-1.11-2.1c-3.4,1.79-2.17,4.67-1.63,5.69a3.9,3.9,0,0,0,5.45,1.86,2.741,2.741,0,0,0,1.66-2.97l0.03-.02a2.515,2.515,0,0,0,2.75.21c2.3-1.21,2.02-3.51,1.26-4.96-1.29-2.45-3.35-2.83-5.39-1.75l1.05,1.99a1.7,1.7,0,0,1,2.55.53,1.471,1.471,0,0,1-.67,2.09c-1.41.74-2.09-.4-2.43-1.04l-0.18-.34Z"/>
  <path id="_62" data-name="62" class="cls-4" d="M1283.88,1229.85a9.511,9.511,0,1,1-9.97,9.5A9.737,9.737,0,0,1,1283.88,1229.85Z"/>
  <path id="_62-2" data-name="62" class="cls-5" d="M1287.03,1236.63a4,4,0,0,0,1.83-2.52,5.207,5.207,0,0,0-.56-3.11c-2.4-4.54-6.94-2.56-9.42-1.25-3.26,1.72-6.17,4.24-4.08,8.2,1.33,2.53,4.17,3.27,7.02,1.76a4.372,4.372,0,0,0,1.93-6.13,3.1,3.1,0,0,0-2.38-1.87l0.02-.06c1.74-.8,3.86-1.43,4.74.25a1.508,1.508,0,0,1-.45,2.17Zm-6.79.62c-1.77.93-2.94,0.44-3.44-.5-0.65-1.23-.06-2.58,1.36-3.32,1.64-.87,2.77-0.2,3.28.78A2.171,2.171,0,0,1,1280.24,1237.25Zm7.62,4.13c0.97-.49,2.49-1.22,3.44.58a2,2,0,0,1-.91,2.79c-1.47.78-2.63,0.19-5.58-1.26-3.56-1.75-5.23-1.02-6.8-.3l4.71,8.93,2.28-1.2-2.99-5.68c0.76-.02,1.83.57,3.96,1.66,1.54,0.81,3.45,1.66,5.69.48,2.66-1.4,3.08-4.17,1.76-6.67-0.61-1.16-2.62-4.08-6.88-1.84Z"/>
  <circle id="_53" data-name="53" class="cls-6" cx="947.843" cy="980.438" r="8.031"/>
  <path id="_53-2" data-name="53" class="cls-5" d="M948.826,972.721l2.264,4.291,1.752-.924-3.055-5.791-6.175,2.328,0.89,1.9a1.658,1.658,0,0,1,1.494,1,1.857,1.857,0,0,1-1.071,2.539c-1.128.6-2.28,0.463-2.8-.532a1.587,1.587,0,0,1,.665-2.23l-1.1-2.078a3.638,3.638,0,0,0-1.294,5.067,4.028,4.028,0,0,0,5.808,1.833,3.588,3.588,0,0,0,1.716-4.986,3.276,3.276,0,0,0-1.574-1.58Zm0.472,10.573c0.509,0.965,1.187,2.392-.254,3.152a1.752,1.752,0,0,1-2.56-.642,1.8,1.8,0,0,1,1.027-2.516l0.022,0.007-1.073-2.034c-3.3,1.739-2.109,4.529-1.584,5.524a3.79,3.79,0,0,0,5.3,1.8,2.663,2.663,0,0,0,1.612-2.881l0.03-.016a2.445,2.445,0,0,0,2.67.205c2.227-1.175,1.961-3.407,1.217-4.818-1.254-2.376-3.252-2.745-5.227-1.7l1.019,1.93a1.653,1.653,0,0,1,2.474.517,1.432,1.432,0,0,1-.654,2.034c-1.366.721-2.029-.391-2.358-1.015l-0.172-.326Z"/>
  <path id="_40" data-name="40" class="cls-4" d="M932.035,1006.15a6.918,6.918,0,1,1-7.243,6.91A7.086,7.086,0,0,1,932.035,1006.15Z"/>
  <path id="_40-2" data-name="40" class="cls-5" d="M927.334,1007.93l5.343,0.23,0.014,0.03c-0.3.15-1.8,0.9-4.106,2.11Zm2.8,5.31-0.559-1.06,5.947-3.14-1.124-2.13-7.63-.44-1.62.85,1.978,3.75-2.1,1.11,0.989,1.88,2.1-1.11,0.559,1.06Zm1.51,0.26c-3.335,1.76-4.33,3.64-3.15,5.88s3.292,2.47,6.626.71,4.317-3.63,3.137-5.86S934.978,1011.74,931.643,1013.5Zm1.017,1.93c2.451-1.29,3.531-1.49,4.1-.41s-0.2,1.85-2.654,3.14-3.544,1.5-4.109.42S930.209,1016.72,932.66,1015.43Z"/>
  <path id="_39" data-name="39" class="cls-4" d="M809.877,905.849a9.511,9.511,0,1,1-9.963,9.5A9.74,9.74,0,0,1,809.877,905.849Z"/>
  <path id="_39-2" data-name="39" class="cls-5" d="M805.689,908.745c0.632,1.2,1.472,2.968-.315,3.911a2.173,2.173,0,0,1-3.176-.8c-0.914-1.732.573-2.752,1.273-3.121l0.029,0.009-1.332-2.524c-4.09,2.157-2.617,5.619-1.965,6.853a4.7,4.7,0,0,0,6.57,2.233,3.306,3.306,0,0,0,2-3.575l0.037-.02a3.034,3.034,0,0,0,3.313.254c2.763-1.458,2.432-4.227,1.509-5.977-1.555-2.947-4.034-3.406-6.484-2.113l1.263,2.395c0.461-.243,2.137-1.128,3.07.641a1.777,1.777,0,0,1-.811,2.524c-1.695.894-2.517-.486-2.925-1.259l-0.214-.406ZM813.7,916.6c1.879-.991,2.843.031,3.192,0.694,0.7,1.327.119,2.457-1.373,3.245a2.2,2.2,0,0,1-3.193-.741C811.808,918.825,811.726,917.644,813.7,916.6Zm-6.954.7c-1.965,1.319-2.408,3.6-1.232,5.831,1.244,2.358,4.147,3.888,9.212,1.215,1.843-.972,6.686-3.621,4.3-8.153-1.351-2.56-3.845-3.671-7.05-1.98a4.378,4.378,0,0,0-2,6.119,3.2,3.2,0,0,0,2.417,1.9l-0.017.057c-2.754,1.43-4.221.837-4.785-.231a1.578,1.578,0,0,1,.493-2.191l0.018-.01Z"/>
  <path id="_38-2" data-name="38-2" class="cls-4" d="M747.877,961.849a9.511,9.511,0,1,1-9.963,9.5A9.74,9.74,0,0,1,747.877,961.849Z"/>
  <path id="_38" data-name="38" class="cls-5" d="M744.03,964.814c0.631,1.2,1.471,2.967-.316,3.91a2.172,2.172,0,0,1-3.175-.8c-0.914-1.732.573-2.752,1.273-3.121l0.028,0.009-1.331-2.524c-4.09,2.158-2.617,5.619-1.966,6.853a4.7,4.7,0,0,0,6.571,2.233,3.306,3.306,0,0,0,2-3.575l0.036-.019a3.035,3.035,0,0,0,3.313.253c2.764-1.457,2.433-4.227,1.51-5.977-1.555-2.947-4.034-3.406-6.484-2.113l1.263,2.395c0.461-.243,2.137-1.127,3.07.641a1.777,1.777,0,0,1-.811,2.524c-1.695.894-2.517-.485-2.925-1.259l-0.214-.4Zm8.091,10.381a1.82,1.82,0,0,1,.737-2.531,1.766,1.766,0,0,1,2.554.913A1.835,1.835,0,0,1,752.121,975.2Zm-1.506,6.564a3.518,3.518,0,0,0,2.12-3.614,3.162,3.162,0,0,0,3.431.12c1.806-.952,2.65-3.235,1.222-5.942-1.206-2.285-3.493-3.362-5.722-2.186a3.007,3.007,0,0,0-1.725,2.935,3.744,3.744,0,0,0-4.365-.24c-1.787.943-3.367,3.26-1.589,6.631A4.736,4.736,0,0,0,750.615,981.759Zm-1.51-2.594a2.15,2.15,0,0,1-3.045-.772,2.106,2.106,0,0,1,1.081-3,2.049,2.049,0,0,1,3,.773A2.111,2.111,0,0,1,749.105,979.165Z"/>
  <path id="_54" data-name="54" class="cls-4" d="M922.877,1121.85a9.511,9.511,0,1,1-9.963,9.5A9.738,9.738,0,0,1,922.877,1121.85Z"/>
  <path id="_54-2" data-name="54" class="cls-5" d="M923.362,1122.39l2.809,5.33,2.173-1.15-3.79-7.18-7.661,2.89,1.105,2.36a2.052,2.052,0,0,1,1.853,1.23c0.719,1.37-.168,2.54-1.329,3.15-1.4.74-2.829,0.58-3.48-.66a1.961,1.961,0,0,1,.825-2.76l-1.361-2.58a4.507,4.507,0,0,0-1.605,6.28,5,5,0,0,0,7.205,2.28,4.457,4.457,0,0,0,2.129-6.19,4.1,4.1,0,0,0-1.953-1.96Zm-1.05,12.03,7.349,0.32,0.019,0.03c-0.4.22-2.479,1.24-5.648,2.91Zm3.849,7.3-0.768-1.46,8.179-4.32-1.545-2.92-10.5-.61-2.229,1.17,2.721,5.16-2.892,1.53,1.361,2.58,2.892-1.53,0.768,1.45Z"/>
  <path id="_55" data-name="55" class="cls-4" d="M844.877,1152.85a9.511,9.511,0,1,1-9.963,9.5A9.738,9.738,0,0,1,844.877,1152.85Z"/>
  <path id="_55-2" data-name="55" class="cls-5" d="M845.375,1152.79l2.808,5.33,2.174-1.15-3.79-7.19-7.661,2.89,1.1,2.36a2.055,2.055,0,0,1,1.853,1.24c0.72,1.36-.168,2.54-1.328,3.15-1.4.74-2.829,0.57-3.481-.66a1.975,1.975,0,0,1,.825-2.77l-1.36-2.58a4.519,4.519,0,0,0-1.606,6.29,4.99,4.99,0,0,0,7.205,2.27,4.444,4.444,0,0,0,2.129-6.18,4.049,4.049,0,0,0-1.952-1.96Zm5.4,10.25,2.809,5.32,2.173-1.15-3.79-7.18-7.661,2.89,1.1,2.36a2.052,2.052,0,0,1,1.854,1.23c0.719,1.37-.169,2.54-1.329,3.15-1.4.74-2.829,0.58-3.481-.66a1.962,1.962,0,0,1,.825-2.76l-1.361-2.58a4.516,4.516,0,0,0-1.6,6.29c2.031,3.85,5.418,3.21,7.205,2.27a4.454,4.454,0,0,0,2.128-6.19,4.1,4.1,0,0,0-1.952-1.96Z"/>
  <path id="_56" data-name="56" class="cls-4" d="M766.436,1155.35a7.353,7.353,0,1,1-7.7,7.35A7.532,7.532,0,0,1,766.436,1155.35Z"/>
  <path id="_56-2" data-name="56" class="cls-5" d="M766.712,1155.05l2.172,4.11,1.68-.88-2.93-5.56-5.922,2.24,0.854,1.82a1.593,1.593,0,0,1,1.432.96,1.776,1.776,0,0,1-1.027,2.43c-1.082.57-2.187,0.44-2.69-.51a1.524,1.524,0,0,1,.637-2.14l-1.051-1.99a3.488,3.488,0,0,0-1.241,4.86,3.867,3.867,0,0,0,5.569,1.76,3.449,3.449,0,0,0,1.646-4.79,3.115,3.115,0,0,0-1.509-1.51Zm5.773,12.66a3.077,3.077,0,0,0,1.413-1.94,4.006,4.006,0,0,0-.435-2.41c-1.848-3.51-5.358-1.98-7.281-.97-2.52,1.33-4.768,3.28-3.152,6.34,1.029,1.96,3.224,2.53,5.431,1.36a3.374,3.374,0,0,0,1.488-4.73,2.374,2.374,0,0,0-1.839-1.45l0.013-.05c1.348-.62,2.987-1.1,3.67.2a1.175,1.175,0,0,1-.352,1.68Zm-5.247.48c-1.367.72-2.275,0.34-2.659-.38a1.877,1.877,0,0,1,1.046-2.57,1.712,1.712,0,0,1,2.541.6A1.679,1.679,0,0,1,767.238,1168.19Z"/>
  <path id="_38_copia" data-name="38 copia" class="cls-4" d="M658.877,996.849a9.511,9.511,0,1,1-9.963,9.5A9.739,9.739,0,0,1,658.877,996.849Z"/>
  <path id="_38_copia_2" data-name="38 copia 2" class="cls-5" d="M654.843,1000.25c0.631,1.2,1.471,2.97-.316,3.91a2.166,2.166,0,0,1-3.175-.8c-0.914-1.73.573-2.75,1.273-3.12l0.028,0.01-1.331-2.522c-4.09,2.158-2.617,5.622-1.966,6.852a4.691,4.691,0,0,0,6.571,2.23,3.3,3.3,0,0,0,2-3.57l0.036-.02a3.039,3.039,0,0,0,3.313.25c2.764-1.45,2.433-4.224,1.51-5.974-1.555-2.947-4.034-3.4-6.484-2.113l1.263,2.395c0.461-.243,2.137-1.127,3.07.641a1.773,1.773,0,0,1-.811,2.521c-1.695.9-2.517-.48-2.925-1.256l-0.214-.406Zm8.091,10.38a1.821,1.821,0,0,1,.737-2.53,1.77,1.77,0,0,1,2.554.91A1.835,1.835,0,0,1,662.934,1010.63Zm-1.506,6.57a3.532,3.532,0,0,0,2.12-3.62,3.144,3.144,0,0,0,3.431.12c1.806-.95,2.65-3.23,1.222-5.94-1.206-2.28-3.493-3.36-5.722-2.19a3.025,3.025,0,0,0-1.725,2.94,3.749,3.749,0,0,0-4.365-.24c-1.787.94-3.367,3.26-1.589,6.63A4.744,4.744,0,0,0,661.428,1017.2Zm-1.51-2.6a2.15,2.15,0,0,1-3.045-.77,2.112,2.112,0,0,1,1.081-3,2.055,2.055,0,0,1,3,.78A2.106,2.106,0,0,1,659.918,1014.6Z"/>
  <path id="_31" data-name="31" class="cls-4" d="M415.877,787.849a9.511,9.511,0,1,1-9.963,9.5A9.74,9.74,0,0,1,415.877,787.849Z"/>
  <path id="_31-2" data-name="31" class="cls-5" d="M411.622,791.363c0.632,1.2,1.472,2.968-.315,3.91a2.173,2.173,0,0,1-3.176-.8c-0.914-1.731.574-2.751,1.274-3.121l0.028,0.009L408.1,788.84c-4.089,2.158-2.616,5.62-1.965,6.854a4.7,4.7,0,0,0,6.57,2.232,3.3,3.3,0,0,0,2-3.574l0.037-.02a3.034,3.034,0,0,0,3.313.254c2.763-1.458,2.433-4.227,1.509-5.977-1.555-2.948-4.034-3.406-6.484-2.113l1.264,2.394c0.46-.243,2.136-1.127,3.069.641a1.776,1.776,0,0,1-.811,2.524c-1.695.9-2.517-.485-2.925-1.259l-0.214-.405Zm7.285,5.862,1.642,3.113-9.008,4.753,1.361,2.579,13.079-6.9-1.118-2.118c-1,.46-2.645.477-3.957-2.01l-0.194-.368Z"/>
  <path id="_30" data-name="30" class="cls-4" d="M490.877,751.849a9.511,9.511,0,1,1-9.963,9.5A9.74,9.74,0,0,1,490.877,751.849Z"/>
  <path id="_30-2" data-name="30" class="cls-5" d="M485.561,754.73c0.631,1.2,1.471,2.968-.316,3.911a2.174,2.174,0,0,1-3.176-.8c-0.913-1.732.574-2.752,1.274-3.121l0.028,0.009-1.331-2.524c-4.09,2.157-2.617,5.619-1.966,6.853a4.7,4.7,0,0,0,6.571,2.233,3.3,3.3,0,0,0,2-3.575l0.037-.02a3.035,3.035,0,0,0,3.313.254c2.764-1.458,2.433-4.227,1.51-5.977-1.555-2.947-4.034-3.406-6.484-2.113l1.263,2.395c0.461-.243,2.137-1.128,3.07.641a1.778,1.778,0,0,1-.811,2.524c-1.695.894-2.517-.486-2.925-1.259l-0.214-.406Zm4.29,6.571c-4.587,2.42-5.956,5-4.333,8.079s4.528,3.4,9.115.984,5.938-4.993,4.315-8.069S494.438,758.881,489.851,761.3Zm1.4,2.652c3.371-1.778,4.856-2.044,5.633-.57s-0.279,2.55-3.65,4.328-4.875,2.054-5.652.58S487.88,765.732,491.251,763.953Z"/>
  <path id="_29" data-name="29" class="cls-4" d="M559.877,712.849a9.511,9.511,0,1,1-9.963,9.5A9.74,9.74,0,0,1,559.877,712.849Z"/>
  <path id="_29-2" data-name="29" class="cls-5" d="M557.559,713.938c0.967-.487,2.489-1.219,3.441.587a2,2,0,0,1-.908,2.787c-1.474.777-2.633,0.188-5.59-1.267-3.56-1.748-5.221-1.013-6.8-.3l4.713,8.934,2.285-1.205-2.994-5.674c0.764-.026,1.829.566,3.959,1.656,1.536,0.814,3.446,1.667,5.694.481,2.652-1.4,3.076-4.166,1.755-6.672-0.613-1.16-2.624-4.079-6.879-1.834Zm5.7,10.09c1.879-.992,2.843.031,3.193,0.694,0.7,1.326.118,2.457-1.374,3.244a2.2,2.2,0,0,1-3.193-.741C561.369,726.249,561.287,725.068,563.258,724.028Zm-6.953.7c-1.965,1.319-2.409,3.6-1.233,5.831,1.244,2.359,4.147,3.888,9.213,1.216,1.842-.972,6.685-3.622,4.294-8.153-1.351-2.561-3.844-3.671-7.05-1.98a4.378,4.378,0,0,0-2,6.118,3.2,3.2,0,0,0,2.418,1.9l-0.018.056c-2.754,1.43-4.221.838-4.784-.231a1.578,1.578,0,0,1,.492-2.191l0.019-.009Z"/>
  <path id="_28" data-name="28" class="cls-4" d="M631.877,676.849a9.511,9.511,0,1,1-9.963,9.5A9.74,9.74,0,0,1,631.877,676.849Z"/>
  <path id="_28-2" data-name="28" class="cls-5" d="M629.35,677.866c0.968-.487,2.489-1.219,3.441.586a2,2,0,0,1-.907,2.787c-1.474.778-2.633,0.188-5.59-1.266-3.56-1.748-5.221-1.013-6.8-.3l4.714,8.935,2.284-1.206L623.5,681.73c0.763-.026,1.829.565,3.958,1.655,1.537,0.815,3.447,1.668,5.694.482,2.653-1.4,3.077-4.167,1.755-6.672-0.612-1.161-2.623-4.08-6.879-1.834Zm5.783,12.612a1.82,1.82,0,0,1,.737-2.531,1.767,1.767,0,0,1,2.554.913A1.835,1.835,0,0,1,635.133,690.478Zm-1.506,6.564a3.518,3.518,0,0,0,2.12-3.614,3.162,3.162,0,0,0,3.431.12c1.806-.952,2.65-3.234,1.222-5.943-1.206-2.284-3.493-3.361-5.722-2.185a3.007,3.007,0,0,0-1.725,2.935,3.742,3.742,0,0,0-4.365-.24c-1.787.943-3.367,3.26-1.589,6.631A4.736,4.736,0,0,0,633.627,697.042Zm-1.51-2.594a2.15,2.15,0,0,1-3.045-.772,2.106,2.106,0,0,1,1.081-3,2.049,2.049,0,0,1,3,.773A2.111,2.111,0,0,1,632.117,694.448Z"/>
  <path id="_27" data-name="27" class="cls-4" d="M697.877,652.849a9.511,9.511,0,1,1-9.963,9.5A9.74,9.74,0,0,1,697.877,652.849Z"/>
  <path id="_27-2" data-name="27" class="cls-5" d="M695.674,654.366c0.968-.487,2.489-1.219,3.441.587a2,2,0,0,1-.908,2.787c-1.473.777-2.632,0.188-5.589-1.267-3.56-1.748-5.221-1.013-6.8-.3l4.714,8.934,2.284-1.205-2.993-5.674c0.763-.026,1.829.566,3.958,1.656,1.537,0.814,3.447,1.667,5.694.481,2.653-1.4,3.077-4.166,1.755-6.672-0.612-1.16-2.623-4.079-6.879-1.834Zm13.287,14.517-4.859-9.21-2.313,1.149,3.43,6.5c-1.762-.483-7.655-1.566-13.033.918l1.4,2.653a20.173,20.173,0,0,1,13.386-.963Z"/>
  <path id="_26" data-name="26" class="cls-4" d="M754.877,624.849a9.511,9.511,0,1,1-9.963,9.5A9.74,9.74,0,0,1,754.877,624.849Z"/>
  <path id="_26-2" data-name="26" class="cls-5" d="M753.084,625.56c0.968-.487,2.489-1.219,3.441.586a2,2,0,0,1-.908,2.787c-1.474.778-2.632,0.188-5.59-1.266-3.56-1.748-5.221-1.013-6.8-.3l4.713,8.935,2.285-1.205-2.994-5.674c0.764-.026,1.83.565,3.959,1.656,1.536,0.814,3.446,1.667,5.694.481,2.653-1.4,3.077-4.167,1.755-6.672-0.613-1.161-2.624-4.08-6.879-1.834Zm9.978,15.744a4.008,4.008,0,0,0,1.827-2.518,5.187,5.187,0,0,0-.561-3.118c-2.391-4.532-6.932-2.56-9.419-1.248-3.261,1.721-6.168,4.244-4.079,8.2,1.332,2.524,4.171,3.263,7.026,1.757a4.373,4.373,0,0,0,1.925-6.126,3.1,3.1,0,0,0-2.379-1.877l0.017-.056c1.744-.8,3.864-1.426,4.748.25a1.517,1.517,0,0,1-.455,2.172Zm-6.787.614c-1.769.933-2.944,0.447-3.44-.493-0.651-1.234-.065-2.579,1.353-3.327,1.64-.866,2.772-0.191,3.287.785A2.167,2.167,0,0,1,756.275,641.918Z"/>
  <path id="_25" data-name="25" class="cls-4" d="M821.877,577.849a9.511,9.511,0,1,1-9.963,9.5A9.74,9.74,0,0,1,821.877,577.849Z"/>
  <path id="_25-2" data-name="25" class="cls-5" d="M820.307,578.847c0.968-.487,2.489-1.219,3.442.587a2,2,0,0,1-.908,2.787c-1.474.777-2.633,0.187-5.59-1.267-3.56-1.748-5.221-1.013-6.8-.3l4.714,8.934,2.284-1.205-2.993-5.674c0.763-.026,1.829.566,3.958,1.656,1.537,0.814,3.447,1.667,5.694.481,2.653-1.4,3.077-4.167,1.755-6.672-0.612-1.16-2.623-4.079-6.879-1.834Zm7.916,9.6,2.809,5.324,2.174-1.147-3.791-7.184-7.66,2.888,1.1,2.361a2.056,2.056,0,0,1,1.853,1.236c0.719,1.363-.168,2.537-1.329,3.15-1.4.739-2.829,0.574-3.48-.66a1.97,1.97,0,0,1,.825-2.767l-1.361-2.579a4.514,4.514,0,0,0-1.605,6.287,5,5,0,0,0,7.205,2.274,4.451,4.451,0,0,0,2.129-6.186,4.06,4.06,0,0,0-1.953-1.96Z"/>
  <path id="_24" data-name="24" class="cls-4" d="M892.877,539.849a9.511,9.511,0,1,1-9.963,9.5A9.74,9.74,0,0,1,892.877,539.849Z"/>
  <path id="_24-2" data-name="24" class="cls-5" d="M890.8,540.326c0.968-.487,2.489-1.219,3.442.586a2,2,0,0,1-.909,2.787c-1.473.777-2.632,0.188-5.589-1.266-3.56-1.749-5.221-1.013-6.8-.3l4.714,8.934,2.284-1.2-2.993-5.674c0.763-.026,1.829.566,3.958,1.656,1.536,0.815,3.446,1.667,5.694.482,2.653-1.4,3.077-4.167,1.755-6.672-0.612-1.161-2.623-4.08-6.879-1.835Zm1.461,11.384,7.349,0.314,0.019,0.037c-0.4.214-2.479,1.237-5.648,2.909ZM896.107,559l-0.768-1.455,8.179-4.315-1.545-2.929-10.5-.61-2.229,1.176,2.722,5.159-2.893,1.525,1.361,2.579,2.892-1.525,0.768,1.455Z"/>
  <path id="_23" data-name="23" class="cls-4" d="M963.877,502.849a9.511,9.511,0,1,1-9.963,9.5A9.74,9.74,0,0,1,963.877,502.849Z"/>
  <path id="_23-2" data-name="23" class="cls-5" d="M962.877,504.669c0.968-.487,2.489-1.219,3.441.587a2,2,0,0,1-.908,2.786c-1.474.778-2.632,0.188-5.59-1.266-3.559-1.748-5.221-1.013-6.8-.3l4.714,8.934,2.284-1.205-2.994-5.674c0.764-.026,1.83.566,3.959,1.656,1.537,0.814,3.446,1.667,5.694.481,2.653-1.4,3.077-4.166,1.755-6.672-0.612-1.16-2.623-4.079-6.879-1.834Zm3.1,12.476c0.631,1.2,1.471,2.968-.316,3.91a2.172,2.172,0,0,1-3.175-.8c-0.914-1.731.573-2.751,1.273-3.121l0.028,0.009-1.331-2.524c-4.09,2.158-2.617,5.619-1.966,6.854a4.7,4.7,0,0,0,6.571,2.232,3.306,3.306,0,0,0,2-3.575l0.036-.019a3.038,3.038,0,0,0,3.314.254c2.763-1.458,2.432-4.228,1.509-5.978-1.555-2.947-4.034-3.4-6.484-2.113l1.263,2.395c0.461-.243,2.137-1.127,3.07.641a1.777,1.777,0,0,1-.811,2.524c-1.7.894-2.517-.485-2.925-1.259l-0.214-.4Z"/>
  <path id="_67" data-name="67" class="cls-5" d="M1656.97,1097.65a3.173,3.173,0,0,0-1.1-2.23,4.088,4.088,0,0,0-2.41-.77c-4.1,0-4.4,3.95-4.4,6.2,0,2.95.7,5.95,4.28,5.95,2.28,0,3.87-1.73,3.87-4.32a3.506,3.506,0,0,0-3.62-3.65,2.476,2.476,0,0,0-2.22.99l-0.03-.04c0.08-1.53.43-3.26,1.95-3.26a1.213,1.213,0,0,1,1.37,1.13h2.31Zm-2.1,5.03c0,1.6-.78,2.25-1.63,2.25a1.943,1.943,0,0,1-1.85-2.2,1.77,1.77,0,0,1,1.78-2.03A1.729,1.729,0,0,1,1654.87,1102.68Zm11.74-7.83h-8.34l-0.05,2.07h5.89a16.428,16.428,0,0,0-4.22,9.56h2.4a16.06,16.06,0,0,1,4.32-9.83v-1.8Z"/>
</svg>